<svg xmlns="http://www.w3.org/2000/svg" viewBox="0 0 59.13 59.16"><defs><style>.cls-1{fill:#606060;}.cls-2{fill:#fff;}</style></defs><title>Recurso 1</title><g id="Capa_2" data-name="Capa 2"><g id="Capa_1-2" data-name="Capa 1"><path class="cls-1" d="M59.13,29.93c0,16-13.37,29.23-29.55,29.23C12.84,59.16,0,45.93,0,28.67,0,13.18,13.61,0,29.6,0A29.58,29.58,0,0,1,59.13,29.93ZM49.79,45.68c8.31-9.19,7.33-25.43-1.93-34.45a25.77,25.77,0,0,0-36.55,0,25.61,25.61,0,0,0-2,34.49,17.87,17.87,0,0,1,12-7.68,54.09,54.09,0,0,1,9.82-.88C38.45,37.27,45.15,39.15,49.79,45.68Z"/><path class="cls-2" d="M49.79,45.68c-4.64-6.53-11.34-8.41-18.68-8.54a54.09,54.09,0,0,0-9.82.88,17.87,17.87,0,0,0-12,7.68,25.61,25.61,0,0,1,2-34.49,25.77,25.77,0,0,1,36.55,0C57.12,20.25,58.1,36.49,49.79,45.68ZM29.57,33.24a11.05,11.05,0,1,0-11-11.06A11,11,0,0,0,29.57,33.24Z"/><path class="cls-1" d="M29.57,33.24a11.05,11.05,0,1,1,11.06-11A11.1,11.1,0,0,1,29.57,33.24Z"/></g></g></svg>