<svg id="Capa_1" data-name="Capa 1" xmlns="http://www.w3.org/2000/svg" viewBox="0 0 59.13 59.16"><defs><style>.cls-1{fill:#fff;}</style></defs><title>avatar-blanco</title><g id="Capa_1-2" data-name="Capa 1-2"><path class="cls-1" d="M59.13,29.93c0,16-13.37,29.23-29.55,29.23C12.84,59.16,0,45.93,0,28.67,0,13.18,13.61,0,29.6,0A29.58,29.58,0,0,1,59.13,29.63ZM49.79,45.68c8.31-9.19,7.33-25.43-1.93-34.45a25.77,25.77,0,0,0-36.44-.11l-.11.11a25.6,25.6,0,0,0-2,34.49,17.89,17.89,0,0,1,12-7.68,53.93,53.93,0,0,1,9.82-.88C38.45,37.27,45.15,39.15,49.79,45.68Z"/><path class="cls-1" d="M29.57,33.24a11.05,11.05,0,1,1,11.06-11v0A11.09,11.09,0,0,1,29.57,33.24Z"/></g></svg>