<svg xmlns="http://www.w3.org/2000/svg" viewBox="0 0 160.94 135.07"><defs><style>.cls-1{fill:#fc5151;}</style></defs><title>cama-ro-grande</title><g id="Capa_2" data-name="Capa 2"><g id="Capa_1-2" data-name="Capa 1"><path class="cls-1" d="M157.67,77.54C143.05,62.08,137,43.75,138,22.51c.6-13-4.05-18.56-16.32-22.51H39.36c-12,3.37-17.45,9.11-16.21,21.35,1.78,17.54-5.38,32.14-12,47.21C8.55,74.62.39,76.51,0,84.07q.14,25.5.3,51H7.76c-1.91-22.44-1.91-22.44,19.79-22.44,38.41,0,76.8.3,115.2-.22,9.15-.12,12.36,2.68,11.06,11.52-.52,3.66-.39,7.43-.56,11.14h7.48q.08-24.5.2-49A11.85,11.85,0,0,0,157.67,77.54ZM32.07,16.1C32.58,11,36.79,8,42,8c25.45-.15,50.89-.3,76.32,0,8.85.14,11.21,4.78,11.23,20.53a28.49,28.49,0,0,1,.19,5.36H110.36a26.74,26.74,0,0,1-.15-3.62c.23-13.87-3.16-17-16.92-17-8.68-.05-17.38-.09-26.06,0C55.8,13.38,52.5,16.81,52.3,28.45a13.9,13.9,0,0,1-1.15,5.42H31.62C30.48,28,31.51,22,32.07,16.1Zm121.48,85.68c-1.22,3.07-3.58,3.07-6.05,3.07q-67.09,0-134.17.06c-4.35,0-5.79-1.86-6.15-6.13-1.35-16.14,2-20.06,18.31-20.06h55c19.27,0,38.52-.06,57.77,0C151.36,78.78,158.35,89.5,153.55,101.78Z"/></g></g></svg>