<svg xmlns="http://www.w3.org/2000/svg" viewBox="0 0 638.21 763.14"><title>download</title><g id="Capa_2" data-name="Capa 2"><g id="Capa_1-2" data-name="Capa 1"><path d="M84.79,678.28H553.44v-6.42q0-60,0-120c0-27.11,21.62-46.07,48.54-42.83,19.66,2.37,35.86,20.15,36,41.06.31,50.33,0,100.65,0,151,0,8,.76,16-.34,23.85-3.42,24.18-20.55,38.19-45.75,38.19q-112.23,0-224.47,0-160.39,0-320.8,0c-15.29,0-28.4-4.73-37.93-17.25A41.77,41.77,0,0,1,.15,720.28C0,664-.12,607.65.18,551.35c.14-26.9,22.14-45.61,48.68-42.33,20.37,2.52,35.89,20.83,35.92,42.6q.09,58.5,0,117Z"/><path d="M286.13,387.59V348.28q-.08-145.23-.1-290.46c0-8.94-.21-18.11,1.62-26.76C291.08,14.92,306.36,2.17,322.41.3c17.35-2,35,6.21,42.49,21.1a46.82,46.82,0,0,1,5.21,20c.33,79.65.17,159.3.16,238.94q0,51,0,102v5.3c7.37-7.36,13.74-13.75,20.15-20.11q29.39-29.14,58.78-58.28c8.26-8.2,16.35-16.58,24.76-24.62,19-18.17,49.93-14,63.84,8.48,10.92,17.64,8.18,38.63-6.59,53.32-23.53,23.42-46.86,47.05-70.32,70.53q-27.8,27.81-55.69,55.51c-15.27,15.24-30.71,30.31-45.71,45.81-17.71,18.3-45.06,17.77-62.41.42q-72-72-144-144c-9.64-9.65-18.85-19.73-28.78-29.06-16-15-16.29-42.92-1.75-58.32,16.59-17.58,42-19.15,59.49-3.07,11.52,10.57,22.22,22,33.28,33.07l67.4,67.36C283.48,385.35,284.25,385.94,286.13,387.59Z"/></g></g></svg>