<svg xmlns="http://www.w3.org/2000/svg" viewBox="0 0 804 563.77"><defs><style>.cls-1{fill:#09f;}.cls-2{font-size:86.47px;font-family:Calibri;}.cls-2,.cls-3{fill:#fff;}</style></defs><title>imago-blanco</title><g id="Capa_2" data-name="Capa 2"><g id="Capa_1-2" data-name="Capa 1"><rect class="cls-1" width="804" height="563.77"/><text class="cls-2" transform="translate(418.07 251.66) scale(1.06 1)">asignar</text><path class="cls-3" d="M431.84,316.41a5.29,5.29,0,0,1-.52,2.4,5.23,5.23,0,0,1-1.46,1.78,6.31,6.31,0,0,1-2.18,1.1,9.44,9.44,0,0,1-2.71.37,10.17,10.17,0,0,1-1.89-.16,10.73,10.73,0,0,1-1.54-.4,7.05,7.05,0,0,1-1.14-.49,3,3,0,0,1-.64-.43,1.13,1.13,0,0,1-.27-.45,2.45,2.45,0,0,1-.08-.73,4,4,0,0,1,0-.54,1.26,1.26,0,0,1,.09-.35.32.32,0,0,1,.16-.18.38.38,0,0,1,.22-.06,1.31,1.31,0,0,1,.61.26,10.38,10.38,0,0,0,1,.54,9.35,9.35,0,0,0,1.5.56,7.38,7.38,0,0,0,2,.26,5.38,5.38,0,0,0,1.6-.23,3.66,3.66,0,0,0,1.25-.62,2.89,2.89,0,0,0,.81-1,3.26,3.26,0,0,0,.28-1.35,2.44,2.44,0,0,0-.39-1.39,4,4,0,0,0-1-1,9.56,9.56,0,0,0-1.46-.8l-1.68-.74a17.54,17.54,0,0,1-1.68-.84,6.76,6.76,0,0,1-1.45-1.08,5.25,5.25,0,0,1-1-1.45,5.26,5.26,0,0,1,.07-4.14,4.28,4.28,0,0,1,1.28-1.58,5.75,5.75,0,0,1,2-1,8.67,8.67,0,0,1,2.44-.33,9,9,0,0,1,1.36.11,8.26,8.26,0,0,1,1.28.3,7.72,7.72,0,0,1,1.07.41,2.57,2.57,0,0,1,.61.37,1.14,1.14,0,0,1,.2.22,1,1,0,0,1,.08.21,2,2,0,0,1,0,.3,3,3,0,0,1,0,.46c0,.18,0,.34,0,.47a2.15,2.15,0,0,1-.07.35.41.41,0,0,1-.14.21.31.31,0,0,1-.19.06,1.2,1.2,0,0,1-.54-.2c-.24-.14-.54-.3-.9-.47a7.8,7.8,0,0,0-1.26-.47,5.84,5.84,0,0,0-1.63-.22,4.64,4.64,0,0,0-1.47.22,3,3,0,0,0-1,.57,2.39,2.39,0,0,0-.61.84,2.79,2.79,0,0,0-.2,1,2.37,2.37,0,0,0,.39,1.37,3.75,3.75,0,0,0,1,1,9.26,9.26,0,0,0,1.47.82l1.69.74c.57.25,1.14.53,1.69.83A7.27,7.27,0,0,1,430.4,313a4.75,4.75,0,0,1,1,1.45A4.44,4.44,0,0,1,431.84,316.41Z"/><path class="cls-3" d="M438.26,303.6a1.56,1.56,0,0,1-.34,1.17,2.73,2.73,0,0,1-2.51,0,2.18,2.18,0,0,1,0-2.32,2,2,0,0,1,1.26-.31,1.87,1.87,0,0,1,1.25.31A1.52,1.52,0,0,1,438.26,303.6Zm-.3,17.81a.34.34,0,0,1-.06.2.54.54,0,0,1-.2.14,1.41,1.41,0,0,1-.39.09,5.6,5.6,0,0,1-.64,0,5.53,5.53,0,0,1-.63,0,1.5,1.5,0,0,1-.39-.09.51.51,0,0,1-.21-.14.42.42,0,0,1-.05-.2V308.1a.38.38,0,0,1,.05-.19.44.44,0,0,1,.21-.15,1.5,1.5,0,0,1,.39-.09,5.53,5.53,0,0,1,.63,0,5.6,5.6,0,0,1,.64,0,1.41,1.41,0,0,1,.39.09.46.46,0,0,1,.2.15.31.31,0,0,1,.06.19Z"/><path class="cls-3" d="M451.56,317.79a4.12,4.12,0,0,1-.4,1.82A3.74,3.74,0,0,1,450,321a5.25,5.25,0,0,1-1.75.83,8.33,8.33,0,0,1-2.24.28,9.42,9.42,0,0,1-1.43-.11,8.83,8.83,0,0,1-1.22-.28,6.9,6.9,0,0,1-.91-.36,2.71,2.71,0,0,1-.55-.33,1,1,0,0,1-.25-.41,2.85,2.85,0,0,1-.07-.73,3.09,3.09,0,0,1,0-.47,1.61,1.61,0,0,1,.07-.31.35.35,0,0,1,.14-.17.3.3,0,0,1,.19-.05,1,1,0,0,1,.51.2c.22.13.5.27.83.43a7.25,7.25,0,0,0,1.16.44,5.6,5.6,0,0,0,1.55.2,4.86,4.86,0,0,0,1.19-.14,2.64,2.64,0,0,0,.92-.39,1.73,1.73,0,0,0,.6-.66A2,2,0,0,0,449,318a1.5,1.5,0,0,0-.3-1,3.25,3.25,0,0,0-.81-.68,6.44,6.44,0,0,0-1.12-.52l-1.29-.48a13.81,13.81,0,0,1-1.3-.57,5.39,5.39,0,0,1-1.13-.78,3.65,3.65,0,0,1-.81-1.09,3.6,3.6,0,0,1-.3-1.53,3.71,3.71,0,0,1,.32-1.5,3.42,3.42,0,0,1,1-1.26,4.78,4.78,0,0,1,1.6-.86,6.91,6.91,0,0,1,2.24-.33,7.17,7.17,0,0,1,1.13.09,8,8,0,0,1,1,.22,5.64,5.64,0,0,1,.78.29,4.34,4.34,0,0,1,.48.27.89.89,0,0,1,.22.21.7.7,0,0,1,.08.2c0,.08,0,.17.05.28s0,.24,0,.39,0,.32,0,.44a1.41,1.41,0,0,1-.08.3.35.35,0,0,1-.14.17.25.25,0,0,1-.17.06.88.88,0,0,1-.4-.17,7.45,7.45,0,0,0-.69-.34,7,7,0,0,0-1-.35,4.75,4.75,0,0,0-1.31-.16,4,4,0,0,0-1.15.14,2,2,0,0,0-.82.4,1.6,1.6,0,0,0-.49.61,1.8,1.8,0,0,0-.16.77,1.5,1.5,0,0,0,.31,1,3.08,3.08,0,0,0,.81.69,8.65,8.65,0,0,0,1.14.53c.43.15.86.32,1.31.49a13.57,13.57,0,0,1,1.31.56,5.07,5.07,0,0,1,1.15.75,3.41,3.41,0,0,1,.8,1.07A3.2,3.2,0,0,1,451.56,317.79Z"/><path class="cls-3" d="M462.2,320.43a2.89,2.89,0,0,1-.07.68.75.75,0,0,1-.18.37,1.31,1.31,0,0,1-.38.23,5.6,5.6,0,0,1-.57.17l-.68.11a5.79,5.79,0,0,1-.72,0,5.73,5.73,0,0,1-1.87-.27,3,3,0,0,1-1.28-.83,3.27,3.27,0,0,1-.73-1.41,7.8,7.8,0,0,1-.23-2v-7.78h-2a.42.42,0,0,1-.38-.24,1.59,1.59,0,0,1-.14-.77,2.17,2.17,0,0,1,0-.47,1.21,1.21,0,0,1,.1-.32.47.47,0,0,1,.16-.18.59.59,0,0,1,.23-.05h1.95v-3.16a.33.33,0,0,1,.06-.19.43.43,0,0,1,.2-.16,1.54,1.54,0,0,1,.4-.1,5.64,5.64,0,0,1,.62,0,6,6,0,0,1,.65,0,1.57,1.57,0,0,1,.39.1.56.56,0,0,1,.2.16.33.33,0,0,1,.06.19v3.16h3.61a.51.51,0,0,1,.22.05.47.47,0,0,1,.16.18,1.2,1.2,0,0,1,.11.32,3.18,3.18,0,0,1,0,.47,1.59,1.59,0,0,1-.14.77.43.43,0,0,1-.38.24h-3.61v7.43a4,4,0,0,0,.43,2.07A1.66,1.66,0,0,0,460,320a3.06,3.06,0,0,0,.64-.07l.5-.14.38-.14a.61.61,0,0,1,.28-.07.28.28,0,0,1,.15,0,.22.22,0,0,1,.1.14,2,2,0,0,1,.08.28A2.76,2.76,0,0,1,462.2,320.43Z"/><path class="cls-3" d="M477.26,314.18a1,1,0,0,1-.31.82,1.1,1.1,0,0,1-.7.24H467a7.67,7.67,0,0,0,.24,2,3.73,3.73,0,0,0,.78,1.52,3.58,3.58,0,0,0,1.43,1,6.14,6.14,0,0,0,2.15.34,8.75,8.75,0,0,0,1.79-.16,11.69,11.69,0,0,0,1.36-.34c.38-.13.7-.25.94-.35a1.51,1.51,0,0,1,.56-.16.46.46,0,0,1,.2.05.42.42,0,0,1,.13.16,1.37,1.37,0,0,1,.07.29,3,3,0,0,1,0,.45,3.22,3.22,0,0,1,0,.33c0,.1,0,.18,0,.25a.6.6,0,0,1-.08.2.75.75,0,0,1-.14.17,2,2,0,0,1-.51.27,8.16,8.16,0,0,1-1.09.36,14.65,14.65,0,0,1-1.56.32,12.29,12.29,0,0,1-1.88.14,9.08,9.08,0,0,1-3-.46,5.58,5.58,0,0,1-2.19-1.36,5.73,5.73,0,0,1-1.35-2.26,10.1,10.1,0,0,1-.45-3.17,9.53,9.53,0,0,1,.47-3.08,6.34,6.34,0,0,1,1.35-2.32,5.9,5.9,0,0,1,2.13-1.47,7.39,7.39,0,0,1,2.8-.51,7,7,0,0,1,2.82.51,5.16,5.16,0,0,1,1.91,1.35,5.44,5.44,0,0,1,1.11,2,8.42,8.42,0,0,1,.35,2.44Zm-2.6-.73a4.33,4.33,0,0,0-.9-3,3.57,3.57,0,0,0-2.82-1.09,3.85,3.85,0,0,0-1.68.34,3.58,3.58,0,0,0-1.21.9,4.06,4.06,0,0,0-.76,1.31,5.14,5.14,0,0,0-.3,1.56Z"/><path class="cls-3" d="M502,321.41a.34.34,0,0,1-.06.2.54.54,0,0,1-.2.14,1.61,1.61,0,0,1-.39.09,5.53,5.53,0,0,1-.63,0,5.6,5.6,0,0,1-.64,0,1.7,1.7,0,0,1-.4-.09.59.59,0,0,1-.21-.14.34.34,0,0,1-.06-.2v-8.09a6.68,6.68,0,0,0-.16-1.54,3.42,3.42,0,0,0-.5-1.2,2.38,2.38,0,0,0-.87-.77,2.84,2.84,0,0,0-1.25-.26,3,3,0,0,0-1.79.65,11.83,11.83,0,0,0-2,1.91v9.3a.34.34,0,0,1-.06.2.51.51,0,0,1-.21.14,1.59,1.59,0,0,1-.4.09,5.22,5.22,0,0,1-.62,0,5.46,5.46,0,0,1-.62,0,1.68,1.68,0,0,1-.41-.09.54.54,0,0,1-.2-.14.33.33,0,0,1-.05-.2v-8.09a6.14,6.14,0,0,0-.18-1.54,3.63,3.63,0,0,0-.51-1.2,2.38,2.38,0,0,0-.87-.77,2.8,2.8,0,0,0-1.24-.26,3.06,3.06,0,0,0-1.8.65,11.45,11.45,0,0,0-2,1.91v9.3a.34.34,0,0,1-.06.2.54.54,0,0,1-.2.14,1.41,1.41,0,0,1-.39.09,5.6,5.6,0,0,1-.64,0,5.53,5.53,0,0,1-.63,0,1.5,1.5,0,0,1-.39-.09.51.51,0,0,1-.21-.14.42.42,0,0,1-.05-.2V308.1a.4.4,0,0,1,0-.2.42.42,0,0,1,.19-.15,1.58,1.58,0,0,1,.36-.09l.58,0,.57,0a1.17,1.17,0,0,1,.35.09.45.45,0,0,1,.18.15.31.31,0,0,1,.05.2v1.76a9.06,9.06,0,0,1,2.31-1.84,4.82,4.82,0,0,1,2.26-.59,5.86,5.86,0,0,1,1.57.2,4.1,4.1,0,0,1,1.22.53,3.82,3.82,0,0,1,.91.83,4.41,4.41,0,0,1,.62,1.08,13.09,13.09,0,0,1,1.34-1.23A7.9,7.9,0,0,1,495,308a5.85,5.85,0,0,1,1.14-.45,4.71,4.71,0,0,1,1.12-.14,5.21,5.21,0,0,1,2.28.45,4.14,4.14,0,0,1,1.49,1.21,4.64,4.64,0,0,1,.81,1.77A9.15,9.15,0,0,1,502,313Z"/><path class="cls-3" d="M517.33,321.42a.3.3,0,0,1-.13.27.83.83,0,0,1-.34.13,3.36,3.36,0,0,1-.64.05,3.65,3.65,0,0,1-.65-.05.78.78,0,0,1-.35-.13.34.34,0,0,1-.11-.27v-1.33a6.85,6.85,0,0,1-2.05,1.45,5.67,5.67,0,0,1-2.4.52,7,7,0,0,1-2-.27,4.61,4.61,0,0,1-1.53-.79,3.54,3.54,0,0,1-1-1.28,3.9,3.9,0,0,1-.36-1.71,3.81,3.81,0,0,1,.49-1.95,3.76,3.76,0,0,1,1.39-1.38,7,7,0,0,1,2.22-.82,14.64,14.64,0,0,1,3-.28h1.94v-1a5.05,5.05,0,0,0-.17-1.36,2.26,2.26,0,0,0-.56-1,2.33,2.33,0,0,0-1-.6,5,5,0,0,0-1.5-.2,6.33,6.33,0,0,0-1.71.22,9.66,9.66,0,0,0-2.28.95,1.43,1.43,0,0,1-.57.21.38.38,0,0,1-.22-.06.59.59,0,0,1-.17-.18,1.05,1.05,0,0,1-.1-.3,2.54,2.54,0,0,1,0-.41,2.24,2.24,0,0,1,.06-.58.81.81,0,0,1,.26-.41,3.14,3.14,0,0,1,.73-.45,8,8,0,0,1,1.19-.47,12.48,12.48,0,0,1,1.46-.36,9.73,9.73,0,0,1,1.61-.14,8.79,8.79,0,0,1,2.58.33,4.14,4.14,0,0,1,1.72.95,3.66,3.66,0,0,1,.95,1.56,7.13,7.13,0,0,1,.3,2.18Zm-2.56-6.07h-2.21a8.35,8.35,0,0,0-1.84.17,4,4,0,0,0-1.3.5,2.11,2.11,0,0,0-.75.8,2.2,2.2,0,0,0-.25,1.07,2.11,2.11,0,0,0,.7,1.65,2.82,2.82,0,0,0,1.94.61,3.75,3.75,0,0,0,1.89-.49,7.91,7.91,0,0,0,1.82-1.49Z"/><path class="cls-3" d="M541.34,321.41a.46.46,0,0,1-.05.21.41.41,0,0,1-.19.14,2,2,0,0,1-.35.08,4.87,4.87,0,0,1-1.08,0,2,2,0,0,1-.36-.08.45.45,0,0,1-.2-.14.38.38,0,0,1-.07-.21v-1.76a9.22,9.22,0,0,1-2.3,1.77,5.43,5.43,0,0,1-2.62.64,5.66,5.66,0,0,1-2.64-.57,4.81,4.81,0,0,1-1.77-1.54,6.57,6.57,0,0,1-1-2.28,11.71,11.71,0,0,1-.31-2.75,11.38,11.38,0,0,1,.39-3.1,6.75,6.75,0,0,1,1.15-2.36,5.08,5.08,0,0,1,1.9-1.5,6.16,6.16,0,0,1,2.62-.53,5,5,0,0,1,2.25.51,7.92,7.92,0,0,1,2,1.5v-7.73a.46.46,0,0,1,0-.2.38.38,0,0,1,.21-.15l.4-.09a5.22,5.22,0,0,1,.62,0,5.6,5.6,0,0,1,.64,0l.39.09a.47.47,0,0,1,.21.15.31.31,0,0,1,.07.2Zm-2.59-9.36a9.49,9.49,0,0,0-2-1.87,3.64,3.64,0,0,0-2-.65A3,3,0,0,0,533,310a3.43,3.43,0,0,0-1.11,1.16,5.34,5.34,0,0,0-.63,1.65,8.9,8.9,0,0,0-.19,1.86,11.64,11.64,0,0,0,.16,2,5.55,5.55,0,0,0,.57,1.71,3.35,3.35,0,0,0,1.08,1.19,3,3,0,0,0,1.69.45,3.51,3.51,0,0,0,2-.57,7.08,7.08,0,0,0,1.05-.81,12.67,12.67,0,0,0,1.16-1.22Z"/><path class="cls-3" d="M558.1,314.18a1,1,0,0,1-.3.82,1.12,1.12,0,0,1-.7.24h-9.26a7.67,7.67,0,0,0,.24,2,3.61,3.61,0,0,0,.78,1.52,3.51,3.51,0,0,0,1.43,1,6.14,6.14,0,0,0,2.15.34,8.75,8.75,0,0,0,1.79-.16,12.23,12.23,0,0,0,1.36-.34c.38-.13.69-.25.94-.35a1.51,1.51,0,0,1,.56-.16.38.38,0,0,1,.19.05.44.44,0,0,1,.14.16,1.37,1.37,0,0,1,.07.29c0,.12,0,.27,0,.45a3.22,3.22,0,0,1,0,.33c0,.1,0,.18,0,.25a.93.93,0,0,1-.08.2,1.15,1.15,0,0,1-.14.17,2,2,0,0,1-.51.27,8.68,8.68,0,0,1-1.09.36,14.65,14.65,0,0,1-1.56.32,12.39,12.39,0,0,1-1.88.14,9,9,0,0,1-3-.46,5.52,5.52,0,0,1-3.54-3.62,10.1,10.1,0,0,1-.45-3.17,9.53,9.53,0,0,1,.47-3.08,6.34,6.34,0,0,1,1.35-2.32,5.9,5.9,0,0,1,2.13-1.47,7.35,7.35,0,0,1,2.8-.51,7,7,0,0,1,2.82.51,5.15,5.15,0,0,1,3,3.35,8.09,8.09,0,0,1,.35,2.44Zm-2.59-.73a4.33,4.33,0,0,0-.9-3,3.58,3.58,0,0,0-2.82-1.09,3.92,3.92,0,0,0-1.69.34,3.79,3.79,0,0,0-1.21.9,4.23,4.23,0,0,0-.75,1.31,5.14,5.14,0,0,0-.3,1.56Z"/><path class="cls-3" d="M579.85,321.42a.32.32,0,0,1-.12.27,1,1,0,0,1-.35.13,3.29,3.29,0,0,1-.64.05,3.73,3.73,0,0,1-.65-.05.83.83,0,0,1-.35-.13.34.34,0,0,1-.11-.27v-1.33a6.85,6.85,0,0,1-2,1.45,5.67,5.67,0,0,1-2.4.52,7,7,0,0,1-2-.27,4.61,4.61,0,0,1-1.53-.79,3.54,3.54,0,0,1-1-1.28,3.9,3.9,0,0,1-.35-1.71,3.67,3.67,0,0,1,1.87-3.33,7.14,7.14,0,0,1,2.22-.82,14.64,14.64,0,0,1,3-.28h1.94v-1a5.05,5.05,0,0,0-.17-1.36,2.26,2.26,0,0,0-.56-1,2.33,2.33,0,0,0-1-.6,4.91,4.91,0,0,0-1.5-.2,6.44,6.44,0,0,0-1.71.22,9.7,9.7,0,0,0-1.33.47,9.2,9.2,0,0,0-.95.48,1.43,1.43,0,0,1-.57.21.4.4,0,0,1-.22-.06.47.47,0,0,1-.16-.18.81.81,0,0,1-.1-.3,1.73,1.73,0,0,1,0-.41,2.24,2.24,0,0,1,.06-.58.81.81,0,0,1,.26-.41,3.65,3.65,0,0,1,.73-.45,8,8,0,0,1,1.19-.47,13.19,13.19,0,0,1,1.47-.36,9.54,9.54,0,0,1,1.61-.14,8.72,8.72,0,0,1,2.57.33,4.14,4.14,0,0,1,1.72.95,3.56,3.56,0,0,1,.95,1.56,7.13,7.13,0,0,1,.3,2.18Zm-2.56-6.07h-2.2a8.39,8.39,0,0,0-1.85.17,3.82,3.82,0,0,0-1.29.5,2.07,2.07,0,0,0-.76.8,2.31,2.31,0,0,0-.24,1.07,2.1,2.1,0,0,0,.69,1.65,2.85,2.85,0,0,0,2,.61,3.74,3.74,0,0,0,1.88-.49,7.91,7.91,0,0,0,1.82-1.49Z"/><path class="cls-3" d="M593.41,317.79a4,4,0,0,1-.4,1.82,3.64,3.64,0,0,1-1.13,1.34,5.16,5.16,0,0,1-1.75.83,8.25,8.25,0,0,1-2.23.28,9.32,9.32,0,0,1-1.43-.11,8.5,8.5,0,0,1-1.22-.28,6.39,6.39,0,0,1-.91-.36,2.45,2.45,0,0,1-.55-.33.82.82,0,0,1-.25-.41,2.78,2.78,0,0,1-.08-.73,3.09,3.09,0,0,1,0-.47,1.53,1.53,0,0,1,.08-.31.34.34,0,0,1,.13-.17.35.35,0,0,1,.2-.05,1.12,1.12,0,0,1,.51.2c.22.13.5.27.82.43a7.39,7.39,0,0,0,1.17.44,5.53,5.53,0,0,0,1.54.2,4.8,4.8,0,0,0,1.19-.14,2.56,2.56,0,0,0,.92-.39,1.84,1.84,0,0,0,.61-.66,2,2,0,0,0,.21-.94,1.5,1.5,0,0,0-.31-1,3,3,0,0,0-.8-.68,6.55,6.55,0,0,0-1.13-.52l-1.29-.48q-.66-.25-1.29-.57a5.74,5.74,0,0,1-1.14-.78,3.39,3.39,0,0,1-1.11-2.62,3.56,3.56,0,0,1,.33-1.5,3.42,3.42,0,0,1,1-1.26,4.69,4.69,0,0,1,1.6-.86,6.86,6.86,0,0,1,2.24-.33,7,7,0,0,1,1.12.09,7.84,7.84,0,0,1,1,.22,5.47,5.47,0,0,1,.77.29,3.81,3.81,0,0,1,.49.27.89.89,0,0,1,.22.21.68.68,0,0,1,.07.2,1.78,1.78,0,0,1,0,.28,2.24,2.24,0,0,1,0,.39,2.89,2.89,0,0,1,0,.44.77.77,0,0,1-.08.3.34.34,0,0,1-.13.17.27.27,0,0,1-.17.06.9.9,0,0,1-.41-.17,6.36,6.36,0,0,0-.69-.34,7,7,0,0,0-1-.35,4.67,4.67,0,0,0-1.3-.16,4.05,4.05,0,0,0-1.16.14,2.1,2.1,0,0,0-.82.4,1.67,1.67,0,0,0-.48.61,1.81,1.81,0,0,0-.17.77,1.56,1.56,0,0,0,.31,1,3,3,0,0,0,.82.69,7.59,7.59,0,0,0,1.14.53l1.3.49a13.73,13.73,0,0,1,1.32.56,4.79,4.79,0,0,1,1.14.75,3.44,3.44,0,0,1,.81,1.07A3.34,3.34,0,0,1,593.41,317.79Z"/><path class="cls-3" d="M600,303.6a1.56,1.56,0,0,1-.34,1.17,2.73,2.73,0,0,1-2.51,0,2.18,2.18,0,0,1,0-2.32,2,2,0,0,1,1.27-.31,1.85,1.85,0,0,1,1.24.31A1.52,1.52,0,0,1,600,303.6Zm-.29,17.81a.29.29,0,0,1-.07.2.54.54,0,0,1-.2.14,1.41,1.41,0,0,1-.39.09,5.6,5.6,0,0,1-.64,0,5.22,5.22,0,0,1-.62,0,1.59,1.59,0,0,1-.4-.09.51.51,0,0,1-.21-.14.42.42,0,0,1,0-.2V308.1a.38.38,0,0,1,0-.19.44.44,0,0,1,.21-.15,1.59,1.59,0,0,1,.4-.09,5.22,5.22,0,0,1,.62,0,5.6,5.6,0,0,1,.64,0,1.41,1.41,0,0,1,.39.09.46.46,0,0,1,.2.15.26.26,0,0,1,.07.19Z"/><path class="cls-3" d="M616.19,308.7a1.41,1.41,0,0,1-.15.75.44.44,0,0,1-.38.23h-2a3,3,0,0,1,.77,1.18,4.28,4.28,0,0,1,.22,1.34,5.08,5.08,0,0,1-.39,2,4.17,4.17,0,0,1-1.12,1.5,5.06,5.06,0,0,1-1.73.94,7.28,7.28,0,0,1-2.21.32,6.25,6.25,0,0,1-1.64-.21,3.79,3.79,0,0,1-1.19-.54,2.23,2.23,0,0,0-.46.6,1.67,1.67,0,0,0-.18.79,1,1,0,0,0,.5.86,2.64,2.64,0,0,0,1.36.37l3.67.14a7.59,7.59,0,0,1,1.92.28,4.77,4.77,0,0,1,1.51.69,3.08,3.08,0,0,1,1.36,2.64,3.94,3.94,0,0,1-.4,1.75,4,4,0,0,1-1.24,1.45,6.55,6.55,0,0,1-2.14,1,11.47,11.47,0,0,1-3.06.36,12.77,12.77,0,0,1-2.9-.28,6.64,6.64,0,0,1-2-.74,2.85,2.85,0,0,1-1.45-2.56,3.24,3.24,0,0,1,.51-1.82A3.89,3.89,0,0,1,604,321a8.58,8.58,0,0,1,.88-.75,2.67,2.67,0,0,1-1.13-.93,2.15,2.15,0,0,1-.37-1.21,3.35,3.35,0,0,1,.39-1.62,5.42,5.42,0,0,1,1-1.27A4.33,4.33,0,0,1,604,314a4.59,4.59,0,0,1-.28-1.67,4.92,4.92,0,0,1,.41-2,4.39,4.39,0,0,1,1.12-1.52,5.1,5.1,0,0,1,1.73-1,7,7,0,0,1,2.2-.33,9,9,0,0,1,1.19.07,7.75,7.75,0,0,1,1,.18h4.25a.42.42,0,0,1,.4.25A1.58,1.58,0,0,1,616.19,308.7Zm-2.73,14.06a1.47,1.47,0,0,0-.75-1.33,3.9,3.9,0,0,0-2-.49l-3.64-.12a5.58,5.58,0,0,0-.82.7,3.1,3.1,0,0,0-.51.64,2,2,0,0,0-.26.6,2.4,2.4,0,0,0-.07.6,1.57,1.57,0,0,0,1,1.46,6.82,6.82,0,0,0,2.88.49,7.78,7.78,0,0,0,2-.21,3.74,3.74,0,0,0,1.27-.57,2.09,2.09,0,0,0,.91-1.77Zm-1.3-10.55a2.79,2.79,0,0,0-.79-2.12,3.09,3.09,0,0,0-2.24-.76,3.3,3.3,0,0,0-1.31.23,2.69,2.69,0,0,0-.92.65,2.84,2.84,0,0,0-.54,1,3.52,3.52,0,0,0-.18,1.13,2.74,2.74,0,0,0,.78,2.07,3.11,3.11,0,0,0,2.22.75,3.32,3.32,0,0,0,1.32-.23,2.4,2.4,0,0,0,.93-.63,2.62,2.62,0,0,0,.55-.94A3.49,3.49,0,0,0,612.16,312.21Z"/><path class="cls-3" d="M631.61,321.41a.34.34,0,0,1-.06.2.59.59,0,0,1-.21.14,1.41,1.41,0,0,1-.39.09,5.22,5.22,0,0,1-.62,0,5.48,5.48,0,0,1-.64,0,1.41,1.41,0,0,1-.39-.09.59.59,0,0,1-.21-.14.34.34,0,0,1-.06-.2v-7.79a7.06,7.06,0,0,0-.19-1.84,3.66,3.66,0,0,0-.54-1.2,2.41,2.41,0,0,0-.93-.77,3.2,3.2,0,0,0-1.32-.26,3.41,3.41,0,0,0-1.94.65,10,10,0,0,0-2,1.91v9.3a.34.34,0,0,1-.06.2.51.51,0,0,1-.21.14,1.41,1.41,0,0,1-.39.09,5.48,5.48,0,0,1-.64,0,5.22,5.22,0,0,1-.62,0,1.59,1.59,0,0,1-.4-.09.41.41,0,0,1-.2-.14.34.34,0,0,1-.06-.2V308.1a.39.39,0,0,1,0-.2.34.34,0,0,1,.19-.15,1.34,1.34,0,0,1,.36-.09l.57,0,.57,0a1.17,1.17,0,0,1,.35.09.35.35,0,0,1,.18.15.32.32,0,0,1,.06.2v1.76A8.47,8.47,0,0,1,624.2,308a5.3,5.3,0,0,1,2.38-.59,5.6,5.6,0,0,1,2.37.45,4.28,4.28,0,0,1,1.55,1.21,4.56,4.56,0,0,1,.85,1.77,10,10,0,0,1,.26,2.43Z"/><path class="cls-3" d="M646.9,321.42a.32.32,0,0,1-.12.27.89.89,0,0,1-.34.13,3.41,3.41,0,0,1-.65.05,3.52,3.52,0,0,1-.64-.05.88.88,0,0,1-.36-.13.33.33,0,0,1-.1-.27v-1.33a6.89,6.89,0,0,1-2.06,1.45,5.6,5.6,0,0,1-2.4.52,6.91,6.91,0,0,1-2-.27,4.61,4.61,0,0,1-1.53-.79,3.56,3.56,0,0,1-1-1.28,4,4,0,0,1-.35-1.71,3.81,3.81,0,0,1,.48-1.95,3.91,3.91,0,0,1,1.39-1.38,7.24,7.24,0,0,1,2.22-.82,14.74,14.74,0,0,1,3-.28h1.93v-1a4.68,4.68,0,0,0-.17-1.36,2.24,2.24,0,0,0-.55-1,2.43,2.43,0,0,0-1-.6,4.91,4.91,0,0,0-1.5-.2,6.44,6.44,0,0,0-1.71.22,10.2,10.2,0,0,0-1.33.47c-.37.17-.69.33-1,.48a1.33,1.33,0,0,1-.57.21.43.43,0,0,1-.22-.06.57.57,0,0,1-.16-.18.81.81,0,0,1-.1-.3,2.54,2.54,0,0,1,0-.41,2.31,2.31,0,0,1,.05-.58.91.91,0,0,1,.27-.41,3.25,3.25,0,0,1,.72-.45,8.43,8.43,0,0,1,1.19-.47,13.19,13.19,0,0,1,1.47-.36,9.63,9.63,0,0,1,1.61-.14,8.79,8.79,0,0,1,2.58.33,4.1,4.1,0,0,1,1.71.95,3.67,3.67,0,0,1,1,1.56,7.15,7.15,0,0,1,.29,2.18Zm-2.56-6.07h-2.2a8.29,8.29,0,0,0-1.84.17,3.88,3.88,0,0,0-1.3.5,2.14,2.14,0,0,0-.76.8,2.31,2.31,0,0,0-.24,1.07,2.1,2.1,0,0,0,.69,1.65,2.87,2.87,0,0,0,1.95.61,3.72,3.72,0,0,0,1.88-.49,7.7,7.7,0,0,0,1.82-1.49Z"/><path class="cls-3" d="M661.75,319.38c0,.17,0,.32,0,.44a2,2,0,0,1-.05.31,1.12,1.12,0,0,1-.1.22,1.1,1.1,0,0,1-.25.28,3.4,3.4,0,0,1-.66.46,6.51,6.51,0,0,1-1.06.49,8.66,8.66,0,0,1-1.27.35,7.35,7.35,0,0,1-1.42.13,7.25,7.25,0,0,1-2.69-.47,5.12,5.12,0,0,1-2-1.39,6.12,6.12,0,0,1-1.2-2.23,10.08,10.08,0,0,1-.42-3.05,10,10,0,0,1,.51-3.38,6.33,6.33,0,0,1,1.39-2.32,5.52,5.52,0,0,1,2.08-1.34,7.53,7.53,0,0,1,2.59-.43,7,7,0,0,1,1.3.12,6.33,6.33,0,0,1,1.16.31,4.63,4.63,0,0,1,1,.44,3.38,3.38,0,0,1,.6.43,1.92,1.92,0,0,1,.26.28,1.34,1.34,0,0,1,.12.24,1.52,1.52,0,0,1,.06.32c0,.12,0,.27,0,.45a1.56,1.56,0,0,1-.14.8.41.41,0,0,1-.34.23.91.91,0,0,1-.54-.24,6.27,6.27,0,0,0-.77-.54,5.52,5.52,0,0,0-1.14-.54,4.35,4.35,0,0,0-1.57-.25,3.31,3.31,0,0,0-2.85,1.36,6.57,6.57,0,0,0-1,3.92,9,9,0,0,0,.26,2.26,4.5,4.5,0,0,0,.76,1.62,3.1,3.1,0,0,0,1.22,1,4.58,4.58,0,0,0,3.23.05,6,6,0,0,0,1.16-.59c.33-.21.61-.4.83-.57a1.06,1.06,0,0,1,.52-.26.29.29,0,0,1,.19.06.39.39,0,0,1,.13.2,1.06,1.06,0,0,1,.08.35A3.89,3.89,0,0,1,661.75,319.38Z"/><path class="cls-3" d="M668,303.6a1.56,1.56,0,0,1-.34,1.17,2.73,2.73,0,0,1-2.51,0,2.18,2.18,0,0,1,0-2.32,2,2,0,0,1,1.26-.31,1.87,1.87,0,0,1,1.25.31A1.52,1.52,0,0,1,668,303.6Zm-.29,17.81a.35.35,0,0,1-.07.2.54.54,0,0,1-.2.14,1.41,1.41,0,0,1-.39.09,5.6,5.6,0,0,1-.64,0,5.53,5.53,0,0,1-.63,0,1.5,1.5,0,0,1-.39-.09.51.51,0,0,1-.21-.14.42.42,0,0,1-.05-.2V308.1a.38.38,0,0,1,.05-.19.44.44,0,0,1,.21-.15,1.5,1.5,0,0,1,.39-.09,5.53,5.53,0,0,1,.63,0,5.6,5.6,0,0,1,.64,0,1.41,1.41,0,0,1,.39.09.46.46,0,0,1,.2.15.32.32,0,0,1,.07.19Z"/><path class="cls-3" d="M685.59,314.61a9.24,9.24,0,0,1-.46,3,6.48,6.48,0,0,1-1.35,2.36,6.16,6.16,0,0,1-2.25,1.55,8.18,8.18,0,0,1-3.13.55,8.39,8.39,0,0,1-3-.49,5.47,5.47,0,0,1-2.15-1.42,5.9,5.9,0,0,1-1.28-2.26,10,10,0,0,1-.42-3,9.52,9.52,0,0,1,.44-3,6.4,6.4,0,0,1,1.35-2.36,5.9,5.9,0,0,1,2.24-1.54,9.39,9.39,0,0,1,6.16-.06,5.66,5.66,0,0,1,2.15,1.42,6.13,6.13,0,0,1,1.29,2.26A10,10,0,0,1,685.59,314.61Zm-2.67.16a9.52,9.52,0,0,0-.22-2A4.75,4.75,0,0,0,682,311a3.6,3.6,0,0,0-1.32-1.15,5.29,5.29,0,0,0-4.06,0,3.57,3.57,0,0,0-1.37,1.09,4.74,4.74,0,0,0-.79,1.66,7.75,7.75,0,0,0-.26,2.1,9.72,9.72,0,0,0,.21,2.06,4.59,4.59,0,0,0,.71,1.67,3.45,3.45,0,0,0,1.33,1.14,5.33,5.33,0,0,0,4,0,3.7,3.7,0,0,0,1.38-1.08,4.72,4.72,0,0,0,.78-1.66A8.18,8.18,0,0,0,682.92,314.77Zm-3.08-13.18a.84.84,0,0,1,.22-.27.86.86,0,0,1,.3-.16,2.23,2.23,0,0,1,.45-.09,5.72,5.72,0,0,1,.64,0,4.43,4.43,0,0,1,.71,0,.93.93,0,0,1,.38.15.26.26,0,0,1,.09.22.42.42,0,0,1-.14.26l-2.82,3.45a2.76,2.76,0,0,1-.23.24l-.23.14a1.44,1.44,0,0,1-.35.07l-.52,0a2.75,2.75,0,0,1-.55,0,.72.72,0,0,1-.29-.12.17.17,0,0,1-.06-.19,1,1,0,0,1,.13-.28Z"/><path class="cls-3" d="M701.49,321.41a.34.34,0,0,1-.06.2.51.51,0,0,1-.21.14,1.41,1.41,0,0,1-.39.09,5.22,5.22,0,0,1-.62,0,5.6,5.6,0,0,1-.64,0,1.41,1.41,0,0,1-.39-.09.59.59,0,0,1-.21-.14.34.34,0,0,1-.06-.2v-7.79a7.06,7.06,0,0,0-.19-1.84,3.66,3.66,0,0,0-.54-1.2,2.41,2.41,0,0,0-.93-.77,3.2,3.2,0,0,0-1.32-.26,3.41,3.41,0,0,0-1.94.65,10.3,10.3,0,0,0-2,1.91v9.3a.34.34,0,0,1-.06.2.51.51,0,0,1-.21.14,1.41,1.41,0,0,1-.39.09,5.48,5.48,0,0,1-.64,0,5.34,5.34,0,0,1-.62,0,1.59,1.59,0,0,1-.4-.09.41.41,0,0,1-.2-.14.34.34,0,0,1-.06-.2V308.1a.39.39,0,0,1,0-.2.34.34,0,0,1,.19-.15,1.34,1.34,0,0,1,.36-.09l.57,0,.57,0a1.25,1.25,0,0,1,.36.09.45.45,0,0,1,.18.15.39.39,0,0,1,.05.2v1.76a8.47,8.47,0,0,1,2.37-1.84,5.3,5.3,0,0,1,2.38-.59,5.57,5.57,0,0,1,2.37.45,4.19,4.19,0,0,1,1.55,1.21,4.56,4.56,0,0,1,.85,1.77,10,10,0,0,1,.26,2.43Z"/><path class="cls-3" d="M725.47,321.41a.46.46,0,0,1-.05.21.41.41,0,0,1-.19.14,2,2,0,0,1-.35.08,4.11,4.11,0,0,1-.53,0,4.22,4.22,0,0,1-.55,0,2,2,0,0,1-.36-.08.45.45,0,0,1-.2-.14.38.38,0,0,1-.07-.21v-1.76a9,9,0,0,1-2.3,1.77,5.43,5.43,0,0,1-2.62.64,5.66,5.66,0,0,1-2.64-.57,4.81,4.81,0,0,1-1.77-1.54,6.57,6.57,0,0,1-1-2.28,11.71,11.71,0,0,1-.31-2.75,11.38,11.38,0,0,1,.39-3.1,6.75,6.75,0,0,1,1.15-2.36A5.16,5.16,0,0,1,716,308a6.19,6.19,0,0,1,2.62-.53,5,5,0,0,1,2.26.51,8.05,8.05,0,0,1,2,1.5v-7.73a.46.46,0,0,1,0-.2.38.38,0,0,1,.21-.15l.4-.09a5.22,5.22,0,0,1,.62,0,5.6,5.6,0,0,1,.64,0l.39.09a.47.47,0,0,1,.21.15.31.31,0,0,1,.07.2Zm-2.59-9.36a9.71,9.71,0,0,0-2-1.87,3.7,3.7,0,0,0-2-.65,3,3,0,0,0-1.68.45,3.43,3.43,0,0,0-1.11,1.16,5.34,5.34,0,0,0-.63,1.65,8.9,8.9,0,0,0-.19,1.86,11.64,11.64,0,0,0,.16,2,5.55,5.55,0,0,0,.57,1.71,3.35,3.35,0,0,0,1.08,1.19,3,3,0,0,0,1.69.45,3.64,3.64,0,0,0,1-.13,3.81,3.81,0,0,0,1-.44,7.59,7.59,0,0,0,1-.81,12.67,12.67,0,0,0,1.16-1.22Z"/><path class="cls-3" d="M742.24,314.18a1,1,0,0,1-.31.82,1.1,1.1,0,0,1-.7.24H732a7.67,7.67,0,0,0,.24,2,3.73,3.73,0,0,0,.78,1.52,3.51,3.51,0,0,0,1.43,1,6.14,6.14,0,0,0,2.15.34,8.75,8.75,0,0,0,1.79-.16,12.23,12.23,0,0,0,1.36-.34c.38-.13.69-.25.94-.35a1.51,1.51,0,0,1,.56-.16.38.38,0,0,1,.19.05.36.36,0,0,1,.14.16,1.37,1.37,0,0,1,.07.29c0,.12,0,.27,0,.45a3.22,3.22,0,0,1,0,.33c0,.1,0,.18,0,.25a.93.93,0,0,1-.08.2.75.75,0,0,1-.14.17,2,2,0,0,1-.51.27,8.68,8.68,0,0,1-1.09.36,14.65,14.65,0,0,1-1.56.32,12.39,12.39,0,0,1-1.88.14,9,9,0,0,1-3-.46,5.52,5.52,0,0,1-3.54-3.62,10.1,10.1,0,0,1-.45-3.17,9.53,9.53,0,0,1,.47-3.08,6.34,6.34,0,0,1,1.35-2.32,5.9,5.9,0,0,1,2.13-1.47,7.35,7.35,0,0,1,2.8-.51,7,7,0,0,1,2.82.51,5.15,5.15,0,0,1,3,3.35,8.09,8.09,0,0,1,.36,2.44Zm-2.6-.73a4.33,4.33,0,0,0-.9-3,3.58,3.58,0,0,0-2.82-1.09,3.92,3.92,0,0,0-1.69.34,3.79,3.79,0,0,0-1.21.9,4.23,4.23,0,0,0-.75,1.31,5.14,5.14,0,0,0-.3,1.56Z"/><path class="cls-3" d="M430.79,355.73c0,.17,0,.32,0,.44a1.22,1.22,0,0,1-.06.31.73.73,0,0,1-.09.22,1.34,1.34,0,0,1-.25.28,3.4,3.4,0,0,1-.66.46,6.93,6.93,0,0,1-1.06.49,8.66,8.66,0,0,1-1.27.35,7.35,7.35,0,0,1-1.42.13,7.25,7.25,0,0,1-2.69-.47,5,5,0,0,1-2-1.39,6,6,0,0,1-1.2-2.23,10.08,10.08,0,0,1-.42-3.05,10,10,0,0,1,.51-3.38,6.33,6.33,0,0,1,1.39-2.32,5.52,5.52,0,0,1,2.08-1.34,7.47,7.47,0,0,1,2.58-.43,7,7,0,0,1,1.31.12,6.33,6.33,0,0,1,1.16.31,4.63,4.63,0,0,1,.95.44,4.35,4.35,0,0,1,.6.43,2.74,2.74,0,0,1,.26.28,1.33,1.33,0,0,1,.11.24,1.5,1.5,0,0,1,.07.32c0,.12,0,.27,0,.44a1.69,1.69,0,0,1-.14.81.41.41,0,0,1-.34.23.91.91,0,0,1-.54-.24,6.46,6.46,0,0,0-.78-.54,5.42,5.42,0,0,0-1.13-.54,4.35,4.35,0,0,0-1.57-.25,3.3,3.3,0,0,0-2.85,1.36,6.57,6.57,0,0,0-1,3.92,8.51,8.51,0,0,0,.26,2.26,4.67,4.67,0,0,0,.75,1.62,3.3,3.3,0,0,0,1.23,1,4.73,4.73,0,0,0,3.23,0,6.6,6.6,0,0,0,1.16-.59c.33-.21.61-.4.83-.57a1,1,0,0,1,.52-.26.29.29,0,0,1,.19.06.39.39,0,0,1,.13.2,1.4,1.4,0,0,1,.08.35A4,4,0,0,1,430.79,355.73Z"/><path class="cls-3" d="M444.54,357.77a.32.32,0,0,1-.12.27,1,1,0,0,1-.35.13,3.29,3.29,0,0,1-.64.05,3.73,3.73,0,0,1-.65-.05.83.83,0,0,1-.35-.13.34.34,0,0,1-.11-.27v-1.33a6.85,6.85,0,0,1-2.05,1.45,5.67,5.67,0,0,1-2.4.52,7,7,0,0,1-2-.27,4.45,4.45,0,0,1-1.53-.8,3.42,3.42,0,0,1-1-1.27,3.9,3.9,0,0,1-.35-1.71,3.67,3.67,0,0,1,1.87-3.33,7.14,7.14,0,0,1,2.22-.82,14.64,14.64,0,0,1,3-.28H442v-1a5.05,5.05,0,0,0-.17-1.36,2.26,2.26,0,0,0-.56-1,2.33,2.33,0,0,0-1-.6,4.91,4.91,0,0,0-1.5-.2,6.44,6.44,0,0,0-1.71.22,9.7,9.7,0,0,0-1.33.47c-.38.17-.69.33-1,.47a1.29,1.29,0,0,1-.57.22.4.4,0,0,1-.22-.06.47.47,0,0,1-.16-.18.81.81,0,0,1-.1-.3,1.73,1.73,0,0,1,0-.41,2.24,2.24,0,0,1,.06-.58.89.89,0,0,1,.26-.41,3.65,3.65,0,0,1,.73-.45,8,8,0,0,1,1.19-.47,11.3,11.3,0,0,1,1.47-.36,9.54,9.54,0,0,1,1.61-.14,8.68,8.68,0,0,1,2.57.33,4.14,4.14,0,0,1,1.72.95,3.67,3.67,0,0,1,1,1.56,7.47,7.47,0,0,1,.29,2.18ZM442,351.7h-2.2a8.39,8.39,0,0,0-1.85.17,3.82,3.82,0,0,0-1.29.5,2.07,2.07,0,0,0-.76.8,2.28,2.28,0,0,0-.24,1.07,2.1,2.1,0,0,0,.69,1.65,2.85,2.85,0,0,0,1.95.61,3.74,3.74,0,0,0,1.88-.49,7.91,7.91,0,0,0,1.82-1.49Z"/><path class="cls-3" d="M470.13,357.76a.34.34,0,0,1-.06.2.54.54,0,0,1-.2.14,1.61,1.61,0,0,1-.39.09,5.53,5.53,0,0,1-.63,0,5.6,5.6,0,0,1-.64,0,1.59,1.59,0,0,1-.4-.09.51.51,0,0,1-.21-.14.34.34,0,0,1-.06-.2v-8.09a6.68,6.68,0,0,0-.16-1.54,3.42,3.42,0,0,0-.5-1.2,2.38,2.38,0,0,0-.87-.77,2.88,2.88,0,0,0-1.25-.26,3,3,0,0,0-1.79.65,11.83,11.83,0,0,0-2,1.91v9.3a.34.34,0,0,1-.06.2.51.51,0,0,1-.21.14,1.59,1.59,0,0,1-.4.09,5.34,5.34,0,0,1-.62,0,5.46,5.46,0,0,1-.62,0,1.68,1.68,0,0,1-.41-.09.47.47,0,0,1-.2-.14.33.33,0,0,1-.05-.2v-8.09a6.14,6.14,0,0,0-.18-1.54,3.63,3.63,0,0,0-.51-1.2,2.38,2.38,0,0,0-.87-.77,2.8,2.8,0,0,0-1.24-.26,3.06,3.06,0,0,0-1.8.65,11.45,11.45,0,0,0-2,1.91v9.3a.34.34,0,0,1-.06.2.54.54,0,0,1-.2.14,1.61,1.61,0,0,1-.39.09,5.6,5.6,0,0,1-.64,0,5.53,5.53,0,0,1-.63,0,1.7,1.7,0,0,1-.4-.09.47.47,0,0,1-.2-.14.33.33,0,0,1-.05-.2V344.45a.4.4,0,0,1,0-.2.38.38,0,0,1,.19-.15,1.34,1.34,0,0,1,.36-.09l.58,0,.57,0a1.17,1.17,0,0,1,.35.09.45.45,0,0,1,.18.15.31.31,0,0,1,.05.2v1.76a9.06,9.06,0,0,1,2.31-1.84,4.82,4.82,0,0,1,2.26-.59,6.31,6.31,0,0,1,1.57.19,4.38,4.38,0,0,1,1.22.54,3.82,3.82,0,0,1,.91.83,4.41,4.41,0,0,1,.62,1.08,13.09,13.09,0,0,1,1.34-1.23,7.9,7.9,0,0,1,1.22-.82,5.85,5.85,0,0,1,1.14-.45,4.69,4.69,0,0,1,1.11-.14,5.22,5.22,0,0,1,2.29.45,4.14,4.14,0,0,1,1.49,1.21,4.64,4.64,0,0,1,.81,1.77,9.15,9.15,0,0,1,.24,2.13Z"/><path class="cls-3" d="M485.43,357.77a.32.32,0,0,1-.13.27.89.89,0,0,1-.34.13,3.36,3.36,0,0,1-.64.05,3.65,3.65,0,0,1-.65-.05.78.78,0,0,1-.35-.13.34.34,0,0,1-.11-.27v-1.33a6.89,6.89,0,0,1-2.06,1.45,5.59,5.59,0,0,1-2.39.52,7,7,0,0,1-2-.27,4.45,4.45,0,0,1-1.53-.8,3.55,3.55,0,0,1-1-1.27,4,4,0,0,1-.35-1.71,3.72,3.72,0,0,1,.49-1.95,3.76,3.76,0,0,1,1.39-1.38,7.07,7.07,0,0,1,2.21-.82,14.74,14.74,0,0,1,3-.28h1.94v-1a4.67,4.67,0,0,0-.18-1.36,2.24,2.24,0,0,0-.55-1,2.46,2.46,0,0,0-1-.6,5,5,0,0,0-1.5-.2,6.33,6.33,0,0,0-1.71.22,9.24,9.24,0,0,0-1.33.47c-.38.17-.7.33-.95.47a1.32,1.32,0,0,1-.58.22.37.37,0,0,1-.21-.06.49.49,0,0,1-.17-.18,1.05,1.05,0,0,1-.1-.3,2.54,2.54,0,0,1,0-.41,2.9,2.9,0,0,1,.05-.58.91.91,0,0,1,.27-.41,3.14,3.14,0,0,1,.73-.45,8.28,8.28,0,0,1,1.18-.47,11.3,11.3,0,0,1,1.47-.36,9.63,9.63,0,0,1,1.61-.14,8.79,8.79,0,0,1,2.58.33,4.14,4.14,0,0,1,1.72.95,3.76,3.76,0,0,1,.95,1.56,7.13,7.13,0,0,1,.3,2.18Zm-2.56-6.07h-2.21a8.29,8.29,0,0,0-1.84.17,4,4,0,0,0-1.3.5,2.22,2.22,0,0,0-.76.8,2.28,2.28,0,0,0-.24,1.07,2.08,2.08,0,0,0,.7,1.65,2.82,2.82,0,0,0,1.94.61A3.69,3.69,0,0,0,481,356a7.94,7.94,0,0,0,1.83-1.49Z"/><path class="cls-3" d="M499,354.14a4.12,4.12,0,0,1-.4,1.82,3.74,3.74,0,0,1-1.13,1.34,5.25,5.25,0,0,1-1.75.83,8.28,8.28,0,0,1-2.24.28,9.42,9.42,0,0,1-1.43-.11,9.91,9.91,0,0,1-1.21-.28,6.56,6.56,0,0,1-.92-.36,2.71,2.71,0,0,1-.55-.33,1,1,0,0,1-.25-.41,2.85,2.85,0,0,1-.07-.73,3.09,3.09,0,0,1,0-.47,1.07,1.07,0,0,1,.08-.31.29.29,0,0,1,.13-.17.3.3,0,0,1,.19-.05,1.11,1.11,0,0,1,.51.19c.23.14.5.28.83.44a7.64,7.64,0,0,0,1.16.44,5.6,5.6,0,0,0,1.55.2,4.86,4.86,0,0,0,1.19-.14,2.64,2.64,0,0,0,.92-.39,1.73,1.73,0,0,0,.6-.66,2,2,0,0,0,.21-.94,1.5,1.5,0,0,0-.3-.95,3.07,3.07,0,0,0-.81-.68,6.44,6.44,0,0,0-1.12-.52l-1.29-.48c-.44-.17-.88-.36-1.3-.57a5.39,5.39,0,0,1-1.13-.78,3.74,3.74,0,0,1-.81-1.1,3.52,3.52,0,0,1-.3-1.52,3.71,3.71,0,0,1,.32-1.5,3.42,3.42,0,0,1,1-1.26,4.78,4.78,0,0,1,1.6-.86,6.91,6.91,0,0,1,2.24-.33,7.17,7.17,0,0,1,1.13.09,8,8,0,0,1,1,.22,5.64,5.64,0,0,1,.78.29,4.34,4.34,0,0,1,.48.27.89.89,0,0,1,.22.21.7.7,0,0,1,.08.2c0,.08,0,.17.05.27s0,.25,0,.4,0,.32,0,.44a1.41,1.41,0,0,1-.08.3.4.4,0,0,1-.13.17.3.3,0,0,1-.18.06.88.88,0,0,1-.4-.17,5.56,5.56,0,0,0-.69-.34,7,7,0,0,0-1-.35,4.73,4.73,0,0,0-1.31-.17,4,4,0,0,0-1.15.15,2.16,2.16,0,0,0-.82.39,1.71,1.71,0,0,0-.49.62,1.8,1.8,0,0,0-.16.77,1.5,1.5,0,0,0,.31,1,2.87,2.87,0,0,0,.81.68,7.54,7.54,0,0,0,1.14.54c.43.15.86.32,1.31.49a13.57,13.57,0,0,1,1.31.56,5.07,5.07,0,0,1,1.15.75,3.41,3.41,0,0,1,.8,1.07A3.2,3.2,0,0,1,499,354.14Z"/><path class="cls-3" d="M522.84,350.9a11.55,11.55,0,0,1-.39,3.13,6.62,6.62,0,0,1-1.18,2.36,5,5,0,0,1-1.91,1.49,6.18,6.18,0,0,1-2.61.53,5.3,5.3,0,0,1-1.16-.12,4.38,4.38,0,0,1-1-.37,6.47,6.47,0,0,1-1-.63,13.33,13.33,0,0,1-1.06-.91V363a.38.38,0,0,1-.07.21.45.45,0,0,1-.2.14,1.41,1.41,0,0,1-.39.09,5.6,5.6,0,0,1-.64,0,5.53,5.53,0,0,1-.63,0,1.5,1.5,0,0,1-.39-.09.43.43,0,0,1-.21-.14.46.46,0,0,1,0-.21V344.45a.38.38,0,0,1,0-.22.39.39,0,0,1,.18-.14,1.6,1.6,0,0,1,.36-.08l.53,0,.54,0a1.4,1.4,0,0,1,.35.08.47.47,0,0,1,.2.14.38.38,0,0,1,0,.22v1.79a12.72,12.72,0,0,1,1.24-1.08,6.79,6.79,0,0,1,1.19-.76,5.32,5.32,0,0,1,1.24-.46,5.21,5.21,0,0,1,1.33-.16,5.65,5.65,0,0,1,2.61.56,4.86,4.86,0,0,1,1.76,1.54,6.78,6.78,0,0,1,1,2.27A11.65,11.65,0,0,1,522.84,350.9Zm-2.67.28a11.67,11.67,0,0,0-.16-2,5.43,5.43,0,0,0-.57-1.69,3.15,3.15,0,0,0-1.08-1.18,3,3,0,0,0-1.68-.45,3.76,3.76,0,0,0-1,.14,4.3,4.3,0,0,0-1,.45,6.65,6.65,0,0,0-1.05.8,10.65,10.65,0,0,0-1.16,1.22v5.29a11,11,0,0,0,2,1.88,3.56,3.56,0,0,0,2,.65,3.13,3.13,0,0,0,1.67-.44,3.4,3.4,0,0,0,1.13-1.19A5.73,5.73,0,0,0,520,353,8.88,8.88,0,0,0,520.17,351.18Z"/><path class="cls-3" d="M537.31,357.77a.32.32,0,0,1-.12.27,1,1,0,0,1-.35.13,3.29,3.29,0,0,1-.64.05,3.65,3.65,0,0,1-.65-.05.78.78,0,0,1-.35-.13.34.34,0,0,1-.11-.27v-1.33a6.85,6.85,0,0,1-2.05,1.45,5.67,5.67,0,0,1-2.4.52,7,7,0,0,1-2-.27,4.45,4.45,0,0,1-1.53-.8,3.42,3.42,0,0,1-1-1.27,3.9,3.9,0,0,1-.35-1.71,3.67,3.67,0,0,1,1.87-3.33,7,7,0,0,1,2.22-.82,14.64,14.64,0,0,1,2.95-.28h1.94v-1a5.05,5.05,0,0,0-.17-1.36,2.26,2.26,0,0,0-.56-1,2.33,2.33,0,0,0-1-.6,5,5,0,0,0-1.5-.2,6.33,6.33,0,0,0-1.71.22,9.24,9.24,0,0,0-1.33.47c-.38.17-.7.33-1,.47a1.34,1.34,0,0,1-.57.22.38.38,0,0,1-.22-.06.47.47,0,0,1-.16-.18.82.82,0,0,1-.11-.3,2.54,2.54,0,0,1,0-.41,2.24,2.24,0,0,1,.06-.58.81.81,0,0,1,.26-.41,3.37,3.37,0,0,1,.73-.45,8,8,0,0,1,1.19-.47,10.55,10.55,0,0,1,1.47-.36,9.52,9.52,0,0,1,1.6-.14,8.79,8.79,0,0,1,2.58.33,4.14,4.14,0,0,1,1.72.95,3.56,3.56,0,0,1,1,1.56,7.13,7.13,0,0,1,.3,2.18Zm-2.56-6.07h-2.2a8.39,8.39,0,0,0-1.85.17,3.82,3.82,0,0,0-1.29.5,2.07,2.07,0,0,0-.76.8,2.28,2.28,0,0,0-.24,1.07,2.1,2.1,0,0,0,.69,1.65,2.83,2.83,0,0,0,1.95.61,3.74,3.74,0,0,0,1.88-.49,7.91,7.91,0,0,0,1.82-1.49Z"/><path class="cls-3" d="M550.26,345.32c0,.22,0,.4,0,.55a1.18,1.18,0,0,1-.07.34.62.62,0,0,1-.11.2.3.3,0,0,1-.2.06,1,1,0,0,1-.3-.06l-.41-.14-.51-.12a2.87,2.87,0,0,0-.61-.06,2,2,0,0,0-.76.15,2.89,2.89,0,0,0-.79.49,5.38,5.38,0,0,0-.87.9c-.3.37-.63.83-1,1.37v8.76a.34.34,0,0,1-.06.2.54.54,0,0,1-.2.14,1.61,1.61,0,0,1-.39.09,5.6,5.6,0,0,1-.64,0,5.53,5.53,0,0,1-.63,0,1.59,1.59,0,0,1-.4-.09.47.47,0,0,1-.2-.14.34.34,0,0,1-.06-.2V344.45a.39.39,0,0,1,.05-.2.38.38,0,0,1,.19-.15,1.34,1.34,0,0,1,.36-.09l.58,0,.57,0a1.26,1.26,0,0,1,.35.09.45.45,0,0,1,.18.15.39.39,0,0,1,0,.2v1.93a11.4,11.4,0,0,1,1.09-1.3,6.21,6.21,0,0,1,1-.79,3.23,3.23,0,0,1,.9-.4,3.82,3.82,0,0,1,.9-.11l.46,0,.54.09a3.31,3.31,0,0,1,.5.13,1.06,1.06,0,0,1,.32.15.33.33,0,0,1,.13.14.58.58,0,0,1,.05.17,1.15,1.15,0,0,1,0,.3C550.26,344.91,550.26,345.09,550.26,345.32Z"/><path class="cls-3" d="M563.13,357.77a.32.32,0,0,1-.12.27.89.89,0,0,1-.34.13,3.36,3.36,0,0,1-.64.05,3.56,3.56,0,0,1-.65-.05A.78.78,0,0,1,561,358a.31.31,0,0,1-.11-.27v-1.33a6.89,6.89,0,0,1-2.06,1.45,5.6,5.6,0,0,1-2.4.52,6.91,6.91,0,0,1-2-.27,4.45,4.45,0,0,1-1.53-.8,3.45,3.45,0,0,1-1-1.27,4,4,0,0,1-.35-1.71,3.81,3.81,0,0,1,.48-1.95,3.91,3.91,0,0,1,1.39-1.38,7.24,7.24,0,0,1,2.22-.82,14.74,14.74,0,0,1,3-.28h1.93v-1a4.68,4.68,0,0,0-.17-1.36,2.24,2.24,0,0,0-.55-1,2.43,2.43,0,0,0-1-.6,4.91,4.91,0,0,0-1.5-.2,6.44,6.44,0,0,0-1.71.22,9.54,9.54,0,0,0-1.32.47c-.38.17-.7.33-1,.47a1.25,1.25,0,0,1-.57.22.43.43,0,0,1-.22-.06.57.57,0,0,1-.16-.18.81.81,0,0,1-.1-.3,2.54,2.54,0,0,1,0-.41,2.31,2.31,0,0,1,.05-.58.91.91,0,0,1,.27-.41,3.25,3.25,0,0,1,.72-.45,8.43,8.43,0,0,1,1.19-.47,11.3,11.3,0,0,1,1.47-.36,9.63,9.63,0,0,1,1.61-.14,8.79,8.79,0,0,1,2.58.33,4,4,0,0,1,1.71.95,3.67,3.67,0,0,1,1,1.56,7.15,7.15,0,0,1,.29,2.18Zm-2.56-6.07h-2.2a8.29,8.29,0,0,0-1.84.17,3.88,3.88,0,0,0-1.3.5,2.14,2.14,0,0,0-.76.8,2.28,2.28,0,0,0-.24,1.07,2.1,2.1,0,0,0,.69,1.65,2.87,2.87,0,0,0,2,.61,3.72,3.72,0,0,0,1.88-.49,7.7,7.7,0,0,0,1.82-1.49Z"/><path class="cls-3" d="M578,340a1.56,1.56,0,0,1-.35,1.17,2.71,2.71,0,0,1-2.5,0,1.52,1.52,0,0,1-.34-1.15,1.56,1.56,0,0,1,.34-1.17,2,2,0,0,1,1.27-.31,1.9,1.9,0,0,1,1.24.3A1.52,1.52,0,0,1,578,340Zm-.3,17.81a.34.34,0,0,1-.06.2.51.51,0,0,1-.21.14,1.41,1.41,0,0,1-.39.09,5.48,5.48,0,0,1-.64,0,5.22,5.22,0,0,1-.62,0,1.59,1.59,0,0,1-.4-.09.41.41,0,0,1-.2-.14.34.34,0,0,1-.06-.2V344.45a.36.36,0,0,1,.06-.2.41.41,0,0,1,.2-.14,1.59,1.59,0,0,1,.4-.09,5.22,5.22,0,0,1,.62,0,5.48,5.48,0,0,1,.64,0,1.41,1.41,0,0,1,.39.09.51.51,0,0,1,.21.14.36.36,0,0,1,.06.2Z"/><path class="cls-3" d="M594.55,357.76a.34.34,0,0,1-.06.2.54.54,0,0,1-.2.14,1.61,1.61,0,0,1-.39.09,5.53,5.53,0,0,1-.63,0,5.6,5.6,0,0,1-.64,0,1.41,1.41,0,0,1-.39-.09.54.54,0,0,1-.2-.14.35.35,0,0,1-.07-.2V350a7.56,7.56,0,0,0-.18-1.83,3.9,3.9,0,0,0-.55-1.2,2.41,2.41,0,0,0-.93-.77,3.2,3.2,0,0,0-1.32-.26,3.41,3.41,0,0,0-1.94.65,10.3,10.3,0,0,0-2,1.91v9.3a.34.34,0,0,1-.06.2.54.54,0,0,1-.2.14,1.61,1.61,0,0,1-.39.09,5.6,5.6,0,0,1-.64,0,5.53,5.53,0,0,1-.63,0,1.59,1.59,0,0,1-.4-.09.47.47,0,0,1-.2-.14.33.33,0,0,1,0-.2V344.45a.4.4,0,0,1,0-.2.38.38,0,0,1,.19-.15A1.34,1.34,0,0,1,583,344l.58,0,.57,0a1.17,1.17,0,0,1,.35.09.45.45,0,0,1,.18.15.39.39,0,0,1,0,.2v1.76a8.47,8.47,0,0,1,2.37-1.84,5.33,5.33,0,0,1,2.38-.59,5.57,5.57,0,0,1,2.37.45,4.19,4.19,0,0,1,1.55,1.21,4.56,4.56,0,0,1,.85,1.77,9.52,9.52,0,0,1,.26,2.43Z"/><path class="cls-3" d="M608.08,354.14a4,4,0,0,1-.4,1.82,3.64,3.64,0,0,1-1.13,1.34,5.16,5.16,0,0,1-1.75.83,8.25,8.25,0,0,1-2.23.28,9.32,9.32,0,0,1-1.43-.11,10.1,10.1,0,0,1-1.22-.28,6.56,6.56,0,0,1-.92-.36,2.34,2.34,0,0,1-.54-.33.82.82,0,0,1-.25-.41,2.78,2.78,0,0,1-.08-.73,3.09,3.09,0,0,1,0-.47,1.53,1.53,0,0,1,.08-.31.29.29,0,0,1,.13-.17.33.33,0,0,1,.2-.05,1.19,1.19,0,0,1,.51.19c.22.14.5.28.82.44a7.39,7.39,0,0,0,1.17.44,5.48,5.48,0,0,0,1.54.2,4.8,4.8,0,0,0,1.19-.14,2.64,2.64,0,0,0,.92-.39,1.73,1.73,0,0,0,.6-.66,2,2,0,0,0,.22-.94,1.5,1.5,0,0,0-.31-.95,3,3,0,0,0-.8-.68,6.55,6.55,0,0,0-1.13-.52L602,351.7c-.44-.17-.87-.36-1.3-.57a5.67,5.67,0,0,1-1.13-.78,3.43,3.43,0,0,1-1.11-2.62,3.71,3.71,0,0,1,.32-1.5,3.65,3.65,0,0,1,1-1.26,4.74,4.74,0,0,1,1.61-.86,6.86,6.86,0,0,1,2.24-.33,7,7,0,0,1,1.12.09,7.84,7.84,0,0,1,1,.22,5.47,5.47,0,0,1,.77.29,4.66,4.66,0,0,1,.49.27.68.68,0,0,1,.21.21.5.5,0,0,1,.08.2c0,.08,0,.17.05.27a2.42,2.42,0,0,1,0,.4,2.89,2.89,0,0,1,0,.44,1,1,0,0,1-.08.3.4.4,0,0,1-.13.17.27.27,0,0,1-.17.06.9.9,0,0,1-.41-.17,5.56,5.56,0,0,0-.69-.34,7,7,0,0,0-1-.35,4.66,4.66,0,0,0-1.3-.17,4,4,0,0,0-1.16.15,2.24,2.24,0,0,0-.82.39,1.68,1.68,0,0,0-.48.62,1.81,1.81,0,0,0-.17.77,1.56,1.56,0,0,0,.31,1,2.79,2.79,0,0,0,.82.68,6.72,6.72,0,0,0,1.14.54l1.3.49a13.57,13.57,0,0,1,1.31.56,4.66,4.66,0,0,1,1.15.75,3.44,3.44,0,0,1,.81,1.07A3.34,3.34,0,0,1,608.08,354.14Z"/><path class="cls-3" d="M623.64,344.06a.81.81,0,0,1,.64.2.87.87,0,0,1,.18.59v12.91a.35.35,0,0,1-.07.2.51.51,0,0,1-.21.14,1.59,1.59,0,0,1-.4.09,5.16,5.16,0,0,1-.61,0,5.6,5.6,0,0,1-.64,0,1.7,1.7,0,0,1-.4-.09.7.7,0,0,1-.21-.14.34.34,0,0,1-.06-.2V346.09H614.6v7.42a4,4,0,0,0,.43,2.08,1.65,1.65,0,0,0,1.54.7,3.16,3.16,0,0,0,.64-.06l.5-.14.37-.14a.64.64,0,0,1,.28-.07.28.28,0,0,1,.15,0,.23.23,0,0,1,.11.14,1.26,1.26,0,0,1,.07.28,2.76,2.76,0,0,1,0,.44,3,3,0,0,1-.06.68.86.86,0,0,1-.19.37,1.06,1.06,0,0,1-.37.22,2.94,2.94,0,0,1-.57.17,6.86,6.86,0,0,1-.68.12,6.63,6.63,0,0,1-2.6-.23,3.16,3.16,0,0,1-1.28-.83,3.37,3.37,0,0,1-.72-1.41,7.38,7.38,0,0,1-.23-2v-7.78h-2a.41.41,0,0,1-.37-.24,1.48,1.48,0,0,1-.14-.77,3.18,3.18,0,0,1,0-.47,1.2,1.2,0,0,1,.11-.32.4.4,0,0,1,.16-.18.56.56,0,0,1,.23-.05H612V340.9a.38.38,0,0,1,.05-.19.45.45,0,0,1,.21-.16,1.57,1.57,0,0,1,.39-.1,5.53,5.53,0,0,1,.63,0,5.6,5.6,0,0,1,.64,0,1.36,1.36,0,0,1,.39.1.47.47,0,0,1,.2.16.26.26,0,0,1,.07.19v3.16Zm1.11-4.11a1.56,1.56,0,0,1-.34,1.17,2.73,2.73,0,0,1-2.51,0,2.12,2.12,0,0,1,0-2.32,2,2,0,0,1,1.26-.31,1.93,1.93,0,0,1,1.25.3A1.56,1.56,0,0,1,624.75,340Z"/><path class="cls-3" d="M636.55,356.78a2.44,2.44,0,0,1-.07.68.75.75,0,0,1-.18.37,1.12,1.12,0,0,1-.38.22,2.94,2.94,0,0,1-.57.17,6.38,6.38,0,0,1-.68.12,5.79,5.79,0,0,1-.72,0,5.73,5.73,0,0,1-1.87-.27,3.09,3.09,0,0,1-1.28-.83,3.27,3.27,0,0,1-.73-1.41,7.8,7.8,0,0,1-.23-2v-7.78h-2a.42.42,0,0,1-.38-.24,1.59,1.59,0,0,1-.14-.77,2.17,2.17,0,0,1,0-.47,1.21,1.21,0,0,1,.1-.32.42.42,0,0,1,.17-.18.51.51,0,0,1,.22-.05h2V340.9a.31.31,0,0,1,.06-.19.42.42,0,0,1,.2-.16,1.54,1.54,0,0,1,.4-.1,5.53,5.53,0,0,1,.63,0,5.6,5.6,0,0,1,.64,0,1.57,1.57,0,0,1,.39.1.47.47,0,0,1,.2.16.31.31,0,0,1,.06.19v3.16H636a.51.51,0,0,1,.22.05.47.47,0,0,1,.16.18,1.2,1.2,0,0,1,.11.32,3.18,3.18,0,0,1,0,.47,1.59,1.59,0,0,1-.14.77.43.43,0,0,1-.38.24h-3.61v7.42a4.11,4.11,0,0,0,.43,2.08,1.66,1.66,0,0,0,1.54.7,3.1,3.1,0,0,0,.64-.06l.5-.14.38-.14a.61.61,0,0,1,.28-.07.28.28,0,0,1,.15,0,.27.27,0,0,1,.11.14l.07.28A2.76,2.76,0,0,1,636.55,356.78Z"/><path class="cls-3" d="M652,357.76a.34.34,0,0,1-.06.2.43.43,0,0,1-.19.14,1.54,1.54,0,0,1-.37.09,4.33,4.33,0,0,1-.55,0,4.68,4.68,0,0,1-.59,0,1.34,1.34,0,0,1-.36-.09.39.39,0,0,1-.18-.14.42.42,0,0,1-.05-.2V356a8.51,8.51,0,0,1-2.37,1.83,5.24,5.24,0,0,1-2.37.58,5.73,5.73,0,0,1-2.37-.44,4.21,4.21,0,0,1-1.56-1.21,4.85,4.85,0,0,1-.85-1.77,10.33,10.33,0,0,1-.25-2.47v-8.07a.31.31,0,0,1,0-.2.44.44,0,0,1,.21-.15,1.68,1.68,0,0,1,.41-.09l.62,0,.63,0a1.5,1.5,0,0,1,.39.09.53.53,0,0,1,.22.15.32.32,0,0,1,.06.2v7.75a7.81,7.81,0,0,0,.18,1.87,3.48,3.48,0,0,0,.54,1.2,2.67,2.67,0,0,0,.93.77,3.05,3.05,0,0,0,1.32.27,3.46,3.46,0,0,0,1.93-.65,10.61,10.61,0,0,0,2-1.91v-9.3a.32.32,0,0,1,.06-.2.44.44,0,0,1,.21-.15,1.7,1.7,0,0,1,.4-.09l.63,0,.63,0a1.61,1.61,0,0,1,.39.09.57.57,0,0,1,.21.15.32.32,0,0,1,.07.2Z"/><path class="cls-3" d="M666.87,355.73a2.89,2.89,0,0,1,0,.44,1.25,1.25,0,0,1-.05.31c0,.08-.06.16-.09.22a1.34,1.34,0,0,1-.25.28,3.54,3.54,0,0,1-.67.46,6.39,6.39,0,0,1-1,.49,8.81,8.81,0,0,1-1.28.35,7.28,7.28,0,0,1-1.42.13,7.2,7.2,0,0,1-2.68-.47,5,5,0,0,1-2-1.39,6.13,6.13,0,0,1-1.21-2.23,10.42,10.42,0,0,1-.41-3.05,10,10,0,0,1,.51-3.38,6.19,6.19,0,0,1,1.39-2.32,5.48,5.48,0,0,1,2.07-1.34,7.53,7.53,0,0,1,2.59-.43,6.91,6.91,0,0,1,1.3.12,6.44,6.44,0,0,1,1.17.31,4.54,4.54,0,0,1,.94.44,3.38,3.38,0,0,1,.6.43,1.47,1.47,0,0,1,.26.28.9.9,0,0,1,.12.24,1.52,1.52,0,0,1,.06.32c0,.12,0,.27,0,.44a1.69,1.69,0,0,1-.14.81.42.42,0,0,1-.35.23,1,1,0,0,1-.54-.24,6.27,6.27,0,0,0-.77-.54,5.67,5.67,0,0,0-1.13-.54,4.38,4.38,0,0,0-1.57-.25,3.3,3.3,0,0,0-2.85,1.36,6.57,6.57,0,0,0-1,3.92,9,9,0,0,0,.26,2.26,4.68,4.68,0,0,0,.76,1.62,3.15,3.15,0,0,0,1.23,1,4.7,4.7,0,0,0,3.22,0,6.38,6.38,0,0,0,1.17-.59c.32-.21.6-.4.82-.57a1,1,0,0,1,.53-.26.33.33,0,0,1,.19.06.46.46,0,0,1,.13.2,2,2,0,0,1,.08.35C666.86,355.37,666.87,355.54,666.87,355.73Z"/><path class="cls-3" d="M673.17,340a1.56,1.56,0,0,1-.35,1.17,2.71,2.71,0,0,1-2.5,0A1.52,1.52,0,0,1,670,340a1.56,1.56,0,0,1,.34-1.17,2,2,0,0,1,1.27-.31,1.9,1.9,0,0,1,1.24.3A1.56,1.56,0,0,1,673.17,340Zm-.3,17.81a.34.34,0,0,1-.06.2.51.51,0,0,1-.21.14,1.41,1.41,0,0,1-.39.09,5.48,5.48,0,0,1-.64,0,5.22,5.22,0,0,1-.62,0,1.59,1.59,0,0,1-.4-.09.41.41,0,0,1-.2-.14.34.34,0,0,1-.06-.2V344.45a.36.36,0,0,1,.06-.2.41.41,0,0,1,.2-.14,1.59,1.59,0,0,1,.4-.09,5.22,5.22,0,0,1,.62,0,5.48,5.48,0,0,1,.64,0,1.41,1.41,0,0,1,.39.09.51.51,0,0,1,.21.14.36.36,0,0,1,.06.2Z"/><path class="cls-3" d="M690.71,351a9.52,9.52,0,0,1-.45,3,6.62,6.62,0,0,1-1.35,2.36,6.16,6.16,0,0,1-2.25,1.55,9.39,9.39,0,0,1-6.16.06,5.54,5.54,0,0,1-2.15-1.42,5.9,5.9,0,0,1-1.28-2.26,10,10,0,0,1-.42-3,9.52,9.52,0,0,1,.45-3,6.24,6.24,0,0,1,1.34-2.36,6.06,6.06,0,0,1,2.24-1.54,8.19,8.19,0,0,1,3.14-.55,8.39,8.39,0,0,1,3,.49,5.58,5.58,0,0,1,2.15,1.42,6.13,6.13,0,0,1,1.29,2.26A9.68,9.68,0,0,1,690.71,351Zm-2.67.16a9.53,9.53,0,0,0-.21-2,5.14,5.14,0,0,0-.7-1.69,3.56,3.56,0,0,0-1.33-1.15,5.29,5.29,0,0,0-4.06,0,3.61,3.61,0,0,0-1.36,1.08,4.71,4.71,0,0,0-.8,1.67,8.16,8.16,0,0,0-.26,2.1,9.72,9.72,0,0,0,.21,2.06,4.77,4.77,0,0,0,.71,1.67,3.55,3.55,0,0,0,1.34,1.14,4.59,4.59,0,0,0,2.08.42,4.65,4.65,0,0,0,2-.38,3.74,3.74,0,0,0,1.37-1.08,4.57,4.57,0,0,0,.79-1.66A8.2,8.2,0,0,0,688,351.12Z"/><path class="cls-3" d="M706.62,357.76a.35.35,0,0,1-.07.2.54.54,0,0,1-.2.14,1.41,1.41,0,0,1-.39.09,5.53,5.53,0,0,1-.63,0,5.6,5.6,0,0,1-.64,0,1.61,1.61,0,0,1-.39-.09.54.54,0,0,1-.2-.14.34.34,0,0,1-.06-.2V350a7.49,7.49,0,0,0-.19-1.83,3.9,3.9,0,0,0-.55-1.2,2.41,2.41,0,0,0-.93-.77,3.2,3.2,0,0,0-1.32-.26,3.39,3.39,0,0,0-1.93.65,10.05,10.05,0,0,0-2,1.91v9.3a.34.34,0,0,1-.06.2.54.54,0,0,1-.2.14,1.41,1.41,0,0,1-.39.09,5.6,5.6,0,0,1-.64,0,5.53,5.53,0,0,1-.63,0,1.5,1.5,0,0,1-.39-.09.51.51,0,0,1-.21-.14.42.42,0,0,1,0-.2V344.45a.4.4,0,0,1,0-.2.42.42,0,0,1,.19-.15,1.58,1.58,0,0,1,.36-.09l.58,0,.57,0a1.17,1.17,0,0,1,.35.09.45.45,0,0,1,.18.15.31.31,0,0,1,.05.2v1.76a8.76,8.76,0,0,1,2.37-1.84,5.33,5.33,0,0,1,2.38-.59,5.57,5.57,0,0,1,2.37.45,4.31,4.31,0,0,1,1.56,1.21,4.7,4.7,0,0,1,.85,1.77,10,10,0,0,1,.26,2.43Z"/><path class="cls-3" d="M723.32,350.53a1,1,0,0,1-.31.82,1.1,1.1,0,0,1-.7.24h-9.26a7.67,7.67,0,0,0,.24,2,3.73,3.73,0,0,0,.78,1.52,3.51,3.51,0,0,0,1.43,1,6.14,6.14,0,0,0,2.15.34,8.75,8.75,0,0,0,1.79-.16,10.24,10.24,0,0,0,1.36-.35c.38-.12.69-.24.94-.34a1.51,1.51,0,0,1,.56-.16.38.38,0,0,1,.19.05.36.36,0,0,1,.14.16,1.23,1.23,0,0,1,.07.29c0,.12,0,.27,0,.45a3.22,3.22,0,0,1,0,.33c0,.1,0,.18,0,.25a.6.6,0,0,1-.08.2.75.75,0,0,1-.14.17,2,2,0,0,1-.51.27,8.68,8.68,0,0,1-1.09.36,14.65,14.65,0,0,1-1.56.32,12.39,12.39,0,0,1-1.88.14,9,9,0,0,1-3-.46,5.52,5.52,0,0,1-3.54-3.62,10.1,10.1,0,0,1-.45-3.17,9.53,9.53,0,0,1,.47-3.08,6.34,6.34,0,0,1,1.35-2.32,5.9,5.9,0,0,1,2.13-1.47,7.39,7.39,0,0,1,2.8-.51,7,7,0,0,1,2.82.51,5.25,5.25,0,0,1,1.91,1.35,5.31,5.31,0,0,1,1.1,2,8.16,8.16,0,0,1,.36,2.45Zm-2.6-.73a4.31,4.31,0,0,0-.9-3,3.55,3.55,0,0,0-2.82-1.09,3.92,3.92,0,0,0-1.69.34,3.79,3.79,0,0,0-1.21.9,4.23,4.23,0,0,0-.75,1.31,5.14,5.14,0,0,0-.3,1.56Z"/><path class="cls-3" d="M736.06,354.14a4.12,4.12,0,0,1-.39,1.82,3.77,3.77,0,0,1-1.14,1.34,5.16,5.16,0,0,1-1.75.83,8.2,8.2,0,0,1-2.23.28,9.32,9.32,0,0,1-1.43-.11,10.56,10.56,0,0,1-1.22-.28,6.39,6.39,0,0,1-.91-.36,2.45,2.45,0,0,1-.55-.33.89.89,0,0,1-.25-.41,2.78,2.78,0,0,1-.08-.73,3.09,3.09,0,0,1,0-.47,1.53,1.53,0,0,1,.08-.31.34.34,0,0,1,.13-.17.35.35,0,0,1,.2-.05,1.19,1.19,0,0,1,.51.19,8.63,8.63,0,0,0,.83.44,6.9,6.9,0,0,0,1.16.44,5.55,5.55,0,0,0,1.55.2,4.77,4.77,0,0,0,1.18-.14,2.69,2.69,0,0,0,.93-.39,1.81,1.81,0,0,0,.6-.66,2,2,0,0,0,.21-.94,1.45,1.45,0,0,0-.31-.95,3,3,0,0,0-.8-.68,6.55,6.55,0,0,0-1.13-.52L730,351.7q-.66-.26-1.29-.57a5.39,5.39,0,0,1-1.13-.78,3.42,3.42,0,0,1-.81-1.1,3.83,3.83,0,0,1,0-3,3.42,3.42,0,0,1,1-1.26,4.69,4.69,0,0,1,1.6-.86,6.91,6.91,0,0,1,2.24-.33,7.17,7.17,0,0,1,1.13.09,8,8,0,0,1,1,.22,5.47,5.47,0,0,1,.77.29,3.81,3.81,0,0,1,.49.27.89.89,0,0,1,.22.21,1.19,1.19,0,0,1,.08.2c0,.08,0,.17,0,.27a2.42,2.42,0,0,1,0,.4,2.89,2.89,0,0,1,0,.44.77.77,0,0,1-.08.3.34.34,0,0,1-.13.17.27.27,0,0,1-.17.06,1,1,0,0,1-.41-.17,4.75,4.75,0,0,0-.68-.34,7.68,7.68,0,0,0-1-.35,4.66,4.66,0,0,0-1.3-.17,4.08,4.08,0,0,0-1.16.15,2.32,2.32,0,0,0-.82.39,1.8,1.8,0,0,0-.65,1.39,1.51,1.51,0,0,0,.32,1,2.87,2.87,0,0,0,.81.68,6.72,6.72,0,0,0,1.14.54c.43.15.86.32,1.3.49a13.73,13.73,0,0,1,1.32.56,5.07,5.07,0,0,1,1.15.75,3.41,3.41,0,0,1,.8,1.07A3.34,3.34,0,0,1,736.06,354.14Z"/><path class="cls-3" d="M374.21,192.58c-1.81-27.34-8.68-51.63-20.7-72.58l-.59-1a7.66,7.66,0,0,0-.45-.74,179.16,179.16,0,0,0-20.1-26.38.41.41,0,0,0-.15-.14C312.29,70,278.51,43.39,230.11,39.07,184.43,35,138.74,52,105,84.21c-.66.6-1.31,1.22-1.93,1.84C59.14,128.4,43.59,191.56,62.2,258.21c12.8,45.93,39.85,83.7,68.55,120.54,25.72,33,52.49,65.28,71.21,103.1,4.24,8.51,8,17.25,13.18,28.39C232.18,464.16,260,428,288,392c12.7-16.32,25.41-32.68,37.37-49.53C357.16,297.59,377.93,248.71,374.21,192.58Z"/><rect class="cls-1" x="185.53" y="106.63" width="58.06" height="196.75" rx="6.07"/><rect class="cls-1" x="116.18" y="175.98" width="196.75" height="58.06" rx="6.07"/></g></g></svg>