<svg xmlns="http://www.w3.org/2000/svg" viewBox="0 0 804 853.77"><defs><style>.cls-1{fill:#09f;}.cls-2{font-size:86.47px;font-family:Calibri;}.cls-2,.cls-3{fill:#fff;}</style></defs><title>Recurso 16</title><g id="Capa_2" data-name="Capa 2"><g id="Capa_1-2" data-name="Capa 1"><rect class="cls-1" width="804" height="853.77"/><text class="cls-2" transform="translate(268.27 647.66) scale(1.06 1)">asignar</text><path class="cls-3" d="M249.19,712.41a5.29,5.29,0,0,1-.52,2.4,5.2,5.2,0,0,1-1.45,1.78,6.45,6.45,0,0,1-2.19,1.1,9.44,9.44,0,0,1-2.71.37,10.06,10.06,0,0,1-1.88-.16,10.54,10.54,0,0,1-1.55-.4,7.93,7.93,0,0,1-1.14-.49,3,3,0,0,1-.64-.43,1.13,1.13,0,0,1-.27-.45,2.84,2.84,0,0,1-.08-.73,4,4,0,0,1,0-.54,1.26,1.26,0,0,1,.09-.35.36.36,0,0,1,.16-.18.38.38,0,0,1,.22-.06,1.38,1.38,0,0,1,.62.26,9.1,9.1,0,0,0,1,.54,9.5,9.5,0,0,0,1.51.56,7.25,7.25,0,0,0,2,.26,5.44,5.44,0,0,0,1.61-.23,3.75,3.75,0,0,0,1.25-.62,2.86,2.86,0,0,0,.8-1,3.11,3.11,0,0,0,.28-1.35,2.44,2.44,0,0,0-.39-1.39,3.82,3.82,0,0,0-1-1,9.11,9.11,0,0,0-1.46-.8l-1.68-.74a17.38,17.38,0,0,1-1.67-.84,6.52,6.52,0,0,1-1.45-1.08,4.87,4.87,0,0,1-1-1.45,4.59,4.59,0,0,1-.4-2,4.7,4.7,0,0,1,.46-2.13,4.38,4.38,0,0,1,1.28-1.58,5.94,5.94,0,0,1,1.95-1,8.91,8.91,0,0,1,3.8-.22,8.26,8.26,0,0,1,1.28.3,7.26,7.26,0,0,1,1.07.41,3,3,0,0,1,.62.37.74.74,0,0,1,.27.43,1.86,1.86,0,0,1,0,.3c0,.12,0,.27,0,.46a3.32,3.32,0,0,1,0,.47,2.15,2.15,0,0,1-.07.35.47.47,0,0,1-.13.21.36.36,0,0,1-.2.06,1.28,1.28,0,0,1-.54-.2c-.24-.14-.54-.3-.9-.47a8,8,0,0,0-1.25-.47,5.92,5.92,0,0,0-1.64-.22,4.53,4.53,0,0,0-1.46.22,3,3,0,0,0-1,.57,2.39,2.39,0,0,0-.61.84,2.79,2.79,0,0,0-.2,1,2.37,2.37,0,0,0,.39,1.37,3.75,3.75,0,0,0,1,1,9.37,9.37,0,0,0,1.48.82l1.69.74c.57.25,1.13.53,1.68.83a7,7,0,0,1,1.48,1.07,5,5,0,0,1,1.05,1.45A4.58,4.58,0,0,1,249.19,712.41Z"/><path class="cls-3" d="M255.61,699.6a1.56,1.56,0,0,1-.34,1.17,1.9,1.9,0,0,1-1.26.31,1.93,1.93,0,0,1-1.25-.3,2.18,2.18,0,0,1,0-2.32,2,2,0,0,1,1.27-.31,1.84,1.84,0,0,1,1.24.31A1.52,1.52,0,0,1,255.61,699.6Zm-.29,17.81a.34.34,0,0,1-.06.2.59.59,0,0,1-.21.14,1.41,1.41,0,0,1-.39.09,5.48,5.48,0,0,1-.64,0,5.22,5.22,0,0,1-.62,0,1.59,1.59,0,0,1-.4-.09.41.41,0,0,1-.2-.14.34.34,0,0,1-.06-.2V704.1a.31.31,0,0,1,.06-.19.36.36,0,0,1,.2-.15,1.59,1.59,0,0,1,.4-.09,5.22,5.22,0,0,1,.62,0,5.48,5.48,0,0,1,.64,0,1.41,1.41,0,0,1,.39.09.49.49,0,0,1,.21.15.31.31,0,0,1,.06.19Z"/><path class="cls-3" d="M268.91,713.79a4,4,0,0,1-.4,1.82,3.64,3.64,0,0,1-1.13,1.34,5.16,5.16,0,0,1-1.75.83,8.25,8.25,0,0,1-2.23.28A9.32,9.32,0,0,1,262,718a8.5,8.5,0,0,1-1.22-.28,6.56,6.56,0,0,1-.92-.36,2.34,2.34,0,0,1-.54-.33.82.82,0,0,1-.25-.41,2.41,2.41,0,0,1-.08-.73,3.09,3.09,0,0,1,0-.47,1.53,1.53,0,0,1,.08-.31.29.29,0,0,1,.13-.17.33.33,0,0,1,.2,0,1.05,1.05,0,0,1,.5.2c.23.13.5.27.83.43a7.39,7.39,0,0,0,1.17.44,5.48,5.48,0,0,0,1.54.2,4.86,4.86,0,0,0,1.19-.14,2.64,2.64,0,0,0,.92-.39,1.73,1.73,0,0,0,.6-.66,2,2,0,0,0,.21-.94,1.5,1.5,0,0,0-.3-1,2.92,2.92,0,0,0-.81-.68,6.11,6.11,0,0,0-1.12-.52l-1.29-.48c-.44-.17-.87-.36-1.3-.57a5.39,5.39,0,0,1-1.13-.78,3.62,3.62,0,0,1-.8-1.09,3.45,3.45,0,0,1-.31-1.53,3.71,3.71,0,0,1,.32-1.5,3.65,3.65,0,0,1,1-1.26,4.78,4.78,0,0,1,1.6-.86,6.93,6.93,0,0,1,2.25-.33,7,7,0,0,1,1.12.09,8.22,8.22,0,0,1,1,.22,5.47,5.47,0,0,1,.77.29,3.56,3.56,0,0,1,.48.27.74.74,0,0,1,.22.21.5.5,0,0,1,.08.2c0,.08,0,.17.05.28s0,.24,0,.39,0,.32,0,.44a1,1,0,0,1-.08.3.4.4,0,0,1-.13.17.29.29,0,0,1-.17.06.9.9,0,0,1-.41-.17,7.45,7.45,0,0,0-.69-.34,7,7,0,0,0-1-.35,4.72,4.72,0,0,0-1.3-.16,4.05,4.05,0,0,0-1.16.14,2.1,2.1,0,0,0-.82.4,1.7,1.7,0,0,0-.49.61,1.8,1.8,0,0,0-.16.77,1.5,1.5,0,0,0,.31,1,3,3,0,0,0,.82.69,7.59,7.59,0,0,0,1.14.53l1.3.49a13.57,13.57,0,0,1,1.31.56,4.86,4.86,0,0,1,1.15.75,3.6,3.6,0,0,1,.81,1.07A3.34,3.34,0,0,1,268.91,713.79Z"/><path class="cls-3" d="M279.55,716.43a3,3,0,0,1-.06.68.85.85,0,0,1-.19.37,1.19,1.19,0,0,1-.38.23,4.4,4.4,0,0,1-.57.17l-.68.11a6.58,6.58,0,0,1-2.59-.23,3,3,0,0,1-1.28-.83,3.38,3.38,0,0,1-.73-1.41,7.84,7.84,0,0,1-.22-2v-7.78h-2a.43.43,0,0,1-.38-.24,1.59,1.59,0,0,1-.14-.77,3.06,3.06,0,0,1,0-.47,1.74,1.74,0,0,1,.1-.32.42.42,0,0,1,.17-.18.51.51,0,0,1,.22,0h2v-3.16a.32.32,0,0,1,0-.19.53.53,0,0,1,.21-.16,1.46,1.46,0,0,1,.39-.1,5.83,5.83,0,0,1,.63,0,5.93,5.93,0,0,1,.64,0,1.46,1.46,0,0,1,.39.1.56.56,0,0,1,.2.16.33.33,0,0,1,.06.19v3.16H279a.48.48,0,0,1,.22,0,.59.59,0,0,1,.17.18,1.21,1.21,0,0,1,.1.32,3.18,3.18,0,0,1,0,.47,1.59,1.59,0,0,1-.14.77.43.43,0,0,1-.38.24h-3.61v7.43a4.1,4.1,0,0,0,.43,2.07,1.66,1.66,0,0,0,1.54.71,3,3,0,0,0,.64-.07c.19,0,.36-.09.5-.14l.38-.14a.64.64,0,0,1,.28-.07.28.28,0,0,1,.15,0,.23.23,0,0,1,.11.14,2.26,2.26,0,0,1,.07.28A2.76,2.76,0,0,1,279.55,716.43Z"/><path class="cls-3" d="M294.61,710.18a1,1,0,0,1-.31.82,1.07,1.07,0,0,1-.69.24h-9.26a7.69,7.69,0,0,0,.23,2,3.74,3.74,0,0,0,.79,1.52,3.48,3.48,0,0,0,1.42,1,6.2,6.2,0,0,0,2.16.34,8.72,8.72,0,0,0,1.78-.16,11.69,11.69,0,0,0,1.36-.34c.39-.13.7-.25.94-.35a1.56,1.56,0,0,1,.56-.16.42.42,0,0,1,.2,0,.34.34,0,0,1,.13.16,1,1,0,0,1,.07.29,2.81,2.81,0,0,1,0,.45,2.92,2.92,0,0,1,0,.33,1.45,1.45,0,0,1,0,.25.44.44,0,0,1-.08.2.55.55,0,0,1-.14.17,1.7,1.7,0,0,1-.51.27,8.16,8.16,0,0,1-1.09.36,14.43,14.43,0,0,1-1.55.32,12.52,12.52,0,0,1-1.89.14,9,9,0,0,1-3-.46,5.61,5.61,0,0,1-2.2-1.36,5.72,5.72,0,0,1-1.34-2.26,9.81,9.81,0,0,1-.46-3.17,9.53,9.53,0,0,1,.47-3.08,6.63,6.63,0,0,1,1.35-2.32,5.85,5.85,0,0,1,2.14-1.47,7.3,7.3,0,0,1,2.79-.51,7,7,0,0,1,2.82.51,5.2,5.2,0,0,1,1.92,1.35,5.42,5.42,0,0,1,1.1,2,8.42,8.42,0,0,1,.35,2.44Zm-2.59-.73a4.29,4.29,0,0,0-.91-3,3.55,3.55,0,0,0-2.82-1.09,3.85,3.85,0,0,0-1.68.34,3.68,3.68,0,0,0-1.21.9,4.06,4.06,0,0,0-.76,1.31,5.45,5.45,0,0,0-.29,1.56Z"/><path class="cls-3" d="M319.39,717.41a.29.29,0,0,1-.07.2.47.47,0,0,1-.2.14,1.41,1.41,0,0,1-.39.09,5.34,5.34,0,0,1-.62,0,5.48,5.48,0,0,1-.64,0,1.59,1.59,0,0,1-.4-.09.51.51,0,0,1-.21-.14.29.29,0,0,1-.07-.2v-8.09a7.31,7.31,0,0,0-.15-1.54,3.61,3.61,0,0,0-.5-1.2,2.33,2.33,0,0,0-.88-.77,2.84,2.84,0,0,0-1.25-.26,3,3,0,0,0-1.79.65,11.82,11.82,0,0,0-2,1.91v9.3a.34.34,0,0,1-.06.2.64.64,0,0,1-.22.14,1.5,1.5,0,0,1-.39.09,5.53,5.53,0,0,1-.63,0,5.59,5.59,0,0,1-.62,0,1.59,1.59,0,0,1-.4-.09.51.51,0,0,1-.21-.14.42.42,0,0,1-.05-.2v-8.09a6.66,6.66,0,0,0-.17-1.54,3.86,3.86,0,0,0-.52-1.2,2.43,2.43,0,0,0-.86-.77,2.84,2.84,0,0,0-1.25-.26,3,3,0,0,0-1.79.65,11.1,11.1,0,0,0-2,1.91v9.3a.34.34,0,0,1-.06.2.59.59,0,0,1-.21.14,1.41,1.41,0,0,1-.39.09,5.48,5.48,0,0,1-.64,0,5.22,5.22,0,0,1-.62,0,1.59,1.59,0,0,1-.4-.09.41.41,0,0,1-.2-.14.34.34,0,0,1-.06-.2V704.1a.39.39,0,0,1,.05-.2.34.34,0,0,1,.19-.15,1.36,1.36,0,0,1,.35-.09l.58,0,.57,0a1.17,1.17,0,0,1,.35.09.35.35,0,0,1,.18.15.32.32,0,0,1,.06.2v1.76a9,9,0,0,1,2.3-1.84,4.85,4.85,0,0,1,2.26-.59,5.81,5.81,0,0,1,1.57.2,4.28,4.28,0,0,1,1.23.53,4,4,0,0,1,.9.83,4.78,4.78,0,0,1,.63,1.08,13.07,13.07,0,0,1,1.33-1.23,8.41,8.41,0,0,1,1.22-.82,5.85,5.85,0,0,1,1.14-.45,4.71,4.71,0,0,1,1.12-.14,5.15,5.15,0,0,1,2.28.45,4.14,4.14,0,0,1,1.49,1.21,4.81,4.81,0,0,1,.82,1.77,9.15,9.15,0,0,1,.24,2.13Z"/><path class="cls-3" d="M334.68,717.42a.32.32,0,0,1-.12.27,1,1,0,0,1-.35.13,3.29,3.29,0,0,1-.64,0,3.73,3.73,0,0,1-.65,0,.83.83,0,0,1-.35-.13.34.34,0,0,1-.11-.27v-1.33a6.85,6.85,0,0,1-2,1.45,5.63,5.63,0,0,1-2.4.52,7,7,0,0,1-2-.27,4.71,4.71,0,0,1-1.53-.79,3.54,3.54,0,0,1-1-1.28,3.9,3.9,0,0,1-.35-1.71,3.67,3.67,0,0,1,1.87-3.33,7.24,7.24,0,0,1,2.22-.82,14.71,14.71,0,0,1,2.95-.28h1.94v-1a5.05,5.05,0,0,0-.17-1.36,2.26,2.26,0,0,0-.56-1,2.33,2.33,0,0,0-1-.6,4.91,4.91,0,0,0-1.5-.2,6.44,6.44,0,0,0-1.71.22,9.7,9.7,0,0,0-1.33.47,10.35,10.35,0,0,0-.95.48,1.38,1.38,0,0,1-.57.21.4.4,0,0,1-.22-.06.47.47,0,0,1-.16-.18.81.81,0,0,1-.1-.3,1.73,1.73,0,0,1,0-.41,2.24,2.24,0,0,1,.06-.58.84.84,0,0,1,.27-.41,3.25,3.25,0,0,1,.72-.45,8,8,0,0,1,1.19-.47,13.19,13.19,0,0,1,1.47-.36,9.54,9.54,0,0,1,1.61-.14,8.68,8.68,0,0,1,2.57.33,4.14,4.14,0,0,1,1.72,1,3.67,3.67,0,0,1,1,1.56,7.47,7.47,0,0,1,.29,2.18Zm-2.56-6.07h-2.2a8.39,8.39,0,0,0-1.85.17,3.82,3.82,0,0,0-1.29.5,2.07,2.07,0,0,0-.76.8,2.31,2.31,0,0,0-.24,1.07,2.1,2.1,0,0,0,.69,1.65,2.85,2.85,0,0,0,1.95.61,3.74,3.74,0,0,0,1.88-.49,7.91,7.91,0,0,0,1.82-1.49Z"/><path class="cls-3" d="M358.69,717.41a.36.36,0,0,1-.05.21.41.41,0,0,1-.19.14,1.84,1.84,0,0,1-.35.08,4,4,0,0,1-.53,0,4.22,4.22,0,0,1-.55,0,2.45,2.45,0,0,1-.36-.08.45.45,0,0,1-.2-.14.37.37,0,0,1-.06-.21v-1.76a9.26,9.26,0,0,1-2.31,1.77,5.39,5.39,0,0,1-2.61.64,5.6,5.6,0,0,1-2.64-.57,4.92,4.92,0,0,1-1.78-1.54,6.57,6.57,0,0,1-1-2.28,11.71,11.71,0,0,1-.31-2.75,11.38,11.38,0,0,1,.39-3.1,6.6,6.6,0,0,1,1.16-2.36,5,5,0,0,1,1.89-1.5,6.19,6.19,0,0,1,2.62-.53,5,5,0,0,1,2.26.51,8.05,8.05,0,0,1,2,1.5v-7.73a.46.46,0,0,1,0-.2.38.38,0,0,1,.22-.15l.39-.09a5.34,5.34,0,0,1,.62,0,5.48,5.48,0,0,1,.64,0l.39.09a.38.38,0,0,1,.21.15.31.31,0,0,1,.07.2Zm-2.59-9.36a9.71,9.71,0,0,0-2-1.87,3.65,3.65,0,0,0-2-.65,3,3,0,0,0-1.67.45,3.46,3.46,0,0,0-1.12,1.16,5.61,5.61,0,0,0-.63,1.65,8.9,8.9,0,0,0-.19,1.86,11.64,11.64,0,0,0,.16,2,5.55,5.55,0,0,0,.57,1.71,3.44,3.44,0,0,0,1.08,1.19,3,3,0,0,0,1.69.45,3.64,3.64,0,0,0,1-.13,3.81,3.81,0,0,0,1-.44,7.59,7.59,0,0,0,1-.81,12.67,12.67,0,0,0,1.16-1.22Z"/><path class="cls-3" d="M375.46,710.18a1,1,0,0,1-.31.82,1.1,1.1,0,0,1-.7.24h-9.26a7.67,7.67,0,0,0,.24,2,3.85,3.85,0,0,0,.78,1.52,3.58,3.58,0,0,0,1.43,1,6.14,6.14,0,0,0,2.15.34,8.75,8.75,0,0,0,1.79-.16,11.69,11.69,0,0,0,1.36-.34c.38-.13.7-.25.94-.35a1.51,1.51,0,0,1,.56-.16.46.46,0,0,1,.2,0,.42.42,0,0,1,.13.16,1.37,1.37,0,0,1,.07.29,3,3,0,0,1,0,.45,3.22,3.22,0,0,1,0,.33c0,.1,0,.18,0,.25a.6.6,0,0,1-.08.2.75.75,0,0,1-.14.17,2,2,0,0,1-.51.27,8.16,8.16,0,0,1-1.09.36,15,15,0,0,1-1.55.32,12.52,12.52,0,0,1-1.89.14,9.08,9.08,0,0,1-3-.46,5.58,5.58,0,0,1-2.19-1.36A5.72,5.72,0,0,1,363,714a9.81,9.81,0,0,1-.46-3.17,9.53,9.53,0,0,1,.47-3.08,6.34,6.34,0,0,1,1.35-2.32,5.9,5.9,0,0,1,2.13-1.47,7.39,7.39,0,0,1,2.8-.51,7,7,0,0,1,2.82.51,5.16,5.16,0,0,1,1.91,1.35,5.44,5.44,0,0,1,1.11,2,8.42,8.42,0,0,1,.35,2.44Zm-2.6-.73a4.28,4.28,0,0,0-.9-3,3.55,3.55,0,0,0-2.82-1.09,3.85,3.85,0,0,0-1.68.34,3.68,3.68,0,0,0-1.21.9,4.06,4.06,0,0,0-.76,1.31,5.14,5.14,0,0,0-.3,1.56Z"/><path class="cls-3" d="M397.2,717.42a.32.32,0,0,1-.12.27.89.89,0,0,1-.34.13,3.36,3.36,0,0,1-.64,0,3.56,3.56,0,0,1-.65,0,.78.78,0,0,1-.35-.13.31.31,0,0,1-.11-.27v-1.33a6.89,6.89,0,0,1-2.06,1.45,5.6,5.6,0,0,1-2.4.52,6.91,6.91,0,0,1-2-.27A4.61,4.61,0,0,1,387,717a3.56,3.56,0,0,1-1-1.28,4,4,0,0,1-.35-1.71,3.81,3.81,0,0,1,.48-2,3.91,3.91,0,0,1,1.39-1.38,7.24,7.24,0,0,1,2.22-.82,14.74,14.74,0,0,1,3-.28h1.93v-1a4.68,4.68,0,0,0-.17-1.36,2.24,2.24,0,0,0-.55-1,2.43,2.43,0,0,0-1-.6,4.91,4.91,0,0,0-1.5-.2,6.44,6.44,0,0,0-1.71.22,9.54,9.54,0,0,0-1.32.47,10.67,10.67,0,0,0-1,.48,1.33,1.33,0,0,1-.57.21.43.43,0,0,1-.22-.06.57.57,0,0,1-.16-.18.81.81,0,0,1-.1-.3,2.54,2.54,0,0,1,0-.41,2.31,2.31,0,0,1,0-.58.91.91,0,0,1,.27-.41,3.25,3.25,0,0,1,.72-.45,8.43,8.43,0,0,1,1.19-.47,13.19,13.19,0,0,1,1.47-.36,9.63,9.63,0,0,1,1.61-.14,8.79,8.79,0,0,1,2.58.33,4.1,4.1,0,0,1,1.71,1,3.67,3.67,0,0,1,1,1.56,7.15,7.15,0,0,1,.29,2.18Zm-2.56-6.07h-2.2a8.29,8.29,0,0,0-1.84.17,3.88,3.88,0,0,0-1.3.5,2.14,2.14,0,0,0-.76.8,2.31,2.31,0,0,0-.24,1.07,2.1,2.1,0,0,0,.69,1.65,2.87,2.87,0,0,0,1.95.61,3.72,3.72,0,0,0,1.88-.49,7.7,7.7,0,0,0,1.82-1.49Z"/><path class="cls-3" d="M410.77,713.79a4.12,4.12,0,0,1-.4,1.82,3.77,3.77,0,0,1-1.14,1.34,5.16,5.16,0,0,1-1.75.83,8.2,8.2,0,0,1-2.23.28,9.32,9.32,0,0,1-1.43-.11,8.83,8.83,0,0,1-1.22-.28,6.39,6.39,0,0,1-.91-.36,2.71,2.71,0,0,1-.55-.33.89.89,0,0,1-.25-.41,2.78,2.78,0,0,1-.08-.73,2.11,2.11,0,0,1,0-.47,1.61,1.61,0,0,1,.07-.31.34.34,0,0,1,.33-.22,1.08,1.08,0,0,1,.51.2c.22.13.5.27.83.43a7.25,7.25,0,0,0,1.16.44,5.55,5.55,0,0,0,1.55.2,4.77,4.77,0,0,0,1.18-.14,2.61,2.61,0,0,0,.93-.39,1.73,1.73,0,0,0,.6-.66,2,2,0,0,0,.21-.94,1.45,1.45,0,0,0-.31-1,3,3,0,0,0-.8-.68,6.22,6.22,0,0,0-1.13-.52l-1.28-.48a13.81,13.81,0,0,1-1.3-.57,5.39,5.39,0,0,1-1.13-.78,3.65,3.65,0,0,1-.81-1.09,3.6,3.6,0,0,1-.3-1.53,3.55,3.55,0,0,1,.32-1.5,3.42,3.42,0,0,1,1-1.26,4.78,4.78,0,0,1,1.6-.86,6.91,6.91,0,0,1,2.24-.33,7.17,7.17,0,0,1,1.13.09,8,8,0,0,1,1,.22,6.18,6.18,0,0,1,.78.29,4.34,4.34,0,0,1,.48.27.89.89,0,0,1,.22.21.7.7,0,0,1,.08.2c0,.08,0,.17,0,.28a2.13,2.13,0,0,1,0,.39,2.76,2.76,0,0,1,0,.44,1,1,0,0,1-.07.3.41.41,0,0,1-.14.17.27.27,0,0,1-.17.06,1,1,0,0,1-.41-.17,6.09,6.09,0,0,0-.68-.34,7,7,0,0,0-1-.35,4.8,4.8,0,0,0-1.31-.16,4.1,4.1,0,0,0-1.16.14,2.17,2.17,0,0,0-.82.4,1.67,1.67,0,0,0-.48.61,1.8,1.8,0,0,0-.16.77,1.5,1.5,0,0,0,.31,1,3.08,3.08,0,0,0,.81.69,7.59,7.59,0,0,0,1.14.53c.43.15.86.32,1.31.49a13.57,13.57,0,0,1,1.31.56,5.07,5.07,0,0,1,1.15.75,3.41,3.41,0,0,1,.8,1.07A3.34,3.34,0,0,1,410.77,713.79Z"/><path class="cls-3" d="M417.33,699.6a1.56,1.56,0,0,1-.35,1.17,2.71,2.71,0,0,1-2.5,0,1.5,1.5,0,0,1-.34-1.15,1.56,1.56,0,0,1,.34-1.17,2,2,0,0,1,1.27-.31,1.84,1.84,0,0,1,1.24.31A1.48,1.48,0,0,1,417.33,699.6Zm-.3,17.81a.34.34,0,0,1-.06.2.51.51,0,0,1-.21.14,1.41,1.41,0,0,1-.39.09,5.48,5.48,0,0,1-.64,0,5.22,5.22,0,0,1-.62,0,1.59,1.59,0,0,1-.4-.09.41.41,0,0,1-.2-.14.34.34,0,0,1-.06-.2V704.1a.31.31,0,0,1,.06-.19.36.36,0,0,1,.2-.15,1.59,1.59,0,0,1,.4-.09,5.22,5.22,0,0,1,.62,0,5.48,5.48,0,0,1,.64,0,1.41,1.41,0,0,1,.39.09.44.44,0,0,1,.21.15.31.31,0,0,1,.06.19Z"/><path class="cls-3" d="M433.54,704.7a1.53,1.53,0,0,1-.14.75.46.46,0,0,1-.39.23h-2a3,3,0,0,1,.76,1.18,4,4,0,0,1,.22,1.34,5.08,5.08,0,0,1-.39,2,4.06,4.06,0,0,1-1.12,1.5,5.11,5.11,0,0,1-1.72.94,7.39,7.39,0,0,1-2.22.32,6.17,6.17,0,0,1-1.63-.21,3.75,3.75,0,0,1-1.2-.54,2.23,2.23,0,0,0-.46.6,1.67,1.67,0,0,0-.18.79,1,1,0,0,0,.51.86,2.63,2.63,0,0,0,1.35.37l3.67.14a7.59,7.59,0,0,1,1.92.28A4.83,4.83,0,0,1,432,716a3.31,3.31,0,0,1,1,1.11,3.14,3.14,0,0,1,.36,1.53,3.92,3.92,0,0,1-1.65,3.2,6.59,6.59,0,0,1-2.13,1,11.6,11.6,0,0,1-3.07.36,12.62,12.62,0,0,1-2.89-.28,6.53,6.53,0,0,1-2-.74,2.88,2.88,0,0,1-1.46-2.56,3.47,3.47,0,0,1,.51-1.82,4.27,4.27,0,0,1,.64-.79,9.81,9.81,0,0,1,.88-.75,2.73,2.73,0,0,1-1.13-.93,2.23,2.23,0,0,1-.37-1.21,3.35,3.35,0,0,1,.39-1.62,5.7,5.7,0,0,1,1-1.27,4.3,4.3,0,0,1-.76-1.23,4.39,4.39,0,0,1-.28-1.67,4.92,4.92,0,0,1,.4-2,4.29,4.29,0,0,1,1.13-1.52,5,5,0,0,1,1.72-1,7.09,7.09,0,0,1,2.2-.33,8.86,8.86,0,0,1,1.19.07,7.75,7.75,0,0,1,1,.18H433a.42.42,0,0,1,.4.25A1.58,1.58,0,0,1,433.54,704.7Zm-2.73,14.06a1.49,1.49,0,0,0-.74-1.33,4,4,0,0,0-2-.49l-3.64-.12a6.16,6.16,0,0,0-.82.7,4,4,0,0,0-.51.64,2.23,2.23,0,0,0-.26.6,3,3,0,0,0-.07.6,1.58,1.58,0,0,0,1,1.46,6.82,6.82,0,0,0,2.88.49,7.78,7.78,0,0,0,2-.21,3.65,3.65,0,0,0,1.27-.57,2.12,2.12,0,0,0,.7-.81A2.31,2.31,0,0,0,430.81,718.76Zm-1.3-10.55a2.79,2.79,0,0,0-.79-2.12,3.07,3.07,0,0,0-2.24-.76,3.25,3.25,0,0,0-1.3.23,2.59,2.59,0,0,0-.92.65,2.7,2.7,0,0,0-.55,1,3.52,3.52,0,0,0-.18,1.13,2.71,2.71,0,0,0,.79,2.07,3.07,3.07,0,0,0,2.21.75,3.4,3.4,0,0,0,1.33-.23,2.55,2.55,0,0,0,.93-.63,2.75,2.75,0,0,0,.54-.94A3.49,3.49,0,0,0,429.51,708.21Z"/><path class="cls-3" d="M449,717.41a.34.34,0,0,1-.06.2.54.54,0,0,1-.2.14,1.61,1.61,0,0,1-.39.09,5.53,5.53,0,0,1-.63,0,5.6,5.6,0,0,1-.64,0,1.41,1.41,0,0,1-.39-.09.54.54,0,0,1-.2-.14.35.35,0,0,1-.07-.2v-7.79a7.59,7.59,0,0,0-.18-1.84,3.9,3.9,0,0,0-.55-1.2,2.41,2.41,0,0,0-.93-.77,3.2,3.2,0,0,0-1.32-.26,3.41,3.41,0,0,0-1.94.65,10.3,10.3,0,0,0-2,1.91v9.3a.34.34,0,0,1-.06.2.54.54,0,0,1-.2.14,1.61,1.61,0,0,1-.39.09,5.6,5.6,0,0,1-.64,0,5.53,5.53,0,0,1-.63,0,1.59,1.59,0,0,1-.4-.09.47.47,0,0,1-.2-.14.33.33,0,0,1-.05-.2V704.1a.4.4,0,0,1,0-.2.38.38,0,0,1,.19-.15,1.34,1.34,0,0,1,.36-.09l.58,0,.57,0a1.26,1.26,0,0,1,.35.09.45.45,0,0,1,.18.15.39.39,0,0,1,.05.2v1.76a8.47,8.47,0,0,1,2.37-1.84,5.33,5.33,0,0,1,2.38-.59,5.57,5.57,0,0,1,2.37.45,4.19,4.19,0,0,1,1.55,1.21,4.56,4.56,0,0,1,.85,1.77,9.52,9.52,0,0,1,.26,2.43Z"/><path class="cls-3" d="M464.26,717.42a.3.3,0,0,1-.13.27.89.89,0,0,1-.34.13,3.36,3.36,0,0,1-.64,0,3.65,3.65,0,0,1-.65,0,.78.78,0,0,1-.35-.13.34.34,0,0,1-.11-.27v-1.33a6.89,6.89,0,0,1-2.06,1.45,5.59,5.59,0,0,1-2.39.52,7,7,0,0,1-2-.27,4.61,4.61,0,0,1-1.53-.79,3.68,3.68,0,0,1-1-1.28,4,4,0,0,1-.35-1.71,3.72,3.72,0,0,1,.49-2,3.76,3.76,0,0,1,1.39-1.38,7,7,0,0,1,2.22-.82,14.56,14.56,0,0,1,2.95-.28h1.94v-1a4.67,4.67,0,0,0-.18-1.36,2.24,2.24,0,0,0-.55-1,2.46,2.46,0,0,0-1-.6,5,5,0,0,0-1.5-.2,6.33,6.33,0,0,0-1.71.22,9.66,9.66,0,0,0-2.28,1,1.43,1.43,0,0,1-.57.21.38.38,0,0,1-.22-.06.49.49,0,0,1-.17-.18,1.05,1.05,0,0,1-.1-.3,2.54,2.54,0,0,1,0-.41,2.9,2.9,0,0,1,.05-.58.91.91,0,0,1,.27-.41,3.14,3.14,0,0,1,.73-.45,8.28,8.28,0,0,1,1.18-.47,13.19,13.19,0,0,1,1.47-.36,9.63,9.63,0,0,1,1.61-.14,8.79,8.79,0,0,1,2.58.33,4.14,4.14,0,0,1,1.72,1,3.76,3.76,0,0,1,.95,1.56,7.13,7.13,0,0,1,.3,2.18Zm-2.56-6.07h-2.21a8.29,8.29,0,0,0-1.84.17,4,4,0,0,0-1.3.5,2.22,2.22,0,0,0-.76.8,2.31,2.31,0,0,0-.24,1.07,2.08,2.08,0,0,0,.7,1.65,2.82,2.82,0,0,0,1.94.61,3.75,3.75,0,0,0,1.89-.49,8.12,8.12,0,0,0,1.82-1.49Z"/><path class="cls-3" d="M479.1,715.38c0,.17,0,.32,0,.44a1.25,1.25,0,0,1-.05.31c0,.08-.06.16-.09.22a1.34,1.34,0,0,1-.25.28,3.54,3.54,0,0,1-.67.46,6.39,6.39,0,0,1-1,.49,8.81,8.81,0,0,1-1.28.35,7.89,7.89,0,0,1-4.11-.34,5.12,5.12,0,0,1-2-1.39,6.27,6.27,0,0,1-1.2-2.23,10.42,10.42,0,0,1-.41-3.05,10,10,0,0,1,.51-3.38,6.19,6.19,0,0,1,1.39-2.32,5.48,5.48,0,0,1,2.07-1.34,7.53,7.53,0,0,1,2.59-.43,6.91,6.91,0,0,1,1.3.12,6.44,6.44,0,0,1,1.17.31,4.54,4.54,0,0,1,.94.44,3.38,3.38,0,0,1,.6.43,1.92,1.92,0,0,1,.26.28.9.9,0,0,1,.12.24,1.52,1.52,0,0,1,.06.32c0,.12,0,.27,0,.45a1.67,1.67,0,0,1-.14.8.42.42,0,0,1-.35.23,1,1,0,0,1-.54-.24,6.27,6.27,0,0,0-.77-.54,5.67,5.67,0,0,0-1.13-.54,4.42,4.42,0,0,0-1.57-.25,3.3,3.3,0,0,0-2.85,1.36,6.5,6.5,0,0,0-1,3.92A9,9,0,0,0,471,713a4.68,4.68,0,0,0,.76,1.62,3.06,3.06,0,0,0,1.23,1,4.13,4.13,0,0,0,1.66.32,4.18,4.18,0,0,0,1.56-.27,6.38,6.38,0,0,0,1.17-.59c.32-.21.6-.4.82-.57a1,1,0,0,1,.53-.26.28.28,0,0,1,.18.06.4.4,0,0,1,.14.2,2,2,0,0,1,.08.35C479.09,715,479.1,715.19,479.1,715.38Z"/><path class="cls-3" d="M485.4,699.6a1.56,1.56,0,0,1-.35,1.17,1.9,1.9,0,0,1-1.26.31,1.93,1.93,0,0,1-1.25-.3,2.18,2.18,0,0,1,0-2.32,2,2,0,0,1,1.27-.31,1.84,1.84,0,0,1,1.24.31A1.52,1.52,0,0,1,485.4,699.6Zm-.3,17.81a.34.34,0,0,1-.06.2.59.59,0,0,1-.21.14,1.41,1.41,0,0,1-.39.09,5.48,5.48,0,0,1-.64,0,5.22,5.22,0,0,1-.62,0,1.59,1.59,0,0,1-.4-.09.41.41,0,0,1-.2-.14.34.34,0,0,1-.06-.2V704.1a.31.31,0,0,1,.06-.19.36.36,0,0,1,.2-.15,1.59,1.59,0,0,1,.4-.09,5.22,5.22,0,0,1,.62,0,5.48,5.48,0,0,1,.64,0,1.41,1.41,0,0,1,.39.09.49.49,0,0,1,.21.15.31.31,0,0,1,.06.19Z"/><path class="cls-3" d="M502.94,710.61a9.52,9.52,0,0,1-.45,3,6.78,6.78,0,0,1-1.35,2.36,6.16,6.16,0,0,1-2.25,1.55,8.26,8.26,0,0,1-3.14.55,8.43,8.43,0,0,1-3-.49,5.47,5.47,0,0,1-2.15-1.42,5.9,5.9,0,0,1-1.28-2.26,10,10,0,0,1-.42-3,9.82,9.82,0,0,1,.44-3,6.4,6.4,0,0,1,1.35-2.36,6,6,0,0,1,2.24-1.54,9.39,9.39,0,0,1,6.16-.06,5.58,5.58,0,0,1,2.15,1.42,6.13,6.13,0,0,1,1.29,2.26A9.68,9.68,0,0,1,502.94,710.61Zm-2.67.16a9.53,9.53,0,0,0-.21-2,5,5,0,0,0-.71-1.69,3.45,3.45,0,0,0-1.32-1.15,5.29,5.29,0,0,0-4.06,0,3.47,3.47,0,0,0-1.36,1.09,4.58,4.58,0,0,0-.8,1.66,8.16,8.16,0,0,0-.26,2.1,9.72,9.72,0,0,0,.21,2.06,4.77,4.77,0,0,0,.71,1.67,3.48,3.48,0,0,0,1.34,1.14,4.59,4.59,0,0,0,2.08.42,4.65,4.65,0,0,0,2-.38,3.74,3.74,0,0,0,1.37-1.08,4.57,4.57,0,0,0,.79-1.66A8.66,8.66,0,0,0,500.27,710.77Zm-3.08-13.18a1,1,0,0,1,.22-.27.86.86,0,0,1,.3-.16,2.23,2.23,0,0,1,.45-.09,5.85,5.85,0,0,1,.64,0,4.43,4.43,0,0,1,.71.05.93.93,0,0,1,.38.15.24.24,0,0,1,.1.22.48.48,0,0,1-.14.26L497,701.17a1.79,1.79,0,0,1-.23.24,1.28,1.28,0,0,1-.23.14,1.34,1.34,0,0,1-.35.07l-.52,0a2.75,2.75,0,0,1-.55,0,.61.61,0,0,1-.28-.12.19.19,0,0,1-.07-.19.81.81,0,0,1,.14-.28Z"/><path class="cls-3" d="M518.84,717.41a.34.34,0,0,1-.06.2.54.54,0,0,1-.2.14,1.61,1.61,0,0,1-.39.09,5.53,5.53,0,0,1-.63,0,5.6,5.6,0,0,1-.64,0,1.41,1.41,0,0,1-.39-.09.54.54,0,0,1-.2-.14.34.34,0,0,1-.06-.2v-7.79a7.52,7.52,0,0,0-.19-1.84,3.9,3.9,0,0,0-.55-1.2,2.41,2.41,0,0,0-.93-.77,3.2,3.2,0,0,0-1.32-.26,3.44,3.44,0,0,0-1.94.65,10.3,10.3,0,0,0-2,1.91v9.3a.34.34,0,0,1-.06.2.54.54,0,0,1-.2.14,1.61,1.61,0,0,1-.39.09,5.6,5.6,0,0,1-.64,0,5.53,5.53,0,0,1-.63,0,1.7,1.7,0,0,1-.4-.09.47.47,0,0,1-.2-.14.33.33,0,0,1-.05-.2V704.1a.4.4,0,0,1,0-.2.38.38,0,0,1,.19-.15,1.34,1.34,0,0,1,.36-.09l.58,0,.57,0a1.17,1.17,0,0,1,.35.09.45.45,0,0,1,.18.15.31.31,0,0,1,.05.2v1.76a8.61,8.61,0,0,1,2.37-1.84,5.33,5.33,0,0,1,2.38-.59,5.57,5.57,0,0,1,2.37.45,4.19,4.19,0,0,1,1.55,1.21,4.72,4.72,0,0,1,.86,1.77,10,10,0,0,1,.25,2.43Z"/><path class="cls-3" d="M542.82,717.41a.36.36,0,0,1-.05.21.41.41,0,0,1-.19.14,1.84,1.84,0,0,1-.35.08,3.89,3.89,0,0,1-.53,0,4.22,4.22,0,0,1-.55,0,2.45,2.45,0,0,1-.36-.08.45.45,0,0,1-.2-.14.37.37,0,0,1-.06-.21v-1.76a9.26,9.26,0,0,1-2.31,1.77,5.39,5.39,0,0,1-2.61.64,5.66,5.66,0,0,1-2.64-.57,4.92,4.92,0,0,1-1.78-1.54,6.57,6.57,0,0,1-1-2.28,11.71,11.71,0,0,1-.31-2.75,11.38,11.38,0,0,1,.39-3.1,6.77,6.77,0,0,1,1.16-2.36,5.12,5.12,0,0,1,1.89-1.5,6.19,6.19,0,0,1,2.62-.53,5,5,0,0,1,2.26.51,8.05,8.05,0,0,1,2,1.5v-7.73a.36.36,0,0,1,.06-.2c0-.07.1-.11.21-.15l.4-.09a5,5,0,0,1,.61,0,5.48,5.48,0,0,1,.64,0l.39.09a.38.38,0,0,1,.21.15.31.31,0,0,1,.07.2Zm-2.59-9.36a9.71,9.71,0,0,0-2-1.87,3.65,3.65,0,0,0-2-.65,3,3,0,0,0-1.67.45,3.46,3.46,0,0,0-1.12,1.16,5.33,5.33,0,0,0-.62,1.65,8.9,8.9,0,0,0-.2,1.86,11.64,11.64,0,0,0,.16,2,5.55,5.55,0,0,0,.57,1.71,3.44,3.44,0,0,0,1.08,1.19,3,3,0,0,0,1.69.45,3.64,3.64,0,0,0,1-.13,3.81,3.81,0,0,0,1-.44,7.59,7.59,0,0,0,1-.81,12.67,12.67,0,0,0,1.16-1.22Z"/><path class="cls-3" d="M559.59,710.18a1,1,0,0,1-.31.82,1.08,1.08,0,0,1-.7.24h-9.26a7.67,7.67,0,0,0,.24,2,3.85,3.85,0,0,0,.78,1.52,3.58,3.58,0,0,0,1.43,1,6.18,6.18,0,0,0,2.15.34,8.75,8.75,0,0,0,1.79-.16,11.69,11.69,0,0,0,1.36-.34c.38-.13.7-.25.94-.35a1.51,1.51,0,0,1,.56-.16.46.46,0,0,1,.2,0,.42.42,0,0,1,.13.16,1,1,0,0,1,.07.29,3,3,0,0,1,0,.45,3.22,3.22,0,0,1,0,.33,1.45,1.45,0,0,1,0,.25.6.6,0,0,1-.08.2.55.55,0,0,1-.14.17,2,2,0,0,1-.51.27,8.16,8.16,0,0,1-1.09.36,15,15,0,0,1-1.55.32,12.52,12.52,0,0,1-1.89.14,9.08,9.08,0,0,1-3-.46,5.58,5.58,0,0,1-2.19-1.36,5.72,5.72,0,0,1-1.34-2.26,9.81,9.81,0,0,1-.46-3.17,9.53,9.53,0,0,1,.47-3.08,6.34,6.34,0,0,1,1.35-2.32,5.85,5.85,0,0,1,2.14-1.47,7.3,7.3,0,0,1,2.79-.51,7,7,0,0,1,2.82.51,5.2,5.2,0,0,1,1.92,1.35,5.42,5.42,0,0,1,1.1,2,8.42,8.42,0,0,1,.35,2.44Zm-2.6-.73a4.24,4.24,0,0,0-.9-3,3.55,3.55,0,0,0-2.82-1.09,3.85,3.85,0,0,0-1.68.34,3.68,3.68,0,0,0-1.21.9,4.06,4.06,0,0,0-.76,1.31,5.46,5.46,0,0,0-.3,1.56Z"/><path class="cls-3" d="M255,751.73c0,.17,0,.32,0,.44a2,2,0,0,1,0,.31,1.12,1.12,0,0,1-.1.22,1.1,1.1,0,0,1-.25.28,3.4,3.4,0,0,1-.66.46,6.51,6.51,0,0,1-1.06.49,8.66,8.66,0,0,1-1.27.35,7.35,7.35,0,0,1-1.42.13,7.25,7.25,0,0,1-2.69-.47,5.12,5.12,0,0,1-2-1.39,6.12,6.12,0,0,1-1.2-2.23,10.08,10.08,0,0,1-.42-3.05,10,10,0,0,1,.51-3.38,6.33,6.33,0,0,1,1.39-2.32,5.52,5.52,0,0,1,2.08-1.34,7.53,7.53,0,0,1,2.59-.43,7,7,0,0,1,1.3.12,6.33,6.33,0,0,1,1.16.31,4.63,4.63,0,0,1,.95.44,3.38,3.38,0,0,1,.6.43,1.92,1.92,0,0,1,.26.28,1.34,1.34,0,0,1,.12.24,1.52,1.52,0,0,1,.06.32c0,.12,0,.27,0,.44a1.58,1.58,0,0,1-.14.81.4.4,0,0,1-.34.23.91.91,0,0,1-.54-.24,6.27,6.27,0,0,0-.77-.54,5.67,5.67,0,0,0-1.13-.54,4.44,4.44,0,0,0-1.58-.25,3.31,3.31,0,0,0-2.85,1.36,6.57,6.57,0,0,0-1,3.92,9,9,0,0,0,.26,2.26,4.5,4.5,0,0,0,.76,1.62,3.19,3.19,0,0,0,1.22,1,4.73,4.73,0,0,0,3.23,0,6,6,0,0,0,1.16-.59c.33-.21.61-.4.83-.57a1.06,1.06,0,0,1,.52-.26.29.29,0,0,1,.19.06.39.39,0,0,1,.13.2,1.06,1.06,0,0,1,.08.35A3.89,3.89,0,0,1,255,751.73Z"/><path class="cls-3" d="M268.71,753.77a.32.32,0,0,1-.12.27.89.89,0,0,1-.34.13,3.36,3.36,0,0,1-.64.05,3.56,3.56,0,0,1-.65-.05.78.78,0,0,1-.35-.13.31.31,0,0,1-.11-.27v-1.33a6.89,6.89,0,0,1-2.06,1.45,5.6,5.6,0,0,1-2.4.52,6.91,6.91,0,0,1-2-.27,4.45,4.45,0,0,1-1.53-.8,3.45,3.45,0,0,1-1-1.27,4,4,0,0,1-.35-1.71,3.81,3.81,0,0,1,.48-2A3.91,3.91,0,0,1,259,747a7.24,7.24,0,0,1,2.22-.82,14.74,14.74,0,0,1,3-.28h1.93v-1a4.68,4.68,0,0,0-.17-1.36,2.24,2.24,0,0,0-.55-1,2.43,2.43,0,0,0-1-.6,4.91,4.91,0,0,0-1.5-.2,6.44,6.44,0,0,0-1.71.22,9.54,9.54,0,0,0-1.32.47c-.38.17-.7.33-1,.47a1.25,1.25,0,0,1-.57.22.43.43,0,0,1-.22-.06.57.57,0,0,1-.16-.18.81.81,0,0,1-.1-.3,2.54,2.54,0,0,1,0-.41,2.31,2.31,0,0,1,.05-.58.91.91,0,0,1,.27-.41,3.25,3.25,0,0,1,.72-.45,8.43,8.43,0,0,1,1.19-.47,11.3,11.3,0,0,1,1.47-.36,9.63,9.63,0,0,1,1.61-.14,8.79,8.79,0,0,1,2.58.33,4.1,4.1,0,0,1,1.71.95,3.67,3.67,0,0,1,1,1.56,7.15,7.15,0,0,1,.29,2.18Zm-2.56-6.07H264a8.29,8.29,0,0,0-1.84.17,3.88,3.88,0,0,0-1.3.5,2.14,2.14,0,0,0-.76.8,2.28,2.28,0,0,0-.24,1.07,2.1,2.1,0,0,0,.69,1.65,2.87,2.87,0,0,0,1.95.61,3.72,3.72,0,0,0,1.88-.49,7.7,7.7,0,0,0,1.82-1.49Z"/><path class="cls-3" d="M294.31,753.76a.35.35,0,0,1-.07.2.54.54,0,0,1-.2.14,1.5,1.5,0,0,1-.39.09,5.53,5.53,0,0,1-.63,0,5.6,5.6,0,0,1-.64,0,1.7,1.7,0,0,1-.4-.09.7.7,0,0,1-.21-.14.34.34,0,0,1-.06-.2v-8.09a7.31,7.31,0,0,0-.15-1.54,3.84,3.84,0,0,0-.5-1.2,2.41,2.41,0,0,0-.88-.77,2.84,2.84,0,0,0-1.25-.26,3,3,0,0,0-1.79.65,11.45,11.45,0,0,0-2,1.91v9.3a.35.35,0,0,1-.07.2.51.51,0,0,1-.21.14,1.59,1.59,0,0,1-.4.09,5.22,5.22,0,0,1-.62,0,5.46,5.46,0,0,1-.62,0,1.49,1.49,0,0,1-.4-.09.51.51,0,0,1-.21-.14.42.42,0,0,1-.05-.2v-8.09a6.66,6.66,0,0,0-.17-1.54,3.86,3.86,0,0,0-.52-1.2,2.38,2.38,0,0,0-.87-.77,2.8,2.8,0,0,0-1.24-.26,3.06,3.06,0,0,0-1.8.65,11.09,11.09,0,0,0-2,1.91v9.3a.29.29,0,0,1-.07.2.54.54,0,0,1-.2.14,1.41,1.41,0,0,1-.39.09,5.6,5.6,0,0,1-.64,0,5.22,5.22,0,0,1-.62,0,1.59,1.59,0,0,1-.4-.09.51.51,0,0,1-.21-.14.42.42,0,0,1-.05-.2V740.45a.31.31,0,0,1,.05-.2.35.35,0,0,1,.18-.15A1.58,1.58,0,0,1,274,740l.58,0,.57,0a1.17,1.17,0,0,1,.35.09.35.35,0,0,1,.18.15.32.32,0,0,1,.06.2v1.76a9,9,0,0,1,2.3-1.84,4.82,4.82,0,0,1,2.26-.59,6.31,6.31,0,0,1,1.57.19,4.38,4.38,0,0,1,1.22.54,3.82,3.82,0,0,1,.91.83,4.78,4.78,0,0,1,.63,1.08,12.09,12.09,0,0,1,1.33-1.23,7.9,7.9,0,0,1,1.22-.82,5.85,5.85,0,0,1,1.14-.45,4.71,4.71,0,0,1,1.12-.14,5.21,5.21,0,0,1,2.28.45,4.14,4.14,0,0,1,1.49,1.21,4.64,4.64,0,0,1,.81,1.77,9.14,9.14,0,0,1,.25,2.13Z"/><path class="cls-3" d="M309.6,753.77a.3.3,0,0,1-.13.27.83.83,0,0,1-.34.13,3.36,3.36,0,0,1-.64.05,3.65,3.65,0,0,1-.65-.05.78.78,0,0,1-.35-.13.34.34,0,0,1-.11-.27v-1.33a6.85,6.85,0,0,1-2.05,1.45,5.67,5.67,0,0,1-2.4.52,7,7,0,0,1-2-.27,4.45,4.45,0,0,1-1.53-.8,3.42,3.42,0,0,1-1-1.27,3.9,3.9,0,0,1-.36-1.71,3.81,3.81,0,0,1,.49-2,3.76,3.76,0,0,1,1.39-1.38,7,7,0,0,1,2.22-.82,14.64,14.64,0,0,1,3-.28H307v-1a5.05,5.05,0,0,0-.17-1.36,2.26,2.26,0,0,0-.56-1,2.33,2.33,0,0,0-1-.6,5,5,0,0,0-1.5-.2,6.33,6.33,0,0,0-1.71.22,9.24,9.24,0,0,0-1.33.47c-.38.17-.7.33-.95.47a1.34,1.34,0,0,1-.57.22.38.38,0,0,1-.22-.06.59.59,0,0,1-.17-.18,1.05,1.05,0,0,1-.1-.3,2.54,2.54,0,0,1,0-.41,2.24,2.24,0,0,1,.06-.58.81.81,0,0,1,.26-.41,3.14,3.14,0,0,1,.73-.45,8,8,0,0,1,1.19-.47,10.75,10.75,0,0,1,1.46-.36,9.73,9.73,0,0,1,1.61-.14,8.79,8.79,0,0,1,2.58.33,4.14,4.14,0,0,1,1.72.95,3.66,3.66,0,0,1,.95,1.56,7.13,7.13,0,0,1,.3,2.18ZM307,747.7h-2.21a8.35,8.35,0,0,0-1.84.17,4,4,0,0,0-1.3.5,2.11,2.11,0,0,0-.75.8,2.17,2.17,0,0,0-.25,1.07,2.11,2.11,0,0,0,.7,1.65,2.82,2.82,0,0,0,1.94.61,3.75,3.75,0,0,0,1.89-.49,7.91,7.91,0,0,0,1.82-1.49Z"/><path class="cls-3" d="M323.16,750.14a4,4,0,0,1-.4,1.82,3.64,3.64,0,0,1-1.13,1.34,5.16,5.16,0,0,1-1.75.83,8.25,8.25,0,0,1-2.23.28,9.32,9.32,0,0,1-1.43-.11A10.1,10.1,0,0,1,315,754a6.56,6.56,0,0,1-.92-.36,2.34,2.34,0,0,1-.54-.33.82.82,0,0,1-.25-.41,2.41,2.41,0,0,1-.08-.73,3.09,3.09,0,0,1,0-.47,1.53,1.53,0,0,1,.08-.31.29.29,0,0,1,.13-.17.33.33,0,0,1,.2,0,1.12,1.12,0,0,1,.5.19c.23.14.5.28.83.44a7.39,7.39,0,0,0,1.17.44,5.48,5.48,0,0,0,1.54.2,4.86,4.86,0,0,0,1.19-.14,2.64,2.64,0,0,0,.92-.39,1.73,1.73,0,0,0,.6-.66,2,2,0,0,0,.21-.94,1.5,1.5,0,0,0-.3-1,2.92,2.92,0,0,0-.81-.68,6.11,6.11,0,0,0-1.12-.52l-1.29-.48c-.44-.17-.87-.36-1.3-.57a5.39,5.39,0,0,1-1.13-.78,3.54,3.54,0,0,1-.8-1.1,3.38,3.38,0,0,1-.31-1.52,3.71,3.71,0,0,1,.32-1.5,3.65,3.65,0,0,1,1-1.26,4.78,4.78,0,0,1,1.6-.86,6.93,6.93,0,0,1,2.25-.33,7,7,0,0,1,1.12.09,8.22,8.22,0,0,1,1,.22,5.47,5.47,0,0,1,.77.29,3.56,3.56,0,0,1,.48.27.74.74,0,0,1,.22.21.5.5,0,0,1,.08.2c0,.08,0,.17.05.27s0,.25,0,.4,0,.32,0,.44a1,1,0,0,1-.08.3.4.4,0,0,1-.13.17.29.29,0,0,1-.17.06.9.9,0,0,1-.41-.17,5.56,5.56,0,0,0-.69-.34,7,7,0,0,0-1-.35,4.71,4.71,0,0,0-1.3-.17,4,4,0,0,0-1.16.15,2.24,2.24,0,0,0-.82.39,1.82,1.82,0,0,0-.49.62,1.8,1.8,0,0,0-.16.77,1.5,1.5,0,0,0,.31,1,2.79,2.79,0,0,0,.82.68,6.72,6.72,0,0,0,1.14.54l1.3.49a13.57,13.57,0,0,1,1.31.56,4.86,4.86,0,0,1,1.15.75,3.6,3.6,0,0,1,.81,1.07A3.34,3.34,0,0,1,323.16,750.14Z"/><path class="cls-3" d="M347,746.9a11.54,11.54,0,0,1-.4,3.13,6.78,6.78,0,0,1-1.17,2.36,5.1,5.1,0,0,1-1.92,1.49,6.18,6.18,0,0,1-2.61.53,5.2,5.2,0,0,1-1.15-.12,4.46,4.46,0,0,1-1-.37,6.47,6.47,0,0,1-1-.63c-.33-.26-.69-.56-1.06-.91V759a.37.37,0,0,1-.06.21.48.48,0,0,1-.21.14,1.41,1.41,0,0,1-.39.09,5.48,5.48,0,0,1-.64,0,5.22,5.22,0,0,1-.62,0,1.59,1.59,0,0,1-.4-.09.36.36,0,0,1-.2-.14.37.37,0,0,1-.06-.21V740.45a.48.48,0,0,1,.05-.22.39.39,0,0,1,.18-.14,1.6,1.6,0,0,1,.36-.08l.53,0,.54,0a1.6,1.6,0,0,1,.36.08.49.49,0,0,1,.19.14.38.38,0,0,1,.06.22v1.79a11.6,11.6,0,0,1,1.23-1.08,7.18,7.18,0,0,1,1.19-.76,5.49,5.49,0,0,1,1.24-.46,5.29,5.29,0,0,1,1.34-.16,5.61,5.61,0,0,1,2.6.56,4.86,4.86,0,0,1,1.76,1.54,6.78,6.78,0,0,1,1,2.27A11.64,11.64,0,0,1,347,746.9Zm-2.68.28a11.67,11.67,0,0,0-.16-2,5.43,5.43,0,0,0-.57-1.69,3.13,3.13,0,0,0-1.07-1.18,3,3,0,0,0-1.68-.45,3.77,3.77,0,0,0-1,.14,4.3,4.3,0,0,0-1,.45,6.65,6.65,0,0,0-1.05.8,11.59,11.59,0,0,0-1.16,1.22v5.29a11,11,0,0,0,2,1.88,3.53,3.53,0,0,0,2,.65,3.08,3.08,0,0,0,1.67-.44,3.31,3.31,0,0,0,1.13-1.19,5.73,5.73,0,0,0,.64-1.65A8.25,8.25,0,0,0,344.34,747.18Z"/><path class="cls-3" d="M361.48,753.77a.32.32,0,0,1-.12.27,1,1,0,0,1-.35.13,3.29,3.29,0,0,1-.64.05,3.52,3.52,0,0,1-.64-.05.82.82,0,0,1-.36-.13.34.34,0,0,1-.11-.27v-1.33a6.73,6.73,0,0,1-2.05,1.45,5.63,5.63,0,0,1-2.4.52,7,7,0,0,1-2-.27,4.64,4.64,0,0,1-1.53-.8,3.42,3.42,0,0,1-1-1.27,4,4,0,0,1-.35-1.71,3.67,3.67,0,0,1,1.87-3.33,7.24,7.24,0,0,1,2.22-.82,14.71,14.71,0,0,1,3-.28h1.94v-1a5.05,5.05,0,0,0-.17-1.36,2.26,2.26,0,0,0-.56-1,2.33,2.33,0,0,0-1-.6,4.91,4.91,0,0,0-1.5-.2A6.44,6.44,0,0,0,354,742a9.7,9.7,0,0,0-1.33.47c-.38.17-.69.33-1,.47a1.25,1.25,0,0,1-.57.22.4.4,0,0,1-.22-.06.57.57,0,0,1-.16-.18.81.81,0,0,1-.1-.3,2.54,2.54,0,0,1,0-.41,2.31,2.31,0,0,1,.05-.58.91.91,0,0,1,.27-.41,3.25,3.25,0,0,1,.72-.45,8.43,8.43,0,0,1,1.19-.47,11.3,11.3,0,0,1,1.47-.36,9.63,9.63,0,0,1,1.61-.14,8.79,8.79,0,0,1,2.58.33,4.1,4.1,0,0,1,1.71.95,3.67,3.67,0,0,1,1,1.56,7.47,7.47,0,0,1,.29,2.18Zm-2.56-6.07h-2.2a8.45,8.45,0,0,0-1.85.17,3.82,3.82,0,0,0-1.29.5,2.07,2.07,0,0,0-.76.8,2.28,2.28,0,0,0-.24,1.07,2.1,2.1,0,0,0,.69,1.65,2.87,2.87,0,0,0,2,.61,3.72,3.72,0,0,0,1.88-.49,7.7,7.7,0,0,0,1.82-1.49Z"/><path class="cls-3" d="M374.43,741.32c0,.22,0,.4,0,.55a1.23,1.23,0,0,1-.06.34.62.62,0,0,1-.12.2.3.3,0,0,1-.2.06,1,1,0,0,1-.3-.06l-.41-.14-.5-.12a2.93,2.93,0,0,0-.61-.06,2.07,2.07,0,0,0-.77.15,3,3,0,0,0-.79.49,6.3,6.3,0,0,0-.87.9c-.3.37-.63.83-1,1.37v8.76a.34.34,0,0,1-.06.2.54.54,0,0,1-.2.14,1.41,1.41,0,0,1-.39.09,5.6,5.6,0,0,1-.64,0,5.53,5.53,0,0,1-.63,0,1.5,1.5,0,0,1-.39-.09.51.51,0,0,1-.21-.14.33.33,0,0,1,0-.2V740.45a.4.4,0,0,1,0-.2.42.42,0,0,1,.19-.15,1.45,1.45,0,0,1,.36-.09l.58,0,.57,0a1.17,1.17,0,0,1,.35.09.45.45,0,0,1,.18.15.31.31,0,0,1,.05.2v1.93a11.4,11.4,0,0,1,1.09-1.3,6.21,6.21,0,0,1,1-.79,3.23,3.23,0,0,1,.9-.4,4,4,0,0,1,.9-.11l.46,0,.54.09a3.45,3.45,0,0,1,.51.13,1.2,1.2,0,0,1,.32.15.37.37,0,0,1,.12.14,1.07,1.07,0,0,1,.06.17q0,.1,0,.3Z"/><path class="cls-3" d="M387.31,753.77a.3.3,0,0,1-.13.27.89.89,0,0,1-.34.13,3.36,3.36,0,0,1-.64.05,3.65,3.65,0,0,1-.65-.05.78.78,0,0,1-.35-.13.34.34,0,0,1-.11-.27v-1.33a6.89,6.89,0,0,1-2.06,1.45,5.59,5.59,0,0,1-2.39.52,7,7,0,0,1-2-.27,4.45,4.45,0,0,1-1.53-.8,3.55,3.55,0,0,1-1-1.27,4,4,0,0,1-.35-1.71,3.72,3.72,0,0,1,.49-2,3.76,3.76,0,0,1,1.39-1.38,7,7,0,0,1,2.22-.82,14.56,14.56,0,0,1,2.95-.28h1.94v-1a4.67,4.67,0,0,0-.18-1.36,2.24,2.24,0,0,0-.55-1,2.46,2.46,0,0,0-1-.6,5,5,0,0,0-1.5-.2,6.33,6.33,0,0,0-1.71.22,9.24,9.24,0,0,0-1.33.47c-.38.17-.7.33-.95.47a1.34,1.34,0,0,1-.57.22.38.38,0,0,1-.22-.06.49.49,0,0,1-.17-.18,1.05,1.05,0,0,1-.1-.3,2.54,2.54,0,0,1,0-.41,2.9,2.9,0,0,1,.05-.58.91.91,0,0,1,.27-.41,3.14,3.14,0,0,1,.73-.45,8.28,8.28,0,0,1,1.18-.47,11.3,11.3,0,0,1,1.47-.36,9.63,9.63,0,0,1,1.61-.14,8.79,8.79,0,0,1,2.58.33,4.14,4.14,0,0,1,1.72.95,3.76,3.76,0,0,1,.95,1.56,7.13,7.13,0,0,1,.3,2.18Zm-2.56-6.07h-2.21a8.29,8.29,0,0,0-1.84.17,4,4,0,0,0-1.3.5,2.22,2.22,0,0,0-.76.8,2.28,2.28,0,0,0-.24,1.07,2.08,2.08,0,0,0,.7,1.65,2.82,2.82,0,0,0,1.94.61,3.75,3.75,0,0,0,1.89-.49,8.12,8.12,0,0,0,1.82-1.49Z"/><path class="cls-3" d="M402.15,736a1.6,1.6,0,0,1-.34,1.17,1.93,1.93,0,0,1-1.27.31,1.9,1.9,0,0,1-1.24-.3A1.52,1.52,0,0,1,399,736a1.56,1.56,0,0,1,.35-1.17,1.94,1.94,0,0,1,1.26-.31,1.88,1.88,0,0,1,1.24.3A1.52,1.52,0,0,1,402.15,736Zm-.3,17.81a.34.34,0,0,1-.06.2.54.54,0,0,1-.2.14,1.61,1.61,0,0,1-.39.09,5.6,5.6,0,0,1-.64,0,5.53,5.53,0,0,1-.63,0,1.59,1.59,0,0,1-.4-.09.47.47,0,0,1-.2-.14.34.34,0,0,1-.06-.2V740.45a.36.36,0,0,1,.06-.2.47.47,0,0,1,.2-.14,1.59,1.59,0,0,1,.4-.09,5.53,5.53,0,0,1,.63,0,5.6,5.6,0,0,1,.64,0,1.61,1.61,0,0,1,.39.09.54.54,0,0,1,.2.14.36.36,0,0,1,.06.2Z"/><path class="cls-3" d="M418.73,753.76a.35.35,0,0,1-.07.2.54.54,0,0,1-.2.14,1.5,1.5,0,0,1-.39.09,5.53,5.53,0,0,1-.63,0,5.6,5.6,0,0,1-.64,0,1.61,1.61,0,0,1-.39-.09.54.54,0,0,1-.2-.14.34.34,0,0,1-.06-.2V746a7.49,7.49,0,0,0-.19-1.83,3.9,3.9,0,0,0-.55-1.2,2.41,2.41,0,0,0-.93-.77,3.2,3.2,0,0,0-1.32-.26,3.39,3.39,0,0,0-1.93.65,10.05,10.05,0,0,0-2,1.91v9.3a.34.34,0,0,1-.06.2.54.54,0,0,1-.2.14,1.41,1.41,0,0,1-.39.09,5.6,5.6,0,0,1-.64,0,5.53,5.53,0,0,1-.63,0,1.5,1.5,0,0,1-.39-.09.51.51,0,0,1-.21-.14.42.42,0,0,1-.05-.2V740.45a.4.4,0,0,1,0-.2.42.42,0,0,1,.19-.15,1.45,1.45,0,0,1,.36-.09l.58,0,.57,0a1.17,1.17,0,0,1,.35.09.45.45,0,0,1,.18.15.31.31,0,0,1,.05.2v1.76a8.76,8.76,0,0,1,2.37-1.84,5.33,5.33,0,0,1,2.38-.59,5.57,5.57,0,0,1,2.37.45,4.31,4.31,0,0,1,1.56,1.21,4.7,4.7,0,0,1,.85,1.77,10,10,0,0,1,.26,2.43Z"/><path class="cls-3" d="M432.25,750.14a4.12,4.12,0,0,1-.39,1.82,3.77,3.77,0,0,1-1.14,1.34,5.16,5.16,0,0,1-1.75.83,8.2,8.2,0,0,1-2.23.28,9.32,9.32,0,0,1-1.43-.11,10.56,10.56,0,0,1-1.22-.28,6.39,6.39,0,0,1-.91-.36,2.45,2.45,0,0,1-.55-.33.89.89,0,0,1-.25-.41,2.78,2.78,0,0,1-.08-.73,3.09,3.09,0,0,1,0-.47,1.53,1.53,0,0,1,.08-.31.34.34,0,0,1,.13-.17.35.35,0,0,1,.2,0,1.19,1.19,0,0,1,.51.19,8.63,8.63,0,0,0,.83.44,6.9,6.9,0,0,0,1.16.44,5.55,5.55,0,0,0,1.55.2,4.77,4.77,0,0,0,1.18-.14,2.69,2.69,0,0,0,.93-.39,1.81,1.81,0,0,0,.6-.66,2,2,0,0,0,.21-.94,1.45,1.45,0,0,0-.31-1,3,3,0,0,0-.8-.68,6.55,6.55,0,0,0-1.13-.52l-1.29-.48q-.66-.26-1.29-.57a5.39,5.39,0,0,1-1.13-.78,3.42,3.42,0,0,1-.81-1.1,3.83,3.83,0,0,1,0-3,3.42,3.42,0,0,1,1-1.26,4.69,4.69,0,0,1,1.6-.86,6.91,6.91,0,0,1,2.24-.33,7.17,7.17,0,0,1,1.13.09,8,8,0,0,1,1,.22,5.47,5.47,0,0,1,.77.29,3.81,3.81,0,0,1,.49.27.89.89,0,0,1,.22.21,1.19,1.19,0,0,1,.08.2c0,.08,0,.17,0,.27a2.42,2.42,0,0,1,0,.4,2.89,2.89,0,0,1,0,.44.77.77,0,0,1-.08.3.34.34,0,0,1-.13.17.27.27,0,0,1-.17.06,1,1,0,0,1-.41-.17,4.75,4.75,0,0,0-.68-.34,7.68,7.68,0,0,0-1-.35,4.66,4.66,0,0,0-1.3-.17,4.08,4.08,0,0,0-1.16.15,2.32,2.32,0,0,0-.82.39,1.8,1.8,0,0,0-.65,1.39,1.51,1.51,0,0,0,.32,1,2.87,2.87,0,0,0,.81.68,6.72,6.72,0,0,0,1.14.54c.43.15.86.32,1.3.49a13.73,13.73,0,0,1,1.32.56,5.07,5.07,0,0,1,1.15.75,3.41,3.41,0,0,1,.8,1.07A3.34,3.34,0,0,1,432.25,750.14Z"/><path class="cls-3" d="M447.81,740.06a.85.85,0,0,1,.65.2.92.92,0,0,1,.17.59v12.91a.29.29,0,0,1-.07.2.51.51,0,0,1-.21.14,1.61,1.61,0,0,1-.39.09,5.28,5.28,0,0,1-.61,0,5.48,5.48,0,0,1-.64,0,1.59,1.59,0,0,1-.4-.09.51.51,0,0,1-.21-.14.29.29,0,0,1-.07-.2V742.09h-7.26v7.42a4,4,0,0,0,.43,2.08,1.65,1.65,0,0,0,1.54.7,3.1,3.1,0,0,0,.64-.06l.5-.14.37-.14a.67.67,0,0,1,.28-.07.24.24,0,0,1,.15,0,.2.2,0,0,1,.11.14,1.26,1.26,0,0,1,.07.28,2.76,2.76,0,0,1,0,.44,3,3,0,0,1-.06.68.76.76,0,0,1-.19.37,1,1,0,0,1-.37.22,2.94,2.94,0,0,1-.57.17,6.86,6.86,0,0,1-.68.12,5.79,5.79,0,0,1-.72,0,5.73,5.73,0,0,1-1.87-.27,3.13,3.13,0,0,1-1.29-.83,3.37,3.37,0,0,1-.72-1.41,7.8,7.8,0,0,1-.23-2v-7.78h-2a.42.42,0,0,1-.37-.24,1.48,1.48,0,0,1-.14-.77,2.17,2.17,0,0,1,0-.47,1.21,1.21,0,0,1,.1-.32.4.4,0,0,1,.16-.18.56.56,0,0,1,.23-.05h1.95V736.9a.31.31,0,0,1,.06-.19.37.37,0,0,1,.2-.16,1.54,1.54,0,0,1,.4-.1,5.22,5.22,0,0,1,.62,0,5.48,5.48,0,0,1,.64,0,1.36,1.36,0,0,1,.39.1.51.51,0,0,1,.21.16.31.31,0,0,1,.06.19v3.16Zm1.11-4.11a1.56,1.56,0,0,1-.34,1.17,2.73,2.73,0,0,1-2.51,0,2.18,2.18,0,0,1,0-2.32,2,2,0,0,1,1.27-.31,1.92,1.92,0,0,1,1.24.3A1.56,1.56,0,0,1,448.92,736Z"/><path class="cls-3" d="M460.72,752.78a3,3,0,0,1-.06.68.85.85,0,0,1-.19.37,1,1,0,0,1-.38.22,2.57,2.57,0,0,1-.57.17,6.38,6.38,0,0,1-.68.12,6.58,6.58,0,0,1-2.59-.23,3.09,3.09,0,0,1-1.28-.83,3.38,3.38,0,0,1-.73-1.41,7.84,7.84,0,0,1-.22-2v-7.78h-2a.43.43,0,0,1-.38-.24,1.59,1.59,0,0,1-.14-.77,3.06,3.06,0,0,1,0-.47,1.74,1.74,0,0,1,.1-.32.42.42,0,0,1,.17-.18.51.51,0,0,1,.22-.05h2V736.9a.3.3,0,0,1,.05-.19.47.47,0,0,1,.2-.16,1.66,1.66,0,0,1,.4-.1,5.53,5.53,0,0,1,.63,0,5.6,5.6,0,0,1,.64,0,1.46,1.46,0,0,1,.39.1.47.47,0,0,1,.2.16.31.31,0,0,1,.06.19v3.16h3.61a.48.48,0,0,1,.22.05.59.59,0,0,1,.17.18,1.21,1.21,0,0,1,.1.32,3.18,3.18,0,0,1,0,.47,1.59,1.59,0,0,1-.14.77.43.43,0,0,1-.38.24h-3.61v7.42a4.11,4.11,0,0,0,.43,2.08,1.66,1.66,0,0,0,1.54.7,3,3,0,0,0,.64-.06c.19-.05.36-.09.5-.14l.38-.14a.64.64,0,0,1,.28-.07.28.28,0,0,1,.15,0,.23.23,0,0,1,.11.14,2.26,2.26,0,0,1,.07.28A2.76,2.76,0,0,1,460.72,752.78Z"/><path class="cls-3" d="M476.17,753.76a.42.42,0,0,1-.05.2.54.54,0,0,1-.2.14,1.43,1.43,0,0,1-.37.09,4.22,4.22,0,0,1-.55,0,4.68,4.68,0,0,1-.59,0,1.34,1.34,0,0,1-.36-.09.45.45,0,0,1-.18-.14.42.42,0,0,1,0-.2V752a8.69,8.69,0,0,1-2.38,1.83,5.24,5.24,0,0,1-2.37.58,5.73,5.73,0,0,1-2.37-.44,4.09,4.09,0,0,1-1.55-1.21,4.7,4.7,0,0,1-.85-1.77,9.8,9.8,0,0,1-.26-2.47v-8.07a.31.31,0,0,1,.05-.2.44.44,0,0,1,.21-.15,1.8,1.8,0,0,1,.41-.09l.62,0,.63,0a1.59,1.59,0,0,1,.4.09.44.44,0,0,1,.21.15.32.32,0,0,1,.06.2v7.75a7.81,7.81,0,0,0,.18,1.87,3.32,3.32,0,0,0,.55,1.2,2.5,2.5,0,0,0,.93.77,3,3,0,0,0,1.31.27,3.46,3.46,0,0,0,1.93-.65,10.93,10.93,0,0,0,2-1.91v-9.3a.39.39,0,0,1,.05-.2.44.44,0,0,1,.21-.15,1.83,1.83,0,0,1,.4-.09l.63,0,.63,0a1.41,1.41,0,0,1,.39.09.57.57,0,0,1,.21.15.27.27,0,0,1,.07.2Z"/><path class="cls-3" d="M491,751.73c0,.17,0,.32,0,.44a1.22,1.22,0,0,1-.06.31,1.12,1.12,0,0,1-.09.22,1.34,1.34,0,0,1-.25.28,3.24,3.24,0,0,1-.67.46,6.39,6.39,0,0,1-1,.49,8.66,8.66,0,0,1-1.27.35,7.43,7.43,0,0,1-1.42.13,7.22,7.22,0,0,1-2.69-.47,5,5,0,0,1-2-1.39,6.13,6.13,0,0,1-1.21-2.23,10.42,10.42,0,0,1-.41-3.05,10,10,0,0,1,.51-3.38,6.33,6.33,0,0,1,1.39-2.32,5.52,5.52,0,0,1,2.08-1.34,7.43,7.43,0,0,1,2.58-.43,7,7,0,0,1,1.31.12,6.33,6.33,0,0,1,1.16.31,4.89,4.89,0,0,1,.95.44,4.35,4.35,0,0,1,.6.43,1.73,1.73,0,0,1,.25.28.9.9,0,0,1,.12.24,1.52,1.52,0,0,1,.06.32,2.89,2.89,0,0,1,0,.44,1.69,1.69,0,0,1-.14.81.41.41,0,0,1-.34.23.91.91,0,0,1-.54-.24,6.46,6.46,0,0,0-.78-.54,5.67,5.67,0,0,0-1.13-.54,4.38,4.38,0,0,0-1.57-.25,3.3,3.3,0,0,0-2.85,1.36,6.57,6.57,0,0,0-1,3.92,8.51,8.51,0,0,0,.26,2.26,4.67,4.67,0,0,0,.75,1.62,3.3,3.3,0,0,0,1.23,1,4.13,4.13,0,0,0,1.66.31,4.2,4.2,0,0,0,1.57-.26,6.6,6.6,0,0,0,1.16-.59c.33-.21.6-.4.83-.57a1,1,0,0,1,.52-.26.31.31,0,0,1,.19.06.46.46,0,0,1,.13.2,1.4,1.4,0,0,1,.08.35C491,751.37,491,751.54,491,751.73Z"/><path class="cls-3" d="M497.34,736a1.56,1.56,0,0,1-.35,1.17,1.88,1.88,0,0,1-1.26.31,1.9,1.9,0,0,1-1.24-.3,1.52,1.52,0,0,1-.34-1.15,1.56,1.56,0,0,1,.35-1.17,1.94,1.94,0,0,1,1.26-.31,1.9,1.9,0,0,1,1.24.3A1.52,1.52,0,0,1,497.34,736Zm-.3,17.81a.34.34,0,0,1-.06.2.54.54,0,0,1-.2.14,1.61,1.61,0,0,1-.39.09,5.67,5.67,0,0,1-.65,0,5.46,5.46,0,0,1-.62,0,1.59,1.59,0,0,1-.4-.09.47.47,0,0,1-.2-.14.34.34,0,0,1-.06-.2V740.45a.36.36,0,0,1,.06-.2.47.47,0,0,1,.2-.14,1.59,1.59,0,0,1,.4-.09,5.46,5.46,0,0,1,.62,0,5.67,5.67,0,0,1,.65,0,1.61,1.61,0,0,1,.39.09.54.54,0,0,1,.2.14.36.36,0,0,1,.06.2Z"/><path class="cls-3" d="M514.88,747a9.52,9.52,0,0,1-.45,3,6.48,6.48,0,0,1-1.35,2.36,6.16,6.16,0,0,1-2.25,1.55,9.39,9.39,0,0,1-6.16.06,5.43,5.43,0,0,1-2.14-1.42,5.92,5.92,0,0,1-1.29-2.26,10,10,0,0,1-.42-3,9.52,9.52,0,0,1,.45-3,6.24,6.24,0,0,1,1.34-2.36,6.06,6.06,0,0,1,2.24-1.54,8.23,8.23,0,0,1,3.14-.55,8.45,8.45,0,0,1,3,.49,5.54,5.54,0,0,1,2.14,1.42,5.87,5.87,0,0,1,1.29,2.26A9.68,9.68,0,0,1,514.88,747Zm-2.67.16a9.53,9.53,0,0,0-.21-2,4.94,4.94,0,0,0-.7-1.69,3.56,3.56,0,0,0-1.33-1.15,4.59,4.59,0,0,0-2.08-.42,4.63,4.63,0,0,0-2,.39,3.61,3.61,0,0,0-1.36,1.08,4.89,4.89,0,0,0-.8,1.67,8.16,8.16,0,0,0-.26,2.1,9.1,9.1,0,0,0,.22,2.06,4.59,4.59,0,0,0,.71,1.67,3.45,3.45,0,0,0,1.33,1.14,5.33,5.33,0,0,0,4.05,0,3.66,3.66,0,0,0,1.37-1.08,4.57,4.57,0,0,0,.79-1.66A8.2,8.2,0,0,0,512.21,747.12Z"/><path class="cls-3" d="M530.79,753.76a.34.34,0,0,1-.06.2.59.59,0,0,1-.21.14,1.41,1.41,0,0,1-.39.09,5.34,5.34,0,0,1-.62,0,5.48,5.48,0,0,1-.64,0,1.41,1.41,0,0,1-.39-.09.51.51,0,0,1-.21-.14.34.34,0,0,1-.06-.2V746a7,7,0,0,0-.19-1.83,3.66,3.66,0,0,0-.54-1.2,2.41,2.41,0,0,0-.93-.77,3.2,3.2,0,0,0-1.32-.26,3.39,3.39,0,0,0-1.94.65,10,10,0,0,0-2,1.91v9.3a.29.29,0,0,1-.07.2.47.47,0,0,1-.2.14,1.41,1.41,0,0,1-.39.09,5.48,5.48,0,0,1-.64,0,5.22,5.22,0,0,1-.62,0,1.59,1.59,0,0,1-.4-.09.51.51,0,0,1-.21-.14.42.42,0,0,1-.05-.2V740.45a.39.39,0,0,1,.05-.2.35.35,0,0,1,.18-.15,1.58,1.58,0,0,1,.36-.09l.58,0,.57,0a1.17,1.17,0,0,1,.35.09.35.35,0,0,1,.18.15.32.32,0,0,1,.06.2v1.76a8.58,8.58,0,0,1,2.36-1.84,5.34,5.34,0,0,1,2.39-.59,5.55,5.55,0,0,1,2.36.45,4.31,4.31,0,0,1,1.56,1.21,4.7,4.7,0,0,1,.85,1.77,10,10,0,0,1,.26,2.43Z"/><path class="cls-3" d="M547.49,746.53a1,1,0,0,1-.31.82,1.1,1.1,0,0,1-.7.24h-9.26a7.67,7.67,0,0,0,.24,2,3.85,3.85,0,0,0,.78,1.52,3.58,3.58,0,0,0,1.43,1,6.18,6.18,0,0,0,2.15.34,8.75,8.75,0,0,0,1.79-.16,9.85,9.85,0,0,0,1.36-.35c.38-.12.7-.24.94-.34a1.51,1.51,0,0,1,.56-.16.46.46,0,0,1,.2.05.42.42,0,0,1,.13.16.88.88,0,0,1,.07.29,3,3,0,0,1,0,.45,3.22,3.22,0,0,1,0,.33,1.45,1.45,0,0,1,0,.25.6.6,0,0,1-.08.2.55.55,0,0,1-.14.17,2,2,0,0,1-.51.27A8.16,8.16,0,0,1,545,754a15,15,0,0,1-1.55.32,12.52,12.52,0,0,1-1.89.14,9.08,9.08,0,0,1-3-.46,5.58,5.58,0,0,1-2.19-1.36,5.72,5.72,0,0,1-1.34-2.26,9.81,9.81,0,0,1-.46-3.17,9.53,9.53,0,0,1,.47-3.08,6.34,6.34,0,0,1,1.35-2.32,5.9,5.9,0,0,1,2.13-1.47,7.39,7.39,0,0,1,2.8-.51,7,7,0,0,1,2.82.51,5.16,5.16,0,0,1,1.91,1.35,5.47,5.47,0,0,1,1.11,2,8.48,8.48,0,0,1,.35,2.45Zm-2.6-.73a4.27,4.27,0,0,0-.9-3,3.52,3.52,0,0,0-2.82-1.09,3.85,3.85,0,0,0-1.68.34,3.68,3.68,0,0,0-1.21.9,4.06,4.06,0,0,0-.76,1.31,5.14,5.14,0,0,0-.3,1.56Z"/><path class="cls-3" d="M560.24,750.14a4.12,4.12,0,0,1-.4,1.82,3.84,3.84,0,0,1-1.13,1.34,5.25,5.25,0,0,1-1.75.83,8.33,8.33,0,0,1-2.24.28,9.32,9.32,0,0,1-1.43-.11,10.56,10.56,0,0,1-1.22-.28,6.39,6.39,0,0,1-.91-.36,2.71,2.71,0,0,1-.55-.33.89.89,0,0,1-.25-.41,2.78,2.78,0,0,1-.08-.73,2.11,2.11,0,0,1,0-.47,1.61,1.61,0,0,1,.07-.31.35.35,0,0,1,.14-.17.3.3,0,0,1,.19,0,1.11,1.11,0,0,1,.51.19,8.63,8.63,0,0,0,.83.44,7.25,7.25,0,0,0,1.16.44,5.6,5.6,0,0,0,1.55.2,4.86,4.86,0,0,0,1.19-.14,2.64,2.64,0,0,0,.92-.39,1.73,1.73,0,0,0,.6-.66,2,2,0,0,0,.21-.94,1.5,1.5,0,0,0-.3-1,3.25,3.25,0,0,0-.81-.68,6.44,6.44,0,0,0-1.12-.52l-1.29-.48a13.81,13.81,0,0,1-1.3-.57,5.39,5.39,0,0,1-1.13-.78,3.57,3.57,0,0,1-.81-1.1,3.83,3.83,0,0,1,0-3,3.42,3.42,0,0,1,1-1.26,4.78,4.78,0,0,1,1.6-.86,6.91,6.91,0,0,1,2.24-.33,7.17,7.17,0,0,1,1.13.09,8,8,0,0,1,1,.22,6.18,6.18,0,0,1,.78.29,4.34,4.34,0,0,1,.48.27.89.89,0,0,1,.22.21.7.7,0,0,1,.08.2c0,.08,0,.17,0,.27a2.33,2.33,0,0,1,0,.4,2.76,2.76,0,0,1,0,.44,1,1,0,0,1-.07.3.35.35,0,0,1-.14.17.27.27,0,0,1-.17.06.88.88,0,0,1-.4-.17,5.56,5.56,0,0,0-.69-.34,7,7,0,0,0-1-.35,4.73,4.73,0,0,0-1.31-.17,4.08,4.08,0,0,0-1.16.15,2.32,2.32,0,0,0-.82.39,1.74,1.74,0,0,0-.64,1.39,1.5,1.5,0,0,0,.31,1,2.87,2.87,0,0,0,.81.68,7.11,7.11,0,0,0,1.14.54c.43.15.86.32,1.31.49a13.57,13.57,0,0,1,1.31.56,5.07,5.07,0,0,1,1.15.75,3.41,3.41,0,0,1,.8,1.07A3.34,3.34,0,0,1,560.24,750.14Z"/><path class="cls-3" d="M561.65,208.58C559.84,181.24,553,157,541,136l-.6-1a7.66,7.66,0,0,0-.45-.74,177.69,177.69,0,0,0-20.1-26.38.34.34,0,0,0-.15-.14C499.73,86,466,59.39,417.55,55.07,371.88,51,326.19,68,292.44,100.21c-.66.6-1.3,1.22-1.93,1.84C246.59,144.4,231,207.56,249.64,274.21c12.8,45.93,39.86,83.7,68.55,120.54,25.73,33,52.49,65.28,71.22,103.1,4.23,8.51,8,17.25,13.17,28.39C419.63,480.16,447.44,444,475.45,408c12.7-16.32,25.41-32.68,37.37-49.53C544.61,313.59,565.38,264.71,561.65,208.58Z"/><rect class="cls-1" x="372.97" y="122.63" width="58.06" height="196.75" rx="6.07"/><rect class="cls-1" x="303.62" y="191.98" width="196.75" height="58.06" rx="6.07"/></g></g></svg>