<svg xmlns="http://www.w3.org/2000/svg" viewBox="0 0 804 786.88"><defs><style>.cls-1,.cls-2{fill:#09f;}.cls-2{font-size:86.47px;font-family:Calibri;}.cls-3{fill:#fff;}</style></defs><title>Recurso 15</title><g id="Capa_2" data-name="Capa 2"><g id="Capa_1-2" data-name="Capa 1"><rect class="cls-1" width="804" height="575.36"/><text class="cls-2" transform="translate(268.22 675.03) scale(1.06 1)">asignar</text><path class="cls-1" d="M249.14,739.77a5.29,5.29,0,0,1-.52,2.4,5.2,5.2,0,0,1-1.45,1.78,6.27,6.27,0,0,1-2.19,1.1,9.44,9.44,0,0,1-2.71.37,10.06,10.06,0,0,1-1.88-.16,10.54,10.54,0,0,1-1.55-.4,7.93,7.93,0,0,1-1.14-.49,2.65,2.65,0,0,1-.64-.43,1,1,0,0,1-.27-.45,2.78,2.78,0,0,1-.08-.73,4.06,4.06,0,0,1,0-.54,1.36,1.36,0,0,1,.09-.35.48.48,0,0,1,.16-.18.4.4,0,0,1,.22-.05,1.33,1.33,0,0,1,.62.25,9,9,0,0,0,1,.55,11.14,11.14,0,0,0,1.51.55,7.38,7.38,0,0,0,2,.26A5.43,5.43,0,0,0,244,743a4,4,0,0,0,1.25-.63,2.69,2.69,0,0,0,.8-1,3,3,0,0,0,.28-1.35,2.44,2.44,0,0,0-.39-1.39,3.82,3.82,0,0,0-1-1,9.11,9.11,0,0,0-1.46-.8l-1.68-.74c-.57-.25-1.13-.53-1.67-.83a7.2,7.2,0,0,1-1.45-1.08,4.92,4.92,0,0,1-1-1.46,4.55,4.55,0,0,1-.4-2,4.77,4.77,0,0,1,.46-2.14A4.47,4.47,0,0,1,239,727a5.93,5.93,0,0,1,2-1,8.39,8.39,0,0,1,2.45-.34,8.78,8.78,0,0,1,1.35.11,11.45,11.45,0,0,1,1.28.3,7.26,7.26,0,0,1,1.07.41,3.48,3.48,0,0,1,.62.37,1.33,1.33,0,0,1,.19.22,1,1,0,0,1,.08.21,2.24,2.24,0,0,1,.05.31c0,.11,0,.27,0,.45a3.54,3.54,0,0,1,0,.48,2,2,0,0,1-.07.34.42.42,0,0,1-.13.21.29.29,0,0,1-.2.07A1.34,1.34,0,0,1,247,729c-.24-.14-.54-.29-.9-.46a8,8,0,0,0-1.25-.48,5.93,5.93,0,0,0-1.64-.21,4.55,4.55,0,0,0-1.46.21,3.23,3.23,0,0,0-1,.57,2.2,2.2,0,0,0-.6.85,2.53,2.53,0,0,0-.21,1,2.43,2.43,0,0,0,.39,1.38,4,4,0,0,0,1,1,10.24,10.24,0,0,0,1.48.81l1.69.75c.57.25,1.13.52,1.68.82a7.1,7.1,0,0,1,1.48,1.07,5,5,0,0,1,1.05,1.45A4.62,4.62,0,0,1,249.14,739.77Z"/><path class="cls-1" d="M255.57,727a1.51,1.51,0,0,1-.35,1.16,1.9,1.9,0,0,1-1.26.31,1.93,1.93,0,0,1-1.25-.3,1.53,1.53,0,0,1-.33-1.15,1.52,1.52,0,0,1,.34-1.16,2.73,2.73,0,0,1,2.51,0A1.53,1.53,0,0,1,255.57,727Zm-.3,17.8a.32.32,0,0,1-.06.2.43.43,0,0,1-.21.14,1.41,1.41,0,0,1-.39.09,5.48,5.48,0,0,1-.64,0,5.22,5.22,0,0,1-.62,0,1.59,1.59,0,0,1-.4-.09.36.36,0,0,1-.2-.14.32.32,0,0,1-.06-.2V731.46a.33.33,0,0,1,.06-.19.36.36,0,0,1,.2-.15,1.59,1.59,0,0,1,.4-.09,5.22,5.22,0,0,1,.62,0,5.48,5.48,0,0,1,.64,0,1.41,1.41,0,0,1,.39.09.44.44,0,0,1,.21.15.33.33,0,0,1,.06.19Z"/><path class="cls-1" d="M268.86,741.15a4,4,0,0,1-.4,1.82,3.64,3.64,0,0,1-1.13,1.34,5,5,0,0,1-1.75.83,9.15,9.15,0,0,1-3.66.17,8.5,8.5,0,0,1-1.22-.28,6.64,6.64,0,0,1-.92-.35,2.7,2.7,0,0,1-.54-.34.74.74,0,0,1-.25-.41,2.38,2.38,0,0,1-.08-.72,3.23,3.23,0,0,1,0-.48,1.53,1.53,0,0,1,.08-.31.33.33,0,0,1,.13-.17.42.42,0,0,1,.2,0,1.17,1.17,0,0,1,.5.2c.23.13.5.28.83.44a8.58,8.58,0,0,0,1.17.43,5.48,5.48,0,0,0,1.54.2,4.82,4.82,0,0,0,1.19-.13,3.08,3.08,0,0,0,.92-.39,1.89,1.89,0,0,0,.6-.66,2,2,0,0,0,.21-.95,1.52,1.52,0,0,0-.3-1,2.82,2.82,0,0,0-.8-.67,6.56,6.56,0,0,0-1.13-.53l-1.29-.48c-.44-.17-.87-.36-1.3-.57a4.94,4.94,0,0,1-1.13-.78,3.5,3.5,0,0,1-.8-1.09,3.41,3.41,0,0,1-.31-1.52,3.53,3.53,0,0,1,1.28-2.76,5,5,0,0,1,1.6-.87,7,7,0,0,1,2.25-.32,8.44,8.44,0,0,1,1.12.08,8.15,8.15,0,0,1,1,.23,5.55,5.55,0,0,1,.77.28,4.43,4.43,0,0,1,.49.28.82.82,0,0,1,.21.21.4.4,0,0,1,.08.2c0,.07,0,.16.05.27s0,.24,0,.4,0,.31,0,.43a1.07,1.07,0,0,1-.08.31.48.48,0,0,1-.13.17.34.34,0,0,1-.17.05.86.86,0,0,1-.41-.16,5.46,5.46,0,0,0-.69-.35,8.57,8.57,0,0,0-1-.35,4.72,4.72,0,0,0-1.3-.16,4.44,4.44,0,0,0-1.16.14,2.24,2.24,0,0,0-.82.4,1.79,1.79,0,0,0-.49.61,2,2,0,0,0-.16.77,1.54,1.54,0,0,0,.31,1,3,3,0,0,0,.82.69,6.72,6.72,0,0,0,1.14.53l1.3.49c.44.17.88.35,1.31.56a4.69,4.69,0,0,1,1.15.76,3.56,3.56,0,0,1,.81,1.06A3.37,3.37,0,0,1,268.86,741.15Z"/><path class="cls-1" d="M279.5,743.8a3.1,3.1,0,0,1-.06.68.81.81,0,0,1-.19.37,1.24,1.24,0,0,1-.37.22,3.66,3.66,0,0,1-.58.17l-.67.11a5.9,5.9,0,0,1-.72,0,5.79,5.79,0,0,1-1.88-.27,3,3,0,0,1-1.28-.83,3.4,3.4,0,0,1-.73-1.4,8,8,0,0,1-.22-2V733.1h-2a.44.44,0,0,1-.38-.23,1.65,1.65,0,0,1-.14-.77,3.08,3.08,0,0,1,0-.48,1.62,1.62,0,0,1,.1-.31.37.37,0,0,1,.17-.18.42.42,0,0,1,.22,0h2v-3.17a.41.41,0,0,1,.05-.19.53.53,0,0,1,.21-.16,1.5,1.5,0,0,1,.39-.09,5.53,5.53,0,0,1,.63,0,5.6,5.6,0,0,1,.64,0,1.41,1.41,0,0,1,.39.09.56.56,0,0,1,.2.16.34.34,0,0,1,.07.19v3.17H279a.38.38,0,0,1,.22,0,.37.37,0,0,1,.17.18,1.13,1.13,0,0,1,.1.31,3.23,3.23,0,0,1,0,.48,1.65,1.65,0,0,1-.14.77.43.43,0,0,1-.38.23h-3.6v7.43a4.12,4.12,0,0,0,.42,2.08,1.68,1.68,0,0,0,1.54.7,2.46,2.46,0,0,0,.64-.07,3.88,3.88,0,0,0,.5-.14l.38-.14a.82.82,0,0,1,.28-.07.42.42,0,0,1,.15,0,.27.27,0,0,1,.11.14,2.26,2.26,0,0,1,.07.28A2.81,2.81,0,0,1,279.5,743.8Z"/><path class="cls-1" d="M294.56,737.54a1,1,0,0,1-.31.82,1.08,1.08,0,0,1-.69.25H284.3a8.12,8.12,0,0,0,.23,2,3.85,3.85,0,0,0,.79,1.53,3.43,3.43,0,0,0,1.43,1,5.88,5.88,0,0,0,2.15.34,9.65,9.65,0,0,0,1.79-.15,11.85,11.85,0,0,0,1.35-.35c.39-.13.7-.25.95-.35a1.62,1.62,0,0,1,.55-.15.33.33,0,0,1,.2,0,.28.28,0,0,1,.13.15,1,1,0,0,1,.07.29,2.9,2.9,0,0,1,0,.45,3.28,3.28,0,0,1,0,.34,1.87,1.87,0,0,1,0,.25.5.5,0,0,1-.08.2.7.7,0,0,1-.14.17,2.18,2.18,0,0,1-.5.26,7.37,7.37,0,0,1-1.1.37c-.45.11-1,.22-1.55.31a11.3,11.3,0,0,1-1.88.14,9.31,9.31,0,0,1-3-.45,5.63,5.63,0,0,1-2.2-1.37,5.72,5.72,0,0,1-1.34-2.26,10.08,10.08,0,0,1-.45-3.16,9.6,9.6,0,0,1,.46-3.09,6.59,6.59,0,0,1,1.36-2.32,5.71,5.71,0,0,1,2.13-1.46,7.3,7.3,0,0,1,2.79-.51,7,7,0,0,1,2.82.5,5.32,5.32,0,0,1,1.92,1.35,5.42,5.42,0,0,1,1.1,2,8.43,8.43,0,0,1,.35,2.45Zm-2.59-.72a4.25,4.25,0,0,0-.91-3,3.52,3.52,0,0,0-2.82-1.1,4,4,0,0,0-1.68.34,3.58,3.58,0,0,0-1.21.91,4,4,0,0,0-.76,1.31,5.33,5.33,0,0,0-.29,1.56Z"/><path class="cls-1" d="M319.34,744.77a.32.32,0,0,1-.06.2.48.48,0,0,1-.21.14,1.41,1.41,0,0,1-.39.09,5.34,5.34,0,0,1-.62,0,5.48,5.48,0,0,1-.64,0,1.59,1.59,0,0,1-.4-.09.43.43,0,0,1-.21-.14.27.27,0,0,1-.07-.2v-8.09a7.38,7.38,0,0,0-.15-1.54,3.47,3.47,0,0,0-.5-1.19,2.17,2.17,0,0,0-.88-.77,2.71,2.71,0,0,0-1.25-.27,3.08,3.08,0,0,0-1.79.65,12.67,12.67,0,0,0-2,1.91v9.3a.32.32,0,0,1-.06.2.52.52,0,0,1-.22.14,1.5,1.5,0,0,1-.39.09,5.53,5.53,0,0,1-.63,0,5.59,5.59,0,0,1-.62,0,1.59,1.59,0,0,1-.4-.09.43.43,0,0,1-.21-.14.39.39,0,0,1-.05-.2v-8.09a6.73,6.73,0,0,0-.17-1.54,3.7,3.7,0,0,0-.52-1.19,2.19,2.19,0,0,0-.86-.77,2.71,2.71,0,0,0-1.25-.27,3.08,3.08,0,0,0-1.79.65,11.47,11.47,0,0,0-2,1.91v9.3a.32.32,0,0,1-.06.2.43.43,0,0,1-.21.14,1.41,1.41,0,0,1-.39.09,5.48,5.48,0,0,1-.64,0,5.22,5.22,0,0,1-.62,0,1.59,1.59,0,0,1-.4-.09.36.36,0,0,1-.2-.14.32.32,0,0,1-.06-.2V731.46a.42.42,0,0,1,0-.2.45.45,0,0,1,.19-.15,1.34,1.34,0,0,1,.36-.09l.57,0,.57,0a1.17,1.17,0,0,1,.35.09.47.47,0,0,1,.18.15.34.34,0,0,1,.06.2v1.76a9,9,0,0,1,2.3-1.84,4.84,4.84,0,0,1,2.26-.58,5.82,5.82,0,0,1,1.57.19,4.59,4.59,0,0,1,1.23.54,3.75,3.75,0,0,1,.9.83,4.71,4.71,0,0,1,.63,1.07A15.86,15.86,0,0,1,311,732.2a8.29,8.29,0,0,1,1.22-.81,4.81,4.81,0,0,1,1.14-.45,4.25,4.25,0,0,1,1.12-.14,5.15,5.15,0,0,1,2.28.45,4,4,0,0,1,1.49,1.2,4.89,4.89,0,0,1,.82,1.77,9.3,9.3,0,0,1,.24,2.14Z"/><path class="cls-1" d="M334.63,744.79a.29.29,0,0,1-.12.26,1,1,0,0,1-.35.14,3.46,3.46,0,0,1-.64,0,3.67,3.67,0,0,1-.64,0,.82.82,0,0,1-.36-.14.3.3,0,0,1-.11-.26v-1.33a6.9,6.9,0,0,1-2.05,1.45,5.78,5.78,0,0,1-2.4.51,7,7,0,0,1-2-.27,4.62,4.62,0,0,1-1.53-.79,3.59,3.59,0,0,1-1-1.27,4.13,4.13,0,0,1-.35-1.72,3.81,3.81,0,0,1,.48-2A4,4,0,0,1,325,738a7.24,7.24,0,0,1,2.22-.82,14.75,14.75,0,0,1,2.95-.27h1.94v-1a5.11,5.11,0,0,0-.17-1.36,2.24,2.24,0,0,0-1.55-1.57,4.62,4.62,0,0,0-1.5-.2,6.46,6.46,0,0,0-1.71.21,8.5,8.5,0,0,0-1.33.48c-.38.17-.69.33-.95.47a1.33,1.33,0,0,1-.57.21.4.4,0,0,1-.22-.06.53.53,0,0,1-.16-.17.81.81,0,0,1-.1-.31,2.5,2.5,0,0,1,0-.4,2.39,2.39,0,0,1,.05-.59.84.84,0,0,1,.27-.4,3.62,3.62,0,0,1,.72-.46,8.43,8.43,0,0,1,1.19-.47,11.33,11.33,0,0,1,1.47-.35,8.61,8.61,0,0,1,1.61-.14,8.82,8.82,0,0,1,2.58.32,4.23,4.23,0,0,1,1.71,1,3.56,3.56,0,0,1,1,1.56,7.4,7.4,0,0,1,.29,2.17Zm-2.56-6.08h-2.2a9,9,0,0,0-1.85.17,3.82,3.82,0,0,0-1.29.5,2.07,2.07,0,0,0-.76.8,2.31,2.31,0,0,0-.24,1.07,2.1,2.1,0,0,0,.69,1.65,2.87,2.87,0,0,0,1.95.62,3.85,3.85,0,0,0,1.88-.49,8,8,0,0,0,1.82-1.5Z"/><path class="cls-1" d="M358.64,744.77a.36.36,0,0,1-.05.21.35.35,0,0,1-.19.14,1.3,1.3,0,0,1-.35.08,3.89,3.89,0,0,1-.53,0,4.22,4.22,0,0,1-.55,0,1.6,1.6,0,0,1-.36-.08.38.38,0,0,1-.2-.14.37.37,0,0,1-.06-.21V743a9.55,9.55,0,0,1-2.31,1.78,5.5,5.5,0,0,1-2.61.63,5.66,5.66,0,0,1-2.64-.57,5,5,0,0,1-1.78-1.53,6.74,6.74,0,0,1-1-2.28,11.73,11.73,0,0,1-.31-2.76,11.43,11.43,0,0,1,.39-3.1,6.77,6.77,0,0,1,1.16-2.36,5.12,5.12,0,0,1,1.89-1.5,6.19,6.19,0,0,1,2.62-.52,5,5,0,0,1,2.26.51,8.05,8.05,0,0,1,2,1.5v-7.74a.39.39,0,0,1,.06-.2.36.36,0,0,1,.21-.15,2.39,2.39,0,0,1,.39-.08,3.64,3.64,0,0,1,.62,0,3.75,3.75,0,0,1,.64,0,2,2,0,0,1,.39.08.44.44,0,0,1,.21.15.32.32,0,0,1,.07.2Zm-2.59-9.36a10,10,0,0,0-2-1.87,3.64,3.64,0,0,0-2-.64,3,3,0,0,0-1.67.44,3.58,3.58,0,0,0-1.12,1.17,5.27,5.27,0,0,0-.62,1.64,8.9,8.9,0,0,0-.2,1.86,11.64,11.64,0,0,0,.16,2,5.55,5.55,0,0,0,.57,1.71,3.39,3.39,0,0,0,1.08,1.2,3,3,0,0,0,1.69.45,4.07,4.07,0,0,0,1-.13,3.86,3.86,0,0,0,1-.45,7.46,7.46,0,0,0,1-.8,12.67,12.67,0,0,0,1.16-1.22Z"/><path class="cls-1" d="M375.41,737.54a1,1,0,0,1-.31.82,1.09,1.09,0,0,1-.7.25h-9.26a7.64,7.64,0,0,0,.24,2,4,4,0,0,0,.78,1.53,3.56,3.56,0,0,0,1.43,1,6,6,0,0,0,2.15.34,9.58,9.58,0,0,0,1.79-.15,11.53,11.53,0,0,0,1.36-.35c.38-.13.7-.25.94-.35a1.66,1.66,0,0,1,.56-.15.35.35,0,0,1,.2,0,.32.32,0,0,1,.13.15,1,1,0,0,1,.07.29,3,3,0,0,1,0,.45c0,.13,0,.24,0,.34a1.87,1.87,0,0,1,0,.25.71.71,0,0,1-.22.37,2.66,2.66,0,0,1-.51.26,6.83,6.83,0,0,1-1.09.37c-.45.11-1,.22-1.55.31a11.34,11.34,0,0,1-1.89.14,9.35,9.35,0,0,1-3-.45,5.59,5.59,0,0,1-2.19-1.37,5.72,5.72,0,0,1-1.34-2.26,9.79,9.79,0,0,1-.46-3.16,9.59,9.59,0,0,1,.47-3.09,6.42,6.42,0,0,1,1.35-2.32,5.87,5.87,0,0,1,2.13-1.46,7.39,7.39,0,0,1,2.8-.51,7,7,0,0,1,2.82.5,5.32,5.32,0,0,1,1.92,1.35,5.42,5.42,0,0,1,1.1,2,8.43,8.43,0,0,1,.35,2.45Zm-2.6-.72a4.25,4.25,0,0,0-.9-3,3.52,3.52,0,0,0-2.82-1.1,4,4,0,0,0-1.68.34,3.58,3.58,0,0,0-1.21.91,4,4,0,0,0-.76,1.31,5.33,5.33,0,0,0-.3,1.56Z"/><path class="cls-1" d="M397.16,744.79a.29.29,0,0,1-.13.26.89.89,0,0,1-.34.14,3.53,3.53,0,0,1-.64,0,3.8,3.8,0,0,1-.65,0,.77.77,0,0,1-.35-.14.28.28,0,0,1-.11-.26v-1.33a7.07,7.07,0,0,1-2.06,1.45,5.74,5.74,0,0,1-2.4.51,7,7,0,0,1-2-.27,4.43,4.43,0,0,1-1.53-.79,3.62,3.62,0,0,1-1-1.27,4.13,4.13,0,0,1-.35-1.72,3.81,3.81,0,0,1,.48-2,4,4,0,0,1,1.4-1.38,7.07,7.07,0,0,1,2.21-.82,14.78,14.78,0,0,1,3-.27h1.93v-1a4.73,4.73,0,0,0-.17-1.36,2.3,2.3,0,0,0-.55-1,2.45,2.45,0,0,0-1-.59,4.7,4.7,0,0,0-1.5-.2,6.48,6.48,0,0,0-1.72.21,8.36,8.36,0,0,0-1.32.48c-.38.17-.7.33-1,.47a1.33,1.33,0,0,1-.57.21.43.43,0,0,1-.22-.06.53.53,0,0,1-.16-.17.81.81,0,0,1-.1-.31,2.5,2.5,0,0,1,0-.4,3,3,0,0,1,.05-.59.84.84,0,0,1,.27-.4,3.62,3.62,0,0,1,.72-.46,8.43,8.43,0,0,1,1.19-.47,11.33,11.33,0,0,1,1.47-.35,8.68,8.68,0,0,1,1.61-.14,8.82,8.82,0,0,1,2.58.32,4.27,4.27,0,0,1,1.72,1,3.63,3.63,0,0,1,.95,1.56,7.07,7.07,0,0,1,.3,2.17Zm-2.57-6.08h-2.2a8.94,8.94,0,0,0-1.84.17,3.88,3.88,0,0,0-1.3.5,2.14,2.14,0,0,0-.76.8,2.31,2.31,0,0,0-.24,1.07,2.08,2.08,0,0,0,.7,1.65,2.82,2.82,0,0,0,1.94.62,3.79,3.79,0,0,0,1.88-.49,8,8,0,0,0,1.82-1.5Z"/><path class="cls-1" d="M410.72,741.15a4.09,4.09,0,0,1-.4,1.82,3.84,3.84,0,0,1-1.13,1.34,5.07,5.07,0,0,1-1.75.83,8.33,8.33,0,0,1-2.24.28,8.21,8.21,0,0,1-1.43-.11,8.83,8.83,0,0,1-1.22-.28,6.46,6.46,0,0,1-.91-.35,3.19,3.19,0,0,1-.55-.34.8.8,0,0,1-.25-.41,2.75,2.75,0,0,1-.08-.72,2.21,2.21,0,0,1,0-.48,1.61,1.61,0,0,1,.07-.31.4.4,0,0,1,.14-.17.38.38,0,0,1,.19,0,1.16,1.16,0,0,1,.51.2c.22.13.5.28.83.44a8.41,8.41,0,0,0,1.16.43,5.6,5.6,0,0,0,1.55.2,4.88,4.88,0,0,0,1.19-.13,3.08,3.08,0,0,0,.92-.39,1.89,1.89,0,0,0,.6-.66,2,2,0,0,0,.21-.95,1.52,1.52,0,0,0-.3-1,3,3,0,0,0-.81-.67,6.45,6.45,0,0,0-1.12-.53l-1.29-.48a13.81,13.81,0,0,1-1.3-.57,4.73,4.73,0,0,1-1.13-.78,3.3,3.3,0,0,1-1.11-2.61,3.56,3.56,0,0,1,.32-1.51,3.47,3.47,0,0,1,1-1.25,5,5,0,0,1,1.6-.87,6.92,6.92,0,0,1,2.24-.32,8.59,8.59,0,0,1,1.13.08,8,8,0,0,1,1,.23,6.26,6.26,0,0,1,.78.28,4.13,4.13,0,0,1,.48.28.89.89,0,0,1,.22.21.52.52,0,0,1,.08.2c0,.07,0,.16,0,.27a2.25,2.25,0,0,1,0,.4,2.63,2.63,0,0,1,0,.43,1.1,1.1,0,0,1-.07.31.4.4,0,0,1-.14.17.34.34,0,0,1-.17.05.83.83,0,0,1-.4-.16,5.46,5.46,0,0,0-.69-.35,8.57,8.57,0,0,0-1-.35,4.75,4.75,0,0,0-1.31-.16,4.5,4.5,0,0,0-1.16.14,2.33,2.33,0,0,0-.82.4,1.76,1.76,0,0,0-.48.61,1.83,1.83,0,0,0-.16.77,1.48,1.48,0,0,0,.31,1,3.08,3.08,0,0,0,.81.69,7.1,7.1,0,0,0,1.14.53l1.31.49c.44.17.88.35,1.31.56a5.1,5.1,0,0,1,1.15.76,3.25,3.25,0,0,1,1.11,2.54Z"/><path class="cls-1" d="M417.28,727a1.51,1.51,0,0,1-.35,1.16,2.71,2.71,0,0,1-2.5,0,1.49,1.49,0,0,1-.34-1.15,1.56,1.56,0,0,1,.34-1.16,2.73,2.73,0,0,1,2.51,0A1.49,1.49,0,0,1,417.28,727Zm-.3,17.8a.32.32,0,0,1-.06.2.43.43,0,0,1-.21.14,1.41,1.41,0,0,1-.39.09,5.48,5.48,0,0,1-.64,0,5.34,5.34,0,0,1-.62,0,1.59,1.59,0,0,1-.4-.09.36.36,0,0,1-.2-.14.32.32,0,0,1-.06-.2V731.46a.33.33,0,0,1,.06-.19.36.36,0,0,1,.2-.15,1.59,1.59,0,0,1,.4-.09,5.34,5.34,0,0,1,.62,0,5.48,5.48,0,0,1,.64,0,1.41,1.41,0,0,1,.39.09.44.44,0,0,1,.21.15.33.33,0,0,1,.06.19Z"/><path class="cls-1" d="M433.49,732.07a1.51,1.51,0,0,1-.14.74.44.44,0,0,1-.39.23h-2a3,3,0,0,1,.76,1.18,4,4,0,0,1,.22,1.34,5,5,0,0,1-.39,2,4.06,4.06,0,0,1-1.12,1.5,5.11,5.11,0,0,1-1.72.94,7.09,7.09,0,0,1-2.22.33,6.17,6.17,0,0,1-1.63-.22,3.36,3.36,0,0,1-1.2-.54,2.28,2.28,0,0,0-.46.61,1.63,1.63,0,0,0-.18.78,1,1,0,0,0,.51.86,2.54,2.54,0,0,0,1.35.37l3.67.15a8.08,8.08,0,0,1,1.92.27,4.84,4.84,0,0,1,1.52.7,3.21,3.21,0,0,1,1,1.11,3.09,3.09,0,0,1,.36,1.53,3.9,3.9,0,0,1-.41,1.74,4.06,4.06,0,0,1-1.24,1.46,6.38,6.38,0,0,1-2.13,1,11.58,11.58,0,0,1-3.06.36,13.3,13.3,0,0,1-2.9-.27,6.27,6.27,0,0,1-2-.75,2.92,2.92,0,0,1-1.11-1.13,3.05,3.05,0,0,1-.35-1.43,3.54,3.54,0,0,1,.51-1.82,4.62,4.62,0,0,1,.64-.79,9.81,9.81,0,0,1,.88-.75,2.66,2.66,0,0,1-1.13-.93,2.21,2.21,0,0,1-.37-1.21,3.18,3.18,0,0,1,.4-1.61,5.24,5.24,0,0,1,1-1.27,4.5,4.5,0,0,1-.76-1.24,4.34,4.34,0,0,1-.28-1.66,4.92,4.92,0,0,1,.4-2,4.33,4.33,0,0,1,1.13-1.53,5,5,0,0,1,1.72-1,7.09,7.09,0,0,1,2.2-.33,11,11,0,0,1,1.19.06,9.68,9.68,0,0,1,1,.19H433a.43.43,0,0,1,.4.24A1.6,1.6,0,0,1,433.49,732.07Zm-2.73,14a1.48,1.48,0,0,0-.74-1.32,3.87,3.87,0,0,0-2-.5l-3.64-.12a7,7,0,0,0-.82.7,5.07,5.07,0,0,0-.51.64,1.92,1.92,0,0,0-.25.6,2.49,2.49,0,0,0-.08.61,1.57,1.57,0,0,0,1,1.45,6.72,6.72,0,0,0,2.87.5,7.3,7.3,0,0,0,2-.22,3.65,3.65,0,0,0,1.27-.57,2,2,0,0,0,.7-.81A2.31,2.31,0,0,0,430.76,746.12Zm-1.3-10.55a2.81,2.81,0,0,0-.79-2.12,3.07,3.07,0,0,0-2.24-.76,3.24,3.24,0,0,0-1.3.24,2.37,2.37,0,0,0-.92.65,2.58,2.58,0,0,0-.55.95,3.56,3.56,0,0,0-.18,1.13,2.71,2.71,0,0,0,.79,2.07,3,3,0,0,0,2.21.76,3.59,3.59,0,0,0,1.33-.23,2.71,2.71,0,0,0,.93-.64,2.66,2.66,0,0,0,.54-.94A3.4,3.4,0,0,0,429.46,735.57Z"/><path class="cls-1" d="M448.91,744.77a.32.32,0,0,1-.06.2.45.45,0,0,1-.2.14,1.61,1.61,0,0,1-.39.09,5.53,5.53,0,0,1-.63,0,5.6,5.6,0,0,1-.64,0,1.41,1.41,0,0,1-.39-.09.45.45,0,0,1-.2-.14.32.32,0,0,1-.07-.2V737a7.65,7.65,0,0,0-.18-1.84,3.73,3.73,0,0,0-.55-1.19,2.25,2.25,0,0,0-.93-.77,3.05,3.05,0,0,0-1.32-.27,3.52,3.52,0,0,0-1.94.65,10.61,10.61,0,0,0-2,1.91v9.3a.32.32,0,0,1-.06.2.45.45,0,0,1-.2.14,1.61,1.61,0,0,1-.39.09,5.6,5.6,0,0,1-.64,0,5.53,5.53,0,0,1-.63,0,1.59,1.59,0,0,1-.4-.09.4.4,0,0,1-.2-.14.31.31,0,0,1-.05-.2V731.46a.42.42,0,0,1,0-.2.52.52,0,0,1,.19-.15,1.34,1.34,0,0,1,.36-.09l.58,0,.57,0a1.17,1.17,0,0,1,.35.09.71.71,0,0,1,.18.15.33.33,0,0,1,.05.2v1.76a8.47,8.47,0,0,1,2.37-1.84,5.31,5.31,0,0,1,2.38-.58,5.57,5.57,0,0,1,2.37.45,4.17,4.17,0,0,1,1.55,1.2,4.79,4.79,0,0,1,.86,1.77,10.14,10.14,0,0,1,.25,2.43Z"/><path class="cls-1" d="M464.21,744.79a.27.27,0,0,1-.13.26.89.89,0,0,1-.34.14,3.53,3.53,0,0,1-.64,0,3.8,3.8,0,0,1-.65,0,.77.77,0,0,1-.35-.14.3.3,0,0,1-.11-.26v-1.33a7,7,0,0,1-2.05,1.45,5.81,5.81,0,0,1-2.4.51,7,7,0,0,1-2-.27,4.43,4.43,0,0,1-1.53-.79,3.73,3.73,0,0,1-1-1.27,4.13,4.13,0,0,1-.35-1.72,3.72,3.72,0,0,1,.49-2,3.91,3.91,0,0,1,1.39-1.38,7,7,0,0,1,2.22-.82,14.68,14.68,0,0,1,2.95-.27h1.94v-1a4.72,4.72,0,0,0-.18-1.36,2.3,2.3,0,0,0-.55-1,2.45,2.45,0,0,0-1-.59,4.7,4.7,0,0,0-1.5-.2,6.35,6.35,0,0,0-1.71.21,8.14,8.14,0,0,0-1.33.48c-.38.17-.7.33-.95.47a1.43,1.43,0,0,1-.57.21.38.38,0,0,1-.22-.06.46.46,0,0,1-.17-.17,1,1,0,0,1-.1-.31,2.5,2.5,0,0,1,0-.4,2.32,2.32,0,0,1,.06-.59.75.75,0,0,1,.26-.4,3.46,3.46,0,0,1,.73-.46,8.28,8.28,0,0,1,1.18-.47,11.33,11.33,0,0,1,1.47-.35,8.68,8.68,0,0,1,1.61-.14,8.82,8.82,0,0,1,2.58.32,4.27,4.27,0,0,1,1.72,1,3.54,3.54,0,0,1,1,1.56,7.07,7.07,0,0,1,.3,2.17Zm-2.56-6.08h-2.21a8.94,8.94,0,0,0-1.84.17,4,4,0,0,0-1.3.5,2.22,2.22,0,0,0-.76.8,2.31,2.31,0,0,0-.24,1.07,2.11,2.11,0,0,0,.7,1.65,2.82,2.82,0,0,0,1.94.62,3.86,3.86,0,0,0,1.89-.49,8.49,8.49,0,0,0,1.82-1.5Z"/><path class="cls-1" d="M479.05,742.75c0,.16,0,.31,0,.43a1.18,1.18,0,0,1,0,.31c0,.09-.06.16-.09.23a2.18,2.18,0,0,1-.25.28,4.84,4.84,0,0,1-.67.46,6.38,6.38,0,0,1-1.05.48,7.7,7.7,0,0,1-1.28.35,7.28,7.28,0,0,1-1.42.13,7,7,0,0,1-2.68-.47,5.05,5.05,0,0,1-2-1.38,6.18,6.18,0,0,1-1.21-2.24,10.42,10.42,0,0,1-.41-3.05,10,10,0,0,1,.51-3.38,6.15,6.15,0,0,1,1.39-2.31,5.37,5.37,0,0,1,2.07-1.34,7.53,7.53,0,0,1,2.59-.44,6.91,6.91,0,0,1,1.3.12,7.37,7.37,0,0,1,1.17.31,5.88,5.88,0,0,1,.94.44,3.38,3.38,0,0,1,.6.43,1.47,1.47,0,0,1,.26.28.83.83,0,0,1,.12.25,1.4,1.4,0,0,1,.06.32c0,.11,0,.26,0,.44a1.75,1.75,0,0,1-.14.81.41.41,0,0,1-.35.22,1,1,0,0,1-.54-.24c-.2-.16-.46-.34-.77-.54a5.67,5.67,0,0,0-1.13-.54,4.63,4.63,0,0,0-1.57-.24,3.32,3.32,0,0,0-2.85,1.35,6.58,6.58,0,0,0-1,3.93,8.81,8.81,0,0,0,.26,2.25,4.51,4.51,0,0,0,.76,1.62,3,3,0,0,0,1.23,1,4.55,4.55,0,0,0,3.22,0,6.38,6.38,0,0,0,1.17-.58c.32-.21.6-.41.82-.58a1,1,0,0,1,.53-.26.33.33,0,0,1,.19.06.53.53,0,0,1,.13.2,2,2,0,0,1,.08.36C479,742.38,479.05,742.55,479.05,742.75Z"/><path class="cls-1" d="M485.35,727a1.51,1.51,0,0,1-.35,1.16,2.71,2.71,0,0,1-2.5,0,1.49,1.49,0,0,1-.34-1.15,1.52,1.52,0,0,1,.34-1.16,2.73,2.73,0,0,1,2.51,0A1.53,1.53,0,0,1,485.35,727Zm-.3,17.8a.32.32,0,0,1-.06.2.43.43,0,0,1-.21.14,1.41,1.41,0,0,1-.39.09,5.48,5.48,0,0,1-.64,0,5.22,5.22,0,0,1-.62,0,1.59,1.59,0,0,1-.4-.09.36.36,0,0,1-.2-.14.32.32,0,0,1-.06-.2V731.46a.33.33,0,0,1,.06-.19.36.36,0,0,1,.2-.15,1.59,1.59,0,0,1,.4-.09,5.22,5.22,0,0,1,.62,0,5.48,5.48,0,0,1,.64,0,1.41,1.41,0,0,1,.39.09.44.44,0,0,1,.21.15.33.33,0,0,1,.06.19Z"/><path class="cls-1" d="M502.89,738a9.52,9.52,0,0,1-.45,3,6.69,6.69,0,0,1-1.35,2.36,6.16,6.16,0,0,1-2.25,1.55,8.23,8.23,0,0,1-3.14.55,8.66,8.66,0,0,1-3-.48,5.66,5.66,0,0,1-2.15-1.42,6,6,0,0,1-1.28-2.27,10,10,0,0,1-.42-3,9.54,9.54,0,0,1,.45-3,6.32,6.32,0,0,1,1.34-2.36,6.1,6.1,0,0,1,2.24-1.54,8.39,8.39,0,0,1,3.14-.54,8.62,8.62,0,0,1,3,.48,5.58,5.58,0,0,1,2.15,1.42,6.18,6.18,0,0,1,1.29,2.27A9.57,9.57,0,0,1,502.89,738Zm-2.67.16a9.53,9.53,0,0,0-.21-2,5,5,0,0,0-.71-1.69,3.35,3.35,0,0,0-1.32-1.14,4.61,4.61,0,0,0-2.08-.42,4.76,4.76,0,0,0-2,.38,3.63,3.63,0,0,0-1.36,1.09,4.66,4.66,0,0,0-.8,1.66,8.16,8.16,0,0,0-.26,2.1,9.65,9.65,0,0,0,.21,2.06,4.9,4.9,0,0,0,.71,1.68,3.48,3.48,0,0,0,1.34,1.14,4.59,4.59,0,0,0,2.08.42,4.65,4.65,0,0,0,2-.39,3.55,3.55,0,0,0,1.37-1.08,4.52,4.52,0,0,0,.79-1.65A8.74,8.74,0,0,0,500.22,738.13ZM497.14,725a1,1,0,0,1,.22-.26.83.83,0,0,1,.31-.17,3,3,0,0,1,.44-.08,5.85,5.85,0,0,1,.64,0,3.51,3.51,0,0,1,.71.05.71.71,0,0,1,.38.15.22.22,0,0,1,.1.22.52.52,0,0,1-.14.26L497,728.53a1.79,1.79,0,0,1-.23.24.68.68,0,0,1-.23.14,1.35,1.35,0,0,1-.34.07,4,4,0,0,1-.53,0,2.64,2.64,0,0,1-.55,0,.61.61,0,0,1-.28-.12.19.19,0,0,1-.07-.19.81.81,0,0,1,.14-.28Z"/><path class="cls-1" d="M518.79,744.77a.32.32,0,0,1-.06.2.45.45,0,0,1-.2.14,1.61,1.61,0,0,1-.39.09,5.53,5.53,0,0,1-.63,0,5.6,5.6,0,0,1-.64,0,1.61,1.61,0,0,1-.39-.09.45.45,0,0,1-.2-.14.32.32,0,0,1-.06-.2V737a7.58,7.58,0,0,0-.19-1.84,3.73,3.73,0,0,0-.55-1.19,2.25,2.25,0,0,0-.93-.77,3.05,3.05,0,0,0-1.32-.27,3.52,3.52,0,0,0-1.94.65,10.61,10.61,0,0,0-2,1.91v9.3a.32.32,0,0,1-.06.2.45.45,0,0,1-.2.14,1.61,1.61,0,0,1-.39.09,5.6,5.6,0,0,1-.64,0,5.53,5.53,0,0,1-.63,0,1.7,1.7,0,0,1-.4-.09.4.4,0,0,1-.2-.14.31.31,0,0,1-.05-.2V731.46a.42.42,0,0,1,0-.2.52.52,0,0,1,.19-.15,1.34,1.34,0,0,1,.36-.09l.58,0,.57,0a1.17,1.17,0,0,1,.35.09.71.71,0,0,1,.18.15.33.33,0,0,1,.05.2v1.76a8.61,8.61,0,0,1,2.37-1.84,5.31,5.31,0,0,1,2.38-.58,5.57,5.57,0,0,1,2.37.45,4.17,4.17,0,0,1,1.55,1.2,4.79,4.79,0,0,1,.86,1.77,10.14,10.14,0,0,1,.25,2.43Z"/><path class="cls-1" d="M542.78,744.77a.37.37,0,0,1-.06.21.35.35,0,0,1-.19.14,1.3,1.3,0,0,1-.35.08,3.89,3.89,0,0,1-.53,0,4.22,4.22,0,0,1-.55,0,1.6,1.6,0,0,1-.36-.08.38.38,0,0,1-.2-.14.37.37,0,0,1-.06-.21V743a9.55,9.55,0,0,1-2.31,1.78,5.5,5.5,0,0,1-2.61.63,5.66,5.66,0,0,1-2.64-.57,5,5,0,0,1-1.78-1.53,6.74,6.74,0,0,1-1-2.28,11.73,11.73,0,0,1-.31-2.76,11.43,11.43,0,0,1,.39-3.1,6.77,6.77,0,0,1,1.16-2.36,5.12,5.12,0,0,1,1.89-1.5,6.19,6.19,0,0,1,2.62-.52,5,5,0,0,1,2.26.51,7.88,7.88,0,0,1,2,1.5v-7.74a.39.39,0,0,1,.06-.2.36.36,0,0,1,.21-.15,2.33,2.33,0,0,1,.4-.08,3.44,3.44,0,0,1,.61,0,3.75,3.75,0,0,1,.64,0,2,2,0,0,1,.39.08.53.53,0,0,1,.22.15.4.4,0,0,1,.07.2Zm-2.6-9.36a10,10,0,0,0-2-1.87,3.64,3.64,0,0,0-2-.64,3,3,0,0,0-1.67.44,3.58,3.58,0,0,0-1.12,1.17,5.27,5.27,0,0,0-.62,1.64,8.9,8.9,0,0,0-.2,1.86,12.77,12.77,0,0,0,.16,2,5.31,5.31,0,0,0,.58,1.71,3.36,3.36,0,0,0,1.07,1.2,3,3,0,0,0,1.69.45,4.07,4.07,0,0,0,1-.13,3.71,3.71,0,0,0,1-.45,8.14,8.14,0,0,0,1-.8,12.67,12.67,0,0,0,1.15-1.22Z"/><path class="cls-1" d="M559.54,737.54a1,1,0,0,1-.31.82,1.09,1.09,0,0,1-.7.25h-9.26a7.64,7.64,0,0,0,.24,2,4,4,0,0,0,.78,1.53,3.56,3.56,0,0,0,1.43,1,6,6,0,0,0,2.16.34,9.54,9.54,0,0,0,1.78-.15,11.53,11.53,0,0,0,1.36-.35c.38-.13.7-.25.94-.35a1.72,1.72,0,0,1,.56-.15.35.35,0,0,1,.2,0,.28.28,0,0,1,.13.15,1,1,0,0,1,.07.29,2.9,2.9,0,0,1,0,.45,3.28,3.28,0,0,1,0,.34,1.87,1.87,0,0,1,0,.25.5.5,0,0,1-.08.2.7.7,0,0,1-.14.17,2.35,2.35,0,0,1-.51.26,6.83,6.83,0,0,1-1.09.37c-.45.11-1,.22-1.55.31a11.34,11.34,0,0,1-1.89.14,9.35,9.35,0,0,1-3-.45,5.52,5.52,0,0,1-3.53-3.63,9.79,9.79,0,0,1-.46-3.16,9.59,9.59,0,0,1,.47-3.09,6.42,6.42,0,0,1,1.35-2.32,5.83,5.83,0,0,1,2.14-1.46,7.3,7.3,0,0,1,2.79-.51,7,7,0,0,1,2.82.5,5.32,5.32,0,0,1,1.92,1.35,5.42,5.42,0,0,1,1.1,2,8.43,8.43,0,0,1,.35,2.45Zm-2.59-.72a4.25,4.25,0,0,0-.91-3,3.52,3.52,0,0,0-2.82-1.1,4,4,0,0,0-1.68.34,3.58,3.58,0,0,0-1.21.91,4,4,0,0,0-.76,1.31,5.68,5.68,0,0,0-.3,1.56Z"/><path class="cls-1" d="M254.92,779.1c0,.16,0,.31,0,.43a1.82,1.82,0,0,1-.05.31.9.9,0,0,1-.1.22,1.28,1.28,0,0,1-.25.29,4,4,0,0,1-.66.45,6,6,0,0,1-1.05.49,8,8,0,0,1-1.28.35,7.35,7.35,0,0,1-1.42.13,7.06,7.06,0,0,1-2.69-.47,5.21,5.21,0,0,1-2-1.38,6.16,6.16,0,0,1-1.2-2.24,10.1,10.1,0,0,1-.41-3,10,10,0,0,1,.5-3.38,6.41,6.41,0,0,1,1.39-2.32,5.5,5.5,0,0,1,2.08-1.33,7.53,7.53,0,0,1,2.59-.44,7,7,0,0,1,1.3.12,7.67,7.67,0,0,1,1.17.31,6.32,6.32,0,0,1,.94.44,3.38,3.38,0,0,1,.6.43,1.92,1.92,0,0,1,.26.28.83.83,0,0,1,.12.25,1.42,1.42,0,0,1,.06.31c0,.12,0,.27,0,.45a1.56,1.56,0,0,1-.14.8.38.38,0,0,1-.34.23.91.91,0,0,1-.54-.24c-.2-.16-.46-.34-.77-.54a5.67,5.67,0,0,0-1.13-.54,4.67,4.67,0,0,0-1.57-.24,3.35,3.35,0,0,0-2.86,1.35,6.59,6.59,0,0,0-1,3.93,8.86,8.86,0,0,0,.26,2.25,4.35,4.35,0,0,0,.76,1.62,3,3,0,0,0,1.22,1,4.58,4.58,0,0,0,3.23,0,6,6,0,0,0,1.16-.58c.33-.21.61-.41.83-.58a1,1,0,0,1,.53-.26.28.28,0,0,1,.18.06.54.54,0,0,1,.14.2,1.43,1.43,0,0,1,.07.36A3.68,3.68,0,0,1,254.92,779.1Z"/><path class="cls-1" d="M268.67,781.14a.3.3,0,0,1-.13.26.89.89,0,0,1-.34.14,3.53,3.53,0,0,1-.64,0,3.8,3.8,0,0,1-.65,0,.77.77,0,0,1-.35-.14.29.29,0,0,1-.11-.26v-1.33a7.07,7.07,0,0,1-2.06,1.45,5.74,5.74,0,0,1-2.4.51,6.91,6.91,0,0,1-2-.27,4.43,4.43,0,0,1-1.53-.79,3.62,3.62,0,0,1-1-1.27,4.13,4.13,0,0,1-.35-1.72,3.81,3.81,0,0,1,.48-2,4,4,0,0,1,1.4-1.38,7.07,7.07,0,0,1,2.21-.82,14.78,14.78,0,0,1,3-.27h1.93v-1a4.73,4.73,0,0,0-.17-1.36,2.3,2.3,0,0,0-.55-1,2.42,2.42,0,0,0-1-.59,4.62,4.62,0,0,0-1.5-.2,6.46,6.46,0,0,0-1.71.21,9.54,9.54,0,0,0-1.32.47l-1,.48a1.33,1.33,0,0,1-.57.21.43.43,0,0,1-.22-.06.66.66,0,0,1-.16-.17.81.81,0,0,1-.1-.31,2.5,2.5,0,0,1,0-.4,3,3,0,0,1,.05-.59.84.84,0,0,1,.27-.4,3.62,3.62,0,0,1,.72-.46,8.43,8.43,0,0,1,1.19-.47,11.33,11.33,0,0,1,1.47-.35,8.68,8.68,0,0,1,1.61-.14,8.82,8.82,0,0,1,2.58.32,4.38,4.38,0,0,1,1.72.95,3.73,3.73,0,0,1,.95,1.57,7.07,7.07,0,0,1,.3,2.17Zm-2.57-6.08h-2.2a8.94,8.94,0,0,0-1.84.17,3.88,3.88,0,0,0-1.3.5,2.14,2.14,0,0,0-.76.8,2.31,2.31,0,0,0-.24,1.07,2.08,2.08,0,0,0,.7,1.65,2.82,2.82,0,0,0,1.94.62,3.79,3.79,0,0,0,1.88-.49,8,8,0,0,0,1.82-1.5Z"/><path class="cls-1" d="M294.26,781.12a.32.32,0,0,1-.07.2.45.45,0,0,1-.2.14,1.41,1.41,0,0,1-.39.09,5.53,5.53,0,0,1-.63,0,5.6,5.6,0,0,1-.64,0,1.5,1.5,0,0,1-.39-.09.52.52,0,0,1-.22-.14.32.32,0,0,1-.06-.2V773a7.38,7.38,0,0,0-.15-1.54,3.47,3.47,0,0,0-.5-1.19,2.17,2.17,0,0,0-.88-.77,2.71,2.71,0,0,0-1.25-.27,3.08,3.08,0,0,0-1.79.65,11.45,11.45,0,0,0-2,1.91v9.3a.32.32,0,0,1-.07.2.43.43,0,0,1-.21.14,1.59,1.59,0,0,1-.4.09,5.22,5.22,0,0,1-.62,0,5.46,5.46,0,0,1-.62,0,1.59,1.59,0,0,1-.4-.09.43.43,0,0,1-.21-.14.39.39,0,0,1,0-.2V773a6.73,6.73,0,0,0-.17-1.54,3.7,3.7,0,0,0-.52-1.19,2.21,2.21,0,0,0-.87-.77,2.67,2.67,0,0,0-1.24-.27,3.08,3.08,0,0,0-1.79.65,10.78,10.78,0,0,0-2,1.91v9.3a.27.27,0,0,1-.07.2.45.45,0,0,1-.2.14,1.41,1.41,0,0,1-.39.09,5.6,5.6,0,0,1-.64,0,5.22,5.22,0,0,1-.62,0,1.59,1.59,0,0,1-.4-.09.43.43,0,0,1-.21-.14.39.39,0,0,1-.05-.2V767.81a.42.42,0,0,1,.05-.2.47.47,0,0,1,.18-.15,1.58,1.58,0,0,1,.36-.09l.58,0,.57,0a1.17,1.17,0,0,1,.35.09.47.47,0,0,1,.18.15.34.34,0,0,1,.06.2v1.76a9,9,0,0,1,2.3-1.84,4.84,4.84,0,0,1,2.26-.58,5.82,5.82,0,0,1,1.57.19,4.38,4.38,0,0,1,1.22.54,3.62,3.62,0,0,1,.91.83,4.71,4.71,0,0,1,.63,1.07,14.44,14.44,0,0,1,1.33-1.23,7.79,7.79,0,0,1,1.22-.81,4.81,4.81,0,0,1,1.14-.45,4.25,4.25,0,0,1,1.12-.14,5.21,5.21,0,0,1,2.28.45,4.12,4.12,0,0,1,1.49,1.2,4.64,4.64,0,0,1,.81,1.77,9.29,9.29,0,0,1,.25,2.14Z"/><path class="cls-1" d="M309.55,781.14a.28.28,0,0,1-.13.26.83.83,0,0,1-.34.14,3.46,3.46,0,0,1-.64,0,3.8,3.8,0,0,1-.65,0,.77.77,0,0,1-.35-.14.32.32,0,0,1-.11-.26v-1.33a7,7,0,0,1-2.05,1.45,5.81,5.81,0,0,1-2.4.51,7,7,0,0,1-2-.27,4.43,4.43,0,0,1-1.53-.79,3.59,3.59,0,0,1-1-1.27,4,4,0,0,1-.36-1.72,3.81,3.81,0,0,1,.49-2,4,4,0,0,1,1.39-1.38,7,7,0,0,1,2.22-.82,14.68,14.68,0,0,1,2.95-.27H307v-1a5.11,5.11,0,0,0-.17-1.36,2.24,2.24,0,0,0-1.55-1.57,4.7,4.7,0,0,0-1.5-.2,6.35,6.35,0,0,0-1.71.21,9.24,9.24,0,0,0-1.33.47c-.38.18-.7.34-1,.48a1.43,1.43,0,0,1-.57.21.38.38,0,0,1-.22-.06.52.52,0,0,1-.16-.17.8.8,0,0,1-.11-.31,2.5,2.5,0,0,1,0-.4,2.32,2.32,0,0,1,.06-.59.75.75,0,0,1,.26-.4,3.76,3.76,0,0,1,.73-.46,8,8,0,0,1,1.19-.47,10.79,10.79,0,0,1,1.46-.35,10.05,10.05,0,0,1,4.19.18,4.38,4.38,0,0,1,1.72.95,3.63,3.63,0,0,1,.95,1.57,7.07,7.07,0,0,1,.3,2.17ZM307,775.06h-2.2a9,9,0,0,0-1.85.17,4,4,0,0,0-1.3.5,2.11,2.11,0,0,0-.75.8,2.31,2.31,0,0,0-.25,1.07,2.11,2.11,0,0,0,.7,1.65,2.83,2.83,0,0,0,2,.62,3.85,3.85,0,0,0,1.88-.49,8.25,8.25,0,0,0,1.82-1.5Z"/><path class="cls-1" d="M323.11,777.5a4,4,0,0,1-.4,1.82,3.64,3.64,0,0,1-1.13,1.34,5.16,5.16,0,0,1-1.75.83,9.15,9.15,0,0,1-3.66.17,8.5,8.5,0,0,1-1.22-.28A6.64,6.64,0,0,1,314,781a2.7,2.7,0,0,1-.54-.34.78.78,0,0,1-.25-.41,2.41,2.41,0,0,1-.08-.73,3.18,3.18,0,0,1,0-.47,1.53,1.53,0,0,1,.08-.31.33.33,0,0,1,.13-.17.42.42,0,0,1,.2-.05,1.17,1.17,0,0,1,.5.2c.23.13.5.28.83.43a7.39,7.39,0,0,0,1.17.44,5.48,5.48,0,0,0,1.54.2,4.82,4.82,0,0,0,1.19-.13,3.08,3.08,0,0,0,.92-.39,1.89,1.89,0,0,0,.6-.66,2,2,0,0,0,.21-.95,1.52,1.52,0,0,0-.3-1,3,3,0,0,0-.8-.68,7.4,7.4,0,0,0-1.13-.52l-1.29-.48c-.44-.17-.87-.36-1.3-.57a4.94,4.94,0,0,1-1.13-.78,3.5,3.5,0,0,1-.8-1.09,3.42,3.42,0,0,1-.31-1.53,3.53,3.53,0,0,1,1.28-2.75,5,5,0,0,1,1.6-.87,8,8,0,0,1,3.37-.24,8.15,8.15,0,0,1,1,.23,5.55,5.55,0,0,1,.77.28,4.43,4.43,0,0,1,.49.28,1,1,0,0,1,.21.2.5.5,0,0,1,.08.2c0,.08,0,.17.05.28s0,.24,0,.4,0,.31,0,.43a1.07,1.07,0,0,1-.08.31.48.48,0,0,1-.13.17.34.34,0,0,1-.17,0,.86.86,0,0,1-.41-.16,5.46,5.46,0,0,0-.69-.35,8.57,8.57,0,0,0-1-.35,4.72,4.72,0,0,0-1.3-.16,4.44,4.44,0,0,0-1.16.14,2.24,2.24,0,0,0-.82.4,1.79,1.79,0,0,0-.49.61,2,2,0,0,0-.16.77,1.54,1.54,0,0,0,.31,1,3,3,0,0,0,.82.69,6.72,6.72,0,0,0,1.14.53l1.3.49c.44.17.88.35,1.31.56A4.69,4.69,0,0,1,322,775a3.56,3.56,0,0,1,.81,1.06A3.37,3.37,0,0,1,323.11,777.5Z"/><path class="cls-1" d="M347,774.26a11.67,11.67,0,0,1-.4,3.14,6.82,6.82,0,0,1-1.17,2.35,5.22,5.22,0,0,1-1.92,1.5,6.17,6.17,0,0,1-2.61.52,5.91,5.91,0,0,1-1.15-.11,5,5,0,0,1-1-.37,5.87,5.87,0,0,1-1-.64c-.33-.26-.69-.56-1.06-.9v6.65a.37.37,0,0,1-.06.21.49.49,0,0,1-.21.15,1.41,1.41,0,0,1-.39.09,5.48,5.48,0,0,1-.64,0,5.22,5.22,0,0,1-.62,0,1.59,1.59,0,0,1-.4-.09.36.36,0,0,1-.2-.15.37.37,0,0,1-.06-.21V767.81a.41.41,0,0,1,.05-.21.33.33,0,0,1,.19-.14,1.34,1.34,0,0,1,.36-.09l.53,0,.53,0a1.58,1.58,0,0,1,.36.09.36.36,0,0,1,.19.14.33.33,0,0,1,.06.21v1.79a14.41,14.41,0,0,1,1.23-1.08,7.5,7.5,0,0,1,1.2-.76,5.73,5.73,0,0,1,1.23-.46,5.79,5.79,0,0,1,1.34-.15,5.46,5.46,0,0,1,2.6.56,4.68,4.68,0,0,1,1.76,1.54,6.32,6.32,0,0,1,1,2.27A11.5,11.5,0,0,1,347,774.26Zm-2.68.28a11.47,11.47,0,0,0-.16-2,5.49,5.49,0,0,0-.57-1.7,3.2,3.2,0,0,0-1.07-1.18,3,3,0,0,0-1.68-.44,3.29,3.29,0,0,0-1,.14,3.91,3.91,0,0,0-1,.44,6.85,6.85,0,0,0-1.06.8,14,14,0,0,0-1.16,1.22v5.29a10.66,10.66,0,0,0,2,1.88,3.48,3.48,0,0,0,2,.65,3,3,0,0,0,1.67-.44,3.36,3.36,0,0,0,1.13-1.18,5.91,5.91,0,0,0,.64-1.66A8.25,8.25,0,0,0,344.29,774.54Z"/><path class="cls-1" d="M361.43,781.14a.3.3,0,0,1-.12.26.88.88,0,0,1-.35.14,3.39,3.39,0,0,1-.64,0,3.67,3.67,0,0,1-.64,0,.82.82,0,0,1-.36-.14.32.32,0,0,1-.11-.26v-1.33a6.9,6.9,0,0,1-2,1.45,5.74,5.74,0,0,1-2.4.51,7,7,0,0,1-2-.27,4.62,4.62,0,0,1-1.53-.79,3.59,3.59,0,0,1-1-1.27,4.13,4.13,0,0,1-.35-1.72,3.81,3.81,0,0,1,.48-2,4.08,4.08,0,0,1,1.39-1.38,7.24,7.24,0,0,1,2.22-.82,14.75,14.75,0,0,1,2.95-.27h1.94v-1a5.11,5.11,0,0,0-.17-1.36,2.2,2.2,0,0,0-1.55-1.57,4.62,4.62,0,0,0-1.5-.2,6.46,6.46,0,0,0-1.71.21,10.2,10.2,0,0,0-1.33.47c-.38.18-.69.34-.95.48a1.33,1.33,0,0,1-.57.21.43.43,0,0,1-.22-.06.66.66,0,0,1-.16-.17.81.81,0,0,1-.1-.31,2.5,2.5,0,0,1,0-.4,2.39,2.39,0,0,1,.05-.59.84.84,0,0,1,.27-.4,3.62,3.62,0,0,1,.72-.46,8.43,8.43,0,0,1,1.19-.47,11.33,11.33,0,0,1,1.47-.35,8.68,8.68,0,0,1,1.61-.14,8.82,8.82,0,0,1,2.58.32,4.33,4.33,0,0,1,1.71.95,3.65,3.65,0,0,1,1,1.57,7.4,7.4,0,0,1,.29,2.17Zm-2.56-6.08h-2.2a8.94,8.94,0,0,0-1.84.17,3.8,3.8,0,0,0-1.3.5,2.07,2.07,0,0,0-.76.8,2.31,2.31,0,0,0-.24,1.07,2.1,2.1,0,0,0,.69,1.65,2.87,2.87,0,0,0,1.95.62,3.82,3.82,0,0,0,1.88-.49,8,8,0,0,0,1.82-1.5Z"/><path class="cls-1" d="M374.38,768.68c0,.22,0,.4,0,.55a1.39,1.39,0,0,1-.06.35.44.44,0,0,1-.12.19.29.29,0,0,1-.19.07,1,1,0,0,1-.31-.07l-.41-.13a5.16,5.16,0,0,0-.5-.13,2.93,2.93,0,0,0-.61-.06,2.07,2.07,0,0,0-.77.15,3,3,0,0,0-.79.49,6.86,6.86,0,0,0-.86.9,16.26,16.26,0,0,0-1,1.38v8.75a.32.32,0,0,1-.07.2.45.45,0,0,1-.2.14,1.41,1.41,0,0,1-.39.09,5.6,5.6,0,0,1-.64,0,5.53,5.53,0,0,1-.63,0,1.5,1.5,0,0,1-.39-.09.43.43,0,0,1-.21-.14.39.39,0,0,1-.05-.2V767.81a.42.42,0,0,1,0-.2.63.63,0,0,1,.19-.15,1.58,1.58,0,0,1,.36-.09l.58,0,.57,0a1.17,1.17,0,0,1,.35.09.71.71,0,0,1,.18.15.34.34,0,0,1,.06.2v1.94a9.77,9.77,0,0,1,1.08-1.3,5.68,5.68,0,0,1,1-.79,2.74,2.74,0,0,1,.9-.4,3.47,3.47,0,0,1,.9-.11,3.86,3.86,0,0,1,.46,0,3.71,3.71,0,0,1,.54.08,4.71,4.71,0,0,1,.51.13,1.2,1.2,0,0,1,.32.15.47.47,0,0,1,.12.14,1.62,1.62,0,0,1,.06.17q0,.1,0,.3Z"/><path class="cls-1" d="M387.26,781.14a.28.28,0,0,1-.13.26.89.89,0,0,1-.34.14,3.53,3.53,0,0,1-.64,0,3.8,3.8,0,0,1-.65,0,.77.77,0,0,1-.35-.14.32.32,0,0,1-.11-.26v-1.33a7.17,7.17,0,0,1-2.05,1.45,5.81,5.81,0,0,1-2.4.51,7,7,0,0,1-2-.27,4.43,4.43,0,0,1-1.53-.79,3.73,3.73,0,0,1-1-1.27,4.13,4.13,0,0,1-.35-1.72,3.72,3.72,0,0,1,.49-2,3.91,3.91,0,0,1,1.39-1.38,7,7,0,0,1,2.22-.82,14.68,14.68,0,0,1,2.95-.27h1.94v-1a4.72,4.72,0,0,0-.18-1.36,2.3,2.3,0,0,0-.55-1,2.45,2.45,0,0,0-1-.59,4.7,4.7,0,0,0-1.5-.2,6.35,6.35,0,0,0-1.71.21,9.24,9.24,0,0,0-1.33.47c-.38.18-.7.34-.95.48a1.43,1.43,0,0,1-.57.21.38.38,0,0,1-.22-.06.55.55,0,0,1-.17-.17,1,1,0,0,1-.1-.31,2.5,2.5,0,0,1,0-.4,2.32,2.32,0,0,1,.06-.59.75.75,0,0,1,.26-.4,3.46,3.46,0,0,1,.73-.46,8.28,8.28,0,0,1,1.18-.47,11.33,11.33,0,0,1,1.47-.35,8.68,8.68,0,0,1,1.61-.14,8.82,8.82,0,0,1,2.58.32,4.38,4.38,0,0,1,1.72.95A3.63,3.63,0,0,1,387,770a7.07,7.07,0,0,1,.3,2.17Zm-2.56-6.08h-2.21a8.94,8.94,0,0,0-1.84.17,4,4,0,0,0-1.3.5,2.22,2.22,0,0,0-.76.8,2.31,2.31,0,0,0-.24,1.07,2.08,2.08,0,0,0,.7,1.65,2.82,2.82,0,0,0,1.94.62,3.86,3.86,0,0,0,1.89-.49,8.49,8.49,0,0,0,1.82-1.5Z"/><path class="cls-1" d="M402.1,763.31a1.53,1.53,0,0,1-.34,1.17,2.73,2.73,0,0,1-2.51,0,1.49,1.49,0,0,1-.34-1.15,1.51,1.51,0,0,1,.35-1.16,2.71,2.71,0,0,1,2.5,0A1.48,1.48,0,0,1,402.1,763.31Zm-.3,17.81a.32.32,0,0,1-.06.2.45.45,0,0,1-.2.14,1.61,1.61,0,0,1-.39.09,5.6,5.6,0,0,1-.64,0,5.53,5.53,0,0,1-.63,0,1.59,1.59,0,0,1-.4-.09.4.4,0,0,1-.2-.14.31.31,0,0,1,0-.2V767.81a.32.32,0,0,1,0-.19.41.41,0,0,1,.2-.15,1.59,1.59,0,0,1,.4-.09,5.53,5.53,0,0,1,.63,0,5.6,5.6,0,0,1,.64,0,1.61,1.61,0,0,1,.39.09.46.46,0,0,1,.2.15.33.33,0,0,1,.06.19Z"/><path class="cls-1" d="M418.68,781.12a.32.32,0,0,1-.07.2.45.45,0,0,1-.2.14,1.41,1.41,0,0,1-.39.09,5.53,5.53,0,0,1-.63,0,5.6,5.6,0,0,1-.64,0,1.61,1.61,0,0,1-.39-.09.45.45,0,0,1-.2-.14.32.32,0,0,1-.06-.2v-7.79a7.11,7.11,0,0,0-.19-1.84,3.53,3.53,0,0,0-.55-1.19,2.25,2.25,0,0,0-.93-.77,3.05,3.05,0,0,0-1.32-.27,3.46,3.46,0,0,0-1.93.65,9.78,9.78,0,0,0-2,1.91v9.3a.27.27,0,0,1-.07.2.45.45,0,0,1-.2.14,1.41,1.41,0,0,1-.39.09,5.6,5.6,0,0,1-.64,0,5.53,5.53,0,0,1-.63,0,1.5,1.5,0,0,1-.39-.09.43.43,0,0,1-.21-.14.39.39,0,0,1-.05-.2V767.81a.33.33,0,0,1,.05-.2.47.47,0,0,1,.18-.15,1.58,1.58,0,0,1,.36-.09l.58,0,.57,0a1.17,1.17,0,0,1,.35.09.57.57,0,0,1,.18.15.34.34,0,0,1,.06.2v1.76a8.58,8.58,0,0,1,2.36-1.84,5.32,5.32,0,0,1,2.39-.58,5.55,5.55,0,0,1,2.36.45,4.29,4.29,0,0,1,1.56,1.2,4.7,4.7,0,0,1,.85,1.77,10.1,10.1,0,0,1,.26,2.43Z"/><path class="cls-1" d="M432.2,777.5a4.09,4.09,0,0,1-.39,1.82,3.77,3.77,0,0,1-1.14,1.34,5.16,5.16,0,0,1-1.75.83,9.15,9.15,0,0,1-3.66.17,8.83,8.83,0,0,1-1.22-.28,6.46,6.46,0,0,1-.91-.35,3.19,3.19,0,0,1-.55-.34.84.84,0,0,1-.25-.41,2.78,2.78,0,0,1-.08-.73,3.18,3.18,0,0,1,0-.47,1.53,1.53,0,0,1,.08-.31.34.34,0,0,1,.14-.17.38.38,0,0,1,.19-.05,1.25,1.25,0,0,1,.51.2,8.81,8.81,0,0,0,.83.43,6.9,6.9,0,0,0,1.16.44,5.55,5.55,0,0,0,1.55.2,4.79,4.79,0,0,0,1.18-.13,3.14,3.14,0,0,0,.93-.39,1.89,1.89,0,0,0,.6-.66,2,2,0,0,0,.21-.95,1.47,1.47,0,0,0-.31-1,3,3,0,0,0-.8-.68,7.4,7.4,0,0,0-1.13-.52l-1.29-.48q-.66-.25-1.29-.57a4.73,4.73,0,0,1-1.13-.78,3.38,3.38,0,0,1-.81-1.09,3.86,3.86,0,0,1,0-3,3.47,3.47,0,0,1,1-1.25,4.88,4.88,0,0,1,1.6-.87,6.92,6.92,0,0,1,2.24-.32,7.16,7.16,0,0,1,1.13.08,8,8,0,0,1,1,.23,5.55,5.55,0,0,1,.77.28,3.65,3.65,0,0,1,.49.28,1.15,1.15,0,0,1,.22.2,1.19,1.19,0,0,1,.08.2c0,.08,0,.17,0,.28a2.25,2.25,0,0,1,0,.4,2.63,2.63,0,0,1,0,.43.82.82,0,0,1-.08.31.39.39,0,0,1-.13.17.34.34,0,0,1-.17,0,.9.9,0,0,1-.41-.16,4.66,4.66,0,0,0-.68-.35,8.78,8.78,0,0,0-1-.35,4.67,4.67,0,0,0-1.3-.16,4.5,4.5,0,0,0-1.16.14,2.33,2.33,0,0,0-.82.4,1.76,1.76,0,0,0-.48.61,1.84,1.84,0,0,0-.17.77,1.49,1.49,0,0,0,.32,1,3.08,3.08,0,0,0,.81.69,6.72,6.72,0,0,0,1.14.53l1.3.49c.45.17.88.35,1.32.56a5.1,5.1,0,0,1,1.15.76,3.2,3.2,0,0,1,1.1,2.54Z"/><path class="cls-1" d="M447.77,767.43a.81.81,0,0,1,.64.2.87.87,0,0,1,.17.58v12.91a.32.32,0,0,1-.06.2.52.52,0,0,1-.22.14,1.5,1.5,0,0,1-.39.09,5.28,5.28,0,0,1-.61,0,5.48,5.48,0,0,1-.64,0,1.59,1.59,0,0,1-.4-.09.43.43,0,0,1-.21-.14.27.27,0,0,1-.07-.2V769.45h-7.26v7.43a4,4,0,0,0,.43,2.08,1.68,1.68,0,0,0,1.54.7,2.51,2.51,0,0,0,.64-.07,4.39,4.39,0,0,0,.5-.14l.37-.14a.87.87,0,0,1,.29-.07.33.33,0,0,1,.14,0,.23.23,0,0,1,.11.14,1.26,1.26,0,0,1,.07.28,2.81,2.81,0,0,1,0,.45,2.94,2.94,0,0,1-.06.67.72.72,0,0,1-.19.37,1.12,1.12,0,0,1-.37.23,3.85,3.85,0,0,1-.57.17l-.68.11a5.79,5.79,0,0,1-.72,0,5.73,5.73,0,0,1-1.87-.27,3.1,3.1,0,0,1-1.29-.83,3.39,3.39,0,0,1-.72-1.4,7.94,7.94,0,0,1-.23-2v-7.78h-2a.43.43,0,0,1-.37-.23,1.65,1.65,0,0,1-.14-.77,2.21,2.21,0,0,1,0-.48,1.13,1.13,0,0,1,.1-.31.32.32,0,0,1,.16-.18.46.46,0,0,1,.23-.05h1.95v-3.17a.33.33,0,0,1,.06-.19.43.43,0,0,1,.2-.16,1.59,1.59,0,0,1,.4-.09,5.22,5.22,0,0,1,.62,0,5.48,5.48,0,0,1,.64,0,1.41,1.41,0,0,1,.39.09.53.53,0,0,1,.21.16.33.33,0,0,1,.06.19v3.17Zm1.11-4.12a1.53,1.53,0,0,1-.35,1.17,1.9,1.9,0,0,1-1.26.31,1.93,1.93,0,0,1-1.25-.3,1.53,1.53,0,0,1-.33-1.15,1.52,1.52,0,0,1,.34-1.16,2.73,2.73,0,0,1,2.51,0A1.52,1.52,0,0,1,448.88,763.31Z"/><path class="cls-1" d="M460.67,780.15a3.1,3.1,0,0,1-.06.68.81.81,0,0,1-.19.37,1.19,1.19,0,0,1-.38.22,3.24,3.24,0,0,1-.57.17l-.68.11a5.63,5.63,0,0,1-.71,0,5.79,5.79,0,0,1-1.88-.27,3,3,0,0,1-1.28-.83,3.4,3.4,0,0,1-.73-1.4,8,8,0,0,1-.22-2v-7.78h-2a.44.44,0,0,1-.38-.23,1.65,1.65,0,0,1-.14-.77,3.08,3.08,0,0,1,0-.48,1.62,1.62,0,0,1,.1-.31.37.37,0,0,1,.17-.18.42.42,0,0,1,.22-.05h2v-3.17a.41.41,0,0,1,0-.19.53.53,0,0,1,.21-.16,1.5,1.5,0,0,1,.39-.09,5.53,5.53,0,0,1,.63,0,5.6,5.6,0,0,1,.64,0,1.41,1.41,0,0,1,.39.09.56.56,0,0,1,.2.16.33.33,0,0,1,.06.19v3.17h3.61a.38.38,0,0,1,.22.05.37.37,0,0,1,.17.18,1.13,1.13,0,0,1,.1.31,3.23,3.23,0,0,1,0,.48,1.65,1.65,0,0,1-.14.77.43.43,0,0,1-.38.23h-3.61v7.43A4.11,4.11,0,0,0,457,779a1.68,1.68,0,0,0,1.54.7,2.46,2.46,0,0,0,.64-.07,3.88,3.88,0,0,0,.5-.14l.38-.14a.82.82,0,0,1,.28-.07.42.42,0,0,1,.15,0,.27.27,0,0,1,.11.14,2.26,2.26,0,0,1,.07.28A2.81,2.81,0,0,1,460.67,780.15Z"/><path class="cls-1" d="M476.12,781.12a.39.39,0,0,1-.05.2.45.45,0,0,1-.2.14,1.33,1.33,0,0,1-.37.09,4.22,4.22,0,0,1-.55,0,4.68,4.68,0,0,1-.59,0,1.34,1.34,0,0,1-.36-.09.44.44,0,0,1-.18-.14.4.4,0,0,1,0-.2v-1.76a8.79,8.79,0,0,1-2.38,1.84,5.36,5.36,0,0,1-2.37.57,5.57,5.57,0,0,1-2.37-.44,4.09,4.09,0,0,1-1.55-1.21,4.63,4.63,0,0,1-.85-1.77,9.77,9.77,0,0,1-.26-2.46v-8.08a.42.42,0,0,1,.05-.2.63.63,0,0,1,.21-.15,1.8,1.8,0,0,1,.41-.09l.62,0,.63,0a1.59,1.59,0,0,1,.4.09.63.63,0,0,1,.21.15.34.34,0,0,1,.06.2v7.75a7.81,7.81,0,0,0,.18,1.87,3.32,3.32,0,0,0,.55,1.2,2.41,2.41,0,0,0,.93.77,3,3,0,0,0,1.31.27,3.36,3.36,0,0,0,1.93-.65,10.6,10.6,0,0,0,2-1.91v-9.3a.42.42,0,0,1,.05-.2.63.63,0,0,1,.21-.15,1.83,1.83,0,0,1,.4-.09l.63,0,.63,0a1.41,1.41,0,0,1,.39.09,1,1,0,0,1,.21.15.29.29,0,0,1,.07.2Z"/><path class="cls-1" d="M491,779.1c0,.16,0,.31,0,.43a1.13,1.13,0,0,1-.06.31.63.63,0,0,1-.09.22,1.62,1.62,0,0,1-.25.29,4,4,0,0,1-.66.45,6.09,6.09,0,0,1-1.06.49,7.58,7.58,0,0,1-1.27.35,7.35,7.35,0,0,1-1.42.13,7.06,7.06,0,0,1-2.69-.47,5.13,5.13,0,0,1-2-1.38,6,6,0,0,1-1.2-2.24,10.08,10.08,0,0,1-.42-3,10,10,0,0,1,.51-3.38,6.41,6.41,0,0,1,1.39-2.32,5.5,5.5,0,0,1,2.08-1.33,7.47,7.47,0,0,1,2.58-.44,7,7,0,0,1,1.31.12,7.24,7.24,0,0,1,1.16.31,6,6,0,0,1,.95.44,4.35,4.35,0,0,1,.6.43,2.74,2.74,0,0,1,.26.28,1.17,1.17,0,0,1,.11.25,2.38,2.38,0,0,1,.07.31c0,.12,0,.27,0,.45a1.67,1.67,0,0,1-.14.8.39.39,0,0,1-.34.23.91.91,0,0,1-.54-.24c-.21-.16-.46-.34-.78-.54a5.67,5.67,0,0,0-1.13-.54,4.59,4.59,0,0,0-1.57-.24,3.32,3.32,0,0,0-2.85,1.35,6.59,6.59,0,0,0-1,3.93,8.43,8.43,0,0,0,.26,2.25,4.5,4.5,0,0,0,.75,1.62,3.11,3.11,0,0,0,1.23,1,4.13,4.13,0,0,0,1.66.32,4.2,4.2,0,0,0,1.57-.27,6.6,6.6,0,0,0,1.16-.58c.33-.21.6-.41.83-.58a1,1,0,0,1,.52-.26.31.31,0,0,1,.19.06.44.44,0,0,1,.13.2,1.38,1.38,0,0,1,.08.36A3.86,3.86,0,0,1,491,779.1Z"/><path class="cls-1" d="M497.29,763.31a1.57,1.57,0,0,1-.34,1.17,1.93,1.93,0,0,1-1.27.31,1.9,1.9,0,0,1-1.24-.3,1.49,1.49,0,0,1-.34-1.15,1.51,1.51,0,0,1,.35-1.16,2.71,2.71,0,0,1,2.5,0A1.48,1.48,0,0,1,497.29,763.31Zm-.3,17.81a.32.32,0,0,1-.06.2.45.45,0,0,1-.2.14,1.61,1.61,0,0,1-.39.09,5.6,5.6,0,0,1-.64,0,5.53,5.53,0,0,1-.63,0,1.59,1.59,0,0,1-.4-.09.4.4,0,0,1-.2-.14.31.31,0,0,1-.05-.2V767.81a.32.32,0,0,1,.05-.19.41.41,0,0,1,.2-.15,1.59,1.59,0,0,1,.4-.09,5.53,5.53,0,0,1,.63,0,5.6,5.6,0,0,1,.64,0,1.61,1.61,0,0,1,.39.09.46.46,0,0,1,.2.15.33.33,0,0,1,.06.19Z"/><path class="cls-1" d="M514.83,774.32a9.52,9.52,0,0,1-.45,3,6.4,6.4,0,0,1-1.35,2.36,6.16,6.16,0,0,1-2.25,1.55,8.21,8.21,0,0,1-3.13.55,8.68,8.68,0,0,1-3-.48,5.54,5.54,0,0,1-2.14-1.42,5.89,5.89,0,0,1-1.28-2.27,9.64,9.64,0,0,1-.43-3,9.54,9.54,0,0,1,.45-3,6.46,6.46,0,0,1,1.34-2.36,6.18,6.18,0,0,1,2.24-1.54,8.43,8.43,0,0,1,3.14-.54,8.68,8.68,0,0,1,3,.48,5.66,5.66,0,0,1,2.15,1.42,5.94,5.94,0,0,1,1.28,2.27A9.57,9.57,0,0,1,514.83,774.32Zm-2.67.16a9.53,9.53,0,0,0-.21-2,5,5,0,0,0-.7-1.69,3.45,3.45,0,0,0-1.33-1.14,4.59,4.59,0,0,0-2.08-.42,4.67,4.67,0,0,0-2,.38,3.63,3.63,0,0,0-1.36,1.09,4.65,4.65,0,0,0-.79,1.66,7.74,7.74,0,0,0-.27,2.1,9.64,9.64,0,0,0,.22,2.06,4.71,4.71,0,0,0,.71,1.68,3.53,3.53,0,0,0,1.33,1.14,5.27,5.27,0,0,0,4.05,0,3.48,3.48,0,0,0,1.37-1.08,4.52,4.52,0,0,0,.79-1.65A8.28,8.28,0,0,0,512.16,774.48Z"/><path class="cls-1" d="M530.74,781.12a.32.32,0,0,1-.06.2.48.48,0,0,1-.21.14,1.41,1.41,0,0,1-.39.09,5.22,5.22,0,0,1-.62,0,5.48,5.48,0,0,1-.64,0,1.41,1.41,0,0,1-.39-.09.43.43,0,0,1-.21-.14.32.32,0,0,1-.06-.2v-7.79a7.11,7.11,0,0,0-.19-1.84,3.52,3.52,0,0,0-.54-1.19,2.25,2.25,0,0,0-.93-.77,3.05,3.05,0,0,0-1.32-.27,3.47,3.47,0,0,0-1.94.65,10,10,0,0,0-2,1.91v9.3a.32.32,0,0,1-.06.2.48.48,0,0,1-.21.14,1.41,1.41,0,0,1-.39.09,5.48,5.48,0,0,1-.64,0,5.22,5.22,0,0,1-.62,0,1.59,1.59,0,0,1-.4-.09.36.36,0,0,1-.2-.14.32.32,0,0,1-.06-.2V767.81a.42.42,0,0,1,0-.2.45.45,0,0,1,.19-.15,1.36,1.36,0,0,1,.35-.09l.58,0,.57,0a1.17,1.17,0,0,1,.35.09.47.47,0,0,1,.18.15.34.34,0,0,1,.06.2v1.76a8.47,8.47,0,0,1,2.37-1.84,5.28,5.28,0,0,1,2.38-.58,5.52,5.52,0,0,1,2.36.45,4.29,4.29,0,0,1,1.56,1.2,4.7,4.7,0,0,1,.85,1.77,10.1,10.1,0,0,1,.26,2.43Z"/><path class="cls-1" d="M547.44,773.89a1,1,0,0,1-.31.82,1.09,1.09,0,0,1-.7.25h-9.26a7.64,7.64,0,0,0,.24,2,3.85,3.85,0,0,0,.78,1.52,3.58,3.58,0,0,0,1.43,1,6,6,0,0,0,2.15.34,9.58,9.58,0,0,0,1.79-.15,11.53,11.53,0,0,0,1.36-.35c.38-.13.7-.25.94-.35a1.66,1.66,0,0,1,.56-.15.35.35,0,0,1,.2.05.32.32,0,0,1,.13.15,1,1,0,0,1,.07.29,3,3,0,0,1,0,.45,3.22,3.22,0,0,1,0,.33,1.78,1.78,0,0,1,0,.26.71.71,0,0,1-.22.37,2.66,2.66,0,0,1-.51.26,6,6,0,0,1-1.09.36,15,15,0,0,1-1.55.32,11.34,11.34,0,0,1-1.89.14,9.08,9.08,0,0,1-3-.46A5.53,5.53,0,0,1,536.3,780a5.72,5.72,0,0,1-1.34-2.26,9.79,9.79,0,0,1-.46-3.16,9.55,9.55,0,0,1,.47-3.09,6.42,6.42,0,0,1,1.35-2.32,5.83,5.83,0,0,1,2.14-1.46,7.3,7.3,0,0,1,2.79-.51,7,7,0,0,1,2.82.5A5.2,5.2,0,0,1,546,769a5.42,5.42,0,0,1,1.1,2,8.43,8.43,0,0,1,.35,2.45Zm-2.6-.72a4.21,4.21,0,0,0-.9-3,3.52,3.52,0,0,0-2.82-1.1,4,4,0,0,0-1.68.34,3.58,3.58,0,0,0-1.21.91,4,4,0,0,0-.76,1.3,5.46,5.46,0,0,0-.3,1.57Z"/><path class="cls-1" d="M560.19,777.5a4.09,4.09,0,0,1-.4,1.82,3.74,3.74,0,0,1-1.13,1.34,5.25,5.25,0,0,1-1.75.83,9.2,9.2,0,0,1-3.67.17,8.83,8.83,0,0,1-1.22-.28,7,7,0,0,1-.91-.35,3.19,3.19,0,0,1-.55-.34.92.92,0,0,1-.25-.41,2.85,2.85,0,0,1-.07-.73,3.18,3.18,0,0,1,0-.47,1.61,1.61,0,0,1,.07-.31.4.4,0,0,1,.14-.17.38.38,0,0,1,.19-.05,1.16,1.16,0,0,1,.51.2,8.81,8.81,0,0,0,.83.43,7.25,7.25,0,0,0,1.16.44,5.6,5.6,0,0,0,1.55.2,4.88,4.88,0,0,0,1.19-.13,3.08,3.08,0,0,0,.92-.39,1.89,1.89,0,0,0,.6-.66,2,2,0,0,0,.21-.95,1.52,1.52,0,0,0-.3-1,3.25,3.25,0,0,0-.81-.68,7.27,7.27,0,0,0-1.12-.52l-1.29-.48a13.81,13.81,0,0,1-1.3-.57,4.73,4.73,0,0,1-1.13-.78,3.53,3.53,0,0,1-.81-1.09,3.57,3.57,0,0,1-.3-1.53,3.71,3.71,0,0,1,.32-1.5,3.47,3.47,0,0,1,1-1.25,5,5,0,0,1,1.6-.87,6.92,6.92,0,0,1,2.24-.32,7.16,7.16,0,0,1,1.13.08,8,8,0,0,1,1,.23,5.73,5.73,0,0,1,.78.28,4.13,4.13,0,0,1,.48.28,1.15,1.15,0,0,1,.22.2.7.7,0,0,1,.08.2c0,.08,0,.17.05.28s0,.24,0,.4,0,.31,0,.43a1.53,1.53,0,0,1-.08.31.4.4,0,0,1-.14.17.31.31,0,0,1-.17,0,.83.83,0,0,1-.4-.16,5.46,5.46,0,0,0-.69-.35,8.57,8.57,0,0,0-1-.35,4.75,4.75,0,0,0-1.31-.16,4.36,4.36,0,0,0-1.15.14,2.17,2.17,0,0,0-.82.4,1.68,1.68,0,0,0-.49.61,1.83,1.83,0,0,0-.16.77,1.48,1.48,0,0,0,.31,1,3.08,3.08,0,0,0,.81.69,7.1,7.1,0,0,0,1.14.53l1.31.49c.44.17.88.35,1.31.56a5.1,5.1,0,0,1,1.15.76,3.25,3.25,0,0,1,1.11,2.54Z"/><path class="cls-3" d="M561.6,200.94c-1.81-27.34-8.68-51.63-20.69-72.57l-.6-1a6.45,6.45,0,0,0-.45-.73,177.08,177.08,0,0,0-20.1-26.39.28.28,0,0,0-.15-.13C499.69,78.38,465.9,51.75,417.5,47.43c-45.67-4.07-91.36,12.92-125.11,45.14-.66.6-1.3,1.22-1.93,1.84C246.54,136.76,231,199.92,249.59,266.57c12.8,45.94,39.86,83.71,68.55,120.55,25.73,33,52.49,65.28,71.22,103.1,4.23,8.5,8,17.24,13.17,28.38,17.05-46.08,44.86-82.21,72.87-118.25,12.7-16.31,25.41-32.68,37.37-49.53C544.56,306,565.33,257.07,561.6,200.94Z"/><rect class="cls-1" x="372.92" y="114.99" width="58.06" height="196.75" rx="6.07"/><rect class="cls-1" x="303.58" y="184.34" width="196.75" height="58.06" rx="6.07"/></g></g></svg>