<svg xmlns="http://www.w3.org/2000/svg" viewBox="0 0 325.32 705.04"><defs><style>.cls-1{font-size:86.47px;font-family:Calibri;}.cls-1,.cls-2{fill:#09f;}.cls-3{fill:#fff;}</style></defs><title>Recurso 14</title><g id="Capa_2" data-name="Capa 2"><g id="Capa_1-2" data-name="Capa 1"><text class="cls-1" transform="translate(31.51 593.19) scale(1.06 1)">asignar</text><path class="cls-2" d="M13.54,657.94a5.29,5.29,0,0,1-.52,2.4,5.2,5.2,0,0,1-1.45,1.78,6.45,6.45,0,0,1-2.19,1.1,9.44,9.44,0,0,1-2.71.37,10.06,10.06,0,0,1-1.88-.16,10.54,10.54,0,0,1-1.55-.4,7.93,7.93,0,0,1-1.14-.49,3,3,0,0,1-.64-.43,1,1,0,0,1-.26-.45,2.41,2.41,0,0,1-.09-.73,4,4,0,0,1,0-.54,1.26,1.26,0,0,1,.09-.35.41.41,0,0,1,.16-.18.4.4,0,0,1,.22-.06,1.38,1.38,0,0,1,.62.26,11.12,11.12,0,0,0,1,.54,11.06,11.06,0,0,0,1.51.56,7.38,7.38,0,0,0,2,.26,5.43,5.43,0,0,0,1.6-.23,3.75,3.75,0,0,0,1.25-.62,2.86,2.86,0,0,0,.8-1,3.11,3.11,0,0,0,.28-1.35,2.44,2.44,0,0,0-.39-1.39,3.82,3.82,0,0,0-1-1,9.11,9.11,0,0,0-1.46-.8l-1.68-.74a17.38,17.38,0,0,1-1.67-.84,6.52,6.52,0,0,1-1.45-1.08,4.87,4.87,0,0,1-1-1.45,4.59,4.59,0,0,1-.4-2,4.7,4.7,0,0,1,.46-2.13,4.38,4.38,0,0,1,1.28-1.58,5.94,5.94,0,0,1,1.95-1A8.91,8.91,0,0,1,9.1,644a8.26,8.26,0,0,1,1.28.3,7.26,7.26,0,0,1,1.07.41,3,3,0,0,1,.62.37.74.74,0,0,1,.27.43,1.86,1.86,0,0,1,.05.3c0,.12,0,.27,0,.46a3.32,3.32,0,0,1,0,.47,1.44,1.44,0,0,1-.07.35.4.4,0,0,1-.13.21.34.34,0,0,1-.2.06,1.28,1.28,0,0,1-.54-.2c-.24-.14-.54-.3-.9-.47a8,8,0,0,0-1.25-.47A5.9,5.9,0,0,0,7.66,646a4.55,4.55,0,0,0-1.47.22,2.91,2.91,0,0,0-1,.57,2.16,2.16,0,0,0-.61.84,2.61,2.61,0,0,0-.21,1A2.37,2.37,0,0,0,4.73,650a3.75,3.75,0,0,0,1,1,9.84,9.84,0,0,0,1.48.82l1.69.74c.57.25,1.13.53,1.68.83a6.75,6.75,0,0,1,1.48,1.07A5,5,0,0,1,13.15,656,4.58,4.58,0,0,1,13.54,657.94Z" transform="translate(-1.11)"/><path class="cls-2" d="M20,645.13a1.56,1.56,0,0,1-.35,1.17,1.9,1.9,0,0,1-1.26.31,1.88,1.88,0,0,1-1.24-.3,1.5,1.5,0,0,1-.34-1.15,1.56,1.56,0,0,1,.34-1.17,2,2,0,0,1,1.27-.31,1.9,1.9,0,0,1,1.24.3A1.56,1.56,0,0,1,20,645.13Zm-.3,17.81a.34.34,0,0,1-.06.2.51.51,0,0,1-.21.14,1.41,1.41,0,0,1-.39.09,5.48,5.48,0,0,1-.64,0,5.22,5.22,0,0,1-.62,0,1.59,1.59,0,0,1-.4-.09.41.41,0,0,1-.2-.14.34.34,0,0,1-.06-.2V649.63a.31.31,0,0,1,.06-.19.36.36,0,0,1,.2-.15,1.59,1.59,0,0,1,.4-.09,5.22,5.22,0,0,1,.62,0,5.48,5.48,0,0,1,.64,0,1.41,1.41,0,0,1,.39.09.44.44,0,0,1,.21.15.31.31,0,0,1,.06.19Z" transform="translate(-1.11)"/><path class="cls-2" d="M33.26,659.32a4,4,0,0,1-.4,1.82,3.64,3.64,0,0,1-1.13,1.34,5.16,5.16,0,0,1-1.75.83,8.25,8.25,0,0,1-2.23.28,9.32,9.32,0,0,1-1.43-.11,10.1,10.1,0,0,1-1.22-.28,6.56,6.56,0,0,1-.92-.36,2.34,2.34,0,0,1-.54-.33.82.82,0,0,1-.25-.41,2.41,2.41,0,0,1-.08-.73,3.09,3.09,0,0,1,0-.47,1.53,1.53,0,0,1,.08-.31.29.29,0,0,1,.13-.17.33.33,0,0,1,.2,0,1.05,1.05,0,0,1,.5.2c.23.13.5.27.83.43a7.39,7.39,0,0,0,1.17.44,5.48,5.48,0,0,0,1.54.2A4.8,4.8,0,0,0,29,661.5a2.64,2.64,0,0,0,.92-.39,1.73,1.73,0,0,0,.6-.66,2,2,0,0,0,.21-.94,1.5,1.5,0,0,0-.3-1,3,3,0,0,0-.8-.68,6.55,6.55,0,0,0-1.13-.52l-1.29-.48c-.44-.17-.87-.36-1.3-.57a5.67,5.67,0,0,1-1.13-.78,3.62,3.62,0,0,1-.8-1.09,3.45,3.45,0,0,1-.31-1.53,3.71,3.71,0,0,1,.32-1.5,3.65,3.65,0,0,1,1-1.26,4.74,4.74,0,0,1,1.61-.86,6.86,6.86,0,0,1,2.24-.33,7,7,0,0,1,1.12.09,7.84,7.84,0,0,1,1,.22,5.47,5.47,0,0,1,.77.29,4.66,4.66,0,0,1,.49.27.68.68,0,0,1,.21.21.5.5,0,0,1,.08.2c0,.08,0,.17.05.28a2.24,2.24,0,0,1,0,.39,2.89,2.89,0,0,1,0,.44,1,1,0,0,1-.08.3.4.4,0,0,1-.13.17.27.27,0,0,1-.17.06.9.9,0,0,1-.41-.17,7.45,7.45,0,0,0-.69-.34,7,7,0,0,0-1-.35,4.67,4.67,0,0,0-1.3-.16,4.05,4.05,0,0,0-1.16.14,2.1,2.1,0,0,0-.82.4,1.57,1.57,0,0,0-.48.61,1.81,1.81,0,0,0-.17.77,1.56,1.56,0,0,0,.31,1,3,3,0,0,0,.82.69,7.59,7.59,0,0,0,1.14.53l1.3.49A13.57,13.57,0,0,1,31,656a4.66,4.66,0,0,1,1.15.75,3.44,3.44,0,0,1,.81,1.07A3.34,3.34,0,0,1,33.26,659.32Z" transform="translate(-1.11)"/><path class="cls-2" d="M43.9,662a3,3,0,0,1-.06.68.76.76,0,0,1-.19.37,1.06,1.06,0,0,1-.37.22,2.94,2.94,0,0,1-.57.17c-.22.05-.45.09-.68.12a6.63,6.63,0,0,1-2.6-.23,3,3,0,0,1-1.28-.83,3.5,3.5,0,0,1-.73-1.41,7.84,7.84,0,0,1-.22-2v-7.78h-2a.43.43,0,0,1-.38-.24,1.59,1.59,0,0,1-.14-.77,3.06,3.06,0,0,1,0-.47,1.74,1.74,0,0,1,.1-.32.49.49,0,0,1,.17-.18.56.56,0,0,1,.23,0h2v-3.16a.38.38,0,0,1,0-.19.53.53,0,0,1,.21-.16,1.46,1.46,0,0,1,.39-.1,5.83,5.83,0,0,1,.63,0,5.93,5.93,0,0,1,.64,0,1.36,1.36,0,0,1,.39.1.56.56,0,0,1,.2.16.32.32,0,0,1,.07.19v3.16h3.6a.48.48,0,0,1,.22,0,.49.49,0,0,1,.17.18,1.21,1.21,0,0,1,.1.32,3.18,3.18,0,0,1,0,.47,1.59,1.59,0,0,1-.14.77.42.42,0,0,1-.38.24h-3.6v7.42a4,4,0,0,0,.43,2.08,1.63,1.63,0,0,0,1.53.71,3,3,0,0,0,.64-.07c.19,0,.36-.09.5-.14l.38-.14a.64.64,0,0,1,.28-.07.28.28,0,0,1,.15,0,.23.23,0,0,1,.11.14,2.26,2.26,0,0,1,.07.28A2.76,2.76,0,0,1,43.9,662Z" transform="translate(-1.11)"/><path class="cls-2" d="M59,655.71a1,1,0,0,1-.31.82,1.07,1.07,0,0,1-.69.24H48.7a8.14,8.14,0,0,0,.23,2,3.74,3.74,0,0,0,.79,1.52,3.45,3.45,0,0,0,1.43,1,6.1,6.1,0,0,0,2.15.34,8.82,8.82,0,0,0,1.79-.16,12,12,0,0,0,1.35-.34c.39-.13.7-.25,1-.35a1.48,1.48,0,0,1,.55-.16.42.42,0,0,1,.2,0,.34.34,0,0,1,.13.16,1,1,0,0,1,.07.29,2.81,2.81,0,0,1,0,.45,2.92,2.92,0,0,1,0,.33,1.45,1.45,0,0,1,0,.25.44.44,0,0,1-.08.2.55.55,0,0,1-.14.17,1.74,1.74,0,0,1-.5.27,8.9,8.9,0,0,1-1.1.36,14.43,14.43,0,0,1-1.55.32,12.49,12.49,0,0,1-1.88.14,9,9,0,0,1-3-.46,5.46,5.46,0,0,1-3.54-3.62,10.1,10.1,0,0,1-.45-3.17,9.54,9.54,0,0,1,.46-3.08,6.5,6.5,0,0,1,1.36-2.32A5.73,5.73,0,0,1,50,649.47a7.3,7.3,0,0,1,2.79-.51,7,7,0,0,1,2.82.51,5.2,5.2,0,0,1,1.92,1.35,5.28,5.28,0,0,1,1.1,2,8.42,8.42,0,0,1,.35,2.44ZM56.37,655a4.27,4.27,0,0,0-.91-3,3.52,3.52,0,0,0-2.82-1.09,3.85,3.85,0,0,0-1.68.34,3.68,3.68,0,0,0-1.21.9,3.86,3.86,0,0,0-.75,1.31,5.14,5.14,0,0,0-.3,1.56Z" transform="translate(-1.11)"/><path class="cls-2" d="M83.74,662.94a.34.34,0,0,1-.06.2.59.59,0,0,1-.21.14,1.41,1.41,0,0,1-.39.09,5.22,5.22,0,0,1-.62,0,5.48,5.48,0,0,1-.64,0,1.59,1.59,0,0,1-.4-.09.51.51,0,0,1-.21-.14.35.35,0,0,1-.07-.2v-8.09a7.31,7.31,0,0,0-.15-1.54,3.61,3.61,0,0,0-.5-1.2,2.33,2.33,0,0,0-.88-.77,2.84,2.84,0,0,0-1.25-.26,3,3,0,0,0-1.78.65,11.83,11.83,0,0,0-2,1.91v9.3a.34.34,0,0,1-.06.2.7.7,0,0,1-.21.14,1.7,1.7,0,0,1-.4.09,5.53,5.53,0,0,1-.63,0,5.59,5.59,0,0,1-.62,0,1.59,1.59,0,0,1-.4-.09.41.41,0,0,1-.2-.14.34.34,0,0,1-.06-.2v-8.09a6.66,6.66,0,0,0-.17-1.54,3.86,3.86,0,0,0-.52-1.2,2.35,2.35,0,0,0-.86-.77,2.84,2.84,0,0,0-1.25-.26,3,3,0,0,0-1.79.65,11.1,11.1,0,0,0-2,1.91v9.3a.34.34,0,0,1-.06.2.51.51,0,0,1-.21.14,1.41,1.41,0,0,1-.39.09,5.48,5.48,0,0,1-.64,0,5.22,5.22,0,0,1-.62,0,1.59,1.59,0,0,1-.4-.09.41.41,0,0,1-.2-.14.34.34,0,0,1-.06-.2V649.63a.39.39,0,0,1,0-.2.34.34,0,0,1,.19-.15,1.34,1.34,0,0,1,.36-.09l.57,0,.57,0a1.17,1.17,0,0,1,.35.09.35.35,0,0,1,.18.15.32.32,0,0,1,.06.2v1.76a9,9,0,0,1,2.3-1.84,4.85,4.85,0,0,1,2.26-.59,6.25,6.25,0,0,1,1.57.19,4.59,4.59,0,0,1,1.23.54,4,4,0,0,1,.9.83,4.78,4.78,0,0,1,.63,1.08,13.07,13.07,0,0,1,1.33-1.23,8.41,8.41,0,0,1,1.22-.82,5.85,5.85,0,0,1,1.14-.45,4.77,4.77,0,0,1,1.12-.14,5.15,5.15,0,0,1,2.28.45,4.06,4.06,0,0,1,1.49,1.21,4.81,4.81,0,0,1,.82,1.77,9.15,9.15,0,0,1,.24,2.13Z" transform="translate(-1.11)"/><path class="cls-2" d="M99,663a.32.32,0,0,1-.12.27.88.88,0,0,1-.35.13,3.21,3.21,0,0,1-.64,0,3.52,3.52,0,0,1-.64,0,.82.82,0,0,1-.36-.13.34.34,0,0,1-.11-.27v-1.33a6.73,6.73,0,0,1-2,1.45,5.63,5.63,0,0,1-2.4.52,7,7,0,0,1-2-.27,4.82,4.82,0,0,1-1.53-.79,3.54,3.54,0,0,1-1-1.28,4,4,0,0,1-.35-1.71,3.67,3.67,0,0,1,1.87-3.33,7.24,7.24,0,0,1,2.22-.82,14.71,14.71,0,0,1,3-.28h1.94v-1a5.05,5.05,0,0,0-.17-1.36,2.35,2.35,0,0,0-.55-1,2.43,2.43,0,0,0-1-.6,4.91,4.91,0,0,0-1.5-.2,6.44,6.44,0,0,0-1.71.22,9.7,9.7,0,0,0-1.33.47,10.35,10.35,0,0,0-.95.48,1.33,1.33,0,0,1-.57.21.43.43,0,0,1-.22-.06.57.57,0,0,1-.16-.18.81.81,0,0,1-.1-.3,2.54,2.54,0,0,1,0-.41,2.31,2.31,0,0,1,0-.58.91.91,0,0,1,.27-.41,3.25,3.25,0,0,1,.72-.45,8.43,8.43,0,0,1,1.19-.47,13.19,13.19,0,0,1,1.47-.36,9.63,9.63,0,0,1,1.61-.14,8.79,8.79,0,0,1,2.58.33,4.1,4.1,0,0,1,1.71,1,3.67,3.67,0,0,1,1,1.56A7.47,7.47,0,0,1,99,654Zm-2.56-6.07h-2.2a8.45,8.45,0,0,0-1.85.17,3.82,3.82,0,0,0-1.29.5,2.07,2.07,0,0,0-.76.8,2.31,2.31,0,0,0-.24,1.07,2.1,2.1,0,0,0,.69,1.65,2.87,2.87,0,0,0,2,.61,3.72,3.72,0,0,0,1.88-.49,7.7,7.7,0,0,0,1.82-1.49Z" transform="translate(-1.11)"/><path class="cls-2" d="M123,662.94a.36.36,0,0,1-.05.21.41.41,0,0,1-.19.14,1.84,1.84,0,0,1-.35.08,3.89,3.89,0,0,1-.53,0,4.22,4.22,0,0,1-.55,0,2.45,2.45,0,0,1-.36-.08.45.45,0,0,1-.2-.14.37.37,0,0,1-.06-.21v-1.76a9.26,9.26,0,0,1-2.31,1.77,5.39,5.39,0,0,1-2.61.64,5.66,5.66,0,0,1-2.64-.57,4.92,4.92,0,0,1-1.78-1.54,6.57,6.57,0,0,1-1-2.28,11.71,11.71,0,0,1-.31-2.75,11.38,11.38,0,0,1,.39-3.1,6.77,6.77,0,0,1,1.16-2.36,5.12,5.12,0,0,1,1.89-1.5,6.19,6.19,0,0,1,2.62-.53,5,5,0,0,1,2.26.51,7.88,7.88,0,0,1,2,1.5v-7.73a.36.36,0,0,1,.06-.2c0-.07.1-.11.21-.15l.4-.09a5,5,0,0,1,.61,0,5.48,5.48,0,0,1,.64,0l.39.09a.38.38,0,0,1,.21.15.31.31,0,0,1,.07.2Zm-2.59-9.36a9.71,9.71,0,0,0-2-1.87,3.65,3.65,0,0,0-2-.65,3,3,0,0,0-1.67.45,3.46,3.46,0,0,0-1.12,1.16,5.33,5.33,0,0,0-.62,1.65,8.9,8.9,0,0,0-.2,1.86,11.64,11.64,0,0,0,.16,2,5.55,5.55,0,0,0,.57,1.71,3.44,3.44,0,0,0,1.08,1.19,3,3,0,0,0,1.69.45,3.57,3.57,0,0,0,2-.57,7.59,7.59,0,0,0,1-.81,12.67,12.67,0,0,0,1.16-1.22Z" transform="translate(-1.11)"/><path class="cls-2" d="M139.81,655.71a1,1,0,0,1-.31.82,1.08,1.08,0,0,1-.7.24h-9.26a7.67,7.67,0,0,0,.24,2,3.85,3.85,0,0,0,.78,1.52,3.58,3.58,0,0,0,1.43,1,6.18,6.18,0,0,0,2.15.34,8.75,8.75,0,0,0,1.79-.16,11.69,11.69,0,0,0,1.36-.34c.38-.13.7-.25.94-.35a1.56,1.56,0,0,1,.56-.16.46.46,0,0,1,.2,0,.42.42,0,0,1,.13.16,1,1,0,0,1,.07.29,3,3,0,0,1,0,.45,3.22,3.22,0,0,1,0,.33,1.45,1.45,0,0,1,0,.25.6.6,0,0,1-.08.2.55.55,0,0,1-.14.17,2,2,0,0,1-.51.27,8.16,8.16,0,0,1-1.09.36,15,15,0,0,1-1.55.32,12.52,12.52,0,0,1-1.89.14,9.08,9.08,0,0,1-3-.46,5.65,5.65,0,0,1-2.19-1.36,5.72,5.72,0,0,1-1.34-2.26,9.81,9.81,0,0,1-.46-3.17,9.53,9.53,0,0,1,.47-3.08,6.34,6.34,0,0,1,1.35-2.32,5.85,5.85,0,0,1,2.14-1.47,7.3,7.3,0,0,1,2.79-.51,7,7,0,0,1,2.82.51,5.2,5.2,0,0,1,1.92,1.35,5.42,5.42,0,0,1,1.1,2,8.42,8.42,0,0,1,.35,2.44Zm-2.6-.73a4.22,4.22,0,0,0-.9-3,3.52,3.52,0,0,0-2.82-1.09,3.85,3.85,0,0,0-1.68.34,3.68,3.68,0,0,0-1.21.9,4.06,4.06,0,0,0-.76,1.31,5.83,5.83,0,0,0-.3,1.56Z" transform="translate(-1.11)"/><path class="cls-2" d="M161.56,663a.32.32,0,0,1-.13.27.89.89,0,0,1-.34.13,3.36,3.36,0,0,1-.64,0,3.65,3.65,0,0,1-.65,0,.78.78,0,0,1-.35-.13.31.31,0,0,1-.11-.27v-1.33a6.89,6.89,0,0,1-2.06,1.45,5.6,5.6,0,0,1-2.4.52,7,7,0,0,1-2-.27,4.61,4.61,0,0,1-1.53-.79,3.56,3.56,0,0,1-1-1.28,4,4,0,0,1-.35-1.71,3.72,3.72,0,0,1,.49-1.95,3.76,3.76,0,0,1,1.39-1.38,7.07,7.07,0,0,1,2.21-.82,14.74,14.74,0,0,1,3-.28H159v-1a4.68,4.68,0,0,0-.17-1.36,2.24,2.24,0,0,0-.55-1,2.46,2.46,0,0,0-1-.6,5,5,0,0,0-1.5-.2,6.47,6.47,0,0,0-1.72.22,9.54,9.54,0,0,0-1.32.47,10.67,10.67,0,0,0-1,.48,1.33,1.33,0,0,1-.57.21.37.37,0,0,1-.21-.06.49.49,0,0,1-.17-.18.81.81,0,0,1-.1-.3,2.54,2.54,0,0,1,0-.41,2.9,2.9,0,0,1,.05-.58.91.91,0,0,1,.27-.41,3.14,3.14,0,0,1,.73-.45,7.83,7.83,0,0,1,1.18-.47,13.19,13.19,0,0,1,1.47-.36A9.63,9.63,0,0,1,156,649a8.79,8.79,0,0,1,2.58.33,4.14,4.14,0,0,1,1.72,1,3.76,3.76,0,0,1,.95,1.56,7.13,7.13,0,0,1,.3,2.18ZM159,656.88h-2.2a8.29,8.29,0,0,0-1.84.17,3.88,3.88,0,0,0-1.3.5,2.14,2.14,0,0,0-.76.8,2.31,2.31,0,0,0-.24,1.07,2.08,2.08,0,0,0,.7,1.65,2.82,2.82,0,0,0,1.94.61,3.69,3.69,0,0,0,1.88-.49A7.7,7.7,0,0,0,159,659.7Z" transform="translate(-1.11)"/><path class="cls-2" d="M175.12,659.32a4.12,4.12,0,0,1-.4,1.82,3.74,3.74,0,0,1-1.13,1.34,5.25,5.25,0,0,1-1.75.83,8.33,8.33,0,0,1-2.24.28,9.42,9.42,0,0,1-1.43-.11,10.56,10.56,0,0,1-1.22-.28,6.39,6.39,0,0,1-.91-.36,2.71,2.71,0,0,1-.55-.33.89.89,0,0,1-.25-.41,2.85,2.85,0,0,1-.07-.73,2.18,2.18,0,0,1,0-.47,1.61,1.61,0,0,1,.07-.31.35.35,0,0,1,.14-.17.3.3,0,0,1,.19,0,1,1,0,0,1,.51.2c.22.13.5.27.83.43a7.25,7.25,0,0,0,1.16.44,5.6,5.6,0,0,0,1.55.2,4.86,4.86,0,0,0,1.19-.14,2.64,2.64,0,0,0,.92-.39,1.73,1.73,0,0,0,.6-.66,2,2,0,0,0,.21-.94,1.5,1.5,0,0,0-.3-1,3.25,3.25,0,0,0-.81-.68,6.44,6.44,0,0,0-1.12-.52l-1.29-.48a13.81,13.81,0,0,1-1.3-.57,5.39,5.39,0,0,1-1.13-.78,3.65,3.65,0,0,1-.81-1.09,3.6,3.6,0,0,1-.3-1.53,3.71,3.71,0,0,1,.32-1.5,3.42,3.42,0,0,1,1-1.26,4.78,4.78,0,0,1,1.6-.86,6.91,6.91,0,0,1,2.24-.33,7.17,7.17,0,0,1,1.13.09,8,8,0,0,1,1,.22,5.64,5.64,0,0,1,.78.29,4.34,4.34,0,0,1,.48.27.89.89,0,0,1,.22.21.7.7,0,0,1,.08.2c0,.08,0,.17,0,.28s0,.24,0,.39,0,.32,0,.44a1.41,1.41,0,0,1-.08.3.35.35,0,0,1-.14.17.27.27,0,0,1-.17.06.88.88,0,0,1-.4-.17,7.45,7.45,0,0,0-.69-.34,7,7,0,0,0-1-.35,4.75,4.75,0,0,0-1.31-.16,4,4,0,0,0-1.15.14,2,2,0,0,0-.82.4,1.6,1.6,0,0,0-.49.61,1.8,1.8,0,0,0-.16.77,1.5,1.5,0,0,0,.31,1,3.08,3.08,0,0,0,.81.69,8.09,8.09,0,0,0,1.14.53c.43.15.86.32,1.31.49a13.57,13.57,0,0,1,1.31.56,5.07,5.07,0,0,1,1.15.75,3.41,3.41,0,0,1,.8,1.07A3.34,3.34,0,0,1,175.12,659.32Z" transform="translate(-1.11)"/><path class="cls-2" d="M181.68,645.13a1.56,1.56,0,0,1-.35,1.17,2.71,2.71,0,0,1-2.5,0,1.5,1.5,0,0,1-.34-1.15,1.6,1.6,0,0,1,.34-1.17,2,2,0,0,1,1.27-.31,1.9,1.9,0,0,1,1.24.3A1.52,1.52,0,0,1,181.68,645.13Zm-.3,17.81a.34.34,0,0,1-.06.2.54.54,0,0,1-.2.14,1.59,1.59,0,0,1-.4.09,5.48,5.48,0,0,1-.64,0,5.34,5.34,0,0,1-.62,0,1.59,1.59,0,0,1-.4-.09.41.41,0,0,1-.2-.14.34.34,0,0,1-.06-.2V649.63a.31.31,0,0,1,.06-.19.36.36,0,0,1,.2-.15,1.59,1.59,0,0,1,.4-.09,5.34,5.34,0,0,1,.62,0,5.48,5.48,0,0,1,.64,0,1.59,1.59,0,0,1,.4.09.46.46,0,0,1,.2.15.31.31,0,0,1,.06.19Z" transform="translate(-1.11)"/><path class="cls-2" d="M197.89,650.23a1.53,1.53,0,0,1-.14.75.46.46,0,0,1-.39.23h-2a3,3,0,0,1,.76,1.18,4,4,0,0,1,.22,1.34,5.08,5.08,0,0,1-.39,2,4.06,4.06,0,0,1-1.12,1.5,5.11,5.11,0,0,1-1.72.94,7.39,7.39,0,0,1-2.22.32,6.17,6.17,0,0,1-1.63-.21,3.75,3.75,0,0,1-1.2-.54,2.23,2.23,0,0,0-.46.6,1.67,1.67,0,0,0-.18.79,1,1,0,0,0,.51.86,2.63,2.63,0,0,0,1.35.37l3.67.14a7.59,7.59,0,0,1,1.92.28,4.83,4.83,0,0,1,1.52.69,3.21,3.21,0,0,1,1,1.11,3.14,3.14,0,0,1,.36,1.53,3.92,3.92,0,0,1-1.65,3.2,6.59,6.59,0,0,1-2.13,1,11.58,11.58,0,0,1-3.06.36,12.65,12.65,0,0,1-2.9-.28,6.53,6.53,0,0,1-2-.74,2.88,2.88,0,0,1-1.46-2.56,3.75,3.75,0,0,1,.13-1,3.34,3.34,0,0,1,.38-.87,4.27,4.27,0,0,1,.64-.79,8.75,8.75,0,0,1,.89-.75,2.7,2.7,0,0,1-1.14-.93,2.22,2.22,0,0,1-.36-1.21,3.35,3.35,0,0,1,.39-1.62,5.66,5.66,0,0,1,1-1.27,4.3,4.3,0,0,1-.76-1.23,4.39,4.39,0,0,1-.28-1.67,4.92,4.92,0,0,1,.4-2,4.29,4.29,0,0,1,1.13-1.52,5,5,0,0,1,1.72-1,7.09,7.09,0,0,1,2.2-.33,9,9,0,0,1,1.2.07,7.88,7.88,0,0,1,1,.18h4.25a.42.42,0,0,1,.4.25A1.58,1.58,0,0,1,197.89,650.23Zm-2.73,14.06a1.49,1.49,0,0,0-.74-1.33,4,4,0,0,0-2-.49l-3.64-.12a6.16,6.16,0,0,0-.82.7,4,4,0,0,0-.51.64,1.92,1.92,0,0,0-.25.6,2.4,2.4,0,0,0-.07.6,1.57,1.57,0,0,0,1,1.46,6.74,6.74,0,0,0,2.87.49,7.73,7.73,0,0,0,2-.21,3.65,3.65,0,0,0,1.27-.57,2.12,2.12,0,0,0,.7-.81A2.31,2.31,0,0,0,195.16,664.29Zm-1.3-10.55a2.82,2.82,0,0,0-.78-2.12,3.11,3.11,0,0,0-2.25-.76,3.25,3.25,0,0,0-1.3.23,2.59,2.59,0,0,0-.92.65,2.7,2.7,0,0,0-.55,1,3.52,3.52,0,0,0-.18,1.13,2.71,2.71,0,0,0,.79,2.07,3.08,3.08,0,0,0,2.21.75,3.4,3.4,0,0,0,1.33-.23,2.55,2.55,0,0,0,.93-.63,2.75,2.75,0,0,0,.54-.94A3.49,3.49,0,0,0,193.86,653.74Z" transform="translate(-1.11)"/><path class="cls-2" d="M213.31,662.94a.34.34,0,0,1-.06.2.54.54,0,0,1-.2.14,1.61,1.61,0,0,1-.39.09,5.53,5.53,0,0,1-.63,0,5.6,5.6,0,0,1-.64,0,1.41,1.41,0,0,1-.39-.09.54.54,0,0,1-.2-.14.34.34,0,0,1-.06-.2v-7.79a7.52,7.52,0,0,0-.19-1.84,3.9,3.9,0,0,0-.55-1.2,2.41,2.41,0,0,0-.93-.77,3.2,3.2,0,0,0-1.32-.26,3.44,3.44,0,0,0-1.94.65,10.3,10.3,0,0,0-2,1.91v9.3a.34.34,0,0,1-.06.2.54.54,0,0,1-.2.14,1.61,1.61,0,0,1-.39.09,5.6,5.6,0,0,1-.64,0,5.53,5.53,0,0,1-.63,0,1.7,1.7,0,0,1-.4-.09.47.47,0,0,1-.2-.14.33.33,0,0,1,0-.2V649.63a.4.4,0,0,1,0-.2.38.38,0,0,1,.19-.15,1.34,1.34,0,0,1,.36-.09l.58,0,.57,0a1.17,1.17,0,0,1,.35.09.45.45,0,0,1,.18.15.31.31,0,0,1,.05.2v1.76a8.61,8.61,0,0,1,2.37-1.84,5.33,5.33,0,0,1,2.38-.59,5.57,5.57,0,0,1,2.37.45,4.19,4.19,0,0,1,1.55,1.21,4.72,4.72,0,0,1,.86,1.77,10,10,0,0,1,.25,2.43Z" transform="translate(-1.11)"/><path class="cls-2" d="M228.61,663a.3.3,0,0,1-.13.27.83.83,0,0,1-.34.13,3.36,3.36,0,0,1-.64,0,3.65,3.65,0,0,1-.65,0,.78.78,0,0,1-.35-.13.34.34,0,0,1-.11-.27v-1.33a6.85,6.85,0,0,1-2,1.45,5.67,5.67,0,0,1-2.4.52,7,7,0,0,1-2-.27,4.61,4.61,0,0,1-1.53-.79,3.54,3.54,0,0,1-1-1.28,3.9,3.9,0,0,1-.36-1.71,3.72,3.72,0,0,1,.49-1.95,3.76,3.76,0,0,1,1.39-1.38,7,7,0,0,1,2.22-.82,14.64,14.64,0,0,1,3-.28h1.94v-1a5.05,5.05,0,0,0-.17-1.36,2.26,2.26,0,0,0-.56-1,2.46,2.46,0,0,0-1-.6,5,5,0,0,0-1.5-.2,6.33,6.33,0,0,0-1.71.22,9.66,9.66,0,0,0-2.28,1,1.43,1.43,0,0,1-.57.21.38.38,0,0,1-.22-.06.59.59,0,0,1-.17-.18,1.05,1.05,0,0,1-.1-.3,2.54,2.54,0,0,1,0-.41,2.24,2.24,0,0,1,.06-.58.81.81,0,0,1,.26-.41,3.14,3.14,0,0,1,.73-.45,8.28,8.28,0,0,1,1.18-.47,13.19,13.19,0,0,1,1.47-.36,9.63,9.63,0,0,1,1.61-.14,8.79,8.79,0,0,1,2.58.33,4.14,4.14,0,0,1,1.72,1,3.66,3.66,0,0,1,.95,1.56,7.13,7.13,0,0,1,.3,2.18Zm-2.56-6.07h-2.21a8.29,8.29,0,0,0-1.84.17,4,4,0,0,0-1.3.5,2.11,2.11,0,0,0-.75.8,2.2,2.2,0,0,0-.25,1.07,2.11,2.11,0,0,0,.7,1.65,2.82,2.82,0,0,0,1.94.61,3.75,3.75,0,0,0,1.89-.49,8.12,8.12,0,0,0,1.82-1.49Z" transform="translate(-1.11)"/><path class="cls-2" d="M243.45,660.91a2.89,2.89,0,0,1,0,.44,1.25,1.25,0,0,1-.05.31c0,.08-.06.16-.09.22a1.34,1.34,0,0,1-.25.28,3.54,3.54,0,0,1-.67.46,6.39,6.39,0,0,1-1.05.49,8.81,8.81,0,0,1-1.28.35,7.28,7.28,0,0,1-1.42.13,7.2,7.2,0,0,1-2.68-.47,5,5,0,0,1-2-1.39,6.13,6.13,0,0,1-1.21-2.23,10.42,10.42,0,0,1-.41-3,10,10,0,0,1,.51-3.38,6.19,6.19,0,0,1,1.39-2.32,5.48,5.48,0,0,1,2.07-1.34,7.53,7.53,0,0,1,2.59-.43,6.91,6.91,0,0,1,1.3.12,6.44,6.44,0,0,1,1.17.31,4.54,4.54,0,0,1,.94.44,3.38,3.38,0,0,1,.6.43,1.47,1.47,0,0,1,.26.28.9.9,0,0,1,.12.24,1.52,1.52,0,0,1,.06.32c0,.12,0,.27,0,.45a1.67,1.67,0,0,1-.14.8.42.42,0,0,1-.35.23,1,1,0,0,1-.54-.24,6.27,6.27,0,0,0-.77-.54,5.67,5.67,0,0,0-1.13-.54,4.38,4.38,0,0,0-1.57-.25,3.3,3.3,0,0,0-2.85,1.36,6.57,6.57,0,0,0-1,3.92,9,9,0,0,0,.26,2.26,4.68,4.68,0,0,0,.76,1.62,3.15,3.15,0,0,0,1.23,1,4.55,4.55,0,0,0,3.22.05,6.38,6.38,0,0,0,1.17-.59c.32-.21.6-.4.82-.57a1,1,0,0,1,.53-.26.33.33,0,0,1,.19.06.46.46,0,0,1,.13.2,2,2,0,0,1,.08.35C243.44,660.55,243.45,660.72,243.45,660.91Z" transform="translate(-1.11)"/><path class="cls-2" d="M249.75,645.13a1.56,1.56,0,0,1-.35,1.17,2.71,2.71,0,0,1-2.5,0,1.5,1.5,0,0,1-.34-1.15,1.56,1.56,0,0,1,.34-1.17,2,2,0,0,1,1.27-.31,1.9,1.9,0,0,1,1.24.3A1.56,1.56,0,0,1,249.75,645.13Zm-.3,17.81a.34.34,0,0,1-.06.2.51.51,0,0,1-.21.14,1.41,1.41,0,0,1-.39.09,5.48,5.48,0,0,1-.64,0,5.22,5.22,0,0,1-.62,0,1.59,1.59,0,0,1-.4-.09.41.41,0,0,1-.2-.14.34.34,0,0,1-.06-.2V649.63a.31.31,0,0,1,.06-.19.36.36,0,0,1,.2-.15,1.59,1.59,0,0,1,.4-.09,5.22,5.22,0,0,1,.62,0,5.48,5.48,0,0,1,.64,0,1.41,1.41,0,0,1,.39.09.44.44,0,0,1,.21.15.31.31,0,0,1,.06.19Z" transform="translate(-1.11)"/><path class="cls-2" d="M267.29,656.14a9.52,9.52,0,0,1-.45,3,6.62,6.62,0,0,1-1.35,2.36,6.16,6.16,0,0,1-2.25,1.55,9.39,9.39,0,0,1-6.16.06,5.54,5.54,0,0,1-2.15-1.42,5.9,5.9,0,0,1-1.28-2.26,10,10,0,0,1-.42-3,9.52,9.52,0,0,1,.45-3,6.24,6.24,0,0,1,1.34-2.36,6.06,6.06,0,0,1,2.24-1.54,9.39,9.39,0,0,1,6.16-.06,5.58,5.58,0,0,1,2.15,1.42,6.13,6.13,0,0,1,1.29,2.26A9.68,9.68,0,0,1,267.29,656.14Zm-2.67.16a9.53,9.53,0,0,0-.21-2,5.14,5.14,0,0,0-.7-1.69,3.56,3.56,0,0,0-1.33-1.15,5.29,5.29,0,0,0-4.06,0,3.54,3.54,0,0,0-1.36,1.09,4.58,4.58,0,0,0-.8,1.66,8.16,8.16,0,0,0-.26,2.1,9.72,9.72,0,0,0,.21,2.06,4.77,4.77,0,0,0,.71,1.67,3.55,3.55,0,0,0,1.34,1.14,4.59,4.59,0,0,0,2.08.42,4.65,4.65,0,0,0,2-.38,3.74,3.74,0,0,0,1.37-1.08,4.57,4.57,0,0,0,.79-1.66A8.2,8.2,0,0,0,264.62,656.3Zm-3.08-13.18a1,1,0,0,1,.22-.27.91.91,0,0,1,.31-.16,2,2,0,0,1,.44-.09,5.85,5.85,0,0,1,.64,0,4.43,4.43,0,0,1,.71,0,.93.93,0,0,1,.38.15.24.24,0,0,1,.1.22.48.48,0,0,1-.14.26l-2.83,3.45a1.79,1.79,0,0,1-.23.24,1,1,0,0,1-.23.14,1.35,1.35,0,0,1-.34.07l-.53,0a2.58,2.58,0,0,1-.54,0,.61.61,0,0,1-.29-.12.19.19,0,0,1-.07-.19.81.81,0,0,1,.14-.28Z" transform="translate(-1.11)"/><path class="cls-2" d="M283.19,662.94a.34.34,0,0,1-.06.2.54.54,0,0,1-.2.14,1.61,1.61,0,0,1-.39.09,5.53,5.53,0,0,1-.63,0,5.6,5.6,0,0,1-.64,0,1.61,1.61,0,0,1-.39-.09.54.54,0,0,1-.2-.14.34.34,0,0,1-.06-.2v-7.79a7.52,7.52,0,0,0-.19-1.84,3.9,3.9,0,0,0-.55-1.2,2.41,2.41,0,0,0-.93-.77,3.2,3.2,0,0,0-1.32-.26,3.39,3.39,0,0,0-1.93.65,10.05,10.05,0,0,0-2,1.91v9.3a.34.34,0,0,1-.06.2.54.54,0,0,1-.2.14,1.61,1.61,0,0,1-.39.09,5.6,5.6,0,0,1-.64,0,5.53,5.53,0,0,1-.63,0,1.7,1.7,0,0,1-.4-.09.54.54,0,0,1-.2-.14.33.33,0,0,1-.05-.2V649.63a.4.4,0,0,1,0-.2.42.42,0,0,1,.19-.15,1.45,1.45,0,0,1,.36-.09l.58,0,.57,0a1.17,1.17,0,0,1,.35.09.45.45,0,0,1,.18.15.31.31,0,0,1,.05.2v1.76a8.76,8.76,0,0,1,2.37-1.84,5.33,5.33,0,0,1,2.38-.59,5.57,5.57,0,0,1,2.37.45,4.19,4.19,0,0,1,1.55,1.21,4.72,4.72,0,0,1,.86,1.77,10,10,0,0,1,.25,2.43Z" transform="translate(-1.11)"/><path class="cls-2" d="M307.18,662.94a.37.37,0,0,1-.06.21.41.41,0,0,1-.19.14,1.84,1.84,0,0,1-.35.08,3.89,3.89,0,0,1-.53,0,4.22,4.22,0,0,1-.55,0,2.45,2.45,0,0,1-.36-.08.45.45,0,0,1-.2-.14.37.37,0,0,1-.06-.21v-1.76a9.4,9.4,0,0,1-2.3,1.77,5.43,5.43,0,0,1-2.62.64,5.66,5.66,0,0,1-2.64-.57,4.92,4.92,0,0,1-1.78-1.54,6.57,6.57,0,0,1-1-2.28,11.71,11.71,0,0,1-.31-2.75,11.38,11.38,0,0,1,.39-3.1,6.77,6.77,0,0,1,1.16-2.36,5.12,5.12,0,0,1,1.89-1.5,6.19,6.19,0,0,1,2.62-.53,5,5,0,0,1,2.26.51,7.88,7.88,0,0,1,2,1.5v-7.73a.36.36,0,0,1,.06-.2c0-.07.1-.11.21-.15l.4-.09a5,5,0,0,1,.61,0,5.48,5.48,0,0,1,.64,0l.39.09a.45.45,0,0,1,.22.15.37.37,0,0,1,.07.2Zm-2.6-9.36a9.71,9.71,0,0,0-2-1.87,3.65,3.65,0,0,0-2-.65,3,3,0,0,0-1.67.45,3.46,3.46,0,0,0-1.12,1.16,5.59,5.59,0,0,0-.62,1.65,8.9,8.9,0,0,0-.2,1.86,11.64,11.64,0,0,0,.17,2,5.3,5.3,0,0,0,.57,1.71,3.42,3.42,0,0,0,1.07,1.19,3,3,0,0,0,1.69.45,3.57,3.57,0,0,0,2-.57,8.29,8.29,0,0,0,1.05-.81,12.67,12.67,0,0,0,1.15-1.22Z" transform="translate(-1.11)"/><path class="cls-2" d="M323.94,655.71a1,1,0,0,1-.31.82,1.08,1.08,0,0,1-.7.24h-9.26a7.67,7.67,0,0,0,.24,2,3.74,3.74,0,0,0,.79,1.52,3.48,3.48,0,0,0,1.42,1,6.2,6.2,0,0,0,2.16.34,8.72,8.72,0,0,0,1.78-.16,11.69,11.69,0,0,0,1.36-.34c.38-.13.7-.25.94-.35a1.56,1.56,0,0,1,.56-.16.42.42,0,0,1,.2,0,.34.34,0,0,1,.13.16,1,1,0,0,1,.07.29,2.81,2.81,0,0,1,0,.45,2.92,2.92,0,0,1,0,.33,1.45,1.45,0,0,1,0,.25.44.44,0,0,1-.08.2.55.55,0,0,1-.14.17,1.86,1.86,0,0,1-.51.27,8.16,8.16,0,0,1-1.09.36,15,15,0,0,1-1.55.32,12.52,12.52,0,0,1-1.89.14,9,9,0,0,1-3-.46,5.61,5.61,0,0,1-2.2-1.36,5.72,5.72,0,0,1-1.34-2.26,9.81,9.81,0,0,1-.46-3.17,9.53,9.53,0,0,1,.47-3.08,6.63,6.63,0,0,1,1.35-2.32,5.85,5.85,0,0,1,2.14-1.47,7.3,7.3,0,0,1,2.79-.51,7,7,0,0,1,2.82.51,5.2,5.2,0,0,1,1.92,1.35,5.42,5.42,0,0,1,1.1,2,8.42,8.42,0,0,1,.35,2.44Zm-2.59-.73a4.27,4.27,0,0,0-.91-3,3.52,3.52,0,0,0-2.82-1.09,3.85,3.85,0,0,0-1.68.34,3.68,3.68,0,0,0-1.21.9,4.06,4.06,0,0,0-.76,1.31,5.83,5.83,0,0,0-.3,1.56Z" transform="translate(-1.11)"/><path class="cls-2" d="M19.32,697.26c0,.17,0,.32,0,.44a2,2,0,0,1-.05.31,1.12,1.12,0,0,1-.1.22,1.1,1.1,0,0,1-.25.28,3.4,3.4,0,0,1-.66.46,6.39,6.39,0,0,1-1,.49,9.17,9.17,0,0,1-1.28.35,7.35,7.35,0,0,1-1.42.13,7.25,7.25,0,0,1-2.69-.47,5.12,5.12,0,0,1-2-1.39,6.27,6.27,0,0,1-1.2-2.23,10.1,10.1,0,0,1-.41-3.05,10,10,0,0,1,.5-3.38,6.46,6.46,0,0,1,1.39-2.32,5.52,5.52,0,0,1,2.08-1.34,7.53,7.53,0,0,1,2.59-.43,8,8,0,0,1,1.3.11,7.66,7.66,0,0,1,1.17.32,4.8,4.8,0,0,1,.94.44,3.38,3.38,0,0,1,.6.43,1.92,1.92,0,0,1,.26.28.9.9,0,0,1,.12.24,1.52,1.52,0,0,1,.06.32c0,.12,0,.27,0,.44a1.58,1.58,0,0,1-.14.81.4.4,0,0,1-.34.23.91.91,0,0,1-.54-.24,6.27,6.27,0,0,0-.77-.54,5.67,5.67,0,0,0-1.13-.54,4.42,4.42,0,0,0-1.57-.25,3.33,3.33,0,0,0-2.86,1.36,6.57,6.57,0,0,0-1,3.92,9,9,0,0,0,.26,2.26,4.5,4.5,0,0,0,.76,1.62,3.19,3.19,0,0,0,1.22,1,4.18,4.18,0,0,0,1.67.31,4.18,4.18,0,0,0,1.56-.26,6,6,0,0,0,1.16-.59c.33-.21.61-.4.83-.57a1,1,0,0,1,.53-.26.28.28,0,0,1,.18.06.47.47,0,0,1,.14.2,1.44,1.44,0,0,1,.07.35A3.89,3.89,0,0,1,19.32,697.26Z" transform="translate(-1.11)"/><path class="cls-2" d="M33.07,699.3a.32.32,0,0,1-.13.27.89.89,0,0,1-.34.13,3.36,3.36,0,0,1-.64,0,3.65,3.65,0,0,1-.65,0,.78.78,0,0,1-.35-.13.31.31,0,0,1-.11-.27V698a6.89,6.89,0,0,1-2.06,1.45,5.6,5.6,0,0,1-2.4.52,7,7,0,0,1-2-.27,4.45,4.45,0,0,1-1.53-.8,3.45,3.45,0,0,1-1-1.27,4,4,0,0,1-.35-1.71,3.81,3.81,0,0,1,.48-1.95,3.86,3.86,0,0,1,1.4-1.38,6.84,6.84,0,0,1,2.21-.82,14.74,14.74,0,0,1,3-.28H30.5v-1a4.68,4.68,0,0,0-.17-1.36,2.24,2.24,0,0,0-.55-1,2.46,2.46,0,0,0-1-.6,5,5,0,0,0-1.5-.2,6.47,6.47,0,0,0-1.72.22,9.54,9.54,0,0,0-1.32.47c-.38.17-.7.33-1,.47a1.25,1.25,0,0,1-.57.22.43.43,0,0,1-.22-.06.57.57,0,0,1-.16-.18.81.81,0,0,1-.1-.3,2.54,2.54,0,0,1,0-.41,2.9,2.9,0,0,1,.05-.58.91.91,0,0,1,.27-.41,3.25,3.25,0,0,1,.72-.45,8.43,8.43,0,0,1,1.19-.47,11.3,11.3,0,0,1,1.47-.36,9.63,9.63,0,0,1,1.61-.14,8.79,8.79,0,0,1,2.58.33,4.14,4.14,0,0,1,1.72,1,3.76,3.76,0,0,1,1,1.56,7.13,7.13,0,0,1,.3,2.18Zm-2.57-6.07H28.3a8.29,8.29,0,0,0-1.84.17,3.88,3.88,0,0,0-1.3.5,2.14,2.14,0,0,0-.76.8,2.28,2.28,0,0,0-.24,1.07,2.08,2.08,0,0,0,.7,1.65,2.82,2.82,0,0,0,1.94.61,3.69,3.69,0,0,0,1.88-.49,7.7,7.7,0,0,0,1.82-1.49Z" transform="translate(-1.11)"/><path class="cls-2" d="M58.66,699.29a.35.35,0,0,1-.07.2.54.54,0,0,1-.2.14,1.41,1.41,0,0,1-.39.09,5.34,5.34,0,0,1-.62,0,5.67,5.67,0,0,1-.65,0,1.5,1.5,0,0,1-.39-.09.51.51,0,0,1-.21-.14.29.29,0,0,1-.07-.2V691.2a7.31,7.31,0,0,0-.15-1.54,3.61,3.61,0,0,0-.5-1.2,2.33,2.33,0,0,0-.88-.77,2.84,2.84,0,0,0-1.25-.26,3,3,0,0,0-1.79.65,11.82,11.82,0,0,0-2,1.91v9.3a.29.29,0,0,1-.07.2.51.51,0,0,1-.21.14,1.59,1.59,0,0,1-.4.09,5.22,5.22,0,0,1-.62,0,5.46,5.46,0,0,1-.62,0,1.59,1.59,0,0,1-.4-.09.51.51,0,0,1-.21-.14.42.42,0,0,1-.05-.2V691.2a6.66,6.66,0,0,0-.17-1.54,3.86,3.86,0,0,0-.52-1.2,2.38,2.38,0,0,0-.87-.77,2.77,2.77,0,0,0-1.24-.26,3,3,0,0,0-1.79.65,10.78,10.78,0,0,0-2,1.91v9.3a.29.29,0,0,1-.07.2.47.47,0,0,1-.2.14,1.41,1.41,0,0,1-.39.09,5.6,5.6,0,0,1-.64,0,5.22,5.22,0,0,1-.62,0,1.59,1.59,0,0,1-.4-.09.51.51,0,0,1-.21-.14.42.42,0,0,1-.05-.2V686a.39.39,0,0,1,.05-.2.35.35,0,0,1,.18-.15,1.58,1.58,0,0,1,.36-.09l.58,0,.57,0a1.17,1.17,0,0,1,.35.09.35.35,0,0,1,.18.15.32.32,0,0,1,.06.2v1.76a9,9,0,0,1,2.3-1.84,4.85,4.85,0,0,1,2.26-.59,6.25,6.25,0,0,1,1.57.19,4.59,4.59,0,0,1,1.23.54,4,4,0,0,1,.9.83,4.94,4.94,0,0,1,.63,1.07,14.12,14.12,0,0,1,1.33-1.22,7.9,7.9,0,0,1,1.22-.82,5.85,5.85,0,0,1,1.14-.45,4.71,4.71,0,0,1,1.12-.14,5.18,5.18,0,0,1,2.28.45A4.14,4.14,0,0,1,57.6,687a4.64,4.64,0,0,1,.81,1.77,8.63,8.63,0,0,1,.25,2.13Z" transform="translate(-1.11)"/><path class="cls-2" d="M74,699.3a.32.32,0,0,1-.12.27,1,1,0,0,1-.35.13,3.29,3.29,0,0,1-.64,0,3.65,3.65,0,0,1-.65,0,.78.78,0,0,1-.35-.13.34.34,0,0,1-.11-.27V698a6.85,6.85,0,0,1-2,1.45,5.67,5.67,0,0,1-2.4.52,7,7,0,0,1-2-.27,4.45,4.45,0,0,1-1.53-.8,3.42,3.42,0,0,1-1-1.27,3.9,3.9,0,0,1-.35-1.71,3.67,3.67,0,0,1,1.87-3.33,6.81,6.81,0,0,1,2.22-.82,14.64,14.64,0,0,1,3-.28h1.94v-1a5.05,5.05,0,0,0-.17-1.36,2.26,2.26,0,0,0-.56-1,2.33,2.33,0,0,0-1-.6,5,5,0,0,0-1.5-.2,6.33,6.33,0,0,0-1.71.22,9.24,9.24,0,0,0-1.33.47c-.38.17-.7.33-.95.47a1.34,1.34,0,0,1-.57.22.38.38,0,0,1-.22-.06.47.47,0,0,1-.16-.18.82.82,0,0,1-.11-.3,2.54,2.54,0,0,1,0-.41,2.24,2.24,0,0,1,.06-.58.81.81,0,0,1,.26-.41,3.37,3.37,0,0,1,.73-.45,8,8,0,0,1,1.19-.47,10.75,10.75,0,0,1,1.46-.36,9.73,9.73,0,0,1,1.61-.14,8.79,8.79,0,0,1,2.58.33,4.14,4.14,0,0,1,1.72,1,3.56,3.56,0,0,1,1,1.56,7.13,7.13,0,0,1,.3,2.18Zm-2.56-6.07h-2.2a8.39,8.39,0,0,0-1.85.17,4,4,0,0,0-1.3.5,2.11,2.11,0,0,0-.75.8,2.28,2.28,0,0,0-.25,1.07,2.11,2.11,0,0,0,.7,1.65,2.83,2.83,0,0,0,2,.61,3.74,3.74,0,0,0,1.88-.49,7.91,7.91,0,0,0,1.82-1.49Z" transform="translate(-1.11)"/><path class="cls-2" d="M87.51,695.67a3.92,3.92,0,0,1-.4,1.81A3.59,3.59,0,0,1,86,698.83a5.16,5.16,0,0,1-1.75.83,8.25,8.25,0,0,1-2.23.28,9.32,9.32,0,0,1-1.43-.11,10.1,10.1,0,0,1-1.22-.28,6.56,6.56,0,0,1-.92-.36,2.34,2.34,0,0,1-.54-.33.82.82,0,0,1-.25-.41,2.41,2.41,0,0,1-.08-.73,3.09,3.09,0,0,1,0-.47,1.53,1.53,0,0,1,.08-.31.29.29,0,0,1,.13-.17.33.33,0,0,1,.2,0,1.12,1.12,0,0,1,.5.19c.23.14.5.28.83.44a8.52,8.52,0,0,0,1.17.44A5.48,5.48,0,0,0,82,698a4.8,4.8,0,0,0,1.19-.14,2.64,2.64,0,0,0,.92-.39,1.73,1.73,0,0,0,.6-.66,2,2,0,0,0,.21-.94,1.5,1.5,0,0,0-.3-1,2.85,2.85,0,0,0-.8-.68,6.55,6.55,0,0,0-1.13-.52l-1.29-.48c-.44-.17-.87-.36-1.3-.57a5.67,5.67,0,0,1-1.13-.78,3.54,3.54,0,0,1-.8-1.1,3.38,3.38,0,0,1-.31-1.52,3.71,3.71,0,0,1,.32-1.5,3.65,3.65,0,0,1,1-1.26,4.74,4.74,0,0,1,1.61-.86,6.86,6.86,0,0,1,2.24-.33,7,7,0,0,1,1.12.09,7.84,7.84,0,0,1,1,.22,5.47,5.47,0,0,1,.77.29,4.66,4.66,0,0,1,.49.27.68.68,0,0,1,.21.21.5.5,0,0,1,.08.2c0,.08,0,.17,0,.27a2.42,2.42,0,0,1,0,.4,2.89,2.89,0,0,1,0,.44,1,1,0,0,1-.08.3.4.4,0,0,1-.13.17.27.27,0,0,1-.17.06.9.9,0,0,1-.41-.17,5.56,5.56,0,0,0-.69-.34,7,7,0,0,0-1-.35,4.66,4.66,0,0,0-1.3-.17,4,4,0,0,0-1.16.15,2.24,2.24,0,0,0-.82.39,1.68,1.68,0,0,0-.48.62,1.81,1.81,0,0,0-.17.77,1.56,1.56,0,0,0,.31,1,2.79,2.79,0,0,0,.82.68,6.72,6.72,0,0,0,1.14.54l1.3.49a13.57,13.57,0,0,1,1.31.56,4.66,4.66,0,0,1,1.15.75,3.44,3.44,0,0,1,.81,1.07A3.34,3.34,0,0,1,87.51,695.67Z" transform="translate(-1.11)"/><path class="cls-2" d="M111.37,692.43a11.54,11.54,0,0,1-.4,3.13,6.78,6.78,0,0,1-1.17,2.36,5.1,5.1,0,0,1-1.92,1.49,6.18,6.18,0,0,1-2.61.53,5.2,5.2,0,0,1-1.15-.12,4.46,4.46,0,0,1-1-.37,6.47,6.47,0,0,1-1-.63c-.33-.26-.69-.56-1.06-.91v6.66a.37.37,0,0,1-.06.21.43.43,0,0,1-.21.14,1.41,1.41,0,0,1-.39.09,5.48,5.48,0,0,1-.64,0,5.22,5.22,0,0,1-.62,0,1.59,1.59,0,0,1-.4-.09.36.36,0,0,1-.2-.14.37.37,0,0,1-.06-.21V686a.48.48,0,0,1,0-.22.37.37,0,0,1,.19-.14,1.38,1.38,0,0,1,.36-.08l.53,0,.53,0a1.49,1.49,0,0,1,.36.08.43.43,0,0,1,.19.14.38.38,0,0,1,.06.22v1.79a12.68,12.68,0,0,1,1.23-1.08,6.86,6.86,0,0,1,1.2-.76,5.58,5.58,0,0,1,2.57-.62,5.58,5.58,0,0,1,2.6.56,4.86,4.86,0,0,1,1.76,1.54,6.4,6.4,0,0,1,1,2.27A11.64,11.64,0,0,1,111.37,692.43Zm-2.67.28a11.67,11.67,0,0,0-.17-2A5.43,5.43,0,0,0,108,689a3.13,3.13,0,0,0-1.07-1.18,3,3,0,0,0-1.68-.45,3.64,3.64,0,0,0-1,.14,4,4,0,0,0-1,.45,6.27,6.27,0,0,0-1.06.8A12.72,12.72,0,0,0,101,690v5.29a11,11,0,0,0,2,1.88,3.56,3.56,0,0,0,2,.65,3.08,3.08,0,0,0,1.67-.44,3.31,3.31,0,0,0,1.13-1.19,5.73,5.73,0,0,0,.64-1.65A8.33,8.33,0,0,0,108.7,692.71Z" transform="translate(-1.11)"/><path class="cls-2" d="M125.83,699.3a.32.32,0,0,1-.12.27.89.89,0,0,1-.34.13,3.41,3.41,0,0,1-.65,0,3.52,3.52,0,0,1-.64,0,.88.88,0,0,1-.36-.13.33.33,0,0,1-.1-.27V698a6.89,6.89,0,0,1-2.06,1.45,5.6,5.6,0,0,1-2.4.52,6.86,6.86,0,0,1-2-.27,4.45,4.45,0,0,1-1.53-.8,3.45,3.45,0,0,1-1-1.27,4,4,0,0,1-.35-1.71,3.81,3.81,0,0,1,.48-1.95,3.91,3.91,0,0,1,1.39-1.38,7,7,0,0,1,2.22-.82,14.71,14.71,0,0,1,3-.28h1.94v-1a5.05,5.05,0,0,0-.17-1.36,2.24,2.24,0,0,0-.55-1,2.43,2.43,0,0,0-1-.6,4.91,4.91,0,0,0-1.5-.2,6.44,6.44,0,0,0-1.71.22A10.2,10.2,0,0,0,117,688c-.38.17-.69.33-1,.47a1.25,1.25,0,0,1-.57.22.43.43,0,0,1-.22-.06.57.57,0,0,1-.16-.18.81.81,0,0,1-.1-.3,2.54,2.54,0,0,1,0-.41,2.31,2.31,0,0,1,0-.58.91.91,0,0,1,.27-.41,3.25,3.25,0,0,1,.72-.45,8.43,8.43,0,0,1,1.19-.47,11.3,11.3,0,0,1,1.47-.36,9.63,9.63,0,0,1,1.61-.14,8.79,8.79,0,0,1,2.58.33,4.1,4.1,0,0,1,1.71,1,3.67,3.67,0,0,1,1,1.56,7.15,7.15,0,0,1,.29,2.18Zm-2.56-6.07h-2.2a8.29,8.29,0,0,0-1.84.17,3.88,3.88,0,0,0-1.3.5,2.07,2.07,0,0,0-.76.8,2.28,2.28,0,0,0-.24,1.07,2.1,2.1,0,0,0,.69,1.65,2.87,2.87,0,0,0,1.95.61,3.72,3.72,0,0,0,1.88-.49,7.7,7.7,0,0,0,1.82-1.49Z" transform="translate(-1.11)"/><path class="cls-2" d="M138.79,686.85c0,.22,0,.4,0,.55a1.23,1.23,0,0,1-.06.34.48.48,0,0,1-.12.2.29.29,0,0,1-.19.06,1,1,0,0,1-.31-.06l-.41-.14-.5-.12a2.93,2.93,0,0,0-.61-.06,2.07,2.07,0,0,0-.77.15,3,3,0,0,0-.79.49,5.79,5.79,0,0,0-.86.9,16,16,0,0,0-1,1.37v8.76a.29.29,0,0,1-.07.2.54.54,0,0,1-.2.14,1.41,1.41,0,0,1-.39.09,5.6,5.6,0,0,1-.64,0,5.53,5.53,0,0,1-.63,0,1.5,1.5,0,0,1-.39-.09.51.51,0,0,1-.21-.14.42.42,0,0,1-.05-.2V686a.31.31,0,0,1,.05-.2.35.35,0,0,1,.18-.15,1.58,1.58,0,0,1,.36-.09l.58,0,.57,0a1.17,1.17,0,0,1,.35.09.39.39,0,0,1,.18.15.32.32,0,0,1,.06.2v1.93a10.46,10.46,0,0,1,1.08-1.3,6.21,6.21,0,0,1,1-.79,3.23,3.23,0,0,1,.9-.4,4,4,0,0,1,.9-.11l.46,0,.54.09a3.15,3.15,0,0,1,.51.13,1.2,1.2,0,0,1,.32.15.37.37,0,0,1,.12.14,1.07,1.07,0,0,1,.06.17q0,.11,0,.3C138.78,686.44,138.79,686.62,138.79,686.85Z" transform="translate(-1.11)"/><path class="cls-2" d="M151.66,699.3a.3.3,0,0,1-.13.27.89.89,0,0,1-.34.13,3.36,3.36,0,0,1-.64,0,3.65,3.65,0,0,1-.65,0,.78.78,0,0,1-.35-.13.34.34,0,0,1-.11-.27V698a6.85,6.85,0,0,1-2.05,1.45,5.67,5.67,0,0,1-2.4.52,7,7,0,0,1-2-.27,4.45,4.45,0,0,1-1.53-.8,3.55,3.55,0,0,1-1-1.27,4,4,0,0,1-.35-1.71,3.72,3.72,0,0,1,.49-1.95,3.76,3.76,0,0,1,1.39-1.38,6.81,6.81,0,0,1,2.22-.82,14.64,14.64,0,0,1,2.95-.28h1.94v-1a4.67,4.67,0,0,0-.18-1.36,2.15,2.15,0,0,0-.55-1,2.46,2.46,0,0,0-1-.6,5,5,0,0,0-1.5-.2,6.33,6.33,0,0,0-1.71.22,9.24,9.24,0,0,0-1.33.47c-.38.17-.7.33-1,.47a1.34,1.34,0,0,1-.57.22.38.38,0,0,1-.22-.06.59.59,0,0,1-.17-.18,1.05,1.05,0,0,1-.1-.3,2.54,2.54,0,0,1,0-.41,2.24,2.24,0,0,1,.06-.58.81.81,0,0,1,.26-.41,3.14,3.14,0,0,1,.73-.45,8.28,8.28,0,0,1,1.18-.47,11.3,11.3,0,0,1,1.47-.36,9.63,9.63,0,0,1,1.61-.14,8.79,8.79,0,0,1,2.58.33,4.14,4.14,0,0,1,1.72,1,3.66,3.66,0,0,1,1,1.56,7.13,7.13,0,0,1,.3,2.18Zm-2.56-6.07h-2.21a8.29,8.29,0,0,0-1.84.17,4,4,0,0,0-1.3.5,2.11,2.11,0,0,0-.75.8,2.17,2.17,0,0,0-.25,1.07,2.11,2.11,0,0,0,.7,1.65,2.82,2.82,0,0,0,1.94.61,3.75,3.75,0,0,0,1.89-.49,8.12,8.12,0,0,0,1.82-1.49Z" transform="translate(-1.11)"/><path class="cls-2" d="M166.5,681.48a1.56,1.56,0,0,1-.34,1.17,2.73,2.73,0,0,1-2.51,0,1.52,1.52,0,0,1-.34-1.15,1.56,1.56,0,0,1,.35-1.17,2,2,0,0,1,1.26-.31,1.88,1.88,0,0,1,1.24.3A1.52,1.52,0,0,1,166.5,681.48Zm-.3,17.81a.34.34,0,0,1-.06.2.54.54,0,0,1-.2.14,1.61,1.61,0,0,1-.39.09,5.6,5.6,0,0,1-.64,0,5.53,5.53,0,0,1-.63,0,1.7,1.7,0,0,1-.4-.09.47.47,0,0,1-.2-.14.33.33,0,0,1-.05-.2V686a.35.35,0,0,1,.05-.2.47.47,0,0,1,.2-.14,1.7,1.7,0,0,1,.4-.09,5.53,5.53,0,0,1,.63,0,5.6,5.6,0,0,1,.64,0,1.61,1.61,0,0,1,.39.09.54.54,0,0,1,.2.14.36.36,0,0,1,.06.2Z" transform="translate(-1.11)"/><path class="cls-2" d="M183.08,699.29a.35.35,0,0,1-.07.2.54.54,0,0,1-.2.14,1.41,1.41,0,0,1-.39.09,5.53,5.53,0,0,1-.63,0,5.6,5.6,0,0,1-.64,0,1.61,1.61,0,0,1-.39-.09.54.54,0,0,1-.2-.14.34.34,0,0,1-.06-.2v-7.8a7,7,0,0,0-.19-1.83,3.68,3.68,0,0,0-.55-1.2,2.41,2.41,0,0,0-.93-.77,3.2,3.2,0,0,0-1.32-.26,3.39,3.39,0,0,0-1.93.65,9.78,9.78,0,0,0-2,1.91v9.3a.29.29,0,0,1-.07.2.54.54,0,0,1-.2.14,1.41,1.41,0,0,1-.39.09,5.6,5.6,0,0,1-.64,0,5.22,5.22,0,0,1-.62,0,1.59,1.59,0,0,1-.4-.09.51.51,0,0,1-.21-.14.42.42,0,0,1-.05-.2V686a.31.31,0,0,1,.05-.2.35.35,0,0,1,.18-.15,1.58,1.58,0,0,1,.36-.09l.58,0,.57,0a1.17,1.17,0,0,1,.35.09.35.35,0,0,1,.18.15.32.32,0,0,1,.06.2v1.76a8.58,8.58,0,0,1,2.36-1.84,5.34,5.34,0,0,1,2.39-.59,5.55,5.55,0,0,1,2.36.45A4.31,4.31,0,0,1,182,687a4.7,4.7,0,0,1,.85,1.77,10,10,0,0,1,.26,2.43Z" transform="translate(-1.11)"/><path class="cls-2" d="M196.6,695.67a4,4,0,0,1-.39,1.81,3.71,3.71,0,0,1-1.14,1.35,5.16,5.16,0,0,1-1.75.83,8.2,8.2,0,0,1-2.23.28,9.32,9.32,0,0,1-1.43-.11,10.56,10.56,0,0,1-1.22-.28,6.39,6.39,0,0,1-.91-.36,2.71,2.71,0,0,1-.55-.33.89.89,0,0,1-.25-.41,2.78,2.78,0,0,1-.08-.73,3.09,3.09,0,0,1,0-.47,2.7,2.7,0,0,1,.08-.31.34.34,0,0,1,.33-.22,1.15,1.15,0,0,1,.51.19,8.63,8.63,0,0,0,.83.44,7.89,7.89,0,0,0,1.16.44,5.55,5.55,0,0,0,1.55.2,4.77,4.77,0,0,0,1.18-.14,2.61,2.61,0,0,0,.93-.39,1.73,1.73,0,0,0,.6-.66,2,2,0,0,0,.21-.94,1.45,1.45,0,0,0-.31-1,2.85,2.85,0,0,0-.8-.68,6.22,6.22,0,0,0-1.13-.52l-1.28-.48a13.81,13.81,0,0,1-1.3-.57,5.39,5.39,0,0,1-1.13-.78,3.42,3.42,0,0,1-.81-1.1,3.83,3.83,0,0,1,0-3,3.42,3.42,0,0,1,1-1.26,4.78,4.78,0,0,1,1.6-.86,6.91,6.91,0,0,1,2.24-.33,7.17,7.17,0,0,1,1.13.09,8,8,0,0,1,1,.22,6.18,6.18,0,0,1,.78.29,4.34,4.34,0,0,1,.48.27.89.89,0,0,1,.22.21,1.19,1.19,0,0,1,.08.2c0,.08,0,.17,0,.27a2.33,2.33,0,0,1,0,.4,2.76,2.76,0,0,1,0,.44,1,1,0,0,1-.07.3.41.41,0,0,1-.14.17.27.27,0,0,1-.17.06,1,1,0,0,1-.41-.17,4.75,4.75,0,0,0-.68-.34,7.19,7.19,0,0,0-1-.35,4.66,4.66,0,0,0-1.3-.17,4.08,4.08,0,0,0-1.16.15,2.32,2.32,0,0,0-.82.39,1.8,1.8,0,0,0-.65,1.39,1.51,1.51,0,0,0,.32,1,2.87,2.87,0,0,0,.81.68,6.72,6.72,0,0,0,1.14.54c.43.15.86.32,1.31.49a13.57,13.57,0,0,1,1.31.56,5.07,5.07,0,0,1,1.15.75,3.41,3.41,0,0,1,.8,1.07A3.34,3.34,0,0,1,196.6,695.67Z" transform="translate(-1.11)"/><path class="cls-2" d="M212.17,685.59a.84.84,0,0,1,.64.2.92.92,0,0,1,.17.59v12.91a.34.34,0,0,1-.06.2.7.7,0,0,1-.21.14,1.7,1.7,0,0,1-.4.09,5.28,5.28,0,0,1-.61,0,5.48,5.48,0,0,1-.64,0,1.59,1.59,0,0,1-.4-.09.51.51,0,0,1-.21-.14.35.35,0,0,1-.07-.2V687.62h-7.26V695a4,4,0,0,0,.43,2.08,1.66,1.66,0,0,0,1.54.7,3.1,3.1,0,0,0,.64-.06l.5-.14.37-.14a.68.68,0,0,1,.29-.07.23.23,0,0,1,.14,0,.2.2,0,0,1,.11.14,1.26,1.26,0,0,1,.07.28,2.65,2.65,0,0,1,0,.44,3,3,0,0,1-.07.68.85.85,0,0,1-.18.37,1.12,1.12,0,0,1-.38.22,2.94,2.94,0,0,1-.57.17,6.38,6.38,0,0,1-.68.12,5.79,5.79,0,0,1-.72,0,5.73,5.73,0,0,1-1.87-.27,3.09,3.09,0,0,1-1.28-.83,3.27,3.27,0,0,1-.73-1.41,7.8,7.8,0,0,1-.23-2v-7.78h-2a.42.42,0,0,1-.37-.24,1.59,1.59,0,0,1-.14-.77,2.17,2.17,0,0,1,0-.47,1.21,1.21,0,0,1,.1-.32.4.4,0,0,1,.16-.18.59.59,0,0,1,.23,0h1.95v-3.16a.36.36,0,0,1,.06-.2.42.42,0,0,1,.2-.15,1.54,1.54,0,0,1,.4-.1,5.34,5.34,0,0,1,.62,0,5.48,5.48,0,0,1,.64,0,1.36,1.36,0,0,1,.39.1.52.52,0,0,1,.21.15.36.36,0,0,1,.06.2v3.16Zm1.11-4.11a1.56,1.56,0,0,1-.35,1.17,1.9,1.9,0,0,1-1.26.31,1.93,1.93,0,0,1-1.25-.3,2.18,2.18,0,0,1,0-2.32,2,2,0,0,1,1.27-.31,1.92,1.92,0,0,1,1.24.3A1.56,1.56,0,0,1,213.28,681.48Z" transform="translate(-1.11)"/><path class="cls-2" d="M225.07,698.31a3,3,0,0,1-.06.68.76.76,0,0,1-.19.37,1.06,1.06,0,0,1-.37.22,2.94,2.94,0,0,1-.57.17c-.22,0-.45.09-.68.12a6.63,6.63,0,0,1-2.6-.23,3.09,3.09,0,0,1-1.28-.83,3.5,3.5,0,0,1-.73-1.41,7.84,7.84,0,0,1-.22-2v-7.78h-2a.43.43,0,0,1-.38-.24,1.59,1.59,0,0,1-.14-.77,3.06,3.06,0,0,1,0-.47,1.74,1.74,0,0,1,.1-.32.49.49,0,0,1,.17-.18.56.56,0,0,1,.23,0h2v-3.16a.46.46,0,0,1,0-.2.52.52,0,0,1,.21-.15,1.46,1.46,0,0,1,.39-.1,5.53,5.53,0,0,1,.63,0,5.6,5.6,0,0,1,.64,0,1.36,1.36,0,0,1,.39.1.55.55,0,0,1,.2.15.37.37,0,0,1,.07.2v3.16h3.6a.48.48,0,0,1,.22,0,.49.49,0,0,1,.17.18,1.21,1.21,0,0,1,.1.32,3.18,3.18,0,0,1,0,.47,1.59,1.59,0,0,1-.14.77.42.42,0,0,1-.38.24H221V695a4,4,0,0,0,.43,2.08,1.63,1.63,0,0,0,1.53.7,3,3,0,0,0,.64-.06c.19,0,.36-.09.5-.14l.38-.14a.64.64,0,0,1,.28-.07.28.28,0,0,1,.15,0,.23.23,0,0,1,.11.14,2.26,2.26,0,0,1,.07.28A2.76,2.76,0,0,1,225.07,698.31Z" transform="translate(-1.11)"/><path class="cls-2" d="M240.52,699.29a.42.42,0,0,1-.05.2.47.47,0,0,1-.2.14,1.33,1.33,0,0,1-.37.09,4.22,4.22,0,0,1-.55,0,4.8,4.8,0,0,1-.59,0,1.34,1.34,0,0,1-.36-.09.54.54,0,0,1-.18-.14.42.42,0,0,1,0-.2v-1.76a8.54,8.54,0,0,1-2.38,1.83,5.24,5.24,0,0,1-2.37.58,5.73,5.73,0,0,1-2.37-.44,4.09,4.09,0,0,1-1.55-1.21,4.7,4.7,0,0,1-.85-1.77,9.8,9.8,0,0,1-.26-2.47V686a.39.39,0,0,1,0-.2.44.44,0,0,1,.21-.15,1.8,1.8,0,0,1,.41-.09l.62,0,.63,0a1.59,1.59,0,0,1,.4.09.44.44,0,0,1,.21.15.32.32,0,0,1,.06.2v7.75a7.81,7.81,0,0,0,.18,1.87,3.32,3.32,0,0,0,.55,1.2,2.5,2.5,0,0,0,.93.77,3,3,0,0,0,1.31.27,3.44,3.44,0,0,0,1.93-.65,10.93,10.93,0,0,0,2-1.91V686a.39.39,0,0,1,0-.2.44.44,0,0,1,.21-.15,1.83,1.83,0,0,1,.4-.09l.63,0,.63,0a1.41,1.41,0,0,1,.39.09.57.57,0,0,1,.21.15.27.27,0,0,1,.07.2Z" transform="translate(-1.11)"/><path class="cls-2" d="M255.39,697.26c0,.17,0,.32,0,.44a1.22,1.22,0,0,1-.06.31.73.73,0,0,1-.09.22,1.34,1.34,0,0,1-.25.28,3.4,3.4,0,0,1-.66.46,6.93,6.93,0,0,1-1.06.49,8.66,8.66,0,0,1-1.27.35,7.35,7.35,0,0,1-1.42.13,7.25,7.25,0,0,1-2.69-.47,5,5,0,0,1-2-1.39,6,6,0,0,1-1.2-2.23,10.08,10.08,0,0,1-.42-3.05,9.94,9.94,0,0,1,.51-3.38,6.33,6.33,0,0,1,1.39-2.32,5.52,5.52,0,0,1,2.08-1.34,7.47,7.47,0,0,1,2.58-.43,8,8,0,0,1,1.31.11,7.23,7.23,0,0,1,1.16.32,4.63,4.63,0,0,1,.95.44,4.35,4.35,0,0,1,.6.43,2.74,2.74,0,0,1,.26.28,1.33,1.33,0,0,1,.11.24,2.55,2.55,0,0,1,.07.32c0,.12,0,.27,0,.44a1.69,1.69,0,0,1-.14.81.41.41,0,0,1-.34.23.91.91,0,0,1-.54-.24,6.46,6.46,0,0,0-.78-.54,5.67,5.67,0,0,0-1.13-.54,4.35,4.35,0,0,0-1.57-.25,3.3,3.3,0,0,0-2.85,1.36,6.57,6.57,0,0,0-1,3.92,8.51,8.51,0,0,0,.26,2.26,4.67,4.67,0,0,0,.75,1.62,3.3,3.3,0,0,0,1.23,1,4.13,4.13,0,0,0,1.66.31,4.2,4.2,0,0,0,1.57-.26,6.6,6.6,0,0,0,1.16-.59c.33-.21.6-.4.83-.57a1,1,0,0,1,.52-.26.31.31,0,0,1,.19.06.39.39,0,0,1,.13.2,1.4,1.4,0,0,1,.08.35A4,4,0,0,1,255.39,697.26Z" transform="translate(-1.11)"/><path class="cls-2" d="M261.69,681.48a1.56,1.56,0,0,1-.34,1.17,2.73,2.73,0,0,1-2.51,0,1.52,1.52,0,0,1-.34-1.15,1.56,1.56,0,0,1,.35-1.17,2,2,0,0,1,1.26-.31,1.88,1.88,0,0,1,1.24.3A1.52,1.52,0,0,1,261.69,681.48Zm-.3,17.81a.34.34,0,0,1-.06.2.54.54,0,0,1-.2.14,1.61,1.61,0,0,1-.39.09,5.6,5.6,0,0,1-.64,0,5.53,5.53,0,0,1-.63,0,1.59,1.59,0,0,1-.4-.09.47.47,0,0,1-.2-.14.33.33,0,0,1-.05-.2V686a.35.35,0,0,1,.05-.2.47.47,0,0,1,.2-.14,1.59,1.59,0,0,1,.4-.09,5.53,5.53,0,0,1,.63,0,5.6,5.6,0,0,1,.64,0,1.61,1.61,0,0,1,.39.09.54.54,0,0,1,.2.14.36.36,0,0,1,.06.2Z" transform="translate(-1.11)"/><path class="cls-2" d="M279.23,692.48a9.54,9.54,0,0,1-.45,3,6.48,6.48,0,0,1-1.35,2.36,6.16,6.16,0,0,1-2.25,1.55,9.39,9.39,0,0,1-6.16.06,5.51,5.51,0,0,1-2.14-1.42,5.78,5.78,0,0,1-1.28-2.26,9.7,9.7,0,0,1-.43-3,9.52,9.52,0,0,1,.45-3A6.38,6.38,0,0,1,267,687.4a6.06,6.06,0,0,1,2.24-1.54,8.23,8.23,0,0,1,3.14-.55,8.45,8.45,0,0,1,3,.49,5.66,5.66,0,0,1,2.15,1.42,6,6,0,0,1,1.28,2.26A9.66,9.66,0,0,1,279.23,692.48Zm-2.67.17a9.53,9.53,0,0,0-.21-2,4.94,4.94,0,0,0-.7-1.69,3.56,3.56,0,0,0-1.33-1.15,4.59,4.59,0,0,0-2.08-.42,4.66,4.66,0,0,0-2,.39,3.61,3.61,0,0,0-1.36,1.08,4.7,4.7,0,0,0-.79,1.67,7.74,7.74,0,0,0-.27,2.1,9.71,9.71,0,0,0,.22,2.06,4.59,4.59,0,0,0,.71,1.67,3.45,3.45,0,0,0,1.33,1.14,5.33,5.33,0,0,0,4,0,3.59,3.59,0,0,0,1.37-1.08,4.57,4.57,0,0,0,.79-1.66A8.2,8.2,0,0,0,276.56,692.65Z" transform="translate(-1.11)"/><path class="cls-2" d="M295.14,699.29a.34.34,0,0,1-.06.2.59.59,0,0,1-.21.14,1.41,1.41,0,0,1-.39.09,5.22,5.22,0,0,1-.62,0,5.48,5.48,0,0,1-.64,0,1.41,1.41,0,0,1-.39-.09.59.59,0,0,1-.21-.14.34.34,0,0,1-.06-.2v-7.8a7,7,0,0,0-.19-1.83,3.66,3.66,0,0,0-.54-1.2,2.41,2.41,0,0,0-.93-.77,3.2,3.2,0,0,0-1.32-.26,3.41,3.41,0,0,0-1.94.65,10,10,0,0,0-2,1.91v9.3a.34.34,0,0,1-.06.2.59.59,0,0,1-.21.14,1.41,1.41,0,0,1-.39.09,5.48,5.48,0,0,1-.64,0,5.22,5.22,0,0,1-.62,0,1.59,1.59,0,0,1-.4-.09.41.41,0,0,1-.2-.14.34.34,0,0,1-.06-.2V686a.39.39,0,0,1,.05-.2.34.34,0,0,1,.19-.15,1.34,1.34,0,0,1,.36-.09l.57,0,.57,0a1.17,1.17,0,0,1,.35.09.35.35,0,0,1,.18.15.32.32,0,0,1,.06.2v1.76a8.47,8.47,0,0,1,2.37-1.84,5.3,5.3,0,0,1,2.38-.59,5.52,5.52,0,0,1,2.36.45A4.23,4.23,0,0,1,294,687a4.7,4.7,0,0,1,.85,1.77,10,10,0,0,1,.26,2.43Z" transform="translate(-1.11)"/><path class="cls-2" d="M311.84,692.06a1,1,0,0,1-.31.82,1.08,1.08,0,0,1-.7.24h-9.26a7.67,7.67,0,0,0,.24,2,3.85,3.85,0,0,0,.78,1.52,3.58,3.58,0,0,0,1.43,1,6.18,6.18,0,0,0,2.15.34,8.75,8.75,0,0,0,1.79-.16,9.85,9.85,0,0,0,1.36-.35c.38-.12.7-.24.94-.34a1.56,1.56,0,0,1,.56-.16.46.46,0,0,1,.2,0,.34.34,0,0,1,.13.16.88.88,0,0,1,.07.29,2.81,2.81,0,0,1,0,.45,2.92,2.92,0,0,1,0,.33,1.45,1.45,0,0,1,0,.25.6.6,0,0,1-.08.2.55.55,0,0,1-.14.17,1.86,1.86,0,0,1-.51.27,8.16,8.16,0,0,1-1.09.36,15,15,0,0,1-1.55.32,12.52,12.52,0,0,1-1.89.14,9.08,9.08,0,0,1-3-.46,5.65,5.65,0,0,1-2.19-1.36,5.72,5.72,0,0,1-1.34-2.26,9.81,9.81,0,0,1-.46-3.17,9.53,9.53,0,0,1,.47-3.08,6.34,6.34,0,0,1,1.35-2.32,5.85,5.85,0,0,1,2.14-1.47,7.3,7.3,0,0,1,2.79-.51,7,7,0,0,1,2.82.51,5.2,5.2,0,0,1,1.92,1.35,5.37,5.37,0,0,1,1.1,2,8.48,8.48,0,0,1,.35,2.45Zm-2.59-.73a4.27,4.27,0,0,0-.91-3,3.52,3.52,0,0,0-2.82-1.09,3.85,3.85,0,0,0-1.68.34,3.68,3.68,0,0,0-1.21.9,4.06,4.06,0,0,0-.76,1.31,5.83,5.83,0,0,0-.3,1.56Z" transform="translate(-1.11)"/><path class="cls-2" d="M324.59,695.67a4,4,0,0,1-.4,1.81,3.69,3.69,0,0,1-1.13,1.35,5.25,5.25,0,0,1-1.75.83,8.33,8.33,0,0,1-2.24.28,9.42,9.42,0,0,1-1.43-.11,10.56,10.56,0,0,1-1.22-.28,6.9,6.9,0,0,1-.91-.36,2.71,2.71,0,0,1-.55-.33,1,1,0,0,1-.25-.41,2.85,2.85,0,0,1-.07-.73,3.09,3.09,0,0,1,0-.47,1.07,1.07,0,0,1,.08-.31.29.29,0,0,1,.13-.17.3.3,0,0,1,.19,0,1.11,1.11,0,0,1,.51.19,8.63,8.63,0,0,0,.83.44,8.87,8.87,0,0,0,1.16.44,5.6,5.6,0,0,0,1.55.2,4.86,4.86,0,0,0,1.19-.14,2.64,2.64,0,0,0,.92-.39,1.73,1.73,0,0,0,.6-.66,2,2,0,0,0,.21-.94,1.5,1.5,0,0,0-.3-1,3,3,0,0,0-.81-.68,6.44,6.44,0,0,0-1.12-.52l-1.29-.48c-.44-.17-.88-.36-1.3-.57a5.39,5.39,0,0,1-1.13-.78,3.57,3.57,0,0,1-.81-1.1,3.52,3.52,0,0,1-.3-1.52,3.71,3.71,0,0,1,.32-1.5,3.42,3.42,0,0,1,1-1.26,4.78,4.78,0,0,1,1.6-.86,6.91,6.91,0,0,1,2.24-.33,7.17,7.17,0,0,1,1.13.09,8,8,0,0,1,1,.22,5.64,5.64,0,0,1,.78.29,4.34,4.34,0,0,1,.48.27.89.89,0,0,1,.22.21.7.7,0,0,1,.08.2c0,.08,0,.17.05.27s0,.25,0,.4,0,.32,0,.44a1.41,1.41,0,0,1-.08.3.35.35,0,0,1-.14.17.25.25,0,0,1-.17.06.88.88,0,0,1-.4-.17,5.56,5.56,0,0,0-.69-.34,7,7,0,0,0-1-.35,4.73,4.73,0,0,0-1.31-.17,4,4,0,0,0-1.15.15,2.16,2.16,0,0,0-.82.39,1.71,1.71,0,0,0-.49.62,1.8,1.8,0,0,0-.16.77,1.5,1.5,0,0,0,.31,1,2.87,2.87,0,0,0,.81.68,7.54,7.54,0,0,0,1.14.54c.43.15.86.32,1.31.49a13.57,13.57,0,0,1,1.31.56,5.07,5.07,0,0,1,1.15.75,3.41,3.41,0,0,1,.8,1.07A3.2,3.2,0,0,1,324.59,695.67Z" transform="translate(-1.11)"/><path class="cls-2" d="M326,154.11c-1.81-27.34-8.68-51.63-20.69-72.58l-.6-1a7.66,7.66,0,0,0-.45-.74,177.69,177.69,0,0,0-20.1-26.38.34.34,0,0,0-.15-.14C264.09,31.55,230.3,4.92,181.9.6,136.23-3.48,90.54,13.52,56.79,45.74c-.66.6-1.3,1.22-1.92,1.84C10.94,89.93-4.62,153.09,14,219.74c12.8,45.93,39.86,83.7,68.55,120.54,25.73,33,52.49,65.28,71.22,103.1,4.23,8.51,8,17.25,13.17,28.39,17-46.08,44.86-82.21,72.87-118.25,12.7-16.32,25.42-32.68,37.37-49.53C309,259.12,329.73,210.24,326,154.11Z" transform="translate(-1.11)"/><rect class="cls-3" x="136.21" y="68.16" width="58.06" height="196.75" rx="6.07"/><rect class="cls-3" x="66.87" y="137.51" width="196.75" height="58.06" rx="6.07"/></g></g></svg>