<svg xmlns="http://www.w3.org/2000/svg" viewBox="0 0 880.67 585.06"><defs><style>.cls-1{fill:#09f;}.cls-2{font-size:107.24px;font-family:Calibri;}.cls-2,.cls-4{fill:#00b2ef;}.cls-3{font-size:98.11px;letter-spacing:0em;}</style></defs><title>Recurso 4</title><g id="Capa_2" data-name="Capa 2"><g id="Capa_1-2" data-name="Capa 1"><path class="cls-1" d="M396.52,191.11c-2.25-33.9-10.76-64-25.67-90l-.74-1.27a8.14,8.14,0,0,0-.55-.91,221.05,221.05,0,0,0-24.93-32.72.4.4,0,0,0-.18-.16C319.73,39.12,277.84,6.1,217.82.74c-56.65-5-113.31,16-155.17,56-.81.74-1.61,1.51-2.38,2.28C5.79,111.52-13.5,189.85,9.58,272.51c15.87,57,49.43,103.81,85,149.49,31.9,40.91,65.1,81,88.32,127.86,5.25,10.55,10,21.39,16.34,35.2,21.14-57.14,55.63-101.95,90.36-146.65C305.37,418.18,321.13,397.89,336,377,375.38,321.35,401.14,260.73,396.52,191.11Zm-77,55.25a3.58,3.58,0,0,1-3.58,3.57H242.05v73.86a3.57,3.57,0,0,1-3.57,3.58h-80a3.59,3.59,0,0,1-3.59-3.58V249.93H81.05a3.58,3.58,0,0,1-3.58-3.57v-80a3.6,3.6,0,0,1,3.58-3.59H154.9V88.94a3.6,3.6,0,0,1,3.59-3.59h80a3.58,3.58,0,0,1,3.57,3.59v73.84h73.86a3.6,3.6,0,0,1,3.58,3.59Z"/><text class="cls-2" transform="translate(478.65 264.39) scale(1.06 1)">asignar<tspan class="cls-3" x="313.49" y="0">+</tspan></text><path class="cls-4" d="M495.73,344.69a6.49,6.49,0,0,1-.65,3,6.41,6.41,0,0,1-1.8,2.21,7.94,7.94,0,0,1-2.71,1.36,11.71,11.71,0,0,1-3.36.46,12.29,12.29,0,0,1-2.34-.2A13.57,13.57,0,0,1,483,351a9.41,9.41,0,0,1-1.42-.61,3.75,3.75,0,0,1-.79-.53,1.3,1.3,0,0,1-.33-.56,3.18,3.18,0,0,1-.11-.91,4.22,4.22,0,0,1,0-.67,1.47,1.47,0,0,1,.12-.43.49.49,0,0,1,.19-.23.6.6,0,0,1,.27-.06,1.62,1.62,0,0,1,.77.31A12.6,12.6,0,0,0,483,348a13.89,13.89,0,0,0,1.87.69,9.13,9.13,0,0,0,2.52.32,6.56,6.56,0,0,0,2-.28,4.61,4.61,0,0,0,1.55-.78,3.35,3.35,0,0,0,1-1.24,3.82,3.82,0,0,0,.35-1.66,3,3,0,0,0-.49-1.73,4.8,4.8,0,0,0-1.28-1.26,11.39,11.39,0,0,0-1.81-1l-2.08-.91a22.23,22.23,0,0,1-2.07-1,8.42,8.42,0,0,1-1.81-1.34,6.05,6.05,0,0,1-1.28-1.81,5.68,5.68,0,0,1-.5-2.48,6,6,0,0,1,.57-2.65,5.39,5.39,0,0,1,1.59-1.95,7.33,7.33,0,0,1,2.42-1.21,11,11,0,0,1,3-.41,10.55,10.55,0,0,1,1.67.14,10.87,10.87,0,0,1,1.59.37,8.81,8.81,0,0,1,1.33.51,3.14,3.14,0,0,1,.76.46,1.36,1.36,0,0,1,.25.27,1.31,1.31,0,0,1,.09.26,1.78,1.78,0,0,1,.06.38c0,.14,0,.33,0,.56a5.15,5.15,0,0,1,0,.59,2,2,0,0,1-.09.43.55.55,0,0,1-.16.26.41.41,0,0,1-.24.08,1.55,1.55,0,0,1-.67-.25c-.31-.18-.68-.37-1.12-.58a9.48,9.48,0,0,0-1.56-.59,7,7,0,0,0-2-.27,5.49,5.49,0,0,0-1.82.27,3.74,3.74,0,0,0-1.28.71,2.77,2.77,0,0,0-.76,1,3.49,3.49,0,0,0-.25,1.29,2.89,2.89,0,0,0,.49,1.7,4.73,4.73,0,0,0,1.29,1.27,12,12,0,0,0,1.83,1l2.09.92c.71.31,1.41.66,2.09,1a8.23,8.23,0,0,1,1.83,1.32,6,6,0,0,1,1.3,1.8A5.64,5.64,0,0,1,495.73,344.69Z"/><path class="cls-4" d="M503.7,328.8a1.94,1.94,0,0,1-.43,1.45,3.33,3.33,0,0,1-3.11,0,1.87,1.87,0,0,1-.42-1.42,1.94,1.94,0,0,1,.43-1.45,3.33,3.33,0,0,1,3.11,0A1.88,1.88,0,0,1,503.7,328.8Zm-.37,22.09a.38.38,0,0,1-.08.24.56.56,0,0,1-.25.18,2.14,2.14,0,0,1-.48.11c-.21,0-.48,0-.8,0a7.64,7.64,0,0,1-.77,0,2.22,2.22,0,0,1-.5-.11.51.51,0,0,1-.25-.18.38.38,0,0,1-.07-.24V334.38a.4.4,0,0,1,.07-.24.51.51,0,0,1,.25-.18,1.78,1.78,0,0,1,.5-.11,5.5,5.5,0,0,1,.77,0,6,6,0,0,1,.8,0,1.7,1.7,0,0,1,.48.11.56.56,0,0,1,.25.18.41.41,0,0,1,.08.24Z"/><path class="cls-4" d="M520.19,346.39a5,5,0,0,1-.5,2.26,4.69,4.69,0,0,1-1.4,1.67,6.72,6.72,0,0,1-2.17,1,10.51,10.51,0,0,1-2.77.34,11.29,11.29,0,0,1-1.78-.13,12.54,12.54,0,0,1-1.51-.35,8.64,8.64,0,0,1-1.13-.44,3.84,3.84,0,0,1-.68-.41,1.08,1.08,0,0,1-.31-.52,3.49,3.49,0,0,1-.1-.9,4.39,4.39,0,0,1,0-.58,2.18,2.18,0,0,1,.1-.39.39.39,0,0,1,.16-.21.52.52,0,0,1,.25-.07,1.53,1.53,0,0,1,.63.25,10.23,10.23,0,0,0,1,.54,9.84,9.84,0,0,0,1.45.55,6.88,6.88,0,0,0,1.91.24,6.1,6.1,0,0,0,1.48-.16,3.48,3.48,0,0,0,1.14-.49,2.24,2.24,0,0,0,.75-.81,2.57,2.57,0,0,0,.26-1.18,1.85,1.85,0,0,0-.38-1.17,3.54,3.54,0,0,0-1-.85,9,9,0,0,0-1.39-.65l-1.6-.59c-.55-.21-1.09-.45-1.61-.71a6,6,0,0,1-1.4-1,4.25,4.25,0,0,1-1-1.36,4.7,4.7,0,0,1,0-3.75,4.34,4.34,0,0,1,1.19-1.56,6,6,0,0,1,2-1.07,8.7,8.7,0,0,1,2.78-.41,9.43,9.43,0,0,1,1.4.11,11.89,11.89,0,0,1,1.26.28,6.49,6.49,0,0,1,1,.36,3.75,3.75,0,0,1,.6.34,1.12,1.12,0,0,1,.27.25,1.09,1.09,0,0,1,.1.25,2.27,2.27,0,0,1,0,.34,3.38,3.38,0,0,1,0,.49,4.44,4.44,0,0,1,0,.55,1.18,1.18,0,0,1-.09.37.46.46,0,0,1-.17.21.31.31,0,0,1-.21.07,1.06,1.06,0,0,1-.5-.21c-.22-.13-.51-.27-.86-.43a11.5,11.5,0,0,0-1.23-.43,6.06,6.06,0,0,0-1.61-.2,5.2,5.2,0,0,0-1.44.18,2.85,2.85,0,0,0-1,.49,2.2,2.2,0,0,0-.6.76,2.36,2.36,0,0,0-.2,1,1.88,1.88,0,0,0,.39,1.2,3.56,3.56,0,0,0,1,.85,9.27,9.27,0,0,0,1.41.66l1.62.61c.55.2,1.09.44,1.63.69a6.15,6.15,0,0,1,1.42.94,4.23,4.23,0,0,1,1,1.32A4.12,4.12,0,0,1,520.19,346.39Z"/><path class="cls-4" d="M533.38,349.68a3.72,3.72,0,0,1-.08.84,1,1,0,0,1-.23.46,1.35,1.35,0,0,1-.47.27,3.21,3.21,0,0,1-.7.21,7.18,7.18,0,0,1-.85.14,6.54,6.54,0,0,1-.89.06,7.19,7.19,0,0,1-2.32-.34,3.76,3.76,0,0,1-1.59-1,4.12,4.12,0,0,1-.9-1.74,9.6,9.6,0,0,1-.28-2.49v-9.65h-2.44a.52.52,0,0,1-.47-.29,1.89,1.89,0,0,1-.17-.95,3.34,3.34,0,0,1,0-.59,2,2,0,0,1,.13-.39.44.44,0,0,1,.2-.22.57.57,0,0,1,.29-.07h2.42V330a.4.4,0,0,1,.07-.24.43.43,0,0,1,.25-.19,1.4,1.4,0,0,1,.49-.12,5.75,5.75,0,0,1,.78,0,5.82,5.82,0,0,1,.79,0,1.28,1.28,0,0,1,.48.12.59.59,0,0,1,.26.19.4.4,0,0,1,.07.24v3.92h4.48a.5.5,0,0,1,.27.07.44.44,0,0,1,.2.22,1.19,1.19,0,0,1,.13.39,3.34,3.34,0,0,1,0,.59,1.87,1.87,0,0,1-.18.95.5.5,0,0,1-.46.29h-4.48v9.21a5,5,0,0,0,.54,2.58,2,2,0,0,0,1.91.87,3.77,3.77,0,0,0,.79-.08,5.89,5.89,0,0,0,.62-.18l.46-.17a.83.83,0,0,1,.35-.08.41.41,0,0,1,.19,0,.28.28,0,0,1,.13.18,2.45,2.45,0,0,1,.09.35A2.81,2.81,0,0,1,533.38,349.68Z"/><path class="cls-4" d="M552.06,341.92a1.26,1.26,0,0,1-.38,1,1.39,1.39,0,0,1-.87.3H539.33a9.41,9.41,0,0,0,.29,2.47,4.59,4.59,0,0,0,1,1.89,4.4,4.4,0,0,0,1.77,1.21,7.25,7.25,0,0,0,2.67.43,11.36,11.36,0,0,0,2.22-.2,13.55,13.55,0,0,0,1.68-.43c.48-.16.87-.3,1.17-.43a2,2,0,0,1,.69-.19.51.51,0,0,1,.25.06.46.46,0,0,1,.16.2,1.17,1.17,0,0,1,.09.35,4.5,4.5,0,0,1,0,.56c0,.16,0,.3,0,.41a2.4,2.4,0,0,1,0,.32.64.64,0,0,1-.1.24.87.87,0,0,1-.17.22,3.69,3.69,0,0,1-.63.33,10.27,10.27,0,0,1-1.36.45q-.82.21-1.92.39a14.47,14.47,0,0,1-2.34.17,11.64,11.64,0,0,1-3.77-.56,6.83,6.83,0,0,1-4.39-4.5,12.52,12.52,0,0,1-.56-3.92,12,12,0,0,1,.58-3.83,8.05,8.05,0,0,1,1.68-2.88,7.24,7.24,0,0,1,2.65-1.81,8.89,8.89,0,0,1,3.46-.64,8.72,8.72,0,0,1,3.5.63,6.45,6.45,0,0,1,2.37,1.68,6.56,6.56,0,0,1,1.37,2.47,10.34,10.34,0,0,1,.44,3Zm-3.22-.9a5.32,5.32,0,0,0-1.12-3.74,4.37,4.37,0,0,0-3.5-1.36,4.9,4.9,0,0,0-2.09.42,4.68,4.68,0,0,0-1.5,1.12,5.08,5.08,0,0,0-.93,1.62,6.36,6.36,0,0,0-.37,1.94Z"/><path class="cls-4" d="M582.78,350.89a.38.38,0,0,1-.07.24.66.66,0,0,1-.26.18,1.9,1.9,0,0,1-.48.11c-.21,0-.46,0-.78,0s-.58,0-.79,0a2.12,2.12,0,0,1-.49-.11.54.54,0,0,1-.26-.18.33.33,0,0,1-.08-.24v-10a8.59,8.59,0,0,0-.2-1.9,4.18,4.18,0,0,0-.62-1.49,2.74,2.74,0,0,0-1.08-.95,3.44,3.44,0,0,0-1.55-.33,3.74,3.74,0,0,0-2.22.8,15.08,15.08,0,0,0-2.45,2.37v11.54a.38.38,0,0,1-.08.24.6.6,0,0,1-.26.18,2.25,2.25,0,0,1-.49.11c-.21,0-.47,0-.78,0s-.55,0-.76,0a2.33,2.33,0,0,1-.51-.11.56.56,0,0,1-.25-.18.45.45,0,0,1-.07-.24v-10A8,8,0,0,0,568,339a4.6,4.6,0,0,0-.64-1.49,2.79,2.79,0,0,0-1.07-.95,3.41,3.41,0,0,0-1.55-.33,3.78,3.78,0,0,0-2.22.8,14,14,0,0,0-2.44,2.37v11.54a.38.38,0,0,1-.08.24.62.62,0,0,1-.25.18,2.12,2.12,0,0,1-.49.11c-.2,0-.47,0-.79,0s-.57,0-.78,0a2.25,2.25,0,0,1-.49-.11.51.51,0,0,1-.25-.18.38.38,0,0,1-.07-.24V334.38a.49.49,0,0,1,.06-.25.44.44,0,0,1,.23-.18,1.29,1.29,0,0,1,.44-.11,7,7,0,0,1,.72,0,6.88,6.88,0,0,1,.71,0,1.17,1.17,0,0,1,.44.11.58.58,0,0,1,.22.18.49.49,0,0,1,.07.25v2.18a11.11,11.11,0,0,1,2.85-2.28,5.94,5.94,0,0,1,2.8-.73,7.23,7.23,0,0,1,1.95.24,5.27,5.27,0,0,1,1.52.67,4.84,4.84,0,0,1,1.13,1,6.42,6.42,0,0,1,.77,1.33,15.85,15.85,0,0,1,1.66-1.52,8.83,8.83,0,0,1,1.51-1,5.83,5.83,0,0,1,1.41-.56,5.47,5.47,0,0,1,1.39-.18,6.49,6.49,0,0,1,2.83.56,5.17,5.17,0,0,1,1.85,1.5,5.79,5.79,0,0,1,1,2.19,11.39,11.39,0,0,1,.3,2.65Z"/><path class="cls-4" d="M601.75,350.9a.37.37,0,0,1-.15.33,1.14,1.14,0,0,1-.43.17,4,4,0,0,1-.79.06,4.32,4.32,0,0,1-.81-.06.91.91,0,0,1-.43-.17.39.39,0,0,1-.14-.33v-1.65a8.4,8.4,0,0,1-2.55,1.8,7,7,0,0,1-3,.64,8.38,8.38,0,0,1-2.49-.34,5.35,5.35,0,0,1-1.9-1,4.47,4.47,0,0,1-1.22-1.57,5,5,0,0,1-.44-2.13,4.7,4.7,0,0,1,.6-2.42,4.81,4.81,0,0,1,1.73-1.71,8.86,8.86,0,0,1,2.75-1,18.45,18.45,0,0,1,3.66-.34h2.4V339.9a6.15,6.15,0,0,0-.21-1.69,2.82,2.82,0,0,0-.69-1.22,2.88,2.88,0,0,0-1.23-.73,5.85,5.85,0,0,0-1.86-.25,7.68,7.68,0,0,0-2.12.27,11.64,11.64,0,0,0-1.65.58c-.47.22-.86.41-1.18.59a1.64,1.64,0,0,1-.7.27.51.51,0,0,1-.28-.08.72.72,0,0,1-.2-.22,1.06,1.06,0,0,1-.13-.37,4,4,0,0,1,0-.51,3.45,3.45,0,0,1,.06-.72,1.12,1.12,0,0,1,.33-.51,4.82,4.82,0,0,1,.9-.56,9.94,9.94,0,0,1,1.48-.58,12.45,12.45,0,0,1,1.82-.44,12,12,0,0,1,5.19.23,5.21,5.21,0,0,1,2.13,1.18,4.49,4.49,0,0,1,1.18,1.93,8.81,8.81,0,0,1,.37,2.7Zm-3.18-7.53h-2.73a10.8,10.8,0,0,0-2.28.21,4.88,4.88,0,0,0-1.61.62,2.67,2.67,0,0,0-.94,1,2.86,2.86,0,0,0-.3,1.33,2.58,2.58,0,0,0,.86,2.05,3.55,3.55,0,0,0,2.41.76,4.64,4.64,0,0,0,2.34-.61,9.82,9.82,0,0,0,2.25-1.85Z"/><path class="cls-4" d="M631.53,350.89a.43.43,0,0,1-.07.25.39.39,0,0,1-.23.18,2.44,2.44,0,0,1-.44.1,5.79,5.79,0,0,1-.65,0,5.92,5.92,0,0,1-.68,0,3.09,3.09,0,0,1-.45-.1.48.48,0,0,1-.25-.18.44.44,0,0,1-.08-.25V348.7a11.19,11.19,0,0,1-2.86,2.2,6.72,6.72,0,0,1-3.24.79,7,7,0,0,1-3.27-.7,6,6,0,0,1-2.2-1.91,7.85,7.85,0,0,1-1.23-2.82,14.72,14.72,0,0,1-.39-3.43A14.26,14.26,0,0,1,616,339a8.32,8.32,0,0,1,1.44-2.92,6.32,6.32,0,0,1,2.35-1.87,7.73,7.73,0,0,1,3.25-.65,6.1,6.1,0,0,1,2.8.64,9.76,9.76,0,0,1,2.5,1.86v-9.6a.55.55,0,0,1,.07-.24.49.49,0,0,1,.26-.19,3.49,3.49,0,0,1,.5-.11,5.35,5.35,0,0,1,.76,0,5.88,5.88,0,0,1,.8,0,2.67,2.67,0,0,1,.48.11.54.54,0,0,1,.26.19.4.4,0,0,1,.09.24Zm-3.22-11.61a12.16,12.16,0,0,0-2.5-2.32,4.5,4.5,0,0,0-2.53-.8,3.73,3.73,0,0,0-2.08.55,4.26,4.26,0,0,0-1.38,1.45,6.6,6.6,0,0,0-.78,2,11.18,11.18,0,0,0-.24,2.31,15,15,0,0,0,.2,2.44,7.06,7.06,0,0,0,.71,2.12,4.11,4.11,0,0,0,1.34,1.49,3.68,3.68,0,0,0,2.09.56,4.51,4.51,0,0,0,1.23-.17,4.46,4.46,0,0,0,1.21-.55,8.26,8.26,0,0,0,1.3-1,15.24,15.24,0,0,0,1.43-1.51Z"/><path class="cls-4" d="M652.32,341.92a1.26,1.26,0,0,1-.38,1,1.35,1.35,0,0,1-.87.3H639.59a9.85,9.85,0,0,0,.29,2.47,4.61,4.61,0,0,0,1,1.89,4.27,4.27,0,0,0,1.77,1.21,7.16,7.16,0,0,0,2.66.43,11.36,11.36,0,0,0,2.22-.2,14.23,14.23,0,0,0,1.69-.43c.47-.16.86-.3,1.17-.43a1.89,1.89,0,0,1,.69-.19.42.42,0,0,1,.41.26,1.67,1.67,0,0,1,.08.35,4.5,4.5,0,0,1,0,.56,2.49,2.49,0,0,1,0,.41c0,.12,0,.23,0,.32a.87.87,0,0,1-.1.24.92.92,0,0,1-.18.22,3.69,3.69,0,0,1-.63.33,10.07,10.07,0,0,1-1.35.45c-.56.14-1.2.27-1.93.39a14.43,14.43,0,0,1-2.33.17,11.6,11.6,0,0,1-3.77-.56,6.83,6.83,0,0,1-4.39-4.5,12.24,12.24,0,0,1-.56-3.92,11.72,11.72,0,0,1,.58-3.83,8,8,0,0,1,1.67-2.88,7.32,7.32,0,0,1,2.65-1.81,8.94,8.94,0,0,1,3.47-.64,8.67,8.67,0,0,1,3.49.63,6.41,6.41,0,0,1,2.38,1.68,6.54,6.54,0,0,1,1.36,2.47,10.34,10.34,0,0,1,.44,3Zm-3.22-.9a5.27,5.27,0,0,0-1.12-3.74,4.36,4.36,0,0,0-3.5-1.36,4.83,4.83,0,0,0-2.08.42,4.47,4.47,0,0,0-1.5,1.12,4.92,4.92,0,0,0-.94,1.62,6.67,6.67,0,0,0-.37,1.94Z"/><path class="cls-4" d="M679.29,350.9a.36.36,0,0,1-.16.33,1,1,0,0,1-.42.17,4,4,0,0,1-.8.06,4.27,4.27,0,0,1-.8-.06,1,1,0,0,1-.44-.17.39.39,0,0,1-.13-.33v-1.65a8.4,8.4,0,0,1-2.55,1.8,7.05,7.05,0,0,1-3,.64,8.38,8.38,0,0,1-2.49-.34,5.26,5.26,0,0,1-1.9-1,4.47,4.47,0,0,1-1.22-1.57,5,5,0,0,1-.44-2.13,4.7,4.7,0,0,1,.6-2.42,4.81,4.81,0,0,1,1.73-1.71,8.86,8.86,0,0,1,2.75-1,18.38,18.38,0,0,1,3.66-.34h2.4V339.9a6.15,6.15,0,0,0-.21-1.69,2.82,2.82,0,0,0-.69-1.22,3,3,0,0,0-1.23-.73,5.85,5.85,0,0,0-1.86-.25,7.68,7.68,0,0,0-2.12.27,11.21,11.21,0,0,0-1.65.58c-.47.22-.86.41-1.18.59a1.67,1.67,0,0,1-.71.27.5.5,0,0,1-.27-.08.62.62,0,0,1-.2-.22,1.06,1.06,0,0,1-.13-.37,3.91,3.91,0,0,1,0-.51,3.35,3.35,0,0,1,.07-.72,1.12,1.12,0,0,1,.33-.51,4.82,4.82,0,0,1,.9-.56,10.24,10.24,0,0,1,1.47-.58,12.92,12.92,0,0,1,1.83-.44,12,12,0,0,1,5.19.23,5.21,5.21,0,0,1,2.13,1.18,4.49,4.49,0,0,1,1.18,1.93,8.81,8.81,0,0,1,.37,2.7Zm-3.18-7.53h-2.73a11,11,0,0,0-2.29.21,4.9,4.9,0,0,0-1.6.62,2.67,2.67,0,0,0-.94,1,2.86,2.86,0,0,0-.3,1.33,2.58,2.58,0,0,0,.86,2.05,3.55,3.55,0,0,0,2.41.76,4.64,4.64,0,0,0,2.34-.61,10,10,0,0,0,2.25-1.85Z"/><path class="cls-4" d="M696.11,346.39a5,5,0,0,1-.5,2.26,4.69,4.69,0,0,1-1.4,1.67,6.72,6.72,0,0,1-2.17,1,10.51,10.51,0,0,1-2.77.34,11.38,11.38,0,0,1-1.78-.13,12.54,12.54,0,0,1-1.51-.35,8.64,8.64,0,0,1-1.13-.44,3.84,3.84,0,0,1-.68-.41,1.17,1.17,0,0,1-.31-.52,3.49,3.49,0,0,1-.1-.9,4.39,4.39,0,0,1,0-.58,2.18,2.18,0,0,1,.1-.39.37.37,0,0,1,.17-.21.48.48,0,0,1,.24-.07,1.53,1.53,0,0,1,.63.25,10.23,10.23,0,0,0,1,.54,9.84,9.84,0,0,0,1.45.55,6.88,6.88,0,0,0,1.91.24,6.1,6.1,0,0,0,1.48-.16,3.48,3.48,0,0,0,1.14-.49,2.24,2.24,0,0,0,.75-.81,2.57,2.57,0,0,0,.26-1.18,1.85,1.85,0,0,0-.38-1.17,3.54,3.54,0,0,0-1-.85,9,9,0,0,0-1.39-.65l-1.6-.59c-.55-.21-1.09-.45-1.61-.71a6,6,0,0,1-1.4-1,4.25,4.25,0,0,1-1-1.36,4.7,4.7,0,0,1,0-3.75,4.34,4.34,0,0,1,1.19-1.56,6,6,0,0,1,2-1.07,8.61,8.61,0,0,1,2.78-.41,9.3,9.3,0,0,1,1.39.11,11.89,11.89,0,0,1,1.26.28,6.49,6.49,0,0,1,1,.36,3.75,3.75,0,0,1,.6.34.83.83,0,0,1,.27.25.77.77,0,0,1,.1.25c0,.09,0,.2.06.34s0,.3,0,.49,0,.39,0,.55a1.51,1.51,0,0,1-.1.37.46.46,0,0,1-.17.21.31.31,0,0,1-.21.07,1.06,1.06,0,0,1-.5-.21c-.22-.13-.51-.27-.85-.43a11,11,0,0,0-1.24-.43,6.06,6.06,0,0,0-1.61-.2,5.2,5.2,0,0,0-1.44.18,2.72,2.72,0,0,0-1,.49,2.12,2.12,0,0,0-.61.76,2.36,2.36,0,0,0-.2,1,1.88,1.88,0,0,0,.39,1.2,3.56,3.56,0,0,0,1,.85,9.27,9.27,0,0,0,1.41.66l1.62.61c.55.2,1.09.44,1.63.69a6.15,6.15,0,0,1,1.42.94,4.23,4.23,0,0,1,1,1.32A4.12,4.12,0,0,1,696.11,346.39Z"/><path class="cls-4" d="M704.24,328.8a2,2,0,0,1-.42,1.45,2.38,2.38,0,0,1-1.57.39,2.35,2.35,0,0,1-1.54-.38,1.87,1.87,0,0,1-.42-1.42,1.9,1.9,0,0,1,.43-1.45,3.33,3.33,0,0,1,3.11,0A1.88,1.88,0,0,1,704.24,328.8Zm-.36,22.09a.38.38,0,0,1-.08.24.62.62,0,0,1-.25.18,2.12,2.12,0,0,1-.49.11c-.2,0-.47,0-.79,0s-.57,0-.78,0a2.25,2.25,0,0,1-.49-.11.51.51,0,0,1-.25-.18.38.38,0,0,1-.07-.24V334.38a.4.4,0,0,1,.07-.24A.51.51,0,0,1,701,334a1.79,1.79,0,0,1,.49-.11,7.72,7.72,0,0,1,1.57,0,1.7,1.7,0,0,1,.49.11.62.62,0,0,1,.25.18.41.41,0,0,1,.08.24Z"/><path class="cls-4" d="M724.35,335.13a1.81,1.81,0,0,1-.18.93.54.54,0,0,1-.48.28H721.2a3.83,3.83,0,0,1,.95,1.46,5.11,5.11,0,0,1,.27,1.66,6.27,6.27,0,0,1-.49,2.53,5.09,5.09,0,0,1-1.38,1.86,6.33,6.33,0,0,1-2.14,1.17,8.89,8.89,0,0,1-2.76.4,7.41,7.41,0,0,1-2-.27,4.17,4.17,0,0,1-1.48-.67,3.22,3.22,0,0,0-.57.76,2,2,0,0,0-.23,1,1.24,1.24,0,0,0,.63,1.06,3.15,3.15,0,0,0,1.68.46l4.55.19a9.85,9.85,0,0,1,2.39.33,6.09,6.09,0,0,1,1.87.87,4,4,0,0,1,1.24,1.37,3.9,3.9,0,0,1,.45,1.9,5,5,0,0,1-.5,2.17,5.12,5.12,0,0,1-1.54,1.8,8,8,0,0,1-2.65,1.23,14.19,14.19,0,0,1-3.8.45,16.14,16.14,0,0,1-3.59-.34,8.12,8.12,0,0,1-2.43-.92,3.54,3.54,0,0,1-1.8-3.18,4.58,4.58,0,0,1,.15-1.17,4,4,0,0,1,.48-1.08,5.12,5.12,0,0,1,.79-1,9.54,9.54,0,0,1,1.1-.92,3.32,3.32,0,0,1-1.41-1.16,2.69,2.69,0,0,1-.45-1.5,4.11,4.11,0,0,1,.48-2,6.6,6.6,0,0,1,1.2-1.58,5.24,5.24,0,0,1-1-1.53,5.51,5.51,0,0,1-.35-2.06,6.06,6.06,0,0,1,.51-2.54,5.33,5.33,0,0,1,1.39-1.88,6.27,6.27,0,0,1,2.14-1.19,8.81,8.81,0,0,1,2.72-.41,13.82,13.82,0,0,1,1.49.08,11.47,11.47,0,0,1,1.29.23h5.26a.54.54,0,0,1,.5.3A2,2,0,0,1,724.35,335.13ZM721,352.56a1.84,1.84,0,0,0-.92-1.65,4.86,4.86,0,0,0-2.49-.61l-4.51-.15a9.87,9.87,0,0,0-1,.87,5.71,5.71,0,0,0-.63.79,2.69,2.69,0,0,0-.32.75,3.08,3.08,0,0,0-.08.75,1.94,1.94,0,0,0,1.27,1.8,8.44,8.44,0,0,0,3.57.62,9.26,9.26,0,0,0,2.43-.27,4.73,4.73,0,0,0,1.58-.7,2.62,2.62,0,0,0,.86-1A2.75,2.75,0,0,0,721,352.56Zm-1.6-13.08a3.48,3.48,0,0,0-1-2.63,3.86,3.86,0,0,0-2.78-1,4.22,4.22,0,0,0-1.62.29,3.19,3.19,0,0,0-1.14.81,3.31,3.31,0,0,0-.68,1.18,4.43,4.43,0,0,0-.22,1.41,3.4,3.4,0,0,0,1,2.57,3.84,3.84,0,0,0,2.74.93,4.32,4.32,0,0,0,1.65-.28,3.1,3.1,0,0,0,1.15-.79,3.27,3.27,0,0,0,.68-1.17A4.24,4.24,0,0,0,719.36,339.48Z"/><path class="cls-4" d="M743.48,350.89a.38.38,0,0,1-.08.24.62.62,0,0,1-.25.18,2.12,2.12,0,0,1-.49.11,7.64,7.64,0,0,1-.77,0c-.32,0-.59,0-.8,0a2.14,2.14,0,0,1-.48-.11.56.56,0,0,1-.25-.18.38.38,0,0,1-.08-.24v-9.67a9.21,9.21,0,0,0-.23-2.27,4.64,4.64,0,0,0-.68-1.49,2.88,2.88,0,0,0-1.15-.95,3.84,3.84,0,0,0-1.64-.33,4.25,4.25,0,0,0-2.4.8,12.85,12.85,0,0,0-2.52,2.37v11.54a.38.38,0,0,1-.08.24.56.56,0,0,1-.25.18,2.14,2.14,0,0,1-.48.11c-.21,0-.48,0-.8,0a7.64,7.64,0,0,1-.77,0,2.22,2.22,0,0,1-.5-.11.51.51,0,0,1-.25-.18.38.38,0,0,1-.07-.24V334.38a.42.42,0,0,1,.29-.43,1.35,1.35,0,0,1,.45-.11,8.42,8.42,0,0,1,1.42,0,1.17,1.17,0,0,1,.44.11.51.51,0,0,1,.22.18.41.41,0,0,1,.07.25v2.18a10.57,10.57,0,0,1,2.93-2.28,6.53,6.53,0,0,1,3-.73,6.9,6.9,0,0,1,2.93.56,5.21,5.21,0,0,1,1.93,1.5,5.88,5.88,0,0,1,1.06,2.19,12.54,12.54,0,0,1,.32,3Z"/><path class="cls-4" d="M762.44,350.9a.37.37,0,0,1-.15.33,1.07,1.07,0,0,1-.43.17,3.88,3.88,0,0,1-.79.06,4.2,4.2,0,0,1-.8-.06,1,1,0,0,1-.44-.17.39.39,0,0,1-.14-.33v-1.65a8.49,8.49,0,0,1-2.54,1.8,7.07,7.07,0,0,1-3,.64,8.38,8.38,0,0,1-2.49-.34,5.43,5.43,0,0,1-1.9-1,4.47,4.47,0,0,1-1.22-1.57,5,5,0,0,1-.43-2.13,4.7,4.7,0,0,1,.6-2.42,4.78,4.78,0,0,1,1.72-1.71,9,9,0,0,1,2.75-1,18.53,18.53,0,0,1,3.66-.34h2.41V339.9a5.77,5.77,0,0,0-.22-1.69,2.91,2.91,0,0,0-.68-1.22,3,3,0,0,0-1.23-.73,5.94,5.94,0,0,0-1.86-.25,7.75,7.75,0,0,0-2.13.27,11.48,11.48,0,0,0-1.64.58c-.47.22-.87.41-1.18.59a1.72,1.72,0,0,1-.71.27.48.48,0,0,1-.27-.08.64.64,0,0,1-.21-.22,1.07,1.07,0,0,1-.12-.37,2.71,2.71,0,0,1,0-.51,2.81,2.81,0,0,1,.07-.72,1,1,0,0,1,.33-.51,4.21,4.21,0,0,1,.9-.56,9.38,9.38,0,0,1,1.47-.58,12.77,12.77,0,0,1,1.82-.44,11.19,11.19,0,0,1,2-.18,10.89,10.89,0,0,1,3.19.41,5.32,5.32,0,0,1,2.14,1.18,4.58,4.58,0,0,1,1.18,1.93,9.15,9.15,0,0,1,.36,2.7Zm-3.17-7.53h-2.73a11,11,0,0,0-2.29.21,5,5,0,0,0-1.61.62,2.67,2.67,0,0,0-.94,1,2.86,2.86,0,0,0-.3,1.33,2.61,2.61,0,0,0,.86,2.05,3.58,3.58,0,0,0,2.42.76,4.61,4.61,0,0,0,2.33-.61,9.84,9.84,0,0,0,2.26-1.85Z"/><path class="cls-4" d="M780.85,348.37c0,.21,0,.39,0,.54a1.3,1.3,0,0,1-.07.39,1.38,1.38,0,0,1-.11.27,2,2,0,0,1-.31.35,4.09,4.09,0,0,1-.83.57,7.84,7.84,0,0,1-1.3.61,10.1,10.1,0,0,1-1.58.43,9.32,9.32,0,0,1-1.77.16,8.87,8.87,0,0,1-3.33-.58,6.26,6.26,0,0,1-2.43-1.72,7.59,7.59,0,0,1-1.49-2.77,12.73,12.73,0,0,1-.51-3.79,12.46,12.46,0,0,1,.62-4.19,7.92,7.92,0,0,1,1.73-2.87,6.9,6.9,0,0,1,2.58-1.66,9.23,9.23,0,0,1,3.2-.54,8.56,8.56,0,0,1,1.62.15,9.43,9.43,0,0,1,1.44.38,7.61,7.61,0,0,1,1.18.55,4.31,4.31,0,0,1,.74.54,2.22,2.22,0,0,1,.32.34,1.28,1.28,0,0,1,.15.31,1.43,1.43,0,0,1,.07.39,4.45,4.45,0,0,1,0,.55,2,2,0,0,1-.17,1,.51.51,0,0,1-.43.29,1.2,1.2,0,0,1-.67-.31c-.25-.2-.57-.42-1-.67a8.47,8.47,0,0,0-1.41-.67,5.71,5.71,0,0,0-1.95-.3,4.11,4.11,0,0,0-3.53,1.68,8.16,8.16,0,0,0-1.23,4.87,10.68,10.68,0,0,0,.32,2.8,5.51,5.51,0,0,0,.94,2,4,4,0,0,0,1.52,1.2,5.15,5.15,0,0,0,2.06.39,5.26,5.26,0,0,0,1.94-.33,8.78,8.78,0,0,0,1.44-.72c.41-.27.75-.5,1-.72a1.26,1.26,0,0,1,.65-.32.35.35,0,0,1,.23.07.72.72,0,0,1,.17.25,2.11,2.11,0,0,1,.09.44A5.78,5.78,0,0,1,780.85,348.37Z"/><path class="cls-4" d="M788.66,328.8a1.9,1.9,0,0,1-.43,1.45,3.33,3.33,0,0,1-3.11,0,1.91,1.91,0,0,1-.41-1.42,2,2,0,0,1,.42-1.45,2.38,2.38,0,0,1,1.57-.39,2.35,2.35,0,0,1,1.54.38A1.88,1.88,0,0,1,788.66,328.8Zm-.37,22.09a.38.38,0,0,1-.08.24.56.56,0,0,1-.25.18,2,2,0,0,1-.48.11c-.21,0-.47,0-.8,0a7.64,7.64,0,0,1-.77,0,2.36,2.36,0,0,1-.5-.11.56.56,0,0,1-.25-.18.45.45,0,0,1-.07-.24V334.38a.48.48,0,0,1,.07-.24.56.56,0,0,1,.25-.18,1.87,1.87,0,0,1,.5-.11,5.5,5.5,0,0,1,.77,0,5.88,5.88,0,0,1,.8,0,1.62,1.62,0,0,1,.48.11.56.56,0,0,1,.25.18.41.41,0,0,1,.08.24Z"/><path class="cls-4" d="M810.42,342.45a11.59,11.59,0,0,1-.57,3.71,8.07,8.07,0,0,1-1.67,2.93,7.56,7.56,0,0,1-2.79,1.92,10.35,10.35,0,0,1-3.89.68,10.69,10.69,0,0,1-3.75-.6,6.85,6.85,0,0,1-2.66-1.76,7.39,7.39,0,0,1-1.59-2.81,12.34,12.34,0,0,1-.52-3.74,11.84,11.84,0,0,1,.55-3.71,7.85,7.85,0,0,1,1.67-2.93,7.46,7.46,0,0,1,2.78-1.91,11.64,11.64,0,0,1,7.64-.07,6.78,6.78,0,0,1,2.66,1.76,7.4,7.4,0,0,1,1.6,2.81A11.93,11.93,0,0,1,810.42,342.45Zm-3.32.2a12,12,0,0,0-.26-2.53A6.15,6.15,0,0,0,806,338a4.21,4.21,0,0,0-1.64-1.42,5.67,5.67,0,0,0-2.58-.53,5.77,5.77,0,0,0-2.46.48,4.48,4.48,0,0,0-1.69,1.35,6.07,6.07,0,0,0-1,2.06,10.25,10.25,0,0,0-.32,2.61,11.59,11.59,0,0,0,.27,2.55,5.74,5.74,0,0,0,.88,2.08,4.38,4.38,0,0,0,1.65,1.41,5.67,5.67,0,0,0,2.58.52,5.9,5.9,0,0,0,2.44-.47,4.51,4.51,0,0,0,1.7-1.34,5.63,5.63,0,0,0,1-2.06A10.18,10.18,0,0,0,807.1,342.65Zm-3.81-16.34a.89.89,0,0,1,.27-.33.92.92,0,0,1,.38-.2,2.31,2.31,0,0,1,.55-.11,6,6,0,0,1,.79,0,5.18,5.18,0,0,1,.88.06,1.1,1.1,0,0,1,.48.19.28.28,0,0,1,.11.27.56.56,0,0,1-.17.32l-3.51,4.28a2,2,0,0,1-.28.29.92.92,0,0,1-.29.17,1.43,1.43,0,0,1-.43.1l-.64,0a3.14,3.14,0,0,1-.68-.05.88.88,0,0,1-.36-.15.24.24,0,0,1-.08-.24,1.21,1.21,0,0,1,.17-.35Z"/><path class="cls-4" d="M830.14,350.89a.38.38,0,0,1-.08.24.56.56,0,0,1-.25.18,2.14,2.14,0,0,1-.48.11c-.21,0-.47,0-.78,0s-.59,0-.79,0a2.12,2.12,0,0,1-.49-.11.62.62,0,0,1-.25-.18.38.38,0,0,1-.08-.24v-9.67a9.21,9.21,0,0,0-.23-2.27,4.44,4.44,0,0,0-.68-1.49,2.81,2.81,0,0,0-1.15-.95,3.84,3.84,0,0,0-1.64-.33,4.25,4.25,0,0,0-2.4.8,12.85,12.85,0,0,0-2.52,2.37v11.54a.38.38,0,0,1-.08.24.56.56,0,0,1-.25.18,2,2,0,0,1-.48.11c-.21,0-.47,0-.8,0a7.64,7.64,0,0,1-.77,0,2.36,2.36,0,0,1-.5-.11.56.56,0,0,1-.25-.18.45.45,0,0,1-.07-.24V334.38a.42.42,0,0,1,.29-.43,1.35,1.35,0,0,1,.45-.11,6.83,6.83,0,0,1,.72,0,6.67,6.67,0,0,1,.7,0,1.12,1.12,0,0,1,.44.11.51.51,0,0,1,.22.18.41.41,0,0,1,.07.25v2.18a10.46,10.46,0,0,1,2.94-2.28,6.49,6.49,0,0,1,2.95-.73,7,7,0,0,1,2.94.56,5.25,5.25,0,0,1,1.92,1.5,5.73,5.73,0,0,1,1.06,2.19,12.54,12.54,0,0,1,.32,3Z"/><path class="cls-4" d="M859.88,350.89a.43.43,0,0,1-.07.25.39.39,0,0,1-.23.18,2.66,2.66,0,0,1-.44.1,5.55,5.55,0,0,1-1.33,0,3.09,3.09,0,0,1-.45-.1.44.44,0,0,1-.25-.18.44.44,0,0,1-.08-.25V348.7a11.37,11.37,0,0,1-2.86,2.2,6.72,6.72,0,0,1-3.24.79,7.06,7.06,0,0,1-3.28-.7,6.16,6.16,0,0,1-2.2-1.91,8.22,8.22,0,0,1-1.23-2.82,15.28,15.28,0,0,1-.38-3.43,14.26,14.26,0,0,1,.48-3.84,8.15,8.15,0,0,1,1.44-2.92,6.32,6.32,0,0,1,2.35-1.87,7.71,7.71,0,0,1,3.24-.65,6.07,6.07,0,0,1,2.8.64,9.63,9.63,0,0,1,2.51,1.86v-9.6a.55.55,0,0,1,.07-.24A.49.49,0,0,1,857,326a3.49,3.49,0,0,1,.5-.11,5.35,5.35,0,0,1,.76,0,6,6,0,0,1,.8,0,2.89,2.89,0,0,1,.48.11.59.59,0,0,1,.26.19.4.4,0,0,1,.09.24Zm-3.22-11.61a11.93,11.93,0,0,0-2.51-2.32,4.45,4.45,0,0,0-2.52-.8,3.73,3.73,0,0,0-2.08.55,4.17,4.17,0,0,0-1.38,1.45,6.6,6.6,0,0,0-.78,2,11.18,11.18,0,0,0-.24,2.31,15,15,0,0,0,.2,2.44,7.06,7.06,0,0,0,.71,2.12,4.11,4.11,0,0,0,1.34,1.49,3.68,3.68,0,0,0,2.09.56,4.51,4.51,0,0,0,1.23-.17,4.61,4.61,0,0,0,1.21-.55,8.74,8.74,0,0,0,1.3-1,15.24,15.24,0,0,0,1.43-1.51Z"/><path class="cls-4" d="M880.67,341.92a1.26,1.26,0,0,1-.38,1,1.35,1.35,0,0,1-.87.3H867.94a9.85,9.85,0,0,0,.29,2.47,4.72,4.72,0,0,0,1,1.89,4.37,4.37,0,0,0,1.78,1.21,7.16,7.16,0,0,0,2.66.43,11.36,11.36,0,0,0,2.22-.2,14.23,14.23,0,0,0,1.69-.43c.47-.16.86-.3,1.17-.43a1.89,1.89,0,0,1,.69-.19.42.42,0,0,1,.41.26,1.67,1.67,0,0,1,.08.35,4.5,4.5,0,0,1,0,.56,2.49,2.49,0,0,1,0,.41,2.4,2.4,0,0,1,0,.32.63.63,0,0,1-.09.24,1.24,1.24,0,0,1-.18.22,3.69,3.69,0,0,1-.63.33,10.58,10.58,0,0,1-1.35.45c-.56.14-1.2.27-1.93.39a14.43,14.43,0,0,1-2.33.17,11.56,11.56,0,0,1-3.77-.56,6.83,6.83,0,0,1-4.39-4.5,12.24,12.24,0,0,1-.56-3.92,11.72,11.72,0,0,1,.58-3.83,8,8,0,0,1,1.67-2.88,7.24,7.24,0,0,1,2.65-1.81,8.94,8.94,0,0,1,3.47-.64,8.67,8.67,0,0,1,3.49.63,6.41,6.41,0,0,1,2.38,1.68,6.54,6.54,0,0,1,1.36,2.47,10.34,10.34,0,0,1,.44,3Zm-3.22-.9a5.27,5.27,0,0,0-1.12-3.74,4.36,4.36,0,0,0-3.5-1.36,4.83,4.83,0,0,0-2.08.42,4.47,4.47,0,0,0-1.5,1.12,4.92,4.92,0,0,0-.94,1.62,6.67,6.67,0,0,0-.37,1.94Z"/><path class="cls-4" d="M494.44,393.45c0,.21,0,.39,0,.54a2.53,2.53,0,0,1-.07.39,1.11,1.11,0,0,1-.12.27,1.61,1.61,0,0,1-.31.35,4,4,0,0,1-.82.57,8,8,0,0,1-1.31.61,11,11,0,0,1-1.58.43,9.22,9.22,0,0,1-1.76.16,8.87,8.87,0,0,1-3.33-.58,6.37,6.37,0,0,1-2.43-1.72,7.6,7.6,0,0,1-1.5-2.77,12.78,12.78,0,0,1-.51-3.79,12.44,12.44,0,0,1,.63-4.19,7.82,7.82,0,0,1,1.72-2.87,6.9,6.9,0,0,1,2.58-1.66,9.32,9.32,0,0,1,3.21-.54,8.72,8.72,0,0,1,1.62.15,9.43,9.43,0,0,1,1.44.38,7.08,7.08,0,0,1,1.17.55,5.89,5.89,0,0,1,.75.53,3.79,3.79,0,0,1,.32.35,1.8,1.8,0,0,1,.14.31,1.41,1.41,0,0,1,.08.39c0,.15,0,.33,0,.55a2,2,0,0,1-.18,1,.48.48,0,0,1-.42.28,1.12,1.12,0,0,1-.67-.3,11.59,11.59,0,0,0-1-.67,8,8,0,0,0-1.4-.67,5.71,5.71,0,0,0-2-.3,4.12,4.12,0,0,0-3.54,1.68,8.16,8.16,0,0,0-1.23,4.87,11.17,11.17,0,0,0,.32,2.8,5.71,5.71,0,0,0,.94,2,4,4,0,0,0,1.52,1.21,5.75,5.75,0,0,0,4,.06,8.51,8.51,0,0,0,1.45-.72c.4-.27.75-.51,1-.72a1.3,1.3,0,0,1,.65-.32.4.4,0,0,1,.24.07.63.63,0,0,1,.16.25,1.59,1.59,0,0,1,.1.44A5.78,5.78,0,0,1,494.44,393.45Z"/><path class="cls-4" d="M511.49,396a.38.38,0,0,1-.16.33,1,1,0,0,1-.43.17,4,4,0,0,1-.79,0,4.34,4.34,0,0,1-.8,0,1,1,0,0,1-.44-.17.39.39,0,0,1-.14-.33v-1.65a8.67,8.67,0,0,1-2.54,1.8,7.07,7.07,0,0,1-3,.64,8.47,8.47,0,0,1-2.49-.34,5.43,5.43,0,0,1-1.9-1,4.42,4.42,0,0,1-1.22-1.58,5,5,0,0,1-.43-2.12,4.7,4.7,0,0,1,.6-2.42,4.78,4.78,0,0,1,1.72-1.71,9,9,0,0,1,2.75-1,18.56,18.56,0,0,1,3.67-.34h2.4V385a6.15,6.15,0,0,0-.21-1.69,3,3,0,0,0-.69-1.22,3,3,0,0,0-1.23-.73,5.94,5.94,0,0,0-1.86-.25,7.63,7.63,0,0,0-2.12.27,11.21,11.21,0,0,0-1.65.58c-.47.22-.87.41-1.18.59a1.67,1.67,0,0,1-.71.27.5.5,0,0,1-.27-.08.54.54,0,0,1-.2-.22,1,1,0,0,1-.13-.37,2.71,2.71,0,0,1,0-.51,2.76,2.76,0,0,1,.07-.72,1,1,0,0,1,.33-.51,4.21,4.21,0,0,1,.9-.56,9.79,9.79,0,0,1,1.47-.58,12.77,12.77,0,0,1,1.82-.44,11.19,11.19,0,0,1,2-.18,10.89,10.89,0,0,1,3.19.41,5.2,5.2,0,0,1,2.14,1.18,4.58,4.58,0,0,1,1.18,1.93,9.08,9.08,0,0,1,.37,2.7Zm-3.18-7.54h-2.73a10.91,10.91,0,0,0-2.29.22,4.75,4.75,0,0,0-1.61.62,2.76,2.76,0,0,0-.94,1,2.86,2.86,0,0,0-.3,1.33,2.61,2.61,0,0,0,.86,2,3.58,3.58,0,0,0,2.42.76,4.71,4.71,0,0,0,2.33-.61,9.84,9.84,0,0,0,2.26-1.85Z"/><path class="cls-4" d="M543.22,396a.38.38,0,0,1-.08.24.56.56,0,0,1-.25.18,2,2,0,0,1-.48.11q-.31,0-.78,0c-.32,0-.59,0-.79,0a2.36,2.36,0,0,1-.5-.11.6.6,0,0,1-.26-.18A.38.38,0,0,1,540,396v-10a8.55,8.55,0,0,0-.19-1.9,4.29,4.29,0,0,0-.62-1.49,2.81,2.81,0,0,0-1.08-1,3.31,3.31,0,0,0-1.55-.33,3.74,3.74,0,0,0-2.22.8,14.69,14.69,0,0,0-2.45,2.37V396a.38.38,0,0,1-.08.24.6.6,0,0,1-.26.18,2.36,2.36,0,0,1-.5.11c-.2,0-.46,0-.77,0s-.55,0-.77,0a2.22,2.22,0,0,1-.5-.11.51.51,0,0,1-.25-.18.38.38,0,0,1-.07-.24v-10a8,8,0,0,0-.21-1.9,4.72,4.72,0,0,0-.64-1.49,2.89,2.89,0,0,0-1.08-1,3.21,3.21,0,0,0-1.54-.33,3.81,3.81,0,0,0-2.23.8,14.3,14.3,0,0,0-2.44,2.37V396a.38.38,0,0,1-.07.24.66.66,0,0,1-.26.18,2,2,0,0,1-.48.11c-.21,0-.47,0-.8,0s-.56,0-.77,0a2.12,2.12,0,0,1-.49-.11.54.54,0,0,1-.26-.18.45.45,0,0,1-.06-.24V379.46a.49.49,0,0,1,0-.25.47.47,0,0,1,.24-.18,1.23,1.23,0,0,1,.44-.11,6.83,6.83,0,0,1,.72,0,7,7,0,0,1,.71,0,1.12,1.12,0,0,1,.43.11.46.46,0,0,1,.22.18.41.41,0,0,1,.07.25v2.18a11.14,11.14,0,0,1,2.86-2.28,5.91,5.91,0,0,1,2.8-.73,7.33,7.33,0,0,1,2,.24,5.39,5.39,0,0,1,1.52.67,4.6,4.6,0,0,1,1.12,1,5.81,5.81,0,0,1,.78,1.33,18.47,18.47,0,0,1,1.65-1.53,10.33,10.33,0,0,1,1.51-1,6.06,6.06,0,0,1,1.42-.56,5.45,5.45,0,0,1,1.38-.18,6.43,6.43,0,0,1,2.83.56,5.09,5.09,0,0,1,1.85,1.5,5.81,5.81,0,0,1,1,2.19,11.39,11.39,0,0,1,.3,2.65Z"/><path class="cls-4" d="M562.19,396a.36.36,0,0,1-.16.33,1,1,0,0,1-.42.17,4.14,4.14,0,0,1-.8,0,4.4,4.4,0,0,1-.8,0,1,1,0,0,1-.44-.17.39.39,0,0,1-.13-.33v-1.65a8.58,8.58,0,0,1-2.55,1.8,7.05,7.05,0,0,1-3,.64,8.38,8.38,0,0,1-2.49-.34,5.26,5.26,0,0,1-1.9-1,4.31,4.31,0,0,1-1.22-1.58,5,5,0,0,1-.44-2.12,4.7,4.7,0,0,1,.6-2.42,4.81,4.81,0,0,1,1.73-1.71,8.77,8.77,0,0,1,2.75-1,18.38,18.38,0,0,1,3.66-.34H559V385a6.15,6.15,0,0,0-.21-1.69,2.82,2.82,0,0,0-.69-1.22,3,3,0,0,0-1.23-.73,5.85,5.85,0,0,0-1.86-.25,7.68,7.68,0,0,0-2.12.27,11.21,11.21,0,0,0-1.65.58c-.47.22-.86.41-1.18.59a1.67,1.67,0,0,1-.71.27.5.5,0,0,1-.27-.08.62.62,0,0,1-.2-.22,1.15,1.15,0,0,1-.13-.37,3.91,3.91,0,0,1,0-.51,3.28,3.28,0,0,1,.07-.72,1.12,1.12,0,0,1,.33-.51,4.49,4.49,0,0,1,.9-.56,10.24,10.24,0,0,1,1.47-.58,12.92,12.92,0,0,1,1.83-.44,12,12,0,0,1,5.19.23,5.1,5.1,0,0,1,2.13,1.18,4.58,4.58,0,0,1,1.18,1.93,8.77,8.77,0,0,1,.37,2.7ZM559,388.44h-2.73a10.91,10.91,0,0,0-2.29.22,4.69,4.69,0,0,0-1.6.62,2.67,2.67,0,0,0-.94,1,2.75,2.75,0,0,0-.3,1.33,2.58,2.58,0,0,0,.86,2,3.55,3.55,0,0,0,2.41.76,4.68,4.68,0,0,0,2.33-.61A9.84,9.84,0,0,0,559,392Z"/><path class="cls-4" d="M579,391.47a5,5,0,0,1-.5,2.26,4.78,4.78,0,0,1-1.4,1.67,6.5,6.5,0,0,1-2.17,1,10.1,10.1,0,0,1-2.77.35,11.38,11.38,0,0,1-1.78-.13,12.54,12.54,0,0,1-1.51-.35,8.64,8.64,0,0,1-1.13-.44,3.27,3.27,0,0,1-.68-.42,1.08,1.08,0,0,1-.31-.51,3.49,3.49,0,0,1-.1-.9,4.69,4.69,0,0,1,0-.59,2.28,2.28,0,0,1,.1-.38.37.37,0,0,1,.17-.21.48.48,0,0,1,.24-.07,1.53,1.53,0,0,1,.63.25,10.23,10.23,0,0,0,1,.54,8.87,8.87,0,0,0,1.45.54,6.53,6.53,0,0,0,1.92.25,6.08,6.08,0,0,0,1.47-.16,3.7,3.7,0,0,0,1.14-.49,2.27,2.27,0,0,0,.75-.82,2.52,2.52,0,0,0,.26-1.17,1.83,1.83,0,0,0-.38-1.17,3.54,3.54,0,0,0-1-.85,9,9,0,0,0-1.39-.65l-1.6-.6a15.35,15.35,0,0,1-1.61-.7,6.31,6.31,0,0,1-1.4-1,4.18,4.18,0,0,1-1.38-3.25,4.41,4.41,0,0,1,.4-1.86,4.25,4.25,0,0,1,1.19-1.56,5.81,5.81,0,0,1,2-1.07,8.61,8.61,0,0,1,2.78-.41,9.3,9.3,0,0,1,1.39.11,10.87,10.87,0,0,1,1.26.28,8,8,0,0,1,1,.35,6.39,6.39,0,0,1,.6.34,1,1,0,0,1,.27.26.69.69,0,0,1,.1.25c0,.09,0,.2.06.34a3.55,3.55,0,0,1,0,.49,4.36,4.36,0,0,1,0,.54,1.48,1.48,0,0,1-.1.38.46.46,0,0,1-.17.21.38.38,0,0,1-.21.07,1.06,1.06,0,0,1-.5-.21c-.22-.13-.51-.27-.85-.43a11.5,11.5,0,0,0-1.23-.43,6.19,6.19,0,0,0-1.62-.2,5.63,5.63,0,0,0-1.44.17,2.89,2.89,0,0,0-1,.5,2,2,0,0,0-.6.76,2.17,2.17,0,0,0-.21.95,1.89,1.89,0,0,0,.39,1.21,3.73,3.73,0,0,0,1,.85,9.27,9.27,0,0,0,1.41.66l1.62.6c.55.21,1.09.44,1.63.7a6.15,6.15,0,0,1,1.42.94,4,4,0,0,1,1.38,3.15Z"/><path class="cls-4" d="M608.59,387.45a14.08,14.08,0,0,1-.49,3.89,8.31,8.31,0,0,1-1.46,2.93,6.42,6.42,0,0,1-2.37,1.85,7.56,7.56,0,0,1-3.24.65,7.15,7.15,0,0,1-1.43-.14,5.69,5.69,0,0,1-1.29-.46,7.85,7.85,0,0,1-1.25-.79c-.41-.32-.85-.69-1.31-1.12v8.25a.45.45,0,0,1-.08.26.54.54,0,0,1-.25.18,1.7,1.7,0,0,1-.49.11,7.72,7.72,0,0,1-1.57,0,1.79,1.79,0,0,1-.49-.11.45.45,0,0,1-.25-.18.44.44,0,0,1-.07-.26V379.46a.54.54,0,0,1,.06-.27.43.43,0,0,1,.23-.17,1.59,1.59,0,0,1,.44-.1,6.38,6.38,0,0,1,.66,0,5.94,5.94,0,0,1,.67,0,1.59,1.59,0,0,1,.44.1.57.57,0,0,1,.24.17.45.45,0,0,1,.07.27v2.22a17.44,17.44,0,0,1,1.53-1.34,9,9,0,0,1,1.48-.95,6.82,6.82,0,0,1,3.19-.76,6.85,6.85,0,0,1,3.23.7,5.84,5.84,0,0,1,2.18,1.91,8.25,8.25,0,0,1,1.23,2.81A14.4,14.4,0,0,1,608.59,387.45Zm-3.31.35a13.85,13.85,0,0,0-.21-2.44,6.81,6.81,0,0,0-.7-2.11,3.91,3.91,0,0,0-1.33-1.46,3.72,3.72,0,0,0-2.09-.55,4.25,4.25,0,0,0-1.23.17,5.49,5.49,0,0,0-1.23.55,8.63,8.63,0,0,0-1.3,1,14.35,14.35,0,0,0-1.44,1.52V391a13.41,13.41,0,0,0,2.51,2.33,4.37,4.37,0,0,0,2.5.81,3.85,3.85,0,0,0,2.07-.55,4.32,4.32,0,0,0,1.41-1.47,7.41,7.41,0,0,0,.79-2A11.17,11.17,0,0,0,605.28,387.8Z"/><path class="cls-4" d="M626.53,396a.37.37,0,0,1-.15.33,1.14,1.14,0,0,1-.43.17,4.09,4.09,0,0,1-.79,0,4.46,4.46,0,0,1-.81,0,.91.91,0,0,1-.43-.17.39.39,0,0,1-.14-.33v-1.65a8.58,8.58,0,0,1-2.55,1.8,7,7,0,0,1-3,.64,8.38,8.38,0,0,1-2.49-.34,5.35,5.35,0,0,1-1.9-1,4.42,4.42,0,0,1-1.22-1.58,5,5,0,0,1-.44-2.12,4.7,4.7,0,0,1,.6-2.42,4.81,4.81,0,0,1,1.73-1.71,8.86,8.86,0,0,1,2.75-1,18.45,18.45,0,0,1,3.66-.34h2.4V385a6.15,6.15,0,0,0-.21-1.69,2.82,2.82,0,0,0-.69-1.22,2.88,2.88,0,0,0-1.23-.73,5.85,5.85,0,0,0-1.86-.25,7.68,7.68,0,0,0-2.12.27,11.64,11.64,0,0,0-1.65.58c-.47.22-.86.41-1.18.59a1.64,1.64,0,0,1-.7.27.51.51,0,0,1-.28-.08.72.72,0,0,1-.2-.22,1,1,0,0,1-.12-.37,2.71,2.71,0,0,1,0-.51,3.39,3.39,0,0,1,.06-.72,1.12,1.12,0,0,1,.33-.51,4.82,4.82,0,0,1,.9-.56,9.94,9.94,0,0,1,1.48-.58,12.45,12.45,0,0,1,1.82-.44,12,12,0,0,1,5.19.23,5.1,5.1,0,0,1,2.13,1.18,4.49,4.49,0,0,1,1.18,1.93,8.77,8.77,0,0,1,.37,2.7Zm-3.18-7.54h-2.73a10.74,10.74,0,0,0-2.28.22,4.67,4.67,0,0,0-1.61.62,2.67,2.67,0,0,0-.94,1,2.86,2.86,0,0,0-.3,1.33,2.61,2.61,0,0,0,.86,2,3.55,3.55,0,0,0,2.41.76,4.75,4.75,0,0,0,2.34-.61,9.82,9.82,0,0,0,2.25-1.85Z"/><path class="cls-4" d="M642.59,380.54c0,.27,0,.49,0,.68a1.47,1.47,0,0,1-.07.43.7.7,0,0,1-.15.24.36.36,0,0,1-.24.08,1.29,1.29,0,0,1-.38-.08l-.5-.17-.63-.15a3.62,3.62,0,0,0-.76-.08,2.64,2.64,0,0,0-1,.19,3.81,3.81,0,0,0-1,.6,7.77,7.77,0,0,0-1.07,1.12c-.38.47-.79,1-1.24,1.71V396a.38.38,0,0,1-.08.24.56.56,0,0,1-.25.18,2.14,2.14,0,0,1-.48.11c-.21,0-.48,0-.8,0s-.57,0-.77,0a2.22,2.22,0,0,1-.5-.11.56.56,0,0,1-.25-.18.38.38,0,0,1-.07-.24V379.46a.42.42,0,0,1,.29-.43,1.35,1.35,0,0,1,.45-.11,6.83,6.83,0,0,1,.72,0,6.67,6.67,0,0,1,.7,0,1.12,1.12,0,0,1,.44.11.51.51,0,0,1,.22.18.41.41,0,0,1,.07.25v2.4a12.77,12.77,0,0,1,1.35-1.61,6.52,6.52,0,0,1,1.19-1,3.63,3.63,0,0,1,1.11-.5,4.71,4.71,0,0,1,1.12-.14l.57,0a6.06,6.06,0,0,1,.67.1,4.77,4.77,0,0,1,.63.17,1.44,1.44,0,0,1,.39.18.61.61,0,0,1,.16.17,1.05,1.05,0,0,1,.06.21,1.69,1.69,0,0,1,0,.38C642.59,380,642.59,380.26,642.59,380.54Z"/><path class="cls-4" d="M658.56,396a.36.36,0,0,1-.16.33,1,1,0,0,1-.42.17,4.14,4.14,0,0,1-.8,0,4.4,4.4,0,0,1-.8,0,1,1,0,0,1-.44-.17.39.39,0,0,1-.13-.33v-1.65a8.84,8.84,0,0,1-2.55,1.8,7.07,7.07,0,0,1-3,.64,8.36,8.36,0,0,1-2.48-.34,5.26,5.26,0,0,1-1.9-1,4.31,4.31,0,0,1-1.22-1.58,5,5,0,0,1-.44-2.12,4.7,4.7,0,0,1,.6-2.42,4.81,4.81,0,0,1,1.73-1.71,8.77,8.77,0,0,1,2.75-1,18.38,18.38,0,0,1,3.66-.34h2.4V385a6.15,6.15,0,0,0-.21-1.69,2.82,2.82,0,0,0-.69-1.22,3,3,0,0,0-1.23-.73,5.85,5.85,0,0,0-1.86-.25,7.63,7.63,0,0,0-2.12.27,11.21,11.21,0,0,0-1.65.58c-.47.22-.86.41-1.18.59a1.67,1.67,0,0,1-.71.27.5.5,0,0,1-.27-.08.62.62,0,0,1-.2-.22,1.15,1.15,0,0,1-.13-.37,3.91,3.91,0,0,1,0-.51,2.76,2.76,0,0,1,.07-.72,1.12,1.12,0,0,1,.33-.51,4.21,4.21,0,0,1,.9-.56,10.24,10.24,0,0,1,1.47-.58,13.11,13.11,0,0,1,1.82-.44,11.19,11.19,0,0,1,2-.18,11,11,0,0,1,3.2.41,5.16,5.16,0,0,1,2.13,1.18,4.58,4.58,0,0,1,1.18,1.93,8.77,8.77,0,0,1,.37,2.7Zm-3.18-7.54h-2.73a10.91,10.91,0,0,0-2.29.22,4.83,4.83,0,0,0-1.61.62,2.62,2.62,0,0,0-1.24,2.32,2.59,2.59,0,0,0,.87,2,3.55,3.55,0,0,0,2.41.76,4.68,4.68,0,0,0,2.33-.61,9.84,9.84,0,0,0,2.26-1.85Z"/><path class="cls-4" d="M677,373.88a2,2,0,0,1-.42,1.45,2.38,2.38,0,0,1-1.57.39,2.35,2.35,0,0,1-1.54-.38,1.88,1.88,0,0,1-.42-1.42,1.9,1.9,0,0,1,.43-1.45,3.33,3.33,0,0,1,3.11,0A1.87,1.87,0,0,1,677,373.88ZM676.6,396a.38.38,0,0,1-.08.24.62.62,0,0,1-.25.18,2.12,2.12,0,0,1-.49.11c-.2,0-.47,0-.79,0s-.57,0-.78,0a2.25,2.25,0,0,1-.49-.11.51.51,0,0,1-.25-.18.38.38,0,0,1-.07-.24V379.46a.4.4,0,0,1,.07-.24.45.45,0,0,1,.25-.18,1.79,1.79,0,0,1,.49-.11,7.72,7.72,0,0,1,1.57,0,1.7,1.7,0,0,1,.49.11.54.54,0,0,1,.25.18.41.41,0,0,1,.08.24Z"/><path class="cls-4" d="M697.52,396a.38.38,0,0,1-.08.24.56.56,0,0,1-.25.18,2.14,2.14,0,0,1-.48.11q-.32,0-.78,0c-.32,0-.59,0-.79,0a2.12,2.12,0,0,1-.49-.11.62.62,0,0,1-.25-.18.38.38,0,0,1-.08-.24V386.3a8.75,8.75,0,0,0-.23-2.27,4.35,4.35,0,0,0-.68-1.49,2.81,2.81,0,0,0-1.15-1,3.7,3.7,0,0,0-1.64-.33,4.25,4.25,0,0,0-2.4.8,12.85,12.85,0,0,0-2.52,2.37V396a.33.33,0,0,1-.08.24.56.56,0,0,1-.25.18,2,2,0,0,1-.48.11c-.21,0-.47,0-.8,0s-.56,0-.77,0a2.36,2.36,0,0,1-.5-.11.56.56,0,0,1-.25-.18.45.45,0,0,1-.07-.24V379.46a.49.49,0,0,1,.06-.25.47.47,0,0,1,.24-.18,1.23,1.23,0,0,1,.44-.11,6.83,6.83,0,0,1,.72,0,7,7,0,0,1,.71,0,1.12,1.12,0,0,1,.43.11.51.51,0,0,1,.22.18.41.41,0,0,1,.07.25v2.18a10.46,10.46,0,0,1,2.94-2.28,6.49,6.49,0,0,1,2.95-.73,7,7,0,0,1,2.94.56,5.37,5.37,0,0,1,1.93,1.5,5.72,5.72,0,0,1,1.05,2.19,12.54,12.54,0,0,1,.32,3Z"/><path class="cls-4" d="M714.3,391.47a5.11,5.11,0,0,1-.49,2.26,4.71,4.71,0,0,1-1.41,1.67,6.5,6.5,0,0,1-2.17,1,10.05,10.05,0,0,1-2.77.35,11.16,11.16,0,0,1-1.77-.13,12.1,12.1,0,0,1-1.51-.35,8.29,8.29,0,0,1-1.14-.44,3.57,3.57,0,0,1-.68-.42,1.08,1.08,0,0,1-.31-.51,3.56,3.56,0,0,1-.09-.9,3.34,3.34,0,0,1,0-.59,1.63,1.63,0,0,1,.09-.38.41.41,0,0,1,.17-.21.48.48,0,0,1,.24-.07,1.53,1.53,0,0,1,.63.25,10.51,10.51,0,0,0,1,.54,8.4,8.4,0,0,0,1.44.54,6.53,6.53,0,0,0,1.92.25,6.08,6.08,0,0,0,1.47-.16,3.7,3.7,0,0,0,1.14-.49,2.1,2.1,0,0,0,.75-.82,2.52,2.52,0,0,0,.26-1.17,1.77,1.77,0,0,0-.38-1.17,3.63,3.63,0,0,0-1-.85,9.09,9.09,0,0,0-1.4-.65l-1.6-.6a16.32,16.32,0,0,1-1.61-.7,6.31,6.31,0,0,1-1.4-1,4.52,4.52,0,0,1-1-1.36,4.39,4.39,0,0,1-.38-1.89,4.57,4.57,0,0,1,.4-1.86,4.37,4.37,0,0,1,1.19-1.56,5.81,5.81,0,0,1,2-1.07,8.61,8.61,0,0,1,2.78-.41,9.3,9.3,0,0,1,1.39.11,10.87,10.87,0,0,1,1.26.28,6.86,6.86,0,0,1,1,.35,4.53,4.53,0,0,1,.6.34,1,1,0,0,1,.27.26.69.69,0,0,1,.1.25c0,.09,0,.2.06.34a3.38,3.38,0,0,1,0,.49,4.16,4.16,0,0,1,0,.54,1.16,1.16,0,0,1-.1.38.45.45,0,0,1-.16.21.44.44,0,0,1-.22.07,1.1,1.1,0,0,1-.5-.21,9.39,9.39,0,0,0-.85-.43,11.5,11.5,0,0,0-1.23-.43,6.08,6.08,0,0,0-1.62-.2,5.55,5.55,0,0,0-1.43.17,2.86,2.86,0,0,0-1,.5,2,2,0,0,0-.6.76,2.17,2.17,0,0,0-.21.95,1.89,1.89,0,0,0,.39,1.21,3.89,3.89,0,0,0,1,.85,9.27,9.27,0,0,0,1.41.66l1.62.6c.55.21,1.09.44,1.63.7a5.94,5.94,0,0,1,1.42.94,4,4,0,0,1,1,1.32A4.12,4.12,0,0,1,714.3,391.47Z"/><path class="cls-4" d="M733.6,379a1,1,0,0,1,.79.25,1.09,1.09,0,0,1,.21.72v16a.38.38,0,0,1-.07.24.64.64,0,0,1-.27.18,2.12,2.12,0,0,1-.49.11q-.32,0-.75,0c-.33,0-.59,0-.8,0a2.12,2.12,0,0,1-.49-.11.54.54,0,0,1-.26-.18.33.33,0,0,1-.08-.24V381.49h-9v9.21a5.07,5.07,0,0,0,.53,2.58,2.06,2.06,0,0,0,1.91.87,3.7,3.7,0,0,0,.79-.08l.62-.18.47-.17a.8.8,0,0,1,.35-.08.39.39,0,0,1,.18,0,.34.34,0,0,1,.14.18,1.71,1.71,0,0,1,.08.34,2.92,2.92,0,0,1,0,.56,3.65,3.65,0,0,1-.07.83,1.05,1.05,0,0,1-.24.46,1.4,1.4,0,0,1-.46.28,3.3,3.3,0,0,1-.71.21c-.26.06-.54.1-.84.14a6.77,6.77,0,0,1-.89.06,7.25,7.25,0,0,1-2.33-.34,3.88,3.88,0,0,1-1.59-1,4.23,4.23,0,0,1-.9-1.74,10.11,10.11,0,0,1-.28-2.49v-9.65h-2.44a.5.5,0,0,1-.46-.29,1.9,1.9,0,0,1-.18-.95,3.17,3.17,0,0,1,0-.59,1.19,1.19,0,0,1,.13-.39.46.46,0,0,1,.2-.23.64.64,0,0,1,.28-.06h2.42v-3.92a.4.4,0,0,1,.07-.24.53.53,0,0,1,.25-.2,2.19,2.19,0,0,1,.49-.12q.32,0,.78,0c.32,0,.59,0,.79,0a2.05,2.05,0,0,1,.49.12.58.58,0,0,1,.25.2.41.41,0,0,1,.08.24V379Zm1.37-5.1a2,2,0,0,1-.42,1.45,2.38,2.38,0,0,1-1.57.39,2.33,2.33,0,0,1-1.54-.38,1.88,1.88,0,0,1-.42-1.42,1.9,1.9,0,0,1,.43-1.45,2.34,2.34,0,0,1,1.57-.39,2.37,2.37,0,0,1,1.54.38A1.91,1.91,0,0,1,735,373.88Z"/><path class="cls-4" d="M749.6,394.76a3.72,3.72,0,0,1-.08.84,1,1,0,0,1-.23.46,1.35,1.35,0,0,1-.47.27,3.21,3.21,0,0,1-.7.21c-.27.06-.55.1-.84.14a6.8,6.8,0,0,1-.9.06,7.19,7.19,0,0,1-2.32-.34,3.76,3.76,0,0,1-1.59-1,4.23,4.23,0,0,1-.9-1.74,9.65,9.65,0,0,1-.28-2.49v-9.65h-2.44a.52.52,0,0,1-.47-.29,2,2,0,0,1-.17-.95,2.49,2.49,0,0,1,0-.59,1.5,1.5,0,0,1,.12-.39.47.47,0,0,1,.21-.23.61.61,0,0,1,.28-.06h2.42v-3.92a.4.4,0,0,1,.07-.24.53.53,0,0,1,.25-.2,2.19,2.19,0,0,1,.49-.12q.31,0,.78,0c.32,0,.58,0,.79,0a1.84,1.84,0,0,1,.48.12.62.62,0,0,1,.26.2.41.41,0,0,1,.08.24V379H749a.49.49,0,0,1,.48.29,1.5,1.5,0,0,1,.12.39,3.27,3.27,0,0,1,0,.59,2,2,0,0,1-.17.95.53.53,0,0,1-.47.29h-4.47v9.21a5,5,0,0,0,.53,2.58,2,2,0,0,0,1.91.87,3.77,3.77,0,0,0,.79-.08l.62-.18.47-.17a.76.76,0,0,1,.34-.08.41.41,0,0,1,.19,0,.28.28,0,0,1,.13.18,1.63,1.63,0,0,1,.09.34A2.92,2.92,0,0,1,749.6,394.76Z"/><path class="cls-4" d="M768.76,396a.38.38,0,0,1-.07.24.47.47,0,0,1-.24.18,2.11,2.11,0,0,1-.45.11,6.73,6.73,0,0,1-.69,0,7.18,7.18,0,0,1-.73,0,1.75,1.75,0,0,1-.44-.11.49.49,0,0,1-.23-.18.45.45,0,0,1,0-.24v-2.19a10.93,10.93,0,0,1-3,2.28,6.69,6.69,0,0,1-2.94.71,6.92,6.92,0,0,1-2.94-.55,5.06,5.06,0,0,1-1.93-1.49,5.91,5.91,0,0,1-1.05-2.2,12.28,12.28,0,0,1-.32-3.06v-10a.49.49,0,0,1,.06-.25.58.58,0,0,1,.27-.18,1.55,1.55,0,0,1,.5-.11c.21,0,.47,0,.77,0s.57,0,.78,0a1.42,1.42,0,0,1,.49.11.54.54,0,0,1,.26.18.36.36,0,0,1,.08.25v9.61a9.6,9.6,0,0,0,.23,2.32,4.16,4.16,0,0,0,.67,1.49,3.26,3.26,0,0,0,1.16.95,3.58,3.58,0,0,0,1.62.34,4.27,4.27,0,0,0,2.4-.81,13.44,13.44,0,0,0,2.52-2.37V379.46a.49.49,0,0,1,.07-.25.54.54,0,0,1,.26-.18,1.61,1.61,0,0,1,.5-.11q.3,0,.78,0t.78,0a1.36,1.36,0,0,1,.48.11.6.6,0,0,1,.26.18.37.37,0,0,1,.09.25Z"/><path class="cls-4" d="M787.21,393.45c0,.21,0,.39,0,.54a2.53,2.53,0,0,1-.07.39,1.11,1.11,0,0,1-.12.27,1.61,1.61,0,0,1-.31.35,4,4,0,0,1-.82.57,8,8,0,0,1-1.31.61,11,11,0,0,1-1.58.43,9.22,9.22,0,0,1-1.76.16,8.87,8.87,0,0,1-3.33-.58,6.48,6.48,0,0,1-2.44-1.72A7.74,7.74,0,0,1,774,391.7a12.78,12.78,0,0,1-.51-3.79,12.44,12.44,0,0,1,.63-4.19,7.82,7.82,0,0,1,1.72-2.87,6.9,6.9,0,0,1,2.58-1.66,9.32,9.32,0,0,1,3.21-.54,8.53,8.53,0,0,1,1.61.15,9.27,9.27,0,0,1,1.45.38,7.08,7.08,0,0,1,1.17.55,5.89,5.89,0,0,1,.75.53,3.79,3.79,0,0,1,.32.35,1.8,1.8,0,0,1,.14.31,1.41,1.41,0,0,1,.08.39c0,.15,0,.33,0,.55a2,2,0,0,1-.18,1,.49.49,0,0,1-.42.28,1.12,1.12,0,0,1-.67-.3,11.59,11.59,0,0,0-1-.67,7.74,7.74,0,0,0-1.41-.67,5.61,5.61,0,0,0-1.94-.3,4.12,4.12,0,0,0-3.54,1.68,8.16,8.16,0,0,0-1.23,4.87,11.17,11.17,0,0,0,.32,2.8,5.71,5.71,0,0,0,.94,2,3.88,3.88,0,0,0,1.52,1.21,5.75,5.75,0,0,0,4,.06,8.51,8.51,0,0,0,1.45-.72c.4-.27.75-.51,1-.72a1.3,1.3,0,0,1,.65-.32.35.35,0,0,1,.23.07.55.55,0,0,1,.17.25,2.06,2.06,0,0,1,.1.44A5.78,5.78,0,0,1,787.21,393.45Z"/><path class="cls-4" d="M795,373.88a2,2,0,0,1-.42,1.45,2.38,2.38,0,0,1-1.57.39,2.33,2.33,0,0,1-1.54-.38,1.88,1.88,0,0,1-.42-1.42,1.9,1.9,0,0,1,.43-1.45,3.33,3.33,0,0,1,3.11,0A1.91,1.91,0,0,1,795,373.88ZM794.65,396a.38.38,0,0,1-.08.24.62.62,0,0,1-.25.18,2.12,2.12,0,0,1-.49.11c-.21,0-.47,0-.79,0s-.57,0-.78,0a2.25,2.25,0,0,1-.49-.11.51.51,0,0,1-.25-.18.38.38,0,0,1-.07-.24V379.46a.4.4,0,0,1,.07-.24.45.45,0,0,1,.25-.18,1.79,1.79,0,0,1,.49-.11,5.75,5.75,0,0,1,.78,0,5.82,5.82,0,0,1,.79,0,1.7,1.7,0,0,1,.49.11.54.54,0,0,1,.25.18.41.41,0,0,1,.08.24Z"/><path class="cls-4" d="M816.77,387.53a11.88,11.88,0,0,1-.56,3.71,8.09,8.09,0,0,1-1.68,2.93,7.56,7.56,0,0,1-2.79,1.92,10.3,10.3,0,0,1-3.88.68,10.69,10.69,0,0,1-3.75-.6,6.89,6.89,0,0,1-2.66-1.76,7.39,7.39,0,0,1-1.59-2.81,12.33,12.33,0,0,1-.53-3.74,11.94,11.94,0,0,1,.56-3.72,7.87,7.87,0,0,1,1.66-2.92,7.55,7.55,0,0,1,2.78-1.91,10.34,10.34,0,0,1,3.9-.68,10.46,10.46,0,0,1,3.75.61,6.85,6.85,0,0,1,2.66,1.76,7.5,7.5,0,0,1,1.6,2.8A12.31,12.31,0,0,1,816.77,387.53Zm-3.31.2a11.41,11.41,0,0,0-.27-2.53,5.78,5.78,0,0,0-.87-2.09,4.13,4.13,0,0,0-1.64-1.42,6.52,6.52,0,0,0-5-.05A4.41,4.41,0,0,0,804,383a5.72,5.72,0,0,0-1,2.06,9.83,9.83,0,0,0-.32,2.61,12.24,12.24,0,0,0,.26,2.55,6,6,0,0,0,.88,2.08,4.38,4.38,0,0,0,1.65,1.41,5.67,5.67,0,0,0,2.58.52,6,6,0,0,0,2.45-.47,4.59,4.59,0,0,0,1.7-1.34,5.79,5.79,0,0,0,1-2.06A10.7,10.7,0,0,0,813.46,387.73Z"/><path class="cls-4" d="M836.49,396a.38.38,0,0,1-.07.24.66.66,0,0,1-.26.18,1.9,1.9,0,0,1-.48.11c-.21,0-.46,0-.78,0s-.58,0-.79,0a1.9,1.9,0,0,1-.48-.11.66.66,0,0,1-.26-.18.38.38,0,0,1-.07-.24V386.3a9.21,9.21,0,0,0-.23-2.27,4.76,4.76,0,0,0-.68-1.49,2.9,2.9,0,0,0-1.16-1,3.65,3.65,0,0,0-1.63-.33,4.28,4.28,0,0,0-2.41.8,12.56,12.56,0,0,0-2.51,2.37V396a.38.38,0,0,1-.08.24.62.62,0,0,1-.25.18,2.12,2.12,0,0,1-.49.11c-.21,0-.47,0-.79,0s-.57,0-.78,0a2.25,2.25,0,0,1-.49-.11.51.51,0,0,1-.25-.18.38.38,0,0,1-.07-.24V379.46a.49.49,0,0,1,.06-.25.44.44,0,0,1,.23-.18,1.29,1.29,0,0,1,.44-.11,7,7,0,0,1,.72,0,6.88,6.88,0,0,1,.71,0,1.07,1.07,0,0,1,.43.11.54.54,0,0,1,.23.18.49.49,0,0,1,.07.25v2.18a10.43,10.43,0,0,1,2.93-2.28,6.53,6.53,0,0,1,3-.73,6.9,6.9,0,0,1,2.93.56,5.21,5.21,0,0,1,1.93,1.5,5.72,5.72,0,0,1,1,2.19,12.05,12.05,0,0,1,.32,3Z"/><path class="cls-4" d="M857.21,387a1.23,1.23,0,0,1-.38,1,1.35,1.35,0,0,1-.87.31H844.48a9.41,9.41,0,0,0,.29,2.47,4.59,4.59,0,0,0,1,1.89,4.4,4.4,0,0,0,1.77,1.21,7.47,7.47,0,0,0,2.67.43,11.36,11.36,0,0,0,2.22-.2,13.55,13.55,0,0,0,1.68-.43c.48-.16.87-.3,1.17-.43a2,2,0,0,1,.69-.19.51.51,0,0,1,.25.06.43.43,0,0,1,.16.19,1.34,1.34,0,0,1,.09.36,4.5,4.5,0,0,1,0,.56c0,.16,0,.3,0,.41a2.69,2.69,0,0,1-.05.32.85.85,0,0,1-.09.24.91.91,0,0,1-.18.21,2.61,2.61,0,0,1-.63.33,8.15,8.15,0,0,1-1.35.45c-.56.15-1.2.28-1.93.4a15.7,15.7,0,0,1-2.34.17,11.37,11.37,0,0,1-3.77-.57,7.07,7.07,0,0,1-2.72-1.68,7.14,7.14,0,0,1-1.66-2.81,12.24,12.24,0,0,1-.57-3.93,12,12,0,0,1,.58-3.82,8.05,8.05,0,0,1,1.68-2.88,7.24,7.24,0,0,1,2.65-1.81,8.89,8.89,0,0,1,3.46-.64,8.72,8.72,0,0,1,3.5.63,6.55,6.55,0,0,1,2.37,1.67,6.68,6.68,0,0,1,1.37,2.48,10.34,10.34,0,0,1,.44,3Zm-3.22-.9a5.32,5.32,0,0,0-1.12-3.74,4.37,4.37,0,0,0-3.5-1.36,4.9,4.9,0,0,0-2.09.42,4.54,4.54,0,0,0-1.5,1.12,5,5,0,0,0-.93,1.62,6.36,6.36,0,0,0-.37,1.94Z"/><path class="cls-4" d="M873,391.47a5,5,0,0,1-.5,2.26,4.78,4.78,0,0,1-1.4,1.67,6.5,6.5,0,0,1-2.17,1,10.1,10.1,0,0,1-2.77.35,11.29,11.29,0,0,1-1.78-.13,12.54,12.54,0,0,1-1.51-.35,8.64,8.64,0,0,1-1.13-.44,3.27,3.27,0,0,1-.68-.42,1,1,0,0,1-.31-.51,3.49,3.49,0,0,1-.1-.9,4.69,4.69,0,0,1,0-.59,2.28,2.28,0,0,1,.1-.38.39.39,0,0,1,.16-.21.52.52,0,0,1,.25-.07,1.53,1.53,0,0,1,.63.25,10.23,10.23,0,0,0,1,.54,8.87,8.87,0,0,0,1.45.54,6.5,6.5,0,0,0,1.91.25,6.1,6.1,0,0,0,1.48-.16,3.7,3.7,0,0,0,1.14-.49,2.27,2.27,0,0,0,.75-.82,2.52,2.52,0,0,0,.26-1.17,1.83,1.83,0,0,0-.38-1.17,3.54,3.54,0,0,0-1-.85,9,9,0,0,0-1.39-.65l-1.6-.6a15.35,15.35,0,0,1-1.61-.7,6.31,6.31,0,0,1-1.4-1,4.18,4.18,0,0,1-1.38-3.25,4.41,4.41,0,0,1,.4-1.86,4.25,4.25,0,0,1,1.19-1.56,5.85,5.85,0,0,1,2-1.07,8.7,8.7,0,0,1,2.78-.41,9.43,9.43,0,0,1,1.4.11,11.89,11.89,0,0,1,1.26.28,8,8,0,0,1,1,.35,6.39,6.39,0,0,1,.6.34,1.35,1.35,0,0,1,.27.26.69.69,0,0,1,.1.25,2.27,2.27,0,0,1,.05.34,3.38,3.38,0,0,1,0,.49,4.16,4.16,0,0,1,0,.54,1.18,1.18,0,0,1-.09.38.46.46,0,0,1-.17.21.38.38,0,0,1-.21.07,1.06,1.06,0,0,1-.5-.21c-.22-.13-.51-.27-.86-.43a11.5,11.5,0,0,0-1.23-.43,6.06,6.06,0,0,0-1.61-.2,5.63,5.63,0,0,0-1.44.17,3,3,0,0,0-1,.5,2.2,2.2,0,0,0-.6.76,2.31,2.31,0,0,0-.2.95,1.89,1.89,0,0,0,.39,1.21,3.73,3.73,0,0,0,1,.85,9.27,9.27,0,0,0,1.41.66l1.62.6c.55.21,1.09.44,1.63.7a6.15,6.15,0,0,1,1.42.94,4,4,0,0,1,1.38,3.15Z"/></g></g></svg>