<svg xmlns="http://www.w3.org/2000/svg" viewBox="0 0 159.57 159.61"><defs><style>.cls-1{fill:#fff;}.cls-2{fill:none;}</style></defs><title>Recurso 3</title><g id="Capa_2" data-name="Capa 2"><g id="Capa_1-2" data-name="Capa 1"><path class="cls-1" d="M80.32,0a79.91,79.91,0,0,1,79.24,81.63c-.66,43.2-37.33,78.52-80.68,78A79.8,79.8,0,0,1,.07,76.26C1.76,33.15,37.7-.26,80.32,0ZM9.93,79.3c.13,39.32,31.13,70.48,70,70.37,38.41-.11,69.93-31.62,69.75-69.69-.19-39-31.52-70.25-70.2-70.06C41.14,10.1,9.8,41.38,9.93,79.3Z"/><path class="cls-2" d="M9.93,79.3C9.8,41.38,41.14,10.1,79.46,9.92c38.68-.19,70,31.08,70.2,70.06.18,38.07-31.34,69.58-69.75,69.69C41.06,149.78,10.06,118.62,9.93,79.3Zm78.61,36.8a30.11,30.11,0,0,1-2.86,1.25,16.84,16.84,0,0,1-2.92.62,3.12,3.12,0,0,1-3.87-3.37,11.08,11.08,0,0,1,.23-2.37c1.75-8.25,3.53-16.5,5.29-24.74,1.52-7.14,3-14.27,4.58-21.65-.82.08-1.46.12-2.09.2-5.81.73-11.6,1.5-17.41,2.19-3.5.41-3.51.36-3.84,4.15,1.28.23,2.57.44,3.86.7,3.2.66,3.93,1.72,3.26,4.87-2,9.36-4.06,18.69-5.91,28.07a85.07,85.07,0,0,0-1.74,13c-.15,3.51,2.47,5.86,5.95,6.36,5.33.78,10.1-.71,14.58-3.51A5.84,5.84,0,0,0,88.54,116.1Zm-9-61.36a9.88,9.88,0,1,0-9.67-10.28A9.9,9.9,0,0,0,79.52,54.74Z"/><path class="cls-1" d="M88.54,116.1a5.84,5.84,0,0,1-2.89,5.74c-4.48,2.8-9.25,4.29-14.58,3.51-3.48-.5-6.1-2.85-5.95-6.36a85.07,85.07,0,0,1,1.74-13C68.71,96.64,70.8,87.31,72.77,78c.67-3.15-.06-4.21-3.26-4.87-1.29-.26-2.58-.47-3.86-.7.33-3.79.34-3.74,3.84-4.15,5.81-.69,11.6-1.46,17.41-2.19.63-.08,1.27-.12,2.09-.2-1.56,7.38-3.06,14.51-4.58,21.65-1.76,8.24-3.54,16.49-5.29,24.74a11.08,11.08,0,0,0-.23,2.37A3.12,3.12,0,0,0,82.76,118a16.84,16.84,0,0,0,2.92-.62A30.11,30.11,0,0,0,88.54,116.1Z"/><path class="cls-1" d="M79.52,54.74a9.87,9.87,0,1,1,10.21-9.57A9.83,9.83,0,0,1,79.52,54.74Z"/></g></g></svg>