<svg xmlns="http://www.w3.org/2000/svg" viewBox="0 0 64.78 95.46"><defs><style>.cls-1{fill:#fff;}.cls-2{fill:#09f;}</style></defs><title>Recurso 7</title><g id="Capa_2" data-name="Capa 2"><g id="Capa_1-2" data-name="Capa 1"><rect class="cls-1" x="10.78" y="10" width="43" height="45"/><path class="cls-2" d="M64.69,31.18A33.53,33.53,0,0,0,60.51,16.5l-.12-.21-.09-.15a36.38,36.38,0,0,0-4.07-5.34l0,0A31.89,31.89,0,0,0,35.54.12,32.75,32.75,0,0,0,10.22,9.25l-.39.38C.94,18.2-2.2,31,1.56,44.46c2.59,9.3,8.07,16.94,13.87,24.39,5.21,6.68,10.62,13.21,14.41,20.86.86,1.72,1.63,3.49,2.67,5.75C36,86.13,41.58,78.82,47.25,71.53c2.57-3.3,5.14-6.61,7.56-10C61.25,52.43,65.45,42.54,64.69,31.18Zm-12.56,9a.59.59,0,0,1-.59.58h-12v12a.58.58,0,0,1-.58.58h-13a.59.59,0,0,1-.59-.58v-12h-12a.58.58,0,0,1-.58-.58V27.14a.58.58,0,0,1,.58-.58h12v-12a.59.59,0,0,1,.59-.58h13a.58.58,0,0,1,.58.58v12h12a.59.59,0,0,1,.59.58Z"/></g></g></svg>