<svg xmlns="http://www.w3.org/2000/svg" viewBox="0 0 397.05 585.06"><defs><style>.cls-1{fill:#09f;}.cls-2{fill:#fff;}</style></defs><title>logo-azul_1</title><g id="Capa_2" data-name="Capa 2"><g id="Capa_1-2" data-name="Capa 1"><path class="cls-1" d="M396.52,191.11c-2.25-33.9-10.76-64-25.67-90l-.74-1.27a8.14,8.14,0,0,0-.55-.91,221.05,221.05,0,0,0-24.93-32.72.4.4,0,0,0-.18-.16C319.73,39.12,277.84,6.1,217.82.74c-56.65-5-113.31,16-155.17,56-.81.74-1.61,1.51-2.38,2.28C5.79,111.52-13.5,189.85,9.58,272.51c15.87,57,49.43,103.81,85,149.49,31.9,40.91,65.1,81,88.32,127.86,5.25,10.55,10,21.39,16.34,35.2,21.14-57.14,55.63-101.95,90.36-146.65C305.37,418.18,321.13,397.89,336,377,375.38,321.35,401.14,260.73,396.52,191.11Z"/><rect class="cls-2" x="162.53" y="84.53" width="72" height="244" rx="7.53"/><rect class="cls-2" x="76.53" y="170.53" width="244" height="72" rx="7.53"/></g></g></svg>