<svg xmlns="http://www.w3.org/2000/svg" viewBox="0 0 57.63 57.81"><defs><style>.cls-1{fill:#fff;}</style></defs><title>sort</title><g id="Capa_2" data-name="Capa 2"><g id="Capa_1-2" data-name="Capa 1"><path class="cls-1" d="M12.84,11.06V26.94c0,7.38,0,14.75,0,22.13,0,1.82,0,3.64,0,5.47a3.21,3.21,0,1,0,6.42-.15V11c.29.27.46.42.62.58l6.46,6.46a3.21,3.21,0,1,0,4.51-4.55L18.46,1.1a3.2,3.2,0,0,0-4.8,0Q7.34,7.39,1,13.7a3.23,3.23,0,1,0,4.59,4.54c.94-.93,1.86-1.88,2.8-2.81ZM38.51,46.79l-.6-.57c-2.2-2.2-4.38-4.41-6.6-6.58a3.14,3.14,0,0,0-4.53,0,3.18,3.18,0,0,0,0,4.49q6.34,6.38,12.71,12.71a3.14,3.14,0,0,0,4.45,0q6.38-6.33,12.71-12.71a3.19,3.19,0,0,0-4.5-4.53c-1.54,1.49-3,3-4.57,4.52L45,46.74c0-.26,0-.39,0-.52q0-10.44,0-20.86,0-11,0-22a3.21,3.21,0,1,0-6.41,0q0,18.92,0,37.82Z"/><path d="M12.84,11.06,8.43,15.43c-.94.93-1.86,1.88-2.8,2.81A3.23,3.23,0,1,1,1,13.7Q7.34,7.37,13.66,1.07a3.2,3.2,0,0,1,4.8,0L30.87,13.52a3.21,3.21,0,1,1-4.51,4.55L19.9,11.61c-.16-.16-.33-.31-.62-.58V54.39a3.21,3.21,0,1,1-6.42.15c0-1.83,0-3.65,0-5.47,0-7.38,0-14.75,0-22.13V11.06Z"/><path d="M38.51,46.79V41.2q0-18.9,0-37.82a3.21,3.21,0,1,1,6.41,0q0,11,0,22,0,10.43,0,20.86c0,.13,0,.26,0,.52l2.62-2.58c1.52-1.5,3-3,4.57-4.52a3.19,3.19,0,0,1,4.5,4.53Q50.35,50.55,44,56.88a3.14,3.14,0,0,1-4.45,0q-6.37-6.35-12.71-12.71a3.18,3.18,0,0,1,0-4.49,3.14,3.14,0,0,1,4.53,0c2.22,2.17,4.4,4.38,6.6,6.58Z"/></g></g></svg>