<svg id="Capa_1" data-name="Capa 1" xmlns="http://www.w3.org/2000/svg" viewBox="0 0 206.52 169.14"><defs><style>.cls-1{fill:#fff;}</style></defs><title>toggler-blanco</title><g id="Capa_1-2" data-name="Capa 1-2"><path class="cls-1" d="M103.17,0h91a33.52,33.52,0,0,1,3.75.06,9.36,9.36,0,0,1,8.53,9.34,9.37,9.37,0,0,1-8.28,9.19,21,21,0,0,1-2.63.09H10.94a23,23,0,0,1-2.63-.08A9.31,9.31,0,0,1,8.06.13,30,30,0,0,1,12.19,0Z" transform="translate(0 0.02)"/><path class="cls-1" d="M102.84,93.89H10.74C4.6,93.88.59,90.71.07,85.59a9.22,9.22,0,0,1,8-10.28l.17,0a21,21,0,0,1,2.63-.08h184.6c5.51,0,9.34,2.43,10.58,6.63a9.3,9.3,0,0,1-8.86,12c-4.51.18-9,0-13.54,0Z" transform="translate(0 0.02)"/><path class="cls-1" d="M103.05,169.08H12.44A35.54,35.54,0,0,1,8.31,169a9.31,9.31,0,0,1-.25-18.48,30,30,0,0,1,4.13-.11h182a33.7,33.7,0,0,1,3.76.06A9.3,9.3,0,0,1,198.2,169a33.46,33.46,0,0,1-4.13.1Z" transform="translate(0 0.02)"/></g></svg>