<svg xmlns="http://www.w3.org/2000/svg" viewBox="0 0 206.48 169.09"><defs><style>.cls-1{fill:#09f;}</style></defs><title>Recurso 2</title><g id="Capa_2" data-name="Capa 2"><g id="Capa_1-2" data-name="Capa 1"><path class="cls-1" d="M103.17,0h91a36.05,36.05,0,0,1,3.75.06,9.36,9.36,0,0,1,8.53,9.34,9.38,9.38,0,0,1-8.28,9.19,21,21,0,0,1-2.63.09H10.94a23,23,0,0,1-2.63-.08A9.31,9.31,0,0,1,8.06.13,30,30,0,0,1,12.19,0Z"/><path class="cls-1" d="M102.84,93.89q-46.05,0-92.1,0C4.6,93.88.59,90.71.07,85.59a9.22,9.22,0,0,1,8.19-10.3,21,21,0,0,1,2.63-.08h184.6c5.51,0,9.34,2.43,10.58,6.63a9.3,9.3,0,0,1-8.86,12c-4.51.18-9,0-13.54,0Z"/><path class="cls-1" d="M103.05,169.08H12.44A35.49,35.49,0,0,1,8.31,169a9.31,9.31,0,0,1-.25-18.48,29.91,29.91,0,0,1,4.13-.11q91,0,182,0a36.2,36.2,0,0,1,3.76.06,9.3,9.3,0,0,1,.25,18.52,33.41,33.41,0,0,1-4.13.1Z"/></g></g></svg>